<?xml version="1.0" encoding="UTF-8"?>
<svg width="375px" height="292px" viewBox="0 0 375 292" version="1.1" xmlns="http://www.w3.org/2000/svg" xmlns:xlink="http://www.w3.org/1999/xlink">
    <!-- Generator: Sketch 49.3 (51167) - http://www.bohemiancoding.com/sketch -->
    <title>Use Case_Deployment</title>
    <desc>Created with Sketch.</desc>
    <defs>
        <rect id="path-1" x="0" y="0" width="130" height="130" rx="2"></rect>
        <filter x="-5.8%" y="-3.5%" width="111.5%" height="111.5%" filterUnits="objectBoundingBox" id="filter-2">
            <feOffset dx="0" dy="3" in="SourceAlpha" result="shadowOffsetOuter1"></feOffset>
            <feGaussianBlur stdDeviation="2" in="shadowOffsetOuter1" result="shadowBlurOuter1"></feGaussianBlur>
            <feColorMatrix values="0 0 0 0 0   0 0 0 0 0   0 0 0 0 0  0 0 0 0.1 0" type="matrix" in="shadowBlurOuter1"></feColorMatrix>
        </filter>
        <rect id="path-3" x="0" y="0" width="129.589017" height="129.589017" rx="3"></rect>
        <filter x="-5.8%" y="-3.5%" width="111.6%" height="111.6%" filterUnits="objectBoundingBox" id="filter-4">
            <feOffset dx="0" dy="3" in="SourceAlpha" result="shadowOffsetOuter1"></feOffset>
            <feGaussianBlur stdDeviation="2" in="shadowOffsetOuter1" result="shadowBlurOuter1"></feGaussianBlur>
            <feColorMatrix values="0 0 0 0 0   0 0 0 0 0   0 0 0 0 0  0 0 0 0.1 0" type="matrix" in="shadowBlurOuter1"></feColorMatrix>
        </filter>
        <filter x="-57.2%" y="-41.4%" width="214.4%" height="215.0%" filterUnits="objectBoundingBox" id="filter-5">
            <feOffset dx="0" dy="19" in="SourceAlpha" result="shadowOffsetOuter1"></feOffset>
            <feGaussianBlur stdDeviation="18" in="shadowOffsetOuter1" result="shadowBlurOuter1"></feGaussianBlur>
            <feColorMatrix values="0 0 0 0 0   0 0 0 0 0   0 0 0 0 0  0 0 0 0.1 0" type="matrix" in="shadowBlurOuter1" result="shadowMatrixOuter1"></feColorMatrix>
            <feMerge>
                <feMergeNode in="shadowMatrixOuter1"></feMergeNode>
                <feMergeNode in="SourceGraphic"></feMergeNode>
            </feMerge>
        </filter>
        <rect id="path-6" x="0.479807344" y="0" width="180" height="180" rx="3"></rect>
        <filter x="-36.1%" y="-30.6%" width="172.2%" height="172.2%" filterUnits="objectBoundingBox" id="filter-7">
            <feOffset dx="0" dy="10" in="SourceAlpha" result="shadowOffsetOuter1"></feOffset>
            <feGaussianBlur stdDeviation="20" in="shadowOffsetOuter1" result="shadowBlurOuter1"></feGaussianBlur>
            <feColorMatrix values="0 0 0 0 0   0 0 0 0 0   0 0 0 0 0  0 0 0 0.15 0" type="matrix" in="shadowBlurOuter1"></feColorMatrix>
        </filter>
        <rect id="path-8" x="257" y="144" width="48" height="48" rx="3"></rect>
    </defs>
    <g id="Mobile" stroke="none" stroke-width="1" fill="none" fill-rule="evenodd" opacity="0.900000036">
        <g id="Homepage_Hero_3" transform="translate(0.000000, -875.000000)">
            <g id="Use-Case_Deployment" transform="translate(-16.000000, 905.000000)">
                <g id="Your-Own-Cloud" transform="translate(0.000000, 25.000000)">
                    <g id="Rectangle-4">
                        <use fill="black" fill-opacity="1" filter="url(#filter-2)" xlink:href="#path-1"></use>
                        <use fill="#FFFFFF" fill-rule="evenodd" xlink:href="#path-1"></use>
                    </g>
                    <path d="M31.7947683,89.9227528 L30.0625,87.0196629 L31.1032303,87.0196629 L32.2603581,89.0463483 L32.2877458,89.0463483 L33.5064958,87.0196629 L34.478757,87.0196629 L32.7191011,89.8953652 L32.7191011,91.7303371 L31.7947683,91.7303371 L31.7947683,89.9227528 Z M35.0157504,89.375 C35.0157504,89.0235235 35.0728074,88.6994397 35.1869232,88.4027388 C35.3010389,88.1060378 35.4630808,87.8481401 35.6730538,87.6290379 C35.8784621,87.4145003 36.129513,87.2456116 36.4262139,87.1223666 C36.7229148,86.9991216 37.0538455,86.9375 37.4190159,86.9375 C37.775057,86.9375 38.1002819,86.9991216 38.3947005,87.1223666 C38.6891191,87.2456116 38.9413111,87.4145003 39.1512841,87.6290379 C39.3612571,87.8481401 39.5244401,88.1060378 39.6408382,88.4027388 C39.7572362,88.6994397 39.8154344,89.0235235 39.8154344,89.375 C39.8154344,89.7264765 39.7572362,90.0505603 39.6408382,90.3472612 C39.5244401,90.6439622 39.3612571,90.8995776 39.1512841,91.1141152 C38.9413111,91.3332174 38.6891191,91.5043884 38.3947005,91.6276334 C38.1002819,91.7508784 37.775057,91.8125 37.4190159,91.8125 C37.0538455,91.8125 36.7229148,91.7508784 36.4262139,91.6276334 C36.129513,91.5043884 35.8784621,91.3332174 35.6730538,91.1141152 C35.4630808,90.8995776 35.3010389,90.6439622 35.1869232,90.3472612 C35.0728074,90.0505603 35.0157504,89.7264765 35.0157504,89.375 Z M35.960624,89.375 C35.960624,89.6169254 35.9959993,89.8383066 36.0667511,90.0391503 C36.1375029,90.239994 36.2367821,90.4134473 36.3645917,90.5595154 C36.4878367,90.7055836 36.6396083,90.8196976 36.8199112,90.901861 C37.0002141,90.9840243 37.1999136,91.0251053 37.4190159,91.0251053 C37.6381181,91.0251053 37.8366765,90.9840243 38.014697,90.901861 C38.1927176,90.8196976 38.3456304,90.7033013 38.47344,90.5526685 C38.596685,90.4066004 38.6936819,90.2331471 38.7644337,90.0323034 C38.8351854,89.8314597 38.8705608,89.6123607 38.8705608,89.375 C38.8705608,89.1376393 38.8351854,88.9185403 38.7644337,88.7176966 C38.6936819,88.5168529 38.596685,88.3411173 38.47344,88.1904846 C38.3456304,88.0444164 38.1927176,87.9303024 38.014697,87.848139 C37.8366765,87.7659757 37.6381181,87.7248947 37.4190159,87.7248947 C37.1999136,87.7248947 37.0002141,87.7659757 36.8199112,87.848139 C36.6396083,87.9303024 36.4878367,88.0444164 36.3645917,88.1904846 C36.2367821,88.3365527 36.1375029,88.5111472 36.0667511,88.7142732 C35.9959993,88.9173992 35.960624,89.1376393 35.960624,89.375 Z M41.098741,87.0196629 L42.0230738,87.0196629 L42.0230738,89.8268961 C42.0230738,90.2148896 42.1143651,90.5115861 42.2969502,90.7169944 C42.4795354,90.9224027 42.7579737,91.0251053 43.1322733,91.0251053 C43.5020083,91.0251053 43.7781642,90.9224027 43.9607494,90.7169944 C44.1433346,90.5115861 44.2346258,90.2148896 44.2346258,89.8268961 L44.2346258,87.0196629 L45.1589587,87.0196629 L45.1589587,89.8405899 C45.1589587,90.2057603 45.1087485,90.5138681 45.0083266,90.7649228 C44.9079048,91.0159774 44.7686857,91.2191003 44.5906651,91.3742978 C44.4126446,91.5294952 44.1992513,91.6413269 43.950479,91.7097963 C43.7017067,91.7782658 43.4289742,91.8125 43.1322733,91.8125 C42.8355724,91.8125 42.5628398,91.7782658 42.3140675,91.7097963 C42.0652952,91.6413269 41.851902,91.5294952 41.6738814,91.3742978 C41.4912962,91.2191003 41.3497948,91.0159774 41.249373,90.7649228 C41.1489511,90.5138681 41.098741,90.2057603 41.098741,89.8405899 L41.098741,87.0196629 Z M46.6682133,87.0196629 L48.6880518,87.0196629 C49.2586305,87.0196629 49.6911226,87.1486118 49.9855412,87.4065133 C50.2799598,87.6644149 50.4271669,88.0238741 50.4271669,88.4849017 C50.4271669,88.8226843 50.3438637,89.1159573 50.1772547,89.3647296 C50.0106457,89.6135019 49.7630183,89.7949432 49.434365,89.909059 L50.6051866,91.7303371 L49.6055377,91.7303371 L48.5237259,90.0186096 L47.5856992,90.0186096 L47.5856992,91.7303371 L46.6682133,91.7303371 L46.6682133,87.0196629 Z M47.5856992,87.7591292 L47.5856992,89.299684 L48.6469703,89.299684 C48.9299773,89.299684 49.1422294,89.2232276 49.2837329,89.0703125 C49.4252365,88.9173974 49.4959872,88.7245447 49.4959872,88.4917486 C49.4959872,88.2635171 49.4229542,88.0843581 49.276886,87.9542662 C49.1308179,87.8241742 48.9208481,87.7591292 48.6469703,87.7591292 L47.5856992,87.7591292 Z M53.6510835,89.375 C53.6510835,89.0235235 53.7081405,88.6994397 53.8222562,88.4027388 C53.936372,88.1060378 54.0984139,87.8481401 54.3083868,87.6290379 C54.5137952,87.4145003 54.764846,87.2456116 55.061547,87.1223666 C55.3582479,86.9991216 55.6891786,86.9375 56.0543489,86.9375 C56.41039,86.9375 56.735615,86.9991216 57.0300336,87.1223666 C57.3244522,87.2456116 57.5766442,87.4145003 57.7866172,87.6290379 C57.9965901,87.8481401 58.1597732,88.1060378 58.2761712,88.4027388 C58.3925693,88.6994397 58.4507675,89.0235235 58.4507675,89.375 C58.4507675,89.7264765 58.3925693,90.0505603 58.2761712,90.3472612 C58.1597732,90.6439622 57.9965901,90.8995776 57.7866172,91.1141152 C57.5766442,91.3332174 57.3244522,91.5043884 57.0300336,91.6276334 C56.735615,91.7508784 56.41039,91.8125 56.0543489,91.8125 C55.6891786,91.8125 55.3582479,91.7508784 55.061547,91.6276334 C54.764846,91.5043884 54.5137952,91.3332174 54.3083868,91.1141152 C54.0984139,90.8995776 53.936372,90.6439622 53.8222562,90.3472612 C53.7081405,90.0505603 53.6510835,89.7264765 53.6510835,89.375 Z M54.5959571,89.375 C54.5959571,89.6169254 54.6313324,89.8383066 54.7020842,90.0391503 C54.7728359,90.239994 54.8721151,90.4134473 54.9999248,90.5595154 C55.1231698,90.7055836 55.2749414,90.8196976 55.4552443,90.901861 C55.6355471,90.9840243 55.8352467,91.0251053 56.0543489,91.0251053 C56.2734511,91.0251053 56.4720095,90.9840243 56.6500301,90.901861 C56.8280506,90.8196976 56.9809634,90.7033013 57.1087731,90.5526685 C57.2320181,90.4066004 57.329015,90.2331471 57.3997668,90.0323034 C57.4705185,89.8314597 57.5058939,89.6123607 57.5058939,89.375 C57.5058939,89.1376393 57.4705185,88.9185403 57.3997668,88.7176966 C57.329015,88.5168529 57.2320181,88.3411173 57.1087731,88.1904846 C56.9809634,88.0444164 56.8280506,87.9303024 56.6500301,87.848139 C56.4720095,87.7659757 56.2734511,87.7248947 56.0543489,87.7248947 C55.8352467,87.7248947 55.6355471,87.7659757 55.4552443,87.848139 C55.2749414,87.9303024 55.1231698,88.0444164 54.9999248,88.1904846 C54.8721151,88.3365527 54.7728359,88.5111472 54.7020842,88.7142732 C54.6313324,88.9173992 54.5959571,89.1376393 54.5959571,89.375 Z M59.2274027,87.0196629 L60.2133577,87.0196629 L61.0555277,90.744382 L61.0829153,90.744382 L62.0483297,87.0196629 L63.0000502,87.0196629 L63.9860052,90.744382 L64.0133929,90.744382 L64.8281752,87.0196629 L65.7867426,87.0196629 L64.5953802,91.7303371 L63.4587931,91.7303371 L62.5207665,88.1836376 L62.4933788,88.1836376 L61.5690459,91.7303371 L60.4393058,91.7303371 L59.2274027,87.0196629 Z M66.8988764,87.0196629 L67.7273525,87.0196629 L70.0895365,90.1692416 L70.1169242,90.1692416 L70.0895365,87.0196629 L71.0070225,87.0196629 L71.0070225,91.7303371 L70.1922402,91.7303371 L67.8163624,88.5807584 L67.7889747,88.5807584 L67.8163624,91.7303371 L66.8988764,91.7303371 L66.8988764,87.0196629 Z M74.3473365,89.375 C74.3473365,89.0280882 74.4021112,88.7062866 74.5116623,88.4095857 C74.6212134,88.1128848 74.7786908,87.8549871 74.9840991,87.6358848 C75.1895074,87.4167826 75.4371349,87.2456116 75.7269889,87.1223666 C76.0168428,86.9991216 76.3397855,86.9375 76.6958266,86.9375 C77.2800992,86.9375 77.7559547,87.0858482 78.1234074,87.3825492 C78.4908601,87.6792501 78.7202293,88.0900606 78.8115219,88.614993 L77.8803421,88.614993 C77.8027434,88.3182921 77.6646654,88.0957697 77.466104,87.9474192 C77.2675426,87.7990688 77.0107861,87.7248947 76.6958266,87.7248947 C76.4812891,87.7248947 76.2872952,87.7648346 76.1138393,87.8447156 C75.9403834,87.9245966 75.7943174,88.0375695 75.675637,88.1836376 C75.552392,88.3297058 75.4576774,88.5043002 75.3914903,88.7074263 C75.3253031,88.9105523 75.2922101,89.1330746 75.2922101,89.375 C75.2922101,89.6123607 75.3253031,89.8314597 75.3914903,90.0323034 C75.4576774,90.2331471 75.552392,90.4066004 75.675637,90.5526685 C75.798882,90.7033013 75.9460891,90.8196976 76.1172627,90.901861 C76.2884363,90.9840243 76.4812891,91.0251053 76.6958266,91.0251053 C77.0290446,91.0251053 77.2903657,90.9509312 77.4797979,90.8025808 C77.66923,90.6542303 77.8027434,90.4317079 77.8803421,90.135007 L78.8115219,90.135007 C78.7658756,90.3951909 78.6837135,90.6291247 78.5650331,90.8368153 C78.4463527,91.044506 78.2957222,91.2191004 78.113137,91.3606039 C77.9305519,91.5066721 77.7194409,91.6185038 77.4797979,91.6961025 C77.2401548,91.7737012 76.9742691,91.8125 76.6821328,91.8125 C76.3169625,91.8125 75.9905963,91.7508784 75.7030247,91.6276334 C75.415453,91.5043884 75.171249,91.3332174 74.9704053,91.1141152 C74.7695616,90.8995776 74.6155077,90.6439622 74.5082389,90.3472612 C74.4009701,90.0505603 74.3473365,89.7264765 74.3473365,89.375 Z M80.1153692,87.0196629 L81.0328551,87.0196629 L81.0328551,90.9566362 L83.2854886,90.9566362 L83.2854886,91.7303371 L80.1153692,91.7303371 L80.1153692,87.0196629 Z M84.0826645,89.375 C84.0826645,89.0235235 84.1397215,88.6994397 84.2538373,88.4027388 C84.367953,88.1060378 84.5299949,87.8481401 84.7399679,87.6290379 C84.9453762,87.4145003 85.1964271,87.2456116 85.493128,87.1223666 C85.7898289,86.9991216 86.1207596,86.9375 86.48593,86.9375 C86.8419711,86.9375 87.1671961,86.9991216 87.4616147,87.1223666 C87.7560333,87.2456116 88.0082253,87.4145003 88.2181982,87.6290379 C88.4281712,87.8481401 88.5913543,88.1060378 88.7077523,88.4027388 C88.8241504,88.6994397 88.8823485,89.0235235 88.8823485,89.375 C88.8823485,89.7264765 88.8241504,90.0505603 88.7077523,90.3472612 C88.5913543,90.6439622 88.4281712,90.8995776 88.2181982,91.1141152 C88.0082253,91.3332174 87.7560333,91.5043884 87.4616147,91.6276334 C87.1671961,91.7508784 86.8419711,91.8125 86.48593,91.8125 C86.1207596,91.8125 85.7898289,91.7508784 85.493128,91.6276334 C85.1964271,91.5043884 84.9453762,91.3332174 84.7399679,91.1141152 C84.5299949,90.8995776 84.367953,90.6439622 84.2538373,90.3472612 C84.1397215,90.0505603 84.0826645,89.7264765 84.0826645,89.375 Z M85.0275381,89.375 C85.0275381,89.6169254 85.0629135,89.8383066 85.1336652,90.0391503 C85.204417,90.239994 85.3036962,90.4134473 85.4315058,90.5595154 C85.5547508,90.7055836 85.7065225,90.8196976 85.8868253,90.901861 C86.0671282,90.9840243 86.2668278,91.0251053 86.48593,91.0251053 C86.7050322,91.0251053 86.9035906,90.9840243 87.0816112,90.901861 C87.2596317,90.8196976 87.4125445,90.7033013 87.5403541,90.5526685 C87.6635991,90.4066004 87.7605961,90.2331471 87.8313478,90.0323034 C87.9020996,89.8314597 87.9374749,89.6123607 87.9374749,89.375 C87.9374749,89.1376393 87.9020996,88.9185403 87.8313478,88.7176966 C87.7605961,88.5168529 87.6635991,88.3411173 87.5403541,88.1904846 C87.4125445,88.0444164 87.2596317,87.9303024 87.0816112,87.848139 C86.9035906,87.7659757 86.7050322,87.7248947 86.48593,87.7248947 C86.2668278,87.7248947 86.0671282,87.7659757 85.8868253,87.848139 C85.7065225,87.9303024 85.5547508,88.0444164 85.4315058,88.1904846 C85.3036962,88.3365527 85.204417,88.5111472 85.1336652,88.7142732 C85.0629135,88.9173992 85.0275381,89.1376393 85.0275381,89.375 Z M90.1656551,87.0196629 L91.089988,87.0196629 L91.089988,89.8268961 C91.089988,90.2148896 91.1812792,90.5115861 91.3638644,90.7169944 C91.5464495,90.9224027 91.8248878,91.0251053 92.1991874,91.0251053 C92.5689224,91.0251053 92.8450783,90.9224027 93.0276635,90.7169944 C93.2102487,90.5115861 93.3015399,90.2148896 93.3015399,89.8268961 L93.3015399,87.0196629 L94.2258728,87.0196629 L94.2258728,89.8405899 C94.2258728,90.2057603 94.1756626,90.5138681 94.0752408,90.7649228 C93.9748189,91.0159774 93.8355998,91.2191003 93.6575793,91.3742978 C93.4795587,91.5294952 93.2661655,91.6413269 93.0173932,91.7097963 C92.7686208,91.7782658 92.4958883,91.8125 92.1991874,91.8125 C91.9024865,91.8125 91.629754,91.7782658 91.3809816,91.7097963 C91.1322093,91.6413269 90.9188161,91.5294952 90.7407955,91.3742978 C90.5582104,91.2191003 90.416709,91.0159774 90.3162871,90.7649228 C90.2158653,90.5138681 90.1656551,90.2057603 90.1656551,89.8405899 L90.1656551,87.0196629 Z M95.7351274,87.0196629 L97.3852327,87.0196629 C97.800614,87.0196629 98.1657789,87.0790022 98.4807384,87.1976826 C98.7956978,87.316363 99.0604423,87.4784049 99.2749799,87.6838132 C99.4849529,87.8937862 99.6435714,88.1425547 99.7508402,88.4301264 C99.858109,88.7176981 99.9117426,89.0326528 99.9117426,89.375 C99.9117426,89.7173472 99.858109,90.0323019 99.7508402,90.3198736 C99.6435714,90.6074453 99.4849529,90.8539316 99.2749799,91.0593399 C99.0604423,91.2693128 98.7956978,91.433637 98.4807384,91.5523174 C98.1657789,91.6709978 97.800614,91.7303371 97.3852327,91.7303371 L95.7351274,91.7303371 L95.7351274,87.0196629 Z M96.6526134,87.7796699 L96.6526134,90.9703301 L97.3509982,90.9703301 C97.6431345,90.9703301 97.8919031,90.9269667 98.0973114,90.8402388 C98.3027197,90.7535108 98.4716085,90.6371145 98.6039827,90.4910463 C98.7317924,90.3449782 98.8242247,90.1760894 98.8812826,89.984375 C98.9383405,89.7926606 98.966869,89.5895376 98.966869,89.375 C98.966869,89.1604624 98.9383405,88.9573394 98.8812826,88.765625 C98.8242247,88.5739106 98.7317924,88.4050218 98.6039827,88.2589537 C98.4716085,88.1128855 98.3027197,87.9964892 98.0973114,87.9097612 C97.8919031,87.8230333 97.6431345,87.7796699 97.3509982,87.7796699 L96.6526134,87.7796699 Z" id="YOUR-OWN-CLOUD" fill="#222228"></path>
                    <path d="M80.8242942,68.0542169 L50.7431926,68.0542169 C50.6983319,68.0542169 50.6534711,68.0496476 50.6105895,68.0411617 C50.4990974,68.0483421 50.3869456,68.0542169 50.2728146,68.0542169 C45.8487545,68.0542169 42.25,64.4927743 42.25,60.1153855 C42.25,56.5931084 44.5451543,53.555177 47.9004734,52.5362232 C47.8925568,52.4246018 47.8892582,52.3168968 47.8892582,52.2098447 C47.8892582,48.9434483 50.5749648,46.2860743 53.8761871,46.2860743 C54.5741674,46.2860743 55.2556547,46.4055289 55.9081145,46.6411742 C58.4526418,41.979836 63.4598914,39 68.8379018,39 C76.9332852,39 83.5198966,45.5164738 83.5198966,53.5271084 C83.5198966,53.8019192 83.5113203,54.0806464 83.493508,54.3704706 C86.0591461,55.521934 87.75,58.0827 87.75,60.8908609 C87.75,64.6703243 84.7964484,67.7787534 80.9991192,68.0300649 C80.943703,68.045731 80.8843285,68.0542169 80.8242942,68.0542169 Z M50.9186772,66.7487027 L80.6798163,66.7487027 C80.7161007,66.7408697 80.7537046,66.7356476 80.7926278,66.7336893 C83.9539902,66.5861662 86.4305666,64.0195255 86.4305666,60.8908609 C86.4305666,58.4593408 84.878913,56.2543274 82.5692449,55.4050905 C82.2901847,55.3026076 82.1153598,55.0277969 82.1424082,54.734709 C82.1819912,54.3071531 82.2004633,53.9122351 82.2004633,53.5277612 C82.2004633,46.2377703 76.2062775,40.3061669 68.8379018,40.3061669 C63.6736396,40.3061669 59.0648588,43.1639373 56.8092875,47.7652218 C56.7327604,47.9212308 56.5968587,48.0406853 56.4306101,48.0974752 C56.2650212,48.154265 56.0835992,48.1431682 55.9252671,48.0667956 C55.2767656,47.7521667 54.5873617,47.5922412 53.8768468,47.5922412 C51.3032921,47.5922412 49.2093513,49.6640921 49.2093513,52.2104974 C49.2093513,52.4246018 49.2291428,52.6504557 49.2713647,52.9226554 C49.324142,53.2607836 49.1037966,53.5812873 48.7666814,53.6576598 C45.7062557,54.3534989 43.5694334,57.0095674 43.5694334,60.1160382 C43.5694334,63.773436 46.5770817,66.7493555 50.2728146,66.7493555 C50.3816679,66.7493555 50.4892017,66.7415224 50.5960758,66.7343421 L50.7009707,66.7271618 C50.7715604,66.7206342 50.8487473,66.72912 50.9186772,66.7487027 Z" id="Shape" fill="#231F20" fill-rule="nonzero"></path>
                </g>
                <g id="On-Premise" transform="translate(274.000000, 25.000000)">
                    <g id="Rectangle-4">
                        <use fill="black" fill-opacity="1" filter="url(#filter-4)" xlink:href="#path-3"></use>
                        <use fill="#FFFFFF" fill-rule="evenodd" xlink:href="#path-3"></use>
                    </g>
                    <path d="M41.4375,90.1875 C41.4375,89.8360235 41.494557,89.5119397 41.6086728,89.2152388 C41.7227885,88.9185378 41.8848304,88.6606401 42.0948034,88.4415379 C42.3002117,88.2270003 42.5512626,88.0581116 42.8479635,87.9348666 C43.1446644,87.8116216 43.4755951,87.75 43.8407654,87.75 C44.1968066,87.75 44.5220315,87.8116216 44.8164501,87.9348666 C45.1108687,88.0581116 45.3630607,88.2270003 45.5730337,88.4415379 C45.7830067,88.6606401 45.9461897,88.9185378 46.0625878,89.2152388 C46.1789858,89.5119397 46.237184,89.8360235 46.237184,90.1875 C46.237184,90.5389765 46.1789858,90.8630603 46.0625878,91.1597612 C45.9461897,91.4564622 45.7830067,91.7120776 45.5730337,91.9266152 C45.3630607,92.1457174 45.1108687,92.3168884 44.8164501,92.4401334 C44.5220315,92.5633784 44.1968066,92.625 43.8407654,92.625 C43.4755951,92.625 43.1446644,92.5633784 42.8479635,92.4401334 C42.5512626,92.3168884 42.3002117,92.1457174 42.0948034,91.9266152 C41.8848304,91.7120776 41.7227885,91.4564622 41.6086728,91.1597612 C41.494557,90.8630603 41.4375,90.5389765 41.4375,90.1875 Z M42.3823736,90.1875 C42.3823736,90.4294254 42.4177489,90.6508066 42.4885007,90.8516503 C42.5592525,91.052494 42.6585317,91.2259473 42.7863413,91.3720154 C42.9095863,91.5180836 43.0613579,91.6321976 43.2416608,91.714361 C43.4219637,91.7965243 43.6216632,91.8376053 43.8407654,91.8376053 C44.0598677,91.8376053 44.2584261,91.7965243 44.4364466,91.714361 C44.6144672,91.6321976 44.76738,91.5158013 44.8951896,91.3651685 C45.0184346,91.2191004 45.1154315,91.0456471 45.1861833,90.8448034 C45.256935,90.6439597 45.2923104,90.4248607 45.2923104,90.1875 C45.2923104,89.9501393 45.256935,89.7310403 45.1861833,89.5301966 C45.1154315,89.3293529 45.0184346,89.1536173 44.8951896,89.0029846 C44.76738,88.8569164 44.6144672,88.7428024 44.4364466,88.660639 C44.2584261,88.5784757 44.0598677,88.5373947 43.8407654,88.5373947 C43.6216632,88.5373947 43.4219637,88.5784757 43.2416608,88.660639 C43.0613579,88.7428024 42.9095863,88.8569164 42.7863413,89.0029846 C42.6585317,89.1490527 42.5592525,89.3236472 42.4885007,89.5267732 C42.4177489,89.7298992 42.3823736,89.9501393 42.3823736,90.1875 Z M47.5821128,87.8321629 L48.4105889,87.8321629 L50.7727729,90.9817416 L50.8001605,90.9817416 L50.7727729,87.8321629 L51.6902588,87.8321629 L51.6902588,92.5428371 L50.8754765,92.5428371 L48.4995987,89.3932584 L48.4722111,89.3932584 L48.4995987,92.5428371 L47.5821128,92.5428371 L47.5821128,87.8321629 Z M55.2839085,87.8321629 L57.3105939,87.8321629 C57.5890363,87.8321629 57.8378049,87.8698206 58.0569071,87.9451369 C58.2760093,88.0204533 58.4585918,88.1265794 58.6046599,88.2635183 C58.7507281,88.4004571 58.8625598,88.5647813 58.9401585,88.7564958 C59.0177572,88.9482102 59.056556,89.15818 59.056556,89.3864115 C59.056556,89.6192076 59.0177572,89.8348831 58.9401585,90.0334445 C58.8625598,90.2320059 58.7507281,90.4020358 58.6046599,90.5435393 C58.4585918,90.6896075 58.2760093,90.8025804 58.0569071,90.8824614 C57.8378049,90.9623424 57.5890363,91.0022823 57.3105939,91.0022823 L56.2013945,91.0022823 L56.2013945,92.5428371 L55.2839085,92.5428371 L55.2839085,87.8321629 Z M56.2013945,88.5716292 L56.2013945,90.262816 L57.228431,90.262816 C57.5296965,90.262816 57.7545012,90.1817951 57.9028516,90.0197507 C58.0512021,89.8577064 58.1253762,89.65116 58.1253762,89.4001053 C58.1253762,89.1536153 58.0512021,88.9539158 57.9028516,88.8010007 C57.7545012,88.6480856 57.5296965,88.5716292 57.228431,88.5716292 L56.2013945,88.5716292 Z M60.3946378,87.8321629 L62.4144763,87.8321629 C62.985055,87.8321629 63.4175472,87.9611118 63.7119658,88.2190133 C64.0063844,88.4769149 64.1535915,88.8363741 64.1535915,89.2974017 C64.1535915,89.6351843 64.0702883,89.9284573 63.9036793,90.1772296 C63.7370703,90.4260019 63.4894429,90.6074432 63.1607895,90.721559 L64.3316112,92.5428371 L63.3319623,92.5428371 L62.2501505,90.8311096 L61.3121238,90.8311096 L61.3121238,92.5428371 L60.3946378,92.5428371 L60.3946378,87.8321629 Z M61.3121238,88.5716292 L61.3121238,90.112184 L62.3733949,90.112184 C62.6564019,90.112184 62.868654,90.0357276 63.0101575,89.8828125 C63.151661,89.7298974 63.2224117,89.5370447 63.2224117,89.3042486 C63.2224117,89.0760171 63.1493787,88.8968581 63.0033106,88.7667662 C62.8572424,88.6366742 62.6472726,88.5716292 62.3733949,88.5716292 L61.3121238,88.5716292 Z M65.6354585,87.8321629 L69.0520666,87.8321629 L69.0520666,88.5921699 L66.5529444,88.5921699 L66.5529444,89.7766854 L68.565936,89.7766854 L68.565936,90.5024579 L66.5529444,90.5024579 L66.5529444,91.7828301 L69.1136888,91.7828301 L69.1136888,92.5428371 L65.6354585,92.5428371 L65.6354585,87.8321629 Z M70.5065459,87.8321629 L71.7389898,87.8321629 L73.1631471,91.2898525 L73.1836878,91.2898525 L74.6078451,87.8321629 L75.8129013,87.8321629 L75.8129013,92.5428371 L74.8954153,92.5428371 L74.9638844,89.0919944 L74.9364968,89.0919944 L73.5054926,92.5428371 L72.8139547,92.5428371 L71.3829504,89.1399228 L71.3555628,89.1399228 L71.4240319,92.5428371 L70.5065459,92.5428371 L70.5065459,87.8321629 Z M77.4111657,87.8321629 L78.3286517,87.8321629 L78.3286517,92.5428371 L77.4111657,92.5428371 L77.4111657,87.8321629 Z M80.6116071,91.1460674 C80.6116071,91.4016867 80.7040395,91.5979628 80.888907,91.7349017 C81.0737745,91.8718406 81.3191197,91.940309 81.6249498,91.940309 C81.9672971,91.940309 82.2263359,91.8786874 82.4020741,91.7554424 C82.5778124,91.6321974 82.6656802,91.4564618 82.6656802,91.2282303 C82.6656802,91.1232439 82.6428574,91.0353761 82.5972111,90.9646243 C82.5515648,90.8938725 82.4876609,90.8333921 82.4054976,90.7831812 C82.3187696,90.7375349 82.2183493,90.6987361 82.1042335,90.6667837 C81.9901178,90.6348313 81.8645924,90.6074439 81.7276535,90.5846208 L81.4126956,90.5298455 C81.2209812,90.4978931 81.0281285,90.456812 80.8341317,90.4066011 C80.640135,90.3563902 80.4678228,90.2810749 80.31719,90.1806531 C80.1619926,90.0847959 80.0364672,89.955847 79.94061,89.7938027 C79.8447527,89.6317583 79.7968248,89.4229296 79.7968248,89.1673104 C79.7968248,88.9664667 79.8401882,88.7793197 79.9269161,88.6058638 C80.0136441,88.4324078 80.1368872,88.2817773 80.2966493,88.1539677 C80.4564113,88.0307227 80.649264,87.9325846 80.8752132,87.8595506 C81.1011623,87.7865165 81.3556366,87.75 81.6386437,87.75 C81.9125214,87.75 82.16129,87.7819519 82.3849569,87.8458567 C82.6086237,87.9097616 82.8003353,88.0010528 82.9600973,88.1197331 C83.1152947,88.2429781 83.2362556,88.3924675 83.3229835,88.5682058 C83.4097115,88.743944 83.4530748,88.9413613 83.4530748,89.1604635 L82.5561296,89.1604635 C82.5561296,88.9139735 82.469403,88.731391 82.295947,88.6127107 C82.1224911,88.4940303 81.9033922,88.434691 81.6386437,88.434691 C81.3738951,88.434691 81.1525139,88.4883246 80.9744934,88.5955934 C80.7964728,88.7028622 80.7074639,88.863763 80.7074639,89.0783006 C80.7074639,89.1878517 80.7337101,89.2780018 80.7862034,89.3487535 C80.8386966,89.4195053 80.9105884,89.4777034 81.001881,89.5233497 C81.0931736,89.5735606 81.2015819,89.6135006 81.3271092,89.6431706 C81.4526366,89.6728407 81.5907145,89.7013692 81.7413473,89.728757 L82.0563052,89.7835323 C82.243455,89.8200493 82.4294609,89.8645538 82.6143284,89.9170471 C82.7991958,89.9695403 82.9646612,90.0437144 83.1107293,90.1395716 C83.2567975,90.2399935 83.3754761,90.3700835 83.4667687,90.5298455 C83.5580613,90.6896075 83.6037069,90.8927305 83.6037069,91.1392205 C83.6037069,91.3583227 83.5603435,91.5591634 83.4736156,91.7417486 C83.3868876,91.9243338 83.2590799,92.0795289 83.0901886,92.2073385 C82.9212973,92.3397127 82.7136098,92.4424154 82.4671198,92.5154494 C82.2206298,92.5884835 81.9399093,92.625 81.6249498,92.625 C80.9995956,92.625 80.5248812,92.4960511 80.2007925,92.2381496 C79.8767038,91.980248 79.7146619,91.6162243 79.7146619,91.1460674 L80.6116071,91.1460674 Z M84.9897171,87.8321629 L88.4063252,87.8321629 L88.4063252,88.5921699 L85.907203,88.5921699 L85.907203,89.7766854 L87.9201946,89.7766854 L87.9201946,90.5024579 L85.907203,90.5024579 L85.907203,91.7828301 L88.4679474,91.7828301 L88.4679474,92.5428371 L84.9897171,92.5428371 L84.9897171,87.8321629 Z" id="ON-PREMISE" fill="#222228"></path>
                    <g id="Group-7" transform="translate(39.000000, 39.000000)">
                        <g id="Group-2" transform="translate(0.937465, 0.102771)">
                            <rect id="Rectangle" stroke="#000000" x="0.5" y="0.5" width="22.4523864" height="25.5241127" rx="4"></rect>
                            <path d="M1.01849126,9.20976136 L22.624592,9.20976136" id="Path-2" stroke="#000000"></path>
                            <circle id="Oval-2" fill="#EB5424" cx="18.9721084" cy="4.97327113" r="1"></circle>
                            <circle id="Oval-2" fill="#000000" cx="18.9721084" cy="13.4462516" r="1"></circle>
                            <circle id="Oval-2" fill="#000000" cx="18.9721084" cy="21.5508416" r="1"></circle>
                            <circle id="Oval-2" fill="#000000" cx="16.0249848" cy="4.97327113" r="1"></circle>
                            <circle id="Oval-2" fill="#EB5424" cx="16.0249848" cy="13.4462516" r="1"></circle>
                            <circle id="Oval-2" fill="#000000" cx="16.0249848" cy="21.5508416" r="1"></circle>
                            <path d="M0.281710347,17.5248602 L22.624592,17.5248602" id="Path-2" stroke="#000000"></path>
                        </g>
                        <g id="Group-2" transform="translate(27.952765, 0.102771)">
                            <rect id="Rectangle" stroke="#000000" x="0.5" y="0.5" width="22.4523864" height="25.5241127" rx="4"></rect>
                            <path d="M1.01849126,9.20976136 L22.624592,9.20976136" id="Path-2" stroke="#000000"></path>
                            <circle id="Oval-2" fill="#000000" cx="18.9721084" cy="4.97327113" r="1"></circle>
                            <circle id="Oval-2" fill="#EB5424" cx="18.9721084" cy="13.4462516" r="1"></circle>
                            <circle id="Oval-2" fill="#000000" cx="18.9721084" cy="21.5508416" r="1"></circle>
                            <circle id="Oval-2" fill="#000000" cx="16.0249848" cy="4.97327113" r="1"></circle>
                            <circle id="Oval-2" fill="#EB5424" cx="16.0249848" cy="13.4462516" r="1"></circle>
                            <circle id="Oval-2" fill="#EB5424" cx="16.0249848" cy="21.5508416" r="1"></circle>
                            <path d="M0.281710347,17.5248602 L22.624592,17.5248602" id="Path-2" stroke="#000000"></path>
                        </g>
                    </g>
                </g>
                <g id="Auth0-Cloud" filter="url(#filter-5)" transform="translate(113.000000, 0.000000)">
                    <g id="Rectangle-4">
                        <use fill="black" fill-opacity="1" filter="url(#filter-7)" xlink:href="#path-6"></use>
                        <use fill="#FFFFFF" fill-rule="evenodd" xlink:href="#path-6"></use>
                    </g>
                    <g id="Ilus" transform="translate(55.086957, 35.975155)">
                        <path d="M43.0959922,40.5097743 L51.3157039,40.5097743 C56.5417484,40.5097743 60.7782946,44.7463204 60.7782946,49.972365 L60.7782946,52.8963862" id="Path-2" stroke="#000000"></path>
                        <path d="M43.0959922,22.1657255 L51.3157039,22.1657255 C56.5417484,22.1657255 60.7782946,26.4022717 60.7782946,31.6283162 L60.7782946,34.5523374" id="Path-2" stroke="#000000" transform="translate(51.937143, 28.359031) scale(1, -1) translate(-51.937143, -28.359031) "></path>
                        <g id="Group-2" transform="translate(0.000000, 16.051043)">
                            <rect id="Rectangle" stroke="#000000" x="0.5" y="0.5" width="36.8458407" height="41.8027804" rx="4.30999994"></rect>
                            <path d="M1.64357081,14.8620765 L36.5100032,14.8620765" id="Path-2" stroke="#000000"></path>
                            <circle id="Oval-2" fill="#000000" cx="30.6158776" cy="8.02552132" r="1.48620765"></circle>
                            <circle id="Oval-2" fill="#222228" cx="30.6158776" cy="21.6986317" r="1.48620765"></circle>
                            <circle id="Oval-2" fill="#EB5424" cx="30.6158776" cy="34.7772591" r="1.48620765"></circle>
                            <circle id="Oval-2" fill="#222228" cx="25.8600131" cy="8.02552132" r="1.48620765"></circle>
                            <circle id="Oval-2" fill="#222228" cx="25.8600131" cy="21.6986317" r="1.48620765"></circle>
                            <circle id="Oval-2" fill="#000000" cx="25.8600131" cy="34.7772591" r="1.48620765"></circle>
                            <path d="M0.454604693,28.2804085 L36.5100032,28.2804085" id="Path-2" stroke="#000000"></path>
                        </g>
                        <ellipse id="Oval" stroke="#000000" fill="#FFFFFF" cx="60.9345137" cy="9.51172897" rx="9.8089705" ry="9.51172897"></ellipse>
                        <g id="Group" transform="translate(55.286925, 4.755864)" stroke="#EB5424">
                            <rect id="Rectangle-2" stroke-width="1.88969243" x="4.12931117" y="0.944846213" width="3.68645668" height="3.59215599" rx="1.79607799"></rect>
                            <polyline id="Path-4" points="2.51040951 7.88996537 9.3691375 7.88996537 11.5164745 11.6243808"></polyline>
                            <polyline id="Path-4" transform="translate(4.625093, 9.757173) scale(-1, 1) translate(-4.625093, -9.757173) " points="0.122060791 7.88996537 6.98078878 7.88996537 9.12812574 11.6243808"></polyline>
                        </g>
                        <ellipse id="Oval" stroke="#000000" fill="#FFFFFF" cx="60.9345137" cy="65.9876197" rx="9.8089705" ry="9.51172897"></ellipse>
                        <g id="Group" transform="translate(55.286925, 61.231755)" stroke="#EB5424">
                            <rect id="Rectangle-2" stroke-width="1.88969243" x="4.12931117" y="0.944846213" width="3.68645668" height="3.59215599" rx="1.79607799"></rect>
                            <polyline id="Path-4" points="2.51040951 7.88996537 9.3691375 7.88996537 11.5164745 11.6243808"></polyline>
                            <polyline id="Path-4" transform="translate(4.625093, 9.757173) scale(-1, 1) translate(-4.625093, -9.757173) " points="0.122060791 7.88996537 6.98078878 7.88996537 9.12812574 11.6243808"></polyline>
                        </g>
                    </g>
                    <path d="M56.3880243,129.3994 L57.8848838,129.3994 L60.3101752,135.91737 L58.9648964,135.91737 L58.4627853,134.458406 L55.7627539,134.458406 L55.251169,135.91737 L53.9627329,135.91737 L56.3880243,129.3994 Z M57.1080327,130.602572 L56.1132842,133.435236 L58.1122549,133.435236 L57.1459278,130.602572 L57.1080327,130.602572 Z M61.57425,129.3994 L62.8532123,129.3994 L62.8532123,133.283656 C62.8532123,133.820507 62.9795283,134.231034 63.232164,134.515249 C63.4847998,134.799464 63.8700636,134.94157 64.387967,134.94157 C64.8995544,134.94157 65.2816603,134.799464 65.5342961,134.515249 C65.7869319,134.231034 65.9132479,133.820507 65.9132479,133.283656 L65.9132479,129.3994 L67.1922101,129.3994 L67.1922101,133.302603 C67.1922101,133.807875 67.1227363,134.234191 66.9837866,134.581565 C66.8448369,134.92894 66.6522051,135.209993 66.4058852,135.424733 C66.1595653,135.639473 65.8643016,135.794211 65.5200854,135.888949 C65.1758691,135.983687 64.7985001,136.031056 64.387967,136.031056 C63.9774338,136.031056 63.6000648,135.983687 63.2558485,135.888949 C62.9116323,135.794211 62.6163686,135.639473 62.3700488,135.424733 C62.117413,135.209993 61.9216232,134.92894 61.7826735,134.581565 C61.6437238,134.234191 61.57425,133.807875 61.57425,133.302603 L61.57425,129.3994 Z M68.5889181,129.3994 L74.2731947,129.3994 L74.2731947,130.460465 L72.0658006,130.460465 L72.0658006,135.91737 L70.7963122,135.91737 L70.7963122,130.460465 L68.5889181,130.460465 L68.5889181,129.3994 Z M75.793062,129.3994 L77.0625505,129.3994 L77.0625505,132.080484 L80.1320599,132.080484 L80.1320599,129.3994 L81.4015483,129.3994 L81.4015483,135.91737 L80.1320599,135.91737 L80.1320599,133.160496 L77.0625505,133.160496 L77.0625505,135.91737 L75.793062,135.91737 L75.793062,129.3994 Z M85.5361829,136.031056 C85.106702,136.031056 84.7419646,135.944214 84.4419596,135.770527 C84.1419546,135.596839 83.8972174,135.358418 83.7077405,135.055255 C83.5182637,134.752092 83.3793161,134.395249 83.2908936,133.984716 C83.2024711,133.574183 83.1582605,133.132077 83.1582605,132.658385 C83.1582605,132.184693 83.2024711,131.742587 83.2908936,131.332054 C83.3793161,130.921521 83.5182637,130.564678 83.7077405,130.261515 C83.8972174,129.958352 84.1419546,129.719931 84.4419596,129.546244 C84.7419646,129.372557 85.106702,129.285714 85.5361829,129.285714 C85.9593478,129.285714 86.3225063,129.372557 86.6256692,129.546244 C86.9288322,129.719931 87.1751484,129.958352 87.3646252,130.261515 C87.554102,130.564678 87.6930496,130.921521 87.7814721,131.332054 C87.8698947,131.742587 87.9141053,132.184693 87.9141053,132.658385 C87.9141053,133.132077 87.8698947,133.574183 87.7814721,133.984716 C87.6930496,134.395249 87.554102,134.752092 87.3646252,135.055255 C87.1751484,135.358418 86.9288322,135.596839 86.6256692,135.770527 C86.3225063,135.944214 85.9593478,136.031056 85.5361829,136.031056 Z M85.5361829,135.026834 C85.9151365,135.026834 86.1977686,134.829465 86.3840875,134.434722 C86.5704064,134.039978 86.6635644,133.447872 86.6635644,132.658385 C86.6635644,131.868898 86.5704064,131.276792 86.3840875,130.882049 C86.1977686,130.487305 85.9151365,130.289936 85.5361829,130.289936 C85.1445974,130.289936 84.8588075,130.487305 84.6788045,130.882049 C84.4988015,131.276792 84.4088013,131.868898 84.4088013,132.658385 C84.4088013,133.447872 84.5035383,134.039978 84.6930152,134.434722 C84.882492,134.829465 85.1635451,135.026834 85.5361829,135.026834 Z M92.0812214,132.658385 C92.0812214,132.178377 92.157011,131.733113 92.3085925,131.32258 C92.4601739,130.912047 92.678069,130.555204 92.9622843,130.252041 C93.2464995,129.948878 93.5891317,129.712036 93.990191,129.541507 C94.3912503,129.370978 94.8380931,129.285714 95.3307329,129.285714 C96.1391674,129.285714 96.7975895,129.490978 97.306019,129.901511 C97.8144485,130.312044 98.1318175,130.880466 98.2581353,131.606794 L96.9696993,131.606794 C96.8623291,131.196261 96.6712762,130.888366 96.3965347,130.683099 C96.1217933,130.477832 95.7665296,130.375201 95.3307329,130.375201 C95.0338858,130.375201 94.7654643,130.430464 94.5254604,130.540992 C94.2854564,130.65152 94.0833508,130.807836 93.9191375,131.009945 C93.7486084,131.212053 93.6175555,131.453633 93.525975,131.73469 C93.4343946,132.015747 93.388605,132.323643 93.388605,132.658385 C93.388605,132.986812 93.4343946,133.28997 93.525975,133.567869 C93.6175555,133.845769 93.7486084,134.085769 93.9191375,134.287878 C94.0896667,134.496302 94.2933512,134.657355 94.5301973,134.771041 C94.7670433,134.884727 95.0338858,134.94157 95.3307329,134.94157 C95.7917932,134.94157 96.1533727,134.838938 96.4154823,134.633671 C96.677592,134.428405 96.8623291,134.120509 96.9696993,133.709976 L98.2581353,133.709976 C98.1949764,134.069982 98.081292,134.393667 97.9170788,134.68104 C97.7528655,134.968413 97.5444441,135.209993 97.2918083,135.405785 C97.0391725,135.607894 96.7470668,135.762631 96.4154823,135.870001 C96.0838979,135.977372 95.7160025,136.031056 95.3117853,136.031056 C94.8065137,136.031056 94.354934,135.945793 93.9570327,135.775263 C93.5591313,135.604734 93.221236,135.367892 92.9433367,135.064729 C92.6654373,134.767882 92.4522791,134.414197 92.3038556,134.003664 C92.155432,133.593131 92.0812214,133.144709 92.0812214,132.658385 Z M100.062216,129.3994 L101.331705,129.3994 L101.331705,134.846832 L104.448583,134.846832 L104.448583,135.91737 L100.062216,135.91737 L100.062216,129.3994 Z M105.551604,132.658385 C105.551604,132.172061 105.630551,131.723639 105.788449,131.313106 C105.946346,130.902573 106.170557,130.54573 106.461088,130.242568 C106.745303,129.94572 107.092672,129.712036 107.503205,129.541507 C107.913738,129.370978 108.371634,129.285714 108.876905,129.285714 C109.369545,129.285714 109.819546,129.370978 110.226921,129.541507 C110.634296,129.712036 110.983244,129.94572 111.273775,130.242568 C111.564307,130.54573 111.790096,130.902573 111.951152,131.313106 C112.112207,131.723639 112.192734,132.172061 112.192734,132.658385 C112.192734,133.144709 112.112207,133.593131 111.951152,134.003664 C111.790096,134.414197 111.564307,134.767882 111.273775,135.064729 C110.983244,135.367892 110.634296,135.604734 110.226921,135.775263 C109.819546,135.945793 109.369545,136.031056 108.876905,136.031056 C108.371634,136.031056 107.913738,135.945793 107.503205,135.775263 C107.092672,135.604734 106.745303,135.367892 106.461088,135.064729 C106.170557,134.767882 105.946346,134.414197 105.788449,134.003664 C105.630551,133.593131 105.551604,133.144709 105.551604,132.658385 Z M106.858987,132.658385 C106.858987,132.993128 106.907935,133.299444 107.005831,133.577343 C107.103727,133.855243 107.241096,134.095243 107.417941,134.297352 C107.58847,134.49946 107.798471,134.657355 108.047948,134.771041 C108.297426,134.884727 108.573743,134.94157 108.876905,134.94157 C109.180068,134.94157 109.454806,134.884727 109.701126,134.771041 C109.947445,134.657355 110.159025,134.496302 110.33587,134.287878 C110.506399,134.085769 110.64061,133.845769 110.738506,133.567869 C110.836402,133.28997 110.88535,132.986812 110.88535,132.658385 C110.88535,132.329959 110.836402,132.0268 110.738506,131.748901 C110.64061,131.471001 110.506399,131.227843 110.33587,131.019419 C110.159025,130.81731 109.947445,130.659415 109.701126,130.545729 C109.454806,130.432043 109.180068,130.375201 108.876905,130.375201 C108.573743,130.375201 108.297426,130.432043 108.047948,130.545729 C107.798471,130.659415 107.58847,130.81731 107.417941,131.019419 C107.241096,131.221527 107.103727,131.463107 107.005831,131.744164 C106.907935,132.025221 106.858987,132.329959 106.858987,132.658385 Z M113.968393,129.3994 L115.247356,129.3994 L115.247356,133.283656 C115.247356,133.820507 115.373672,134.231034 115.626307,134.515249 C115.878943,134.799464 116.264207,134.94157 116.78211,134.94157 C117.293698,134.94157 117.675804,134.799464 117.928439,134.515249 C118.181075,134.231034 118.307391,133.820507 118.307391,133.283656 L118.307391,129.3994 L119.586353,129.3994 L119.586353,133.302603 C119.586353,133.807875 119.51688,134.234191 119.37793,134.581565 C119.23898,134.92894 119.046348,135.209993 118.800028,135.424733 C118.553709,135.639473 118.258445,135.794211 117.914229,135.888949 C117.570012,135.983687 117.192643,136.031056 116.78211,136.031056 C116.371577,136.031056 115.994208,135.983687 115.649992,135.888949 C115.305776,135.794211 115.010512,135.639473 114.764192,135.424733 C114.511556,135.209993 114.315766,134.92894 114.176817,134.581565 C114.037867,134.234191 113.968393,133.807875 113.968393,133.302603 L113.968393,129.3994 Z M121.674648,129.3994 L123.957833,129.3994 C124.532579,129.3994 125.037843,129.481505 125.47364,129.645718 C125.909437,129.809932 126.275753,130.034143 126.5726,130.318358 C126.863131,130.608889 127.082605,130.9531 127.231029,131.351001 C127.379452,131.748903 127.453663,132.184693 127.453663,132.658385 C127.453663,133.132077 127.379452,133.567867 127.231029,133.965769 C127.082605,134.36367 126.863131,134.704723 126.5726,134.988939 C126.275753,135.27947 125.909437,135.506838 125.47364,135.671052 C125.037843,135.835265 124.532579,135.91737 123.957833,135.91737 L121.674648,135.91737 L121.674648,129.3994 Z M122.944137,130.450991 L122.944137,134.865779 L123.910464,134.865779 C124.314681,134.865779 124.658892,134.805779 124.943107,134.685777 C125.227323,134.565775 125.461007,134.404722 125.644168,134.202614 C125.821013,134.000505 125.948908,133.76682 126.027857,133.501553 C126.106806,133.236285 126.146279,132.955232 126.146279,132.658385 C126.146279,132.361538 126.106806,132.080485 126.027857,131.815217 C125.948908,131.54995 125.821013,131.316265 125.644168,131.114157 C125.461007,130.912048 125.227323,130.750995 124.943107,130.630993 C124.658892,130.510991 124.314681,130.450991 123.910464,130.450991 L122.944137,130.450991 Z" id="AUTH0-CLOUD" fill="#222228"></path>
                </g>
                <g id="Rectangle-8">
                    <use fill="#FFFFFF" fill-rule="evenodd" xlink:href="#path-8"></use>
                    <rect stroke="#000000" stroke-width="1" x="257.5" y="144.5" width="47" height="47" rx="3"></rect>
                </g>
                <polyline id="Path-8" stroke="#EB5424" stroke-width="2" stroke-linecap="round" stroke-linejoin="round" points="268.711902 168.919972 276.079257 176.287327 292.711902 159.654682"></polyline>
            </g>
        </g>
    </g>
</svg>