<?xml version="1.0" encoding="UTF-8"?>
<svg width="922px" height="432px" viewBox="0 0 922 432" version="1.1" xmlns="http://www.w3.org/2000/svg" xmlns:xlink="http://www.w3.org/1999/xlink">
    <!-- Generator: Sketch 50 (54983) - http://www.bohemiancoding.com/sketch -->
    <title>Animation</title>
    <desc>Created with Sketch.</desc>
    <defs>
        <rect id="path-1" x="0" y="0" width="277" height="277" rx="3"></rect>
        <filter x="-2.7%" y="-1.6%" width="105.4%" height="105.4%" filterUnits="objectBoundingBox" id="filter-2">
            <feOffset dx="0" dy="3" in="SourceAlpha" result="shadowOffsetOuter1"></feOffset>
            <feGaussianBlur stdDeviation="2" in="shadowOffsetOuter1" result="shadowBlurOuter1"></feGaussianBlur>
            <feColorMatrix values="0 0 0 0 0   0 0 0 0 0   0 0 0 0 0  0 0 0 0.1 0" type="matrix" in="shadowBlurOuter1"></feColorMatrix>
        </filter>
        <rect id="path-3" x="0" y="0" width="277" height="277" rx="3"></rect>
        <filter x="-2.7%" y="-1.6%" width="105.4%" height="105.4%" filterUnits="objectBoundingBox" id="filter-4">
            <feOffset dx="0" dy="3" in="SourceAlpha" result="shadowOffsetOuter1"></feOffset>
            <feGaussianBlur stdDeviation="2" in="shadowOffsetOuter1" result="shadowBlurOuter1"></feGaussianBlur>
            <feColorMatrix values="0 0 0 0 0   0 0 0 0 0   0 0 0 0 0  0 0 0 0.1 0" type="matrix" in="shadowBlurOuter1"></feColorMatrix>
        </filter>
        <filter x="-17.6%" y="-12.4%" width="135.3%" height="135.3%" filterUnits="objectBoundingBox" id="filter-5">
            <feOffset dx="0" dy="19" in="SourceAlpha" result="shadowOffsetOuter1"></feOffset>
            <feGaussianBlur stdDeviation="18" in="shadowOffsetOuter1" result="shadowBlurOuter1"></feGaussianBlur>
            <feColorMatrix values="0 0 0 0 0   0 0 0 0 0   0 0 0 0 0  0 0 0 0.1 0" type="matrix" in="shadowBlurOuter1" result="shadowMatrixOuter1"></feColorMatrix>
            <feMerge>
                <feMergeNode in="shadowMatrixOuter1"></feMergeNode>
                <feMergeNode in="SourceGraphic"></feMergeNode>
            </feMerge>
        </filter>
    </defs>
    <g id="What-is-Auth0" stroke="none" stroke-width="1" fill="none" fill-rule="evenodd">
        <g id="Homepage_Hero_3" transform="translate(-259.000000, -956.000000)">
            <g id="01_Hero_Whats-Auth0" transform="translate(120.000000, 663.000000)">
                <g id="Animation" transform="translate(143.000000, 310.000000)">
                    <g id="Your-Own-Cloud" opacity="0.600000024" transform="translate(0.000000, 55.000000)">
                        <g id="Rectangle-4">
                            <use fill="black" fill-opacity="1" filter="url(#filter-2)" xlink:href="#path-1"></use>
                            <use fill="#FFFFFF" fill-rule="evenodd" xlink:href="#path-1"></use>
                        </g>
                        <path d="M70.542,170.104 L67,164.168 L69.128,164.168 L71.494,168.312 L71.55,168.312 L74.042,164.168 L76.03,164.168 L72.432,170.048 L72.432,173.8 L70.542,173.8 L70.542,170.104 Z M77.128,168.984 C77.128,168.26533 77.2446655,167.60267 77.478,166.996 C77.7113345,166.38933 78.0426645,165.862002 78.472,165.414 C78.8920021,164.975331 79.4053303,164.630001 80.012,164.378 C80.6186697,164.125999 81.2953296,164 82.042,164 C82.7700036,164 83.434997,164.125999 84.037,164.378 C84.639003,164.630001 85.1546645,164.975331 85.584,165.414 C86.0133355,165.862002 86.3469988,166.38933 86.585,166.996 C86.8230012,167.60267 86.942,168.26533 86.942,168.984 C86.942,169.70267 86.8230012,170.36533 86.585,170.972 C86.3469988,171.57867 86.0133355,172.101331 85.584,172.54 C85.1546645,172.988002 84.639003,173.337999 84.037,173.59 C83.434997,173.842001 82.7700036,173.968 82.042,173.968 C81.2953296,173.968 80.6186697,173.842001 80.012,173.59 C79.4053303,173.337999 78.8920021,172.988002 78.472,172.54 C78.0426645,172.101331 77.7113345,171.57867 77.478,170.972 C77.2446655,170.36533 77.128,169.70267 77.128,168.984 Z M79.06,168.984 C79.06,169.478669 79.1323326,169.931331 79.277,170.342 C79.4216674,170.752669 79.6246654,171.107332 79.886,171.406 C80.1380013,171.704668 80.4483315,171.937999 80.817,172.106 C81.1856685,172.274001 81.5939978,172.358 82.042,172.358 C82.4900022,172.358 82.8959982,172.274001 83.26,172.106 C83.6240018,171.937999 83.9366654,171.700002 84.198,171.392 C84.4500013,171.093332 84.6483326,170.738669 84.793,170.328 C84.9376674,169.917331 85.01,169.469336 85.01,168.984 C85.01,168.498664 84.9376674,168.050669 84.793,167.64 C84.6483326,167.229331 84.4500013,166.870002 84.198,166.562 C83.9366654,166.263332 83.6240018,166.030001 83.26,165.862 C82.8959982,165.693999 82.4900022,165.61 82.042,165.61 C81.5939978,165.61 81.1856685,165.693999 80.817,165.862 C80.4483315,166.030001 80.1380013,166.263332 79.886,166.562 C79.6246654,166.860668 79.4216674,167.217665 79.277,167.633 C79.1323326,168.048335 79.06,168.498664 79.06,168.984 Z M89.566,164.168 L91.456,164.168 L91.456,169.908 C91.456,170.701337 91.6426648,171.307998 92.016,171.728 C92.3893352,172.148002 92.9586628,172.358 93.724,172.358 C94.4800038,172.358 95.0446648,172.148002 95.418,171.728 C95.7913352,171.307998 95.978,170.701337 95.978,169.908 L95.978,164.168 L97.868,164.168 L97.868,169.936 C97.868,170.68267 97.7653344,171.312664 97.56,171.826 C97.3546656,172.339336 97.0700018,172.754665 96.706,173.072 C96.3419982,173.389335 95.9056692,173.617999 95.397,173.758 C94.8883308,173.898001 94.3306697,173.968 93.724,173.968 C93.1173303,173.968 92.5596692,173.898001 92.051,173.758 C91.5423308,173.617999 91.1060018,173.389335 90.742,173.072 C90.3686648,172.754665 90.0793344,172.339336 89.874,171.826 C89.6686656,171.312664 89.566,170.68267 89.566,169.936 L89.566,164.168 Z M100.954,164.168 L105.084,164.168 C106.250672,164.168 107.134997,164.431664 107.737,164.959 C108.339003,165.486336 108.64,166.221329 108.64,167.164 C108.64,167.85467 108.469668,168.454331 108.129,168.963 C107.788332,169.471669 107.282003,169.842666 106.61,170.076 L109.004,173.8 L106.96,173.8 L104.748,170.3 L102.83,170.3 L102.83,173.8 L100.954,173.8 L100.954,164.168 Z M102.83,165.68 L102.83,168.83 L105,168.83 C105.57867,168.83 106.012665,168.673668 106.302,168.361 C106.591335,168.048332 106.736,167.654002 106.736,167.178 C106.736,166.711331 106.586668,166.345001 106.288,166.079 C105.989332,165.812999 105.560003,165.68 105,165.68 L102.83,165.68 Z M115.232,168.984 C115.232,168.26533 115.348665,167.60267 115.582,166.996 C115.815334,166.38933 116.146665,165.862002 116.576,165.414 C116.996002,164.975331 117.50933,164.630001 118.116,164.378 C118.72267,164.125999 119.39933,164 120.146,164 C120.874004,164 121.538997,164.125999 122.141,164.378 C122.743003,164.630001 123.258665,164.975331 123.688,165.414 C124.117335,165.862002 124.450999,166.38933 124.689,166.996 C124.927001,167.60267 125.046,168.26533 125.046,168.984 C125.046,169.70267 124.927001,170.36533 124.689,170.972 C124.450999,171.57867 124.117335,172.101331 123.688,172.54 C123.258665,172.988002 122.743003,173.337999 122.141,173.59 C121.538997,173.842001 120.874004,173.968 120.146,173.968 C119.39933,173.968 118.72267,173.842001 118.116,173.59 C117.50933,173.337999 116.996002,172.988002 116.576,172.54 C116.146665,172.101331 115.815334,171.57867 115.582,170.972 C115.348665,170.36533 115.232,169.70267 115.232,168.984 Z M117.164,168.984 C117.164,169.478669 117.236333,169.931331 117.381,170.342 C117.525667,170.752669 117.728665,171.107332 117.99,171.406 C118.242001,171.704668 118.552331,171.937999 118.921,172.106 C119.289669,172.274001 119.697998,172.358 120.146,172.358 C120.594002,172.358 120.999998,172.274001 121.364,172.106 C121.728002,171.937999 122.040665,171.700002 122.302,171.392 C122.554001,171.093332 122.752333,170.738669 122.897,170.328 C123.041667,169.917331 123.114,169.469336 123.114,168.984 C123.114,168.498664 123.041667,168.050669 122.897,167.64 C122.752333,167.229331 122.554001,166.870002 122.302,166.562 C122.040665,166.263332 121.728002,166.030001 121.364,165.862 C120.999998,165.693999 120.594002,165.61 120.146,165.61 C119.697998,165.61 119.289669,165.693999 118.921,165.862 C118.552331,166.030001 118.242001,166.263332 117.99,166.562 C117.728665,166.860668 117.525667,167.217665 117.381,167.633 C117.236333,168.048335 117.164,168.498664 117.164,168.984 Z M126.634,164.168 L128.65,164.168 L130.372,171.784 L130.428,171.784 L132.402,164.168 L134.348,164.168 L136.364,171.784 L136.42,171.784 L138.086,164.168 L140.046,164.168 L137.61,173.8 L135.286,173.8 L133.368,166.548 L133.312,166.548 L131.422,173.8 L129.112,173.8 L126.634,164.168 Z M142.32,164.168 L144.014,164.168 L148.844,170.608 L148.9,170.608 L148.844,164.168 L150.72,164.168 L150.72,173.8 L149.054,173.8 L144.196,167.36 L144.14,167.36 L144.196,173.8 L142.32,173.8 L142.32,164.168 Z M157.55,168.984 C157.55,168.274663 157.661999,167.61667 157.886,167.01 C158.110001,166.40333 158.431998,165.876002 158.852,165.428 C159.272002,164.979998 159.77833,164.630001 160.371,164.378 C160.96367,164.125999 161.623996,164 162.352,164 C163.546673,164 164.519663,164.30333 165.271,164.91 C166.022337,165.51667 166.491332,166.356661 166.678,167.43 L164.774,167.43 C164.615333,166.82333 164.333002,166.368335 163.927,166.065 C163.520998,165.761665 162.996003,165.61 162.352,165.61 C161.913331,165.61 161.516668,165.691666 161.162,165.855 C160.807332,166.018334 160.508668,166.249332 160.266,166.548 C160.013999,166.846668 159.820334,167.203665 159.685,167.619 C159.549666,168.034335 159.482,168.489331 159.482,168.984 C159.482,169.469336 159.549666,169.917331 159.685,170.328 C159.820334,170.738669 160.013999,171.093332 160.266,171.392 C160.518001,171.700002 160.818998,171.937999 161.169,172.106 C161.519002,172.274001 161.913331,172.358 162.352,172.358 C163.033337,172.358 163.567665,172.206335 163.955,171.903 C164.342335,171.599665 164.615333,171.14467 164.774,170.538 L166.678,170.538 C166.584666,171.070003 166.416668,171.548331 166.174,171.973 C165.931332,172.397669 165.623335,172.754665 165.25,173.044 C164.876665,173.342668 164.445002,173.571333 163.955,173.73 C163.464998,173.888667 162.921336,173.968 162.324,173.968 C161.57733,173.968 160.910003,173.842001 160.322,173.59 C159.733997,173.337999 159.234669,172.988002 158.824,172.54 C158.413331,172.101331 158.098334,171.57867 157.879,170.972 C157.659666,170.36533 157.55,169.70267 157.55,168.984 Z M169.344,164.168 L171.22,164.168 L171.22,172.218 L175.826,172.218 L175.826,173.8 L169.344,173.8 L169.344,164.168 Z M177.456,168.984 C177.456,168.26533 177.572665,167.60267 177.806,166.996 C178.039334,166.38933 178.370665,165.862002 178.8,165.414 C179.220002,164.975331 179.73333,164.630001 180.34,164.378 C180.94667,164.125999 181.62333,164 182.37,164 C183.098004,164 183.762997,164.125999 184.365,164.378 C184.967003,164.630001 185.482665,164.975331 185.912,165.414 C186.341335,165.862002 186.674999,166.38933 186.913,166.996 C187.151001,167.60267 187.27,168.26533 187.27,168.984 C187.27,169.70267 187.151001,170.36533 186.913,170.972 C186.674999,171.57867 186.341335,172.101331 185.912,172.54 C185.482665,172.988002 184.967003,173.337999 184.365,173.59 C183.762997,173.842001 183.098004,173.968 182.37,173.968 C181.62333,173.968 180.94667,173.842001 180.34,173.59 C179.73333,173.337999 179.220002,172.988002 178.8,172.54 C178.370665,172.101331 178.039334,171.57867 177.806,170.972 C177.572665,170.36533 177.456,169.70267 177.456,168.984 Z M179.388,168.984 C179.388,169.478669 179.460333,169.931331 179.605,170.342 C179.749667,170.752669 179.952665,171.107332 180.214,171.406 C180.466001,171.704668 180.776331,171.937999 181.145,172.106 C181.513669,172.274001 181.921998,172.358 182.37,172.358 C182.818002,172.358 183.223998,172.274001 183.588,172.106 C183.952002,171.937999 184.264665,171.700002 184.526,171.392 C184.778001,171.093332 184.976333,170.738669 185.121,170.328 C185.265667,169.917331 185.338,169.469336 185.338,168.984 C185.338,168.498664 185.265667,168.050669 185.121,167.64 C184.976333,167.229331 184.778001,166.870002 184.526,166.562 C184.264665,166.263332 183.952002,166.030001 183.588,165.862 C183.223998,165.693999 182.818002,165.61 182.37,165.61 C181.921998,165.61 181.513669,165.693999 181.145,165.862 C180.776331,166.030001 180.466001,166.263332 180.214,166.562 C179.952665,166.860668 179.749667,167.217665 179.605,167.633 C179.460333,168.048335 179.388,168.498664 179.388,168.984 Z M189.894,164.168 L191.784,164.168 L191.784,169.908 C191.784,170.701337 191.970665,171.307998 192.344,171.728 C192.717335,172.148002 193.286663,172.358 194.052,172.358 C194.808004,172.358 195.372665,172.148002 195.746,171.728 C196.119335,171.307998 196.306,170.701337 196.306,169.908 L196.306,164.168 L198.196,164.168 L198.196,169.936 C198.196,170.68267 198.093334,171.312664 197.888,171.826 C197.682666,172.339336 197.398002,172.754665 197.034,173.072 C196.669998,173.389335 196.233669,173.617999 195.725,173.758 C195.216331,173.898001 194.65867,173.968 194.052,173.968 C193.44533,173.968 192.887669,173.898001 192.379,173.758 C191.870331,173.617999 191.434002,173.389335 191.07,173.072 C190.696665,172.754665 190.407334,172.339336 190.202,171.826 C189.996666,171.312664 189.894,170.68267 189.894,169.936 L189.894,164.168 Z M201.282,164.168 L204.656,164.168 C205.505338,164.168 206.251997,164.289332 206.896,164.532 C207.540003,164.774668 208.081331,165.105998 208.52,165.526 C208.949335,165.955335 209.273666,166.463997 209.493,167.052 C209.712334,167.640003 209.822,168.283997 209.822,168.984 C209.822,169.684004 209.712334,170.327997 209.493,170.916 C209.273666,171.504003 208.949335,172.007998 208.52,172.428 C208.081331,172.857335 207.540003,173.193332 206.896,173.436 C206.251997,173.678668 205.505338,173.8 204.656,173.8 L201.282,173.8 L201.282,164.168 Z M203.158,165.722 L203.158,172.246 L204.586,172.246 C205.183336,172.246 205.691998,172.157334 206.112,171.98 C206.532002,171.802666 206.877332,171.564668 207.148,171.266 C207.409335,170.967332 207.598333,170.622002 207.715,170.23 C207.831667,169.837998 207.89,169.422669 207.89,168.984 C207.89,168.545331 207.831667,168.130002 207.715,167.738 C207.598333,167.345998 207.409335,167.000668 207.148,166.702 C206.877332,166.403332 206.532002,166.165334 206.112,165.988 C205.691998,165.810666 205.183336,165.722 204.586,165.722 L203.158,165.722 Z" id="YOUR-OWN-CLOUD" fill="#222228"></path>
                        <path d="M164.49011,144.820847 L114.979095,144.820847 C114.905258,144.820847 114.831421,144.813326 114.760841,144.799359 C114.577335,144.811177 114.392742,144.820847 114.204892,144.820847 C106.923253,144.820847 101,138.959006 101,131.754185 C101,125.956807 104.777635,120.956622 110.300214,119.279508 C110.287184,119.095788 110.281754,118.918515 110.281754,118.742316 C110.281754,113.366097 114.702206,108.992278 120.135746,108.992278 C121.284564,108.992278 122.406236,109.18889 123.480131,109.576743 C127.668213,101.904565 135.909734,97 144.761496,97 C158.08583,97 168.926849,107.725579 168.926849,120.910423 C168.926849,121.362739 168.912733,121.821501 168.883416,122.298528 C173.106245,124.193742 175.889251,128.408552 175.889251,133.030553 C175.889251,139.251238 171.027948,144.367457 164.777857,144.781095 C164.686647,144.80688 164.588921,144.820847 164.49011,144.820847 Z M115.267928,142.672078 L164.252311,142.672078 C164.312032,142.659186 164.373925,142.650591 164.43799,142.647367 C169.641331,142.404557 173.717572,138.180077 173.717572,133.030553 C173.717572,129.028472 171.163678,125.399201 167.362155,124.001427 C166.902845,123.832749 166.615097,123.380433 166.659617,122.898034 C166.724767,122.194313 166.755171,121.54431 166.755171,120.911498 C166.755171,108.912774 156.889235,99.1498431 144.761496,99.1498431 C136.261545,99.1498431 128.675872,103.853498 124.963388,111.426833 C124.83743,111.683611 124.613747,111.880223 124.340116,111.973695 C124.06757,112.067166 123.768964,112.048901 123.508363,111.923198 C122.440983,111.405345 121.306281,111.142121 120.136832,111.142121 C115.900973,111.142121 112.454519,114.552217 112.454519,118.74339 C112.454519,119.095788 112.487094,119.467525 112.556588,119.915544 C112.643455,120.472075 112.280785,120.999597 111.725921,121.1253 C106.688712,122.270594 103.171679,126.642264 103.171679,131.755259 C103.171679,137.775034 108.12202,142.673153 114.204892,142.673153 C114.384055,142.673153 114.561047,142.66026 114.736953,142.648442 L114.909601,142.636624 C115.025786,142.62588 115.152829,142.639847 115.267928,142.672078 Z" id="Shape" fill="#231F20" fill-rule="nonzero"></path>
                    </g>
                    <g id="On-Premise" opacity="0.600000024" transform="translate(637.000000, 55.000000)">
                        <g id="Rectangle-4">
                            <use fill="black" fill-opacity="1" filter="url(#filter-4)" xlink:href="#path-3"></use>
                            <use fill="#FFFFFF" fill-rule="evenodd" xlink:href="#path-3"></use>
                        </g>
                        <path d="M90,170.984 C90,170.26533 90.1166655,169.60267 90.35,168.996 C90.5833345,168.38933 90.9146645,167.862002 91.344,167.414 C91.7640021,166.975331 92.2773303,166.630001 92.884,166.378 C93.4906697,166.125999 94.1673296,166 94.914,166 C95.6420036,166 96.306997,166.125999 96.909,166.378 C97.511003,166.630001 98.0266645,166.975331 98.456,167.414 C98.8853355,167.862002 99.2189988,168.38933 99.457,168.996 C99.6950012,169.60267 99.814,170.26533 99.814,170.984 C99.814,171.70267 99.6950012,172.36533 99.457,172.972 C99.2189988,173.57867 98.8853355,174.101331 98.456,174.54 C98.0266645,174.988002 97.511003,175.337999 96.909,175.59 C96.306997,175.842001 95.6420036,175.968 94.914,175.968 C94.1673296,175.968 93.4906697,175.842001 92.884,175.59 C92.2773303,175.337999 91.7640021,174.988002 91.344,174.54 C90.9146645,174.101331 90.5833345,173.57867 90.35,172.972 C90.1166655,172.36533 90,171.70267 90,170.984 Z M91.932,170.984 C91.932,171.478669 92.0043326,171.931331 92.149,172.342 C92.2936674,172.752669 92.4966654,173.107332 92.758,173.406 C93.0100013,173.704668 93.3203315,173.937999 93.689,174.106 C94.0576685,174.274001 94.4659978,174.358 94.914,174.358 C95.3620022,174.358 95.7679982,174.274001 96.132,174.106 C96.4960018,173.937999 96.8086654,173.700002 97.07,173.392 C97.3220013,173.093332 97.5203326,172.738669 97.665,172.328 C97.8096674,171.917331 97.882,171.469336 97.882,170.984 C97.882,170.498664 97.8096674,170.050669 97.665,169.64 C97.5203326,169.229331 97.3220013,168.870002 97.07,168.562 C96.8086654,168.263332 96.4960018,168.030001 96.132,167.862 C95.7679982,167.693999 95.3620022,167.61 94.914,167.61 C94.4659978,167.61 94.0576685,167.693999 93.689,167.862 C93.3203315,168.030001 93.0100013,168.263332 92.758,168.562 C92.4966654,168.860668 92.2936674,169.217665 92.149,169.633 C92.0043326,170.048335 91.932,170.498664 91.932,170.984 Z M102.564,166.168 L104.258,166.168 L109.088,172.608 L109.144,172.608 L109.088,166.168 L110.964,166.168 L110.964,175.8 L109.298,175.8 L104.44,169.36 L104.384,169.36 L104.44,175.8 L102.564,175.8 L102.564,166.168 Z M118.312,166.168 L122.456,166.168 C123.025336,166.168 123.533998,166.244999 123.982,166.399 C124.430002,166.553001 124.803332,166.769999 125.102,167.05 C125.400668,167.330001 125.629333,167.665998 125.788,168.058 C125.946667,168.450002 126.026,168.879331 126.026,169.346 C126.026,169.822002 125.946667,170.262998 125.788,170.669 C125.629333,171.075002 125.400668,171.422665 125.102,171.712 C124.803332,172.010668 124.430002,172.241666 123.982,172.405 C123.533998,172.568334 123.025336,172.65 122.456,172.65 L120.188,172.65 L120.188,175.8 L118.312,175.8 L118.312,166.168 Z M120.188,167.68 L120.188,171.138 L122.288,171.138 C122.904003,171.138 123.363665,170.972335 123.667,170.641 C123.970335,170.309665 124.122,169.887336 124.122,169.374 C124.122,168.869997 123.970335,168.461668 123.667,168.149 C123.363665,167.836332 122.904003,167.68 122.288,167.68 L120.188,167.68 Z M128.762,166.168 L132.892,166.168 C134.058673,166.168 134.942997,166.431664 135.545,166.959 C136.147003,167.486336 136.448,168.221329 136.448,169.164 C136.448,169.85467 136.277668,170.454331 135.937,170.963 C135.596332,171.471669 135.090003,171.842666 134.418,172.076 L136.812,175.8 L134.768,175.8 L132.556,172.3 L130.638,172.3 L130.638,175.8 L128.762,175.8 L128.762,166.168 Z M130.638,167.68 L130.638,170.83 L132.808,170.83 C133.38667,170.83 133.820665,170.673668 134.11,170.361 C134.399335,170.048332 134.544,169.654002 134.544,169.178 C134.544,168.711331 134.394668,168.345001 134.096,168.079 C133.797332,167.812999 133.368003,167.68 132.808,167.68 L130.638,167.68 Z M139.478,166.168 L146.464,166.168 L146.464,167.722 L141.354,167.722 L141.354,170.144 L145.47,170.144 L145.47,171.628 L141.354,171.628 L141.354,174.246 L146.59,174.246 L146.59,175.8 L139.478,175.8 L139.478,166.168 Z M149.438,166.168 L151.958,166.168 L154.87,173.238 L154.912,173.238 L157.824,166.168 L160.288,166.168 L160.288,175.8 L158.412,175.8 L158.552,168.744 L158.496,168.744 L155.57,175.8 L154.156,175.8 L151.23,168.842 L151.174,168.842 L151.314,175.8 L149.438,175.8 L149.438,166.168 Z M163.556,166.168 L165.432,166.168 L165.432,175.8 L163.556,175.8 L163.556,166.168 Z M170.1,172.944 C170.1,173.466669 170.288998,173.867999 170.667,174.148 C171.045002,174.428001 171.546664,174.568 172.172,174.568 C172.872004,174.568 173.401665,174.442001 173.761,174.19 C174.120335,173.937999 174.3,173.578669 174.3,173.112 C174.3,172.897332 174.253334,172.717667 174.16,172.573 C174.066666,172.428333 173.936001,172.304667 173.768,172.202 C173.590666,172.108666 173.385334,172.029334 173.152,171.964 C172.918666,171.898666 172.662001,171.842667 172.382,171.796 L171.738,171.684 C171.345998,171.618666 170.951669,171.534667 170.555,171.432 C170.158331,171.329333 169.806002,171.175334 169.498,170.97 C169.180665,170.773999 168.924001,170.510335 168.728,170.179 C168.531999,169.847665 168.434,169.420669 168.434,168.898 C168.434,168.487331 168.522666,168.104668 168.7,167.75 C168.877334,167.395332 169.129332,167.087335 169.456,166.826 C169.782668,166.573999 170.176998,166.373334 170.639,166.224 C171.101002,166.074666 171.62133,166 172.2,166 C172.760003,166 173.268664,166.065333 173.726,166.196 C174.183336,166.326667 174.575332,166.513332 174.902,166.756 C175.219335,167.008001 175.466666,167.313665 175.644,167.673 C175.821334,168.032335 175.91,168.435998 175.91,168.884 L174.076,168.884 C174.076,168.379997 173.898668,168.006668 173.544,167.764 C173.189332,167.521332 172.741336,167.4 172.2,167.4 C171.658664,167.4 171.206002,167.509666 170.842,167.729 C170.477998,167.948334 170.296,168.277331 170.296,168.716 C170.296,168.940001 170.349666,169.124333 170.457,169.269 C170.564334,169.413667 170.711332,169.532666 170.898,169.626 C171.084668,169.728667 171.306332,169.810333 171.563,169.871 C171.819668,169.931667 172.101998,169.99 172.41,170.046 L173.054,170.158 C173.436669,170.232667 173.816998,170.323666 174.195,170.431 C174.573002,170.538334 174.911332,170.689999 175.21,170.886 C175.508668,171.091334 175.751332,171.357332 175.938,171.684 C176.124668,172.010668 176.218,172.425997 176.218,172.93 C176.218,173.378002 176.129334,173.788665 175.952,174.162 C175.774666,174.535335 175.513335,174.852665 175.168,175.114 C174.822665,175.384668 174.398003,175.594666 173.894,175.744 C173.389997,175.893334 172.816003,175.968 172.172,175.968 C170.893327,175.968 169.92267,175.704336 169.26,175.177 C168.59733,174.649664 168.266,173.905338 168.266,172.944 L170.1,172.944 Z M179.052,166.168 L186.038,166.168 L186.038,167.722 L180.928,167.722 L180.928,170.144 L185.044,170.144 L185.044,171.628 L180.928,171.628 L180.928,174.246 L186.164,174.246 L186.164,175.8 L179.052,175.8 L179.052,166.168 Z" id="ON-PREMISE" fill="#222228"></path>
                        <g id="Group-2" transform="translate(91.032573, 97.446254)">
                            <rect id="Rectangle" stroke="#000000" stroke-width="1.92375" x="0.961875" y="0.961875" width="41.156809" height="46.799377" rx="5.13"></rect>
                            <path d="M1.87090439,16.9177524 L41.5599527,16.9177524" id="Path-2" stroke="#000000" stroke-width="1.92375"></path>
                            <circle id="Oval-2" fill="#EB5424" cx="34.85057" cy="9.13558632" r="1.69177524"></circle>
                            <circle id="Oval-2" fill="#000000" cx="34.85057" cy="24.6999186" r="1.69177524"></circle>
                            <circle id="Oval-2" fill="#000000" cx="34.85057" cy="39.5875407" r="1.69177524"></circle>
                            <circle id="Oval-2" fill="#000000" cx="29.4368893" cy="9.13558632" r="1.69177524"></circle>
                            <circle id="Oval-2" fill="#EB5424" cx="29.4368893" cy="24.6999186" r="1.69177524"></circle>
                            <circle id="Oval-2" fill="#000000" cx="29.4368893" cy="39.5875407" r="1.69177524"></circle>
                            <path d="M0.517484192,32.1920661 L41.5599527,32.1920661" id="Path-2" stroke="#000000" stroke-width="1.92375"></path>
                        </g>
                        <g id="Group-2" transform="translate(140.657980, 97.446254)">
                            <rect id="Rectangle" stroke="#000000" stroke-width="1.92375" x="0.961875" y="0.961875" width="41.156809" height="46.799377" rx="5.13"></rect>
                            <path d="M1.87090439,16.9177524 L41.5599527,16.9177524" id="Path-2" stroke="#000000" stroke-width="1.92375"></path>
                            <circle id="Oval-2" fill="#000000" cx="34.85057" cy="9.13558632" r="1.69177524"></circle>
                            <circle id="Oval-2" fill="#EB5424" cx="34.85057" cy="24.6999186" r="1.69177524"></circle>
                            <circle id="Oval-2" fill="#000000" cx="34.85057" cy="39.5875407" r="1.69177524"></circle>
                            <circle id="Oval-2" fill="#000000" cx="29.4368893" cy="9.13558632" r="1.69177524"></circle>
                            <circle id="Oval-2" fill="#EB5424" cx="29.4368893" cy="24.6999186" r="1.69177524"></circle>
                            <circle id="Oval-2" fill="#EB5424" cx="29.4368893" cy="39.5875407" r="1.69177524"></circle>
                            <path d="M0.517484192,32.1920661 L41.5599527,32.1920661" id="Path-2" stroke="#000000" stroke-width="1.92375"></path>
                        </g>
                    </g>
                    <g id="Auth0-Cloud" filter="url(#filter-5)" transform="translate(277.000000, 0.000000)">
                        <rect id="Rectangle-4" fill="#FFFFFF" x="0" y="0" width="359.754221" height="360" rx="4.15025907"></rect>
                        <g id="Ilus" transform="translate(133.589515, 106.660462)">
                            <path d="M56.6335341,53.2349197 L70.4077045,53.2349197 C75.633749,53.2349197 79.8702952,57.4714658 79.8702952,62.6975103 L79.8702952,69.5124799" id="Path-2" stroke="#000000" stroke-width="2.36564767"></path>
                            <path d="M56.6335341,29.128541 L70.4077045,29.128541 C75.633749,29.128541 79.8702952,33.3650871 79.8702952,38.5911316 L79.8702952,45.4061011" id="Path-2" stroke="#000000" stroke-width="2.36564767" transform="translate(68.251915, 37.267321) scale(1, -1) translate(-68.251915, -37.267321) "></path>
                            <g id="Group-2" transform="translate(0.000000, 21.093081)">
                                <rect id="Rectangle" stroke="#000000" stroke-width="2.36564767" x="1.18282383" y="1.18282383" width="47.3685295" height="53.8825693" rx="6.30839378"></rect>
                                <path d="M2.15985801,19.5306309 L47.9787193,19.5306309" id="Path-2" stroke="#000000" stroke-width="2.36564767"></path>
                                <circle id="Oval-2" fill="#000000" cx="40.2330997" cy="10.5465407" r="1.95306309"></circle>
                                <circle id="Oval-2" fill="#222228" cx="40.2330997" cy="28.5147211" r="1.95306309"></circle>
                                <circle id="Oval-2" fill="#EB5424" cx="40.2330997" cy="45.7016763" r="1.95306309"></circle>
                                <circle id="Oval-2" fill="#222228" cx="33.9832978" cy="10.5465407" r="1.95306309"></circle>
                                <circle id="Oval-2" fill="#222228" cx="33.9832978" cy="28.5147211" r="1.95306309"></circle>
                                <circle id="Oval-2" fill="#000000" cx="33.9832978" cy="45.7016763" r="1.95306309"></circle>
                                <path d="M0.597407534,37.1640005 L47.9787193,37.1640005" id="Path-2" stroke="#000000" stroke-width="2.36564767"></path>
                            </g>
                            <ellipse id="Oval" stroke="#000000" stroke-width="1.88969243" fill="#FFFFFF" cx="80.0755867" cy="12.4996038" rx="12.8902164" ry="12.4996038"></ellipse>
                            <g id="Group" transform="translate(72.653947, 6.249802)" stroke="#EB5424" stroke-width="1.88969243">
                                <rect id="Rectangle-2" x="5.12963221" y="0.944846213" width="5.43368307" height="5.30983426" rx="2.65491713"></rect>
                                <polyline id="Path-4" points="3.29899267 10.3684032 12.3122207 10.3684032 15.1340906 15.275893"></polyline>
                                <polyline id="Path-4" transform="translate(6.077952, 12.822148) scale(-1, 1) translate(-6.077952, -12.822148) " points="0.160403174 10.3684032 9.17363122 10.3684032 11.9955011 15.275893"></polyline>
                            </g>
                            <ellipse id="Oval" stroke="#000000" stroke-width="1.88969243" fill="#FFFFFF" cx="80.0755867" cy="86.7160012" rx="12.8902164" ry="12.4996038"></ellipse>
                            <g id="Group" transform="translate(72.653947, 80.466199)" stroke="#EB5424" stroke-width="1.88969243">
                                <rect id="Rectangle-2" x="5.12963221" y="0.944846213" width="5.43368307" height="5.30983426" rx="2.65491713"></rect>
                                <polyline id="Path-4" points="3.29899267 10.3684032 12.3122207 10.3684032 15.1340906 15.275893"></polyline>
                                <polyline id="Path-4" transform="translate(6.077952, 12.822148) scale(-1, 1) translate(-6.077952, -12.822148) " points="0.160403174 10.3684032 9.17363122 10.3684032 11.9955011 15.275893"></polyline>
                            </g>
                        </g>
                        <path d="M129.584,235.168 L131.796,235.168 L135.38,244.8 L133.392,244.8 L132.65,242.644 L128.66,242.644 L127.904,244.8 L126,244.8 L129.584,235.168 Z M130.648,236.946 L129.178,241.132 L132.132,241.132 L130.704,236.946 L130.648,236.946 Z M137.248,235.168 L139.138,235.168 L139.138,240.908 C139.138,241.701337 139.324665,242.307998 139.698,242.728 C140.071335,243.148002 140.640663,243.358 141.406,243.358 C142.162004,243.358 142.726665,243.148002 143.1,242.728 C143.473335,242.307998 143.66,241.701337 143.66,240.908 L143.66,235.168 L145.55,235.168 L145.55,240.936 C145.55,241.68267 145.447334,242.312664 145.242,242.826 C145.036666,243.339336 144.752002,243.754665 144.388,244.072 C144.023998,244.389335 143.587669,244.617999 143.079,244.758 C142.570331,244.898001 142.01267,244.968 141.406,244.968 C140.79933,244.968 140.241669,244.898001 139.733,244.758 C139.224331,244.617999 138.788002,244.389335 138.424,244.072 C138.050665,243.754665 137.761334,243.339336 137.556,242.826 C137.350666,242.312664 137.248,241.68267 137.248,240.936 L137.248,235.168 Z M147.614,235.168 L156.014,235.168 L156.014,236.736 L152.752,236.736 L152.752,244.8 L150.876,244.8 L150.876,236.736 L147.614,236.736 L147.614,235.168 Z M158.26,235.168 L160.136,235.168 L160.136,239.13 L164.672,239.13 L164.672,235.168 L166.548,235.168 L166.548,244.8 L164.672,244.8 L164.672,240.726 L160.136,240.726 L160.136,244.8 L158.26,244.8 L158.26,235.168 Z M172.658,244.968 C172.02333,244.968 171.484336,244.839668 171.041,244.583 C170.597664,244.326332 170.236001,243.974002 169.956,243.526 C169.675999,243.077998 169.470667,242.55067 169.34,241.944 C169.209333,241.33733 169.144,240.684004 169.144,239.984 C169.144,239.283997 169.209333,238.63067 169.34,238.024 C169.470667,237.41733 169.675999,236.890002 169.956,236.442 C170.236001,235.993998 170.597664,235.641668 171.041,235.385 C171.484336,235.128332 172.02333,235 172.658,235 C173.283336,235 173.819998,235.128332 174.268,235.385 C174.716002,235.641668 175.079999,235.993998 175.36,236.442 C175.640001,236.890002 175.845333,237.41733 175.976,238.024 C176.106667,238.63067 176.172,239.283997 176.172,239.984 C176.172,240.684004 176.106667,241.33733 175.976,241.944 C175.845333,242.55067 175.640001,243.077998 175.36,243.526 C175.079999,243.974002 174.716002,244.326332 174.268,244.583 C173.819998,244.839668 173.283336,244.968 172.658,244.968 Z M172.658,243.484 C173.218003,243.484 173.635665,243.192336 173.911,242.609 C174.186335,242.025664 174.324,241.150673 174.324,239.984 C174.324,238.817328 174.186335,237.942336 173.911,237.359 C173.635665,236.775664 173.218003,236.484 172.658,236.484 C172.07933,236.484 171.657001,236.775664 171.391,237.359 C171.124999,237.942336 170.992,238.817328 170.992,239.984 C170.992,241.150673 171.131999,242.025664 171.412,242.609 C171.692001,243.192336 172.107331,243.484 172.658,243.484 Z M182.33,239.984 C182.33,239.274663 182.441999,238.61667 182.666,238.01 C182.890001,237.40333 183.211998,236.876002 183.632,236.428 C184.052002,235.979998 184.55833,235.630001 185.151,235.378 C185.74367,235.125999 186.403996,235 187.132,235 C188.326673,235 189.299663,235.30333 190.051,235.91 C190.802337,236.51667 191.271332,237.356661 191.458,238.43 L189.554,238.43 C189.395333,237.82333 189.113002,237.368335 188.707,237.065 C188.300998,236.761665 187.776003,236.61 187.132,236.61 C186.693331,236.61 186.296668,236.691666 185.942,236.855 C185.587332,237.018334 185.288668,237.249332 185.046,237.548 C184.793999,237.846668 184.600334,238.203665 184.465,238.619 C184.329666,239.034335 184.262,239.489331 184.262,239.984 C184.262,240.469336 184.329666,240.917331 184.465,241.328 C184.600334,241.738669 184.793999,242.093332 185.046,242.392 C185.298001,242.700002 185.598998,242.937999 185.949,243.106 C186.299002,243.274001 186.693331,243.358 187.132,243.358 C187.813337,243.358 188.347665,243.206335 188.735,242.903 C189.122335,242.599665 189.395333,242.14467 189.554,241.538 L191.458,241.538 C191.364666,242.070003 191.196668,242.548331 190.954,242.973 C190.711332,243.397669 190.403335,243.754665 190.03,244.044 C189.656665,244.342668 189.225002,244.571333 188.735,244.73 C188.244998,244.888667 187.701336,244.968 187.104,244.968 C186.35733,244.968 185.690003,244.842001 185.102,244.59 C184.513997,244.337999 184.014669,243.988002 183.604,243.54 C183.193331,243.101331 182.878334,242.57867 182.659,241.972 C182.439666,241.36533 182.33,240.70267 182.33,239.984 Z M194.124,235.168 L196,235.168 L196,243.218 L200.606,243.218 L200.606,244.8 L194.124,244.8 L194.124,235.168 Z M202.236,239.984 C202.236,239.26533 202.352665,238.60267 202.586,237.996 C202.819334,237.38933 203.150665,236.862002 203.58,236.414 C204.000002,235.975331 204.51333,235.630001 205.12,235.378 C205.72667,235.125999 206.40333,235 207.15,235 C207.878004,235 208.542997,235.125999 209.145,235.378 C209.747003,235.630001 210.262665,235.975331 210.692,236.414 C211.121335,236.862002 211.454999,237.38933 211.693,237.996 C211.931001,238.60267 212.05,239.26533 212.05,239.984 C212.05,240.70267 211.931001,241.36533 211.693,241.972 C211.454999,242.57867 211.121335,243.101331 210.692,243.54 C210.262665,243.988002 209.747003,244.337999 209.145,244.59 C208.542997,244.842001 207.878004,244.968 207.15,244.968 C206.40333,244.968 205.72667,244.842001 205.12,244.59 C204.51333,244.337999 204.000002,243.988002 203.58,243.54 C203.150665,243.101331 202.819334,242.57867 202.586,241.972 C202.352665,241.36533 202.236,240.70267 202.236,239.984 Z M204.168,239.984 C204.168,240.478669 204.240333,240.931331 204.385,241.342 C204.529667,241.752669 204.732665,242.107332 204.994,242.406 C205.246001,242.704668 205.556331,242.937999 205.925,243.106 C206.293669,243.274001 206.701998,243.358 207.15,243.358 C207.598002,243.358 208.003998,243.274001 208.368,243.106 C208.732002,242.937999 209.044665,242.700002 209.306,242.392 C209.558001,242.093332 209.756333,241.738669 209.901,241.328 C210.045667,240.917331 210.118,240.469336 210.118,239.984 C210.118,239.498664 210.045667,239.050669 209.901,238.64 C209.756333,238.229331 209.558001,237.870002 209.306,237.562 C209.044665,237.263332 208.732002,237.030001 208.368,236.862 C208.003998,236.693999 207.598002,236.61 207.15,236.61 C206.701998,236.61 206.293669,236.693999 205.925,236.862 C205.556331,237.030001 205.246001,237.263332 204.994,237.562 C204.732665,237.860668 204.529667,238.217665 204.385,238.633 C204.240333,239.048335 204.168,239.498664 204.168,239.984 Z M214.674,235.168 L216.564,235.168 L216.564,240.908 C216.564,241.701337 216.750665,242.307998 217.124,242.728 C217.497335,243.148002 218.066663,243.358 218.832,243.358 C219.588004,243.358 220.152665,243.148002 220.526,242.728 C220.899335,242.307998 221.086,241.701337 221.086,240.908 L221.086,235.168 L222.976,235.168 L222.976,240.936 C222.976,241.68267 222.873334,242.312664 222.668,242.826 C222.462666,243.339336 222.178002,243.754665 221.814,244.072 C221.449998,244.389335 221.013669,244.617999 220.505,244.758 C219.996331,244.898001 219.43867,244.968 218.832,244.968 C218.22533,244.968 217.667669,244.898001 217.159,244.758 C216.650331,244.617999 216.214002,244.389335 215.85,244.072 C215.476665,243.754665 215.187334,243.339336 214.982,242.826 C214.776666,242.312664 214.674,241.68267 214.674,240.936 L214.674,235.168 Z M226.062,235.168 L229.436,235.168 C230.285338,235.168 231.031997,235.289332 231.676,235.532 C232.320003,235.774668 232.861331,236.105998 233.3,236.526 C233.729335,236.955335 234.053666,237.463997 234.273,238.052 C234.492334,238.640003 234.602,239.283997 234.602,239.984 C234.602,240.684004 234.492334,241.327997 234.273,241.916 C234.053666,242.504003 233.729335,243.007998 233.3,243.428 C232.861331,243.857335 232.320003,244.193332 231.676,244.436 C231.031997,244.678668 230.285338,244.8 229.436,244.8 L226.062,244.8 L226.062,235.168 Z M227.938,236.722 L227.938,243.246 L229.366,243.246 C229.963336,243.246 230.471998,243.157334 230.892,242.98 C231.312002,242.802666 231.657332,242.564668 231.928,242.266 C232.189335,241.967332 232.378333,241.622002 232.495,241.23 C232.611667,240.837998 232.67,240.422669 232.67,239.984 C232.67,239.545331 232.611667,239.130002 232.495,238.738 C232.378333,238.345998 232.189335,238.000668 231.928,237.702 C231.657332,237.403332 231.312002,237.165334 230.892,236.988 C230.471998,236.810666 229.963336,236.722 229.366,236.722 L227.938,236.722 Z" id="AUTH0-CLOUD" fill="#222228"></path>
                    </g>
                </g>
            </g>
        </g>
    </g>
</svg>