<svg xmlns="http://www.w3.org/2000/svg" width="195.451" height="35.319" viewBox="0 0 195.45107 35.319003" overflow="visible"><g clip-rule="evenodd" fill="#003263" fill-rule="evenodd"><path d="M31.078 10.683c.703.007 1.185.22 1.576.405.814.385 1.767.829 2.961 1.402 0 .006 1.93-1.367 2.032-1.436.654-.449 1.286-.109 1.49.276.72 1.356 2.046 4.171 2.746 6.746.083.31-.016.792-.5.936-.278.082-.757.15-1.26.214-.698.088-.684.65-.684.992 0 .421.006 3.267.006 4.238.017.597-.44 2.546-2.694 2.544l-5.14-.002c-1.943.01-3.507-1.633-3.516-3.382-.002-1.15-.001-9.153.002-10.05.008-1.734 1.563-2.9 2.98-2.883z"/><path d="M22.948 27H6.236v1.857h19.61s.707-1.644.707-3.457l.007-12.603c0-.993.405-2.67 2.445-3.115l.172-.037c5.79-1.368 11.756-.122 15.117 1.33.608.292.747-.192.727-.396.073-2.833-2.08-6.06-6.041-6.255-3.216-.075-5 1.082-5.656 1.403-.05.024-.132.012-.205-.069-.593-.587-1.86-1.462-3.284-1.87-.212-.047-.233-.36.014-.386 3.043-.328 5.708.017 6.82.199.256.041.446-.108.345-.345-.076-.178-.141-.263-.27-.54-.27-.581-.988-1.2-1.9-1.454C32.453.597 28.377.022 24.746.001c-4.087-.025-8.394.792-9.482 1.034-.261.058-.628.15-.692.164-.298.059-.368.34-.24.481.082.09.306.278.413.41.136.17.198.408-.06.658L7.13 9.538h5.17l.06-.006c.336-.007.653.298.655.685.002.349-.277.677-.63.677l-.045.003H5.624L3.57 12.764h8.794l.048-.003c.346.002.614.362.61.686-.004.301-.258.67-.61.67l-.053.002H2.063l-2.06 1.86h17.762l.057.003c.35 0 .62.36.625.672.005.365-.252.695-.61.692H0v1.853h17.748l.054.006c.407 0 .642.369.641.708-.001.308-.298.639-.65.639H0v1.872h23.227c.385.01.632.341.62.701-.009.314-.27.651-.62.651l-.047-.002H6.24v1.866h17.058c.315 0 .585.39.585.704 0 .313-.276.655-.59.655h-.345zm-10.473 6.418l-.003 1.897s2.512.009 3.943 0c3.53-.02 5.845-1.897 5.845-1.897h-9.785zm0-3.2l-.003 1.86h11.343c.524-.528 1.199-1.5 1.374-1.858l-12.714-.002zM195.413 18.73c-.002-.037-.008-.068-.01-.101a7.308 7.308 0 0 0-1.22-3.74c-1.405-2.205-3.871-3.393-6.838-3.357-2.967-.036-5.434 1.152-6.84 3.357a7.302 7.302 0 0 0-1.219 3.74c-.003.033-.008.064-.01.1-.404 4.84 2.415 8.187 7.223 8.573.288.023.57.033.846.029a8.59 8.59 0 0 0 .843-.03c4.81-.385 7.63-3.733 7.225-8.572zm-7.697 6.3c-.127.01-.252.014-.371.017a5.798 5.798 0 0 1-.372-.017 3.292 3.292 0 0 1-1.77-.706 4.065 4.065 0 0 1-.425-.413c-.738-.835-1.14-2.255-1.234-3.379-.219-2.616.308-6.438 3.521-6.695a4.04 4.04 0 0 1 .242-.012h.076c.08.001.16.005.242.012 3.213.257 3.737 4.08 3.52 6.695-.095 1.125-.454 2.517-1.235 3.38-.139.155-.28.293-.423.412-.51.39-1.111.653-1.77.706zm-24.271-9.902c0-1.198.118-3.302.118-3.302h-3.948s.119 2.104.119 3.302l-.009 8.624c0 1.196-.108 3.238-.108 3.238h3.946s-.11-2.042-.11-3.238l-.008-8.624zm-23.025 9.516c-.824 0-1.907 0-2.742.002a212.015 212.015 0 0 1-.06-4.332l-.003-.207h.002v-.036h4.553v-2.144h-4.548c.013-2.31.056-3.826.056-3.826l5.653-.005v-2.273c-3.95.014-9.655 0-9.655 0s.085 2.093.085 3.29v8.608c0 1.095-.07 2.954-.081 3.264h10.02l.009-2.406s-1.974.065-3.29.065zm-65.714 0c-.823 0-1.907 0-2.741.002a212.191 212.191 0 0 1-.06-4.332l-.003-.205h.003v-.038h4.552v-2.144h-4.548c.013-2.308.056-3.826.056-3.826l5.651-.004v-2.273c-3.949.013-9.654 0-9.654 0s.085 2.092.085 3.289v8.608c0 1.095-.068 2.956-.08 3.264h10.022l.006-2.406s-1.972.065-3.289.065zm78.614-5.812l4.35-7.003h-3.013l-.024.064c-.913 1.578-2.048 3.484-2.5 4.181l-.175.283-2.521-4.528h-4.533l4.37 7.84-4.554 7.32h2.997c1.943-3.318 2.94-4.845 2.94-4.845l2.704 4.846h4.513l-4.554-8.158zm22.42 6.093c-3.507 0-5.397-2.578-5.301-5.752.082-2.764 1.348-5.115 4.358-5.317 1.153-.077 2.094.123 3.712.558l-.165-2.37s-1.37-.437-3.335-.512c-2.498-.095-4.759.387-6.565 2.048-1.604 1.477-2.565 3.66-2.565 5.778 0 2.347.964 4.51 2.777 6.005 1.882 1.587 3.903 1.945 6.302 1.945 1.577 0 2.504-.105 4.033-.517l-.228-2.327c-.326.111-1.431.461-3.024.461zM125.106 9.554l4.394-.002.122 1.012c.981 10.13 1.584 16.43 1.584 16.43h-4.573l-.453-6.277-.42-5.606-3.873 11.875c-1.024.004-2.447 0-2.447 0s-1.228-4.22-1.45-4.81l-2.22-7.121s-.342 3.965-.473 5.662c-.267 3.4-.504 6.277-.504 6.277h-3.412s1.396-14.181 1.5-15.045c.105-.89.274-2.396.274-2.396h4.484l3.72 10.213 3.747-10.212zm-15.566 9.194l-.011-.1a7.26 7.26 0 0 0-1.214-3.723c-1.4-2.194-3.854-3.379-6.808-3.342-2.954-.037-5.41 1.148-6.81 3.342a7.271 7.271 0 0 0-1.214 3.723c-.002.035-.007.066-.01.1-.402 4.818 2.406 8.152 7.194 8.535.284.023.565.031.84.03.275.001.554-.007.84-.03 4.786-.383 7.594-3.717 7.192-8.535zm-7.662 6.274a6 6 0 0 1-.37.016 4.724 4.724 0 0 1-.371-.016 3.293 3.293 0 0 1-1.762-.702 4.098 4.098 0 0 1-.423-.412c-.735-.83-1.135-2.245-1.228-3.365-.218-2.603.305-6.41 3.504-6.665.083-.006.162-.01.242-.012h.075c.078.002.159.006.24.012 3.2.256 3.722 4.062 3.505 6.665-.093 1.12-.451 2.506-1.228 3.365-.14.154-.28.29-.423.412-.507.387-1.106.649-1.761.702zm-34.866 1.963c-.132-.312-.947-2.234-1.544-3.787L60.345 9.552h-3.988s-1.138 3.197-1.301 3.727l-3.741 10.58c-.489 1.353-1.167 3.13-1.167 3.13h3.254s.922-2.944 1.112-3.473l.5-1.472h5.645l.769 2.24c.161.421.83 2.668.84 2.701h4.744zM55.84 19.561l1.9-5.645.11-.33 1.986 5.974H55.84zm37.835 7.429c-.943-1.355-1.29-1.914-2.013-2.909l-2.72-4.225c1.308-.641 2.536-1.726 2.723-3.989.116-1.416-.642-2.592-1.093-2.993-.653-.58-1.293-.815-2.198-.924-.722-.096-1.247-.102-1.683-.13h-6.403s.077 2.097.077 3.294v8.576c0 1.197-.077 3.295-.077 3.295h3.94s-.118-2.098-.118-3.295l.028-2.752 1.46.005 2.493 4.566c.337.582.817 1.309.932 1.48h4.652zm-6.963-8.467c-.59.307-1.916.22-2.574.181l.051-4.333.37-.025c1.206-.097 2.088.069 2.45.23.54.238.86.75.888 1.603.044 1.278-.442 1.959-1.185 2.344z"/></g></svg>