<svg width="150" height="29" viewBox="0 0 150 29" xmlns="http://www.w3.org/2000/svg"><title>logo-nvidia</title><g fill="none" fill-rule="evenodd"><path d="M147.345 21.965v-.413h.264c.149 0 .347.012.347.188 0 .19-.116.225-.28.225h-.331zm0 .29h.182l.396.722h.446l-.446-.751c.231-.017.43-.13.43-.446 0-.393-.265-.52-.727-.52h-.66v1.717h.379v-.722zm1.915-.134c0-1.008-.776-1.593-1.65-1.593-.876 0-1.652.585-1.652 1.593s.776 1.595 1.651 1.595 1.651-.587 1.651-1.595zm-.462 0c0 .735-.545 1.227-1.189 1.227v-.005c-.644.005-1.172-.487-1.172-1.222 0-.734.528-1.225 1.172-1.225.644 0 1.189.49 1.189 1.225zM88.743 5.06l.002 18.092h5.089V5.06h-5.09zm-40.025-.025v18.117h5.133V9.396l3.977.001c1.317 0 2.255.33 2.89 1.01.805.86 1.133 2.25 1.133 4.79v7.955h4.973v-10.01c0-7.144-4.533-8.107-8.97-8.107h-9.136zm48.218.026v18.091h8.252c4.396 0 5.831-.734 7.385-2.38 1.096-1.156 1.804-3.693 1.804-6.467 0-2.542-.599-4.812-1.646-6.224-1.885-2.527-4.601-3.02-8.654-3.02h-7.141zM101.983 9h2.188c3.173 0 5.225 1.433 5.225 5.145 0 3.716-2.052 5.147-5.225 5.147h-2.188V8.999zM81.408 5.061L77.16 19.4 73.091 5.06h-5.49l5.81 18.091h7.333L86.6 5.062h-5.192zm35.337 18.091h5.088V5.062h-5.088v18.09zm14.263-18.086l-7.104 18.08h5.017l1.125-3.195h8.4l1.073 3.195h5.449l-7.166-18.08h-6.794zm3.304 3.3l3.077 8.47h-6.257l3.18-8.47z" fill="#000"/><path d="M16.132 8.615V6.033c.249-.017.5-.031.758-.04 7.03-.22 11.64 6.067 11.64 6.067s-4.98 6.948-10.32 6.948a6.457 6.457 0 0 1-2.078-.334v-7.827c2.736.332 3.286 1.546 4.931 4.3l3.66-3.099S22.052 8.53 17.55 8.53c-.49 0-.96.035-1.418.085zm0-8.527v3.856c.252-.02.505-.037.758-.045 9.776-.331 16.144 8.05 16.144 8.05s-7.315 8.933-14.936 8.933c-.698 0-1.352-.065-1.966-.174v2.384c.524.067 1.07.106 1.637.106 7.092 0 12.22-3.637 17.187-7.942.823.663 4.194 2.273 4.888 2.979-4.723 3.97-15.727 7.17-21.966 7.17-.601 0-1.18-.037-1.746-.092v3.35h26.954V.088H16.132zm0 18.586v2.034c-6.56-1.174-8.381-8.022-8.381-8.022s3.15-3.504 8.38-4.071v2.232h-.01c-2.744-.332-4.89 2.243-4.89 2.243s1.203 4.336 4.9 5.584zM4.482 12.39s3.887-5.761 11.65-6.357v-2.09C7.533 4.637.088 11.95.088 11.95s4.217 12.244 16.044 13.364v-2.221C7.452 21.995 4.482 12.39 4.482 12.39z" fill="#77B900"/></g></svg>