<svg width="544" height="743" viewBox="0 0 544 743" xmlns="http://www.w3.org/2000/svg" xmlns:xlink="http://www.w3.org/1999/xlink"><title>map</title><defs><path id="a" d="M0 0h547v745H0z"/></defs><g transform="translate(-1 -1)" fill="none" fill-rule="evenodd"><mask id="b" fill="#fff"><use xlink:href="#a"/></mask><g opacity=".06" mask="url(#b)" fill="#231F20"><circle cx="540.936" cy="4.946" r="3.462"/><circle cx="540.936" cy="17.309" r="3.462"/><circle cx="540.936" cy="29.674" r="3.462"/><circle cx="540.936" cy="42.285" r="3.462"/><circle cx="540.936" cy="54.648" r="3.462"/><circle cx="540.936" cy="67.259" r="3.462"/><circle cx="540.936" cy="79.622" r="3.462"/><circle cx="540.936" cy="91.988" r="3.462"/><circle cx="540.936" cy="104.599" r="3.462"/><circle cx="540.936" cy="116.962" r="3.462"/><circle cx="540.936" cy="129.573" r="3.462"/><circle cx="540.936" cy="141.939" r="3.462"/><circle cx="540.936" cy="154.302" r="3.462"/><circle cx="540.936" cy="503.458" r="3.462"/><circle cx="540.936" cy="515.821" r="3.462"/><circle cx="540.936" cy="528.187" r="3.462"/><circle cx="540.936" cy="540.798" r="3.462"/><circle cx="540.936" cy="553.161" r="3.462"/><circle cx="528.328" cy="17.309" r="3.462"/><circle cx="528.328" cy="29.674" r="3.462"/><circle cx="528.328" cy="42.285" r="3.462"/><circle cx="528.328" cy="54.648" r="3.462"/><circle cx="528.328" cy="67.259" r="3.462"/><circle cx="528.328" cy="79.622" r="3.462"/><circle cx="528.328" cy="91.988" r="3.462"/><circle cx="528.328" cy="104.599" r="3.462"/><circle cx="528.328" cy="116.962" r="3.462"/><circle cx="528.328" cy="129.573" r="3.462"/><circle cx="528.328" cy="141.939" r="3.462"/><circle cx="528.328" cy="154.302" r="3.462"/><circle cx="528.328" cy="166.913" r="3.462"/><circle cx="528.328" cy="179.276" r="3.462"/><circle cx="528.328" cy="503.458" r="3.462"/><circle cx="528.328" cy="515.821" r="3.462"/><circle cx="528.328" cy="528.187" r="3.462"/><circle cx="528.328" cy="540.798" r="3.462"/><circle cx="528.328" cy="553.161" r="3.462"/><circle cx="528.328" cy="565.772" r="3.462"/><circle cx="528.328" cy="578.138" r="3.462"/><circle cx="515.968" cy="17.309" r="3.462"/><circle cx="515.968" cy="29.674" r="3.462"/><circle cx="515.968" cy="42.285" r="3.462"/><circle cx="515.968" cy="54.648" r="3.462"/><circle cx="515.968" cy="67.259" r="3.462"/><circle cx="515.968" cy="79.622" r="3.462"/><circle cx="515.968" cy="91.988" r="3.462"/><circle cx="515.968" cy="104.599" r="3.462"/><circle cx="515.968" cy="116.962" r="3.462"/><circle cx="515.968" cy="129.573" r="3.462"/><circle cx="515.968" cy="141.939" r="3.462"/><circle cx="515.968" cy="154.302" r="3.462"/><circle cx="515.968" cy="166.913" r="3.462"/><circle cx="515.968" cy="179.276" r="3.462"/><circle cx="515.968" cy="191.887" r="3.462"/><circle cx="515.968" cy="490.847" r="3.462"/><circle cx="515.968" cy="503.458" r="3.462"/><circle cx="515.968" cy="515.821" r="3.462"/><circle cx="515.968" cy="528.187" r="3.462"/><circle cx="515.968" cy="540.798" r="3.462"/><circle cx="515.968" cy="553.161" r="3.462"/><circle cx="515.968" cy="565.772" r="3.462"/><circle cx="515.968" cy="578.138" r="3.462"/><circle cx="503.605" cy="17.309" r="3.462"/><circle cx="503.605" cy="29.674" r="3.462"/><circle cx="503.605" cy="42.285" r="3.462"/><circle cx="503.605" cy="54.648" r="3.462"/><circle cx="503.605" cy="67.259" r="3.462"/><circle cx="503.605" cy="79.622" r="3.462"/><circle cx="503.605" cy="91.988" r="3.462"/><circle cx="503.605" cy="104.599" r="3.462"/><circle cx="503.605" cy="116.962" r="3.462"/><circle cx="503.605" cy="129.573" r="3.462"/><circle cx="503.605" cy="141.939" r="3.462"/><circle cx="503.605" cy="154.302" r="3.462"/><circle cx="503.605" cy="166.913" r="3.462"/><circle cx="503.605" cy="179.276" r="3.462"/><circle cx="503.605" cy="191.887" r="3.462"/><circle cx="503.605" cy="490.847" r="3.462"/><circle cx="503.605" cy="503.458" r="3.462"/><circle cx="503.605" cy="515.821" r="3.462"/><circle cx="503.605" cy="528.187" r="3.462"/><circle cx="503.605" cy="540.798" r="3.462"/><circle cx="503.605" cy="553.161" r="3.462"/><circle cx="503.605" cy="565.772" r="3.462"/><circle cx="503.605" cy="578.138" r="3.462"/><circle cx="503.605" cy="590.501" r="3.462"/><circle cx="490.997" cy="17.309" r="3.462"/><circle cx="490.997" cy="29.674" r="3.462"/><circle cx="490.997" cy="42.285" r="3.462"/><circle cx="490.997" cy="54.648" r="3.462"/><circle cx="490.997" cy="67.259" r="3.462"/><circle cx="490.997" cy="79.622" r="3.462"/><circle cx="490.997" cy="91.988" r="3.462"/><circle cx="490.997" cy="104.599" r="3.462"/><circle cx="490.997" cy="116.962" r="3.462"/><circle cx="490.997" cy="129.573" r="3.462"/><circle cx="490.997" cy="141.939" r="3.462"/><circle cx="490.997" cy="154.302" r="3.462"/><circle cx="490.997" cy="166.913" r="3.462"/><circle cx="490.997" cy="179.276" r="3.462"/><circle cx="490.997" cy="465.873" r="3.462"/><circle cx="490.997" cy="478.484" r="3.462"/><circle cx="490.997" cy="490.847" r="3.462"/><circle cx="490.997" cy="503.458" r="3.462"/><circle cx="490.997" cy="515.821" r="3.462"/><circle cx="490.997" cy="528.187" r="3.462"/><circle cx="490.997" cy="540.798" r="3.462"/><circle cx="490.997" cy="553.161" r="3.462"/><circle cx="490.997" cy="565.772" r="3.462"/><circle cx="490.997" cy="578.138" r="3.462"/><circle cx="490.997" cy="590.501" r="3.462"/><circle cx="490.997" cy="603.112" r="3.462"/><circle cx="490.997" cy="615.475" r="3.462"/><circle cx="478.634" cy="29.674" r="3.462"/><circle cx="478.634" cy="42.285" r="3.462"/><circle cx="478.634" cy="54.648" r="3.462"/><circle cx="478.634" cy="67.259" r="3.462"/><circle cx="478.634" cy="79.622" r="3.462"/><circle cx="478.634" cy="91.988" r="3.462"/><circle cx="478.634" cy="104.599" r="3.462"/><circle cx="478.634" cy="116.962" r="3.462"/><circle cx="478.634" cy="129.573" r="3.462"/><circle cx="478.634" cy="141.939" r="3.462"/><circle cx="478.634" cy="154.302" r="3.462"/><circle cx="478.634" cy="266.566" r="3.462"/><circle cx="478.634" cy="465.873" r="3.462"/><circle cx="478.634" cy="478.484" r="3.462"/><circle cx="478.634" cy="490.847" r="3.462"/><circle cx="478.634" cy="503.458" r="3.462"/><circle cx="478.634" cy="515.821" r="3.462"/><circle cx="478.634" cy="528.187" r="3.462"/><circle cx="478.634" cy="540.798" r="3.462"/><circle cx="478.634" cy="553.161" r="3.462"/><circle cx="478.634" cy="565.772" r="3.462"/><circle cx="478.634" cy="578.138" r="3.462"/><circle cx="478.634" cy="590.501" r="3.462"/><circle cx="478.634" cy="603.112" r="3.462"/><circle cx="478.634" cy="615.475" r="3.462"/><circle cx="478.634" cy="628.086" r="3.462"/><circle cx="466.026" cy="29.674" r="3.462"/><circle cx="466.026" cy="42.285" r="3.462"/><circle cx="466.026" cy="54.648" r="3.462"/><circle cx="466.026" cy="67.259" r="3.462"/><circle cx="466.026" cy="79.622" r="3.462"/><circle cx="466.026" cy="91.988" r="3.462"/><circle cx="466.026" cy="241.589" r="3.462"/><circle cx="466.026" cy="254.201" r="3.462"/><circle cx="466.026" cy="266.566" r="3.462"/><circle cx="466.026" cy="465.873" r="3.462"/><circle cx="466.026" cy="478.484" r="3.462"/><circle cx="466.026" cy="490.847" r="3.462"/><circle cx="466.026" cy="503.458" r="3.462"/><circle cx="466.026" cy="515.821" r="3.462"/><circle cx="466.026" cy="528.187" r="3.462"/><circle cx="466.026" cy="540.798" r="3.462"/><circle cx="466.026" cy="553.161" r="3.462"/><circle cx="466.026" cy="565.772" r="3.462"/><circle cx="466.026" cy="578.138" r="3.462"/><circle cx="466.026" cy="590.501" r="3.462"/><circle cx="466.026" cy="603.112" r="3.462"/><circle cx="466.026" cy="615.475" r="3.462"/><circle cx="466.026" cy="628.086" r="3.462"/><circle cx="466.026" cy="640.452" r="3.462"/><circle cx="453.666" cy="29.674" r="3.462"/><circle cx="453.666" cy="42.285" r="3.462"/><circle cx="453.666" cy="54.648" r="3.462"/><circle cx="453.666" cy="67.259" r="3.462"/><circle cx="453.666" cy="79.622" r="3.462"/><circle cx="453.666" cy="229.227" r="3.462"/><circle cx="453.666" cy="241.589" r="3.462"/><circle cx="453.666" cy="266.566" r="3.462"/><circle cx="453.666" cy="453.508" r="3.462"/><circle cx="453.666" cy="465.873" r="3.462"/><circle cx="453.666" cy="478.484" r="3.462"/><circle cx="453.666" cy="490.847" r="3.462"/><circle cx="453.666" cy="503.458" r="3.462"/><circle cx="453.666" cy="515.821" r="3.462"/><circle cx="453.666" cy="528.187" r="3.462"/><circle cx="453.666" cy="540.798" r="3.462"/><circle cx="453.666" cy="553.161" r="3.462"/><circle cx="453.666" cy="565.772" r="3.462"/><circle cx="453.666" cy="578.138" r="3.462"/><circle cx="453.666" cy="590.501" r="3.462"/><circle cx="453.666" cy="603.112" r="3.462"/><circle cx="453.666" cy="615.475" r="3.462"/><circle cx="453.666" cy="628.086" r="3.462"/><circle cx="453.666" cy="640.452" r="3.462"/><circle cx="453.666" cy="652.814" r="3.462"/><circle cx="441.303" cy="17.309" r="3.462"/><circle cx="441.303" cy="29.674" r="3.462"/><circle cx="441.303" cy="42.285" r="3.462"/><circle cx="441.303" cy="54.648" r="3.462"/><circle cx="441.303" cy="67.259" r="3.462"/><circle cx="441.303" cy="79.622" r="3.462"/><circle cx="441.303" cy="154.302" r="3.462"/><circle cx="441.303" cy="216.615" r="3.462"/><circle cx="441.303" cy="229.227" r="3.462"/><circle cx="441.303" cy="241.589" r="3.462"/><circle cx="441.303" cy="278.929" r="3.462"/><circle cx="441.303" cy="441.145" r="3.462"/><circle cx="441.303" cy="453.508" r="3.462"/><circle cx="441.303" cy="465.873" r="3.462"/><circle cx="441.303" cy="478.484" r="3.462"/><circle cx="441.303" cy="490.847" r="3.462"/><circle cx="441.303" cy="503.458" r="3.462"/><circle cx="441.303" cy="515.821" r="3.462"/><circle cx="441.303" cy="528.187" r="3.462"/><circle cx="441.303" cy="540.798" r="3.462"/><circle cx="441.303" cy="553.161" r="3.462"/><circle cx="441.303" cy="565.772" r="3.462"/><circle cx="441.303" cy="578.138" r="3.462"/><circle cx="441.303" cy="590.501" r="3.462"/><circle cx="441.303" cy="603.112" r="3.462"/><circle cx="441.303" cy="615.475" r="3.462"/><circle cx="441.303" cy="628.086" r="3.462"/><circle cx="441.303" cy="640.452" r="3.462"/><circle cx="441.303" cy="652.814" r="3.462"/><circle cx="441.303" cy="665.426" r="3.462"/><circle cx="428.695" cy="17.309" r="3.462"/><circle cx="428.695" cy="29.674" r="3.462"/><circle cx="428.695" cy="42.285" r="3.462"/><circle cx="428.695" cy="54.648" r="3.462"/><circle cx="428.695" cy="67.259" r="3.462"/><circle cx="428.695" cy="79.622" r="3.462"/><circle cx="428.695" cy="141.939" r="3.462"/><circle cx="428.695" cy="154.302" r="3.462"/><circle cx="428.695" cy="166.913" r="3.462"/><circle cx="428.695" cy="179.276" r="3.462"/><circle cx="428.695" cy="204.253" r="3.462"/><circle cx="428.695" cy="216.615" r="3.462"/><circle cx="428.695" cy="229.227" r="3.462"/><circle cx="428.695" cy="241.589" r="3.462"/><circle cx="428.695" cy="266.566" r="3.462"/><circle cx="428.695" cy="278.929" r="3.462"/><circle cx="428.695" cy="403.56" r="3.462"/><circle cx="428.695" cy="441.145" r="3.462"/><circle cx="428.695" cy="453.508" r="3.462"/><circle cx="428.695" cy="465.873" r="3.462"/><circle cx="428.695" cy="478.484" r="3.462"/><circle cx="428.695" cy="490.847" r="3.462"/><circle cx="428.695" cy="503.458" r="3.462"/><circle cx="428.695" cy="515.821" r="3.462"/><circle cx="428.695" cy="528.187" r="3.462"/><circle cx="428.695" cy="540.798" r="3.462"/><circle cx="428.695" cy="553.161" r="3.462"/><circle cx="428.695" cy="565.772" r="3.462"/><circle cx="428.695" cy="578.138" r="3.462"/><circle cx="428.695" cy="590.501" r="3.462"/><circle cx="428.695" cy="603.112" r="3.462"/><circle cx="428.695" cy="615.475" r="3.462"/><circle cx="428.695" cy="628.086" r="3.462"/><circle cx="428.695" cy="640.452" r="3.462"/><circle cx="428.695" cy="652.814" r="3.462"/><circle cx="428.695" cy="665.426" r="3.462"/><circle cx="428.695" cy="677.788" r="3.462"/><circle cx="428.695" cy="740.105" r="3.462"/><circle cx="416.332" cy="17.309" r="3.462"/><circle cx="416.332" cy="29.674" r="3.462"/><circle cx="416.332" cy="54.648" r="3.462"/><circle cx="416.332" cy="67.259" r="3.462"/><circle cx="416.332" cy="79.622" r="3.462"/><circle cx="416.332" cy="129.573" r="3.462"/><circle cx="416.332" cy="141.939" r="3.462"/><circle cx="416.332" cy="154.302" r="3.462"/><circle cx="416.332" cy="166.913" r="3.462"/><circle cx="416.332" cy="179.276" r="3.462"/><circle cx="416.332" cy="204.253" r="3.462"/><circle cx="416.332" cy="216.615" r="3.462"/><circle cx="416.332" cy="229.227" r="3.462"/><circle cx="416.332" cy="241.589" r="3.462"/><circle cx="416.332" cy="254.201" r="3.462"/><circle cx="416.332" cy="266.566" r="3.462"/><circle cx="416.332" cy="278.929" r="3.462"/><circle cx="416.332" cy="403.56" r="3.462"/><circle cx="416.332" cy="441.145" r="3.462"/><circle cx="416.332" cy="453.508" r="3.462"/><circle cx="416.332" cy="465.873" r="3.462"/><circle cx="416.332" cy="478.484" r="3.462"/><circle cx="416.332" cy="490.847" r="3.462"/><circle cx="416.332" cy="503.458" r="3.462"/><circle cx="416.332" cy="515.821" r="3.462"/><circle cx="416.332" cy="528.187" r="3.462"/><circle cx="416.332" cy="540.798" r="3.462"/><circle cx="416.332" cy="553.161" r="3.462"/><circle cx="416.332" cy="565.772" r="3.462"/><circle cx="416.332" cy="578.138" r="3.462"/><circle cx="416.332" cy="590.501" r="3.462"/><circle cx="416.332" cy="603.112" r="3.462"/><circle cx="416.332" cy="615.475" r="3.462"/><circle cx="416.332" cy="628.086" r="3.462"/><circle cx="416.332" cy="640.452" r="3.462"/><circle cx="416.332" cy="652.814" r="3.462"/><circle cx="416.332" cy="665.426" r="3.462"/><circle cx="416.332" cy="677.788" r="3.462"/><circle cx="416.332" cy="690.4" r="3.462"/><circle cx="416.332" cy="702.765" r="3.462"/><circle cx="416.332" cy="727.739" r="3.462"/><circle cx="416.332" cy="740.105" r="3.462"/><circle cx="403.724" cy="17.309" r="3.462"/><circle cx="403.724" cy="29.674" r="3.462"/><circle cx="403.724" cy="42.285" r="3.462"/><circle cx="403.724" cy="54.648" r="3.462"/><circle cx="403.724" cy="67.259" r="3.462"/><circle cx="403.724" cy="116.962" r="3.462"/><circle cx="403.724" cy="129.573" r="3.462"/><circle cx="403.724" cy="141.939" r="3.462"/><circle cx="403.724" cy="154.302" r="3.462"/><circle cx="403.724" cy="166.913" r="3.462"/><circle cx="403.724" cy="191.887" r="3.462"/><circle cx="403.724" cy="204.253" r="3.462"/><circle cx="403.724" cy="216.615" r="3.462"/><circle cx="403.724" cy="229.227" r="3.462"/><circle cx="403.724" cy="241.589" r="3.462"/><circle cx="403.724" cy="254.201" r="3.462"/><circle cx="403.724" cy="266.566" r="3.462"/><circle cx="403.724" cy="278.929" r="3.462"/><circle cx="403.724" cy="291.54" r="3.462"/><circle cx="403.724" cy="391.194" r="3.462"/><circle cx="403.724" cy="403.56" r="3.462"/><circle cx="403.724" cy="428.534" r="3.462"/><circle cx="403.724" cy="441.145" r="3.462"/><circle cx="403.724" cy="453.508" r="3.462"/><circle cx="403.724" cy="465.873" r="3.462"/><circle cx="403.724" cy="478.484" r="3.462"/><circle cx="403.724" cy="490.847" r="3.462"/><circle cx="403.724" cy="503.458" r="3.462"/><circle cx="403.724" cy="515.821" r="3.462"/><circle cx="403.724" cy="528.187" r="3.462"/><circle cx="403.724" cy="540.798" r="3.462"/><circle cx="403.724" cy="553.161" r="3.462"/><circle cx="403.724" cy="603.112" r="3.462"/><circle cx="403.724" cy="615.475" r="3.462"/><circle cx="403.724" cy="628.086" r="3.462"/><circle cx="403.724" cy="640.452" r="3.462"/><circle cx="403.724" cy="652.814" r="3.462"/><circle cx="403.724" cy="665.426" r="3.462"/><circle cx="403.724" cy="677.788" r="3.462"/><circle cx="403.724" cy="690.4" r="3.462"/><circle cx="403.724" cy="702.765" r="3.462"/><circle cx="403.724" cy="715.128" r="3.462"/><circle cx="403.724" cy="727.739" r="3.462"/><circle cx="403.724" cy="740.105" r="3.462"/><circle cx="391.364" cy="17.309" r="3.462"/><circle cx="391.364" cy="29.674" r="3.462"/><circle cx="391.364" cy="42.285" r="3.462"/><circle cx="391.364" cy="116.962" r="3.462"/><circle cx="391.364" cy="129.573" r="3.462"/><circle cx="391.364" cy="166.913" r="3.462"/><circle cx="391.364" cy="179.276" r="3.462"/><circle cx="391.364" cy="191.887" r="3.462"/><circle cx="391.364" cy="204.253" r="3.462"/><circle cx="391.364" cy="216.615" r="3.462"/><circle cx="391.364" cy="229.227" r="3.462"/><circle cx="391.364" cy="241.589" r="3.462"/><circle cx="391.364" cy="254.201" r="3.462"/><circle cx="391.364" cy="266.566" r="3.462"/><circle cx="391.364" cy="278.929" r="3.462"/><circle cx="391.364" cy="291.54" r="3.462"/><circle cx="391.364" cy="303.906" r="3.462"/><circle cx="391.364" cy="391.194" r="3.462"/><circle cx="391.364" cy="403.56" r="3.462"/><circle cx="391.364" cy="441.145" r="3.462"/><circle cx="391.364" cy="453.508" r="3.462"/><circle cx="391.364" cy="465.873" r="3.462"/><circle cx="391.364" cy="478.484" r="3.462"/><circle cx="391.364" cy="490.847" r="3.462"/><circle cx="391.364" cy="503.458" r="3.462"/><circle cx="391.364" cy="515.821" r="3.462"/><circle cx="391.364" cy="528.187" r="3.462"/><circle cx="391.364" cy="540.798" r="3.462"/><circle cx="391.364" cy="665.426" r="3.462"/><circle cx="391.364" cy="677.788" r="3.462"/><circle cx="391.364" cy="690.4" r="3.462"/><circle cx="391.364" cy="702.765" r="3.462"/><circle cx="391.364" cy="715.128" r="3.462"/><circle cx="391.364" cy="727.739" r="3.462"/><circle cx="379.002" cy="17.309" r="3.462"/><circle cx="379.002" cy="29.674" r="3.462"/><circle cx="379.002" cy="42.285" r="3.462"/><circle cx="379.002" cy="54.648" r="3.462"/><circle cx="379.002" cy="116.962" r="3.462"/><circle cx="379.002" cy="129.573" r="3.462"/><circle cx="379.002" cy="141.939" r="3.462"/><circle cx="379.002" cy="166.913" r="3.462"/><circle cx="379.002" cy="179.276" r="3.462"/><circle cx="379.002" cy="191.887" r="3.462"/><circle cx="379.002" cy="204.253" r="3.462"/><circle cx="379.002" cy="229.227" r="3.462"/><circle cx="379.002" cy="241.589" r="3.462"/><circle cx="379.002" cy="254.201" r="3.462"/><circle cx="379.002" cy="266.566" r="3.462"/><circle cx="379.002" cy="278.929" r="3.462"/><circle cx="379.002" cy="291.54" r="3.462"/><circle cx="379.002" cy="303.906" r="3.462"/><circle cx="379.002" cy="316.517" r="3.462"/><circle cx="379.002" cy="328.88" r="3.462"/><circle cx="379.002" cy="391.194" r="3.462"/><circle cx="379.002" cy="403.56" r="3.462"/><circle cx="379.002" cy="441.145" r="3.462"/><circle cx="379.002" cy="453.508" r="3.462"/><circle cx="379.002" cy="465.873" r="3.462"/><circle cx="379.002" cy="478.484" r="3.462"/><circle cx="379.002" cy="490.847" r="3.462"/><circle cx="379.002" cy="503.458" r="3.462"/><circle cx="379.002" cy="515.821" r="3.462"/><circle cx="379.002" cy="528.187" r="3.462"/><circle cx="366.393" cy="17.309" r="3.462"/><circle cx="366.393" cy="29.674" r="3.462"/><circle cx="366.393" cy="42.285" r="3.462"/><circle cx="366.393" cy="54.648" r="3.462"/><circle cx="366.393" cy="67.259" r="3.462"/><circle cx="366.393" cy="91.988" r="3.462"/><circle cx="366.393" cy="104.599" r="3.462"/><circle cx="366.393" cy="116.962" r="3.462"/><circle cx="366.393" cy="129.573" r="3.462"/><circle cx="366.393" cy="254.201" r="3.462"/><circle cx="366.393" cy="266.566" r="3.462"/><circle cx="366.393" cy="278.929" r="3.462"/><circle cx="366.393" cy="291.54" r="3.462"/><circle cx="366.393" cy="303.906" r="3.462"/><circle cx="366.393" cy="316.517" r="3.462"/><circle cx="366.393" cy="328.88" r="3.462"/><circle cx="366.393" cy="341.243" r="3.462"/><circle cx="366.393" cy="353.854" r="3.462"/><circle cx="366.393" cy="366.22" r="3.462"/><circle cx="366.393" cy="391.194" r="3.462"/><circle cx="366.393" cy="441.145" r="3.462"/><circle cx="366.393" cy="453.508" r="3.462"/><circle cx="366.393" cy="478.484" r="3.462"/><circle cx="366.393" cy="490.847" r="3.462"/><circle cx="366.393" cy="503.458" r="3.462"/><circle cx="354.031" cy="17.309" r="3.462"/><circle cx="354.031" cy="29.674" r="3.462"/><circle cx="354.031" cy="42.285" r="3.462"/><circle cx="354.031" cy="54.648" r="3.462"/><circle cx="354.031" cy="67.259" r="3.462"/><circle cx="354.031" cy="91.988" r="3.462"/><circle cx="354.031" cy="104.599" r="3.462"/><circle cx="354.031" cy="116.962" r="3.462"/><circle cx="354.031" cy="129.573" r="3.462"/><circle cx="354.031" cy="141.939" r="3.462"/><circle cx="354.031" cy="154.302" r="3.462"/><circle cx="354.031" cy="166.913" r="3.462"/><circle cx="354.031" cy="179.276" r="3.462"/><circle cx="354.031" cy="229.227" r="3.462"/><circle cx="354.031" cy="241.589" r="3.462"/><circle cx="354.031" cy="254.201" r="3.462"/><circle cx="354.031" cy="266.566" r="3.462"/><circle cx="354.031" cy="278.929" r="3.462"/><circle cx="354.031" cy="291.54" r="3.462"/><circle cx="354.031" cy="303.906" r="3.462"/><circle cx="354.031" cy="316.517" r="3.462"/><circle cx="354.031" cy="328.88" r="3.462"/><circle cx="354.031" cy="341.243" r="3.462"/><circle cx="354.031" cy="353.854" r="3.462"/><circle cx="354.031" cy="416.171" r="3.462"/><circle cx="354.031" cy="428.534" r="3.462"/><circle cx="354.031" cy="441.145" r="3.462"/><circle cx="341.422" cy="29.674" r="3.462"/><circle cx="341.422" cy="42.285" r="3.462"/><circle cx="341.422" cy="54.648" r="3.462"/><circle cx="341.422" cy="67.259" r="3.462"/><circle cx="341.422" cy="91.988" r="3.462"/><circle cx="341.422" cy="104.599" r="3.462"/><circle cx="341.422" cy="116.962" r="3.462"/><circle cx="341.422" cy="129.573" r="3.462"/><circle cx="341.422" cy="141.939" r="3.462"/><circle cx="341.422" cy="154.302" r="3.462"/><circle cx="341.422" cy="166.913" r="3.462"/><circle cx="341.422" cy="229.227" r="3.462"/><circle cx="341.422" cy="241.589" r="3.462"/><circle cx="341.422" cy="254.201" r="3.462"/><circle cx="341.422" cy="266.566" r="3.462"/><circle cx="341.422" cy="278.929" r="3.462"/><circle cx="341.422" cy="291.54" r="3.462"/><circle cx="341.422" cy="303.906" r="3.462"/><circle cx="341.422" cy="316.517" r="3.462"/><circle cx="341.422" cy="328.88" r="3.462"/><circle cx="341.422" cy="341.243" r="3.462"/><circle cx="341.422" cy="353.854" r="3.462"/><circle cx="341.422" cy="391.194" r="3.462"/><circle cx="341.422" cy="416.171" r="3.462"/><circle cx="341.422" cy="428.534" r="3.462"/><circle cx="341.422" cy="441.145" r="3.462"/><circle cx="329.063" cy="29.674" r="3.462"/><circle cx="329.063" cy="42.285" r="3.462"/><circle cx="329.063" cy="54.648" r="3.462"/><circle cx="329.063" cy="79.622" r="3.462"/><circle cx="329.063" cy="91.988" r="3.462"/><circle cx="329.063" cy="104.599" r="3.462"/><circle cx="329.063" cy="116.962" r="3.462"/><circle cx="329.063" cy="141.939" r="3.462"/><circle cx="329.063" cy="154.302" r="3.462"/><circle cx="329.063" cy="166.913" r="3.462"/><circle cx="329.063" cy="216.615" r="3.462"/><circle cx="329.063" cy="229.227" r="3.462"/><circle cx="329.063" cy="241.589" r="3.462"/><circle cx="329.063" cy="254.201" r="3.462"/><circle cx="329.063" cy="266.566" r="3.462"/><circle cx="329.063" cy="278.929" r="3.462"/><circle cx="329.063" cy="291.54" r="3.462"/><circle cx="329.063" cy="303.906" r="3.462"/><circle cx="329.063" cy="316.517" r="3.462"/><circle cx="329.063" cy="328.88" r="3.462"/><circle cx="329.063" cy="341.243" r="3.462"/><circle cx="329.063" cy="353.854" r="3.462"/><circle cx="329.063" cy="391.194" r="3.462"/><circle cx="329.063" cy="403.56" r="3.462"/><circle cx="329.063" cy="416.171" r="3.462"/><circle cx="329.063" cy="428.534" r="3.462"/><circle cx="316.7" cy="29.674" r="3.462"/><circle cx="316.7" cy="42.285" r="3.462"/><circle cx="316.7" cy="54.648" r="3.462"/><circle cx="316.7" cy="79.622" r="3.462"/><circle cx="316.7" cy="104.599" r="3.462"/><circle cx="316.7" cy="129.573" r="3.462"/><circle cx="316.7" cy="141.939" r="3.462"/><circle cx="316.7" cy="154.302" r="3.462"/><circle cx="316.7" cy="166.913" r="3.462"/><circle cx="316.7" cy="179.276" r="3.462"/><circle cx="316.7" cy="204.253" r="3.462"/><circle cx="316.7" cy="216.615" r="3.462"/><circle cx="316.7" cy="229.227" r="3.462"/><circle cx="316.7" cy="241.589" r="3.462"/><circle cx="316.7" cy="254.201" r="3.462"/><circle cx="316.7" cy="266.566" r="3.462"/><circle cx="316.7" cy="278.929" r="3.462"/><circle cx="316.7" cy="291.54" r="3.462"/><circle cx="316.7" cy="303.906" r="3.462"/><circle cx="316.7" cy="316.517" r="3.462"/><circle cx="316.7" cy="328.88" r="3.462"/><circle cx="316.7" cy="341.243" r="3.462"/><circle cx="316.7" cy="353.854" r="3.462"/><circle cx="316.7" cy="403.56" r="3.462"/><circle cx="316.7" cy="416.171" r="3.462"/><circle cx="304.092" cy="42.285" r="3.462"/><circle cx="304.092" cy="67.259" r="3.462"/><circle cx="304.092" cy="104.599" r="3.462"/><circle cx="304.092" cy="116.962" r="3.462"/><circle cx="304.092" cy="129.573" r="3.462"/><circle cx="304.092" cy="141.939" r="3.462"/><circle cx="304.092" cy="154.302" r="3.462"/><circle cx="304.092" cy="166.913" r="3.462"/><circle cx="304.092" cy="179.276" r="3.462"/><circle cx="304.092" cy="191.887" r="3.462"/><circle cx="304.092" cy="204.253" r="3.462"/><circle cx="304.092" cy="216.615" r="3.462"/><circle cx="304.092" cy="229.227" r="3.462"/><circle cx="304.092" cy="241.589" r="3.462"/><circle cx="304.092" cy="254.201" r="3.462"/><circle cx="304.092" cy="266.566" r="3.462"/><circle cx="304.092" cy="278.929" r="3.462"/><circle cx="304.092" cy="291.54" r="3.462"/><circle cx="304.092" cy="303.906" r="3.462"/><circle cx="304.092" cy="316.517" r="3.462"/><circle cx="304.092" cy="328.88" r="3.462"/><circle cx="304.092" cy="341.243" r="3.462"/><circle cx="304.092" cy="353.854" r="3.462"/><circle cx="304.092" cy="403.56" r="3.462"/><circle cx="304.092" cy="416.171" r="3.462"/><circle cx="291.729" cy="54.648" r="3.462"/><circle cx="291.729" cy="79.622" r="3.462"/><circle cx="291.729" cy="104.599" r="3.462"/><circle cx="291.729" cy="116.962" r="3.462"/><circle cx="291.729" cy="129.573" r="3.462"/><circle cx="291.729" cy="141.939" r="3.462"/><circle cx="291.729" cy="154.302" r="3.462"/><circle cx="291.729" cy="166.913" r="3.462"/><circle cx="291.729" cy="179.276" r="3.462"/><circle cx="291.729" cy="191.887" r="3.462"/><circle cx="291.729" cy="204.253" r="3.462"/><circle cx="291.729" cy="216.615" r="3.462"/><circle cx="291.729" cy="229.227" r="3.462"/><circle cx="291.729" cy="241.589" r="3.462"/><circle cx="291.729" cy="254.201" r="3.462"/><circle cx="291.729" cy="266.566" r="3.462"/><circle cx="291.729" cy="278.929" r="3.462"/><circle cx="291.729" cy="291.54" r="3.462"/><circle cx="291.729" cy="303.906" r="3.462"/><circle cx="291.729" cy="316.517" r="3.462"/><circle cx="291.729" cy="328.88" r="3.462"/><circle cx="291.729" cy="341.243" r="3.462"/><circle cx="291.729" cy="353.854" r="3.462"/><circle cx="291.729" cy="366.22" r="3.462"/><circle cx="291.729" cy="378.831" r="3.462"/><circle cx="291.729" cy="391.194" r="3.462"/><circle cx="291.729" cy="403.56" r="3.462"/><circle cx="291.729" cy="416.171" r="3.462"/><circle cx="279.121" cy="42.285" r="3.462"/><circle cx="279.121" cy="54.648" r="3.462"/><circle cx="279.121" cy="79.622" r="3.462"/><circle cx="279.121" cy="104.599" r="3.462"/><circle cx="279.121" cy="129.573" r="3.462"/><circle cx="279.121" cy="141.939" r="3.462"/><circle cx="279.121" cy="154.302" r="3.462"/><circle cx="279.121" cy="166.913" r="3.462"/><circle cx="279.121" cy="179.276" r="3.462"/><circle cx="279.121" cy="191.887" r="3.462"/><circle cx="279.121" cy="204.253" r="3.462"/><circle cx="279.121" cy="216.615" r="3.462"/><circle cx="279.121" cy="229.227" r="3.462"/><circle cx="279.121" cy="241.589" r="3.462"/><circle cx="279.121" cy="254.201" r="3.462"/><circle cx="279.121" cy="266.566" r="3.462"/><circle cx="279.121" cy="278.929" r="3.462"/><circle cx="279.121" cy="291.54" r="3.462"/><circle cx="279.121" cy="303.906" r="3.462"/><circle cx="279.121" cy="316.517" r="3.462"/><circle cx="279.121" cy="328.88" r="3.462"/><circle cx="279.121" cy="341.243" r="3.462"/><circle cx="279.121" cy="353.854" r="3.462"/><circle cx="279.121" cy="366.22" r="3.462"/><circle cx="279.121" cy="378.831" r="3.462"/><circle cx="279.121" cy="391.194" r="3.462"/><circle cx="279.121" cy="403.56" r="3.462"/><circle cx="266.761" cy="54.648" r="3.462"/><circle cx="266.761" cy="67.259" r="3.462"/><circle cx="266.761" cy="79.622" r="3.462"/><circle cx="266.761" cy="104.599" r="3.462"/><circle cx="266.761" cy="116.962" r="3.462"/><circle cx="266.761" cy="129.573" r="3.462"/><circle cx="266.761" cy="141.939" r="3.462"/><circle cx="266.761" cy="154.302" r="3.462"/><circle cx="266.761" cy="166.913" r="3.462"/><circle cx="266.761" cy="179.276" r="3.462"/><circle cx="266.761" cy="191.887" r="3.462"/><circle cx="266.761" cy="204.253" r="3.462"/><circle cx="266.761" cy="216.615" r="3.462"/><circle cx="266.761" cy="229.227" r="3.462"/><circle cx="266.761" cy="241.589" r="3.462"/><circle cx="266.761" cy="254.201" r="3.462"/><circle cx="266.761" cy="266.566" r="3.462"/><circle cx="266.761" cy="278.929" r="3.462"/><circle cx="266.761" cy="291.54" r="3.462"/><circle cx="266.761" cy="303.906" r="3.462"/><circle cx="266.761" cy="316.517" r="3.462"/><circle cx="266.761" cy="328.88" r="3.462"/><circle cx="266.761" cy="341.243" r="3.462"/><circle cx="266.761" cy="353.854" r="3.462"/><circle cx="266.761" cy="366.22" r="3.462"/><circle cx="266.761" cy="378.831" r="3.462"/><circle cx="266.761" cy="391.194" r="3.462"/><circle cx="266.761" cy="403.56" r="3.462"/><circle cx="254.398" cy="79.622" r="3.462"/><circle cx="254.398" cy="104.599" r="3.462"/><circle cx="254.398" cy="116.962" r="3.462"/><circle cx="254.398" cy="129.573" r="3.462"/><circle cx="254.398" cy="141.939" r="3.462"/><circle cx="254.398" cy="154.302" r="3.462"/><circle cx="254.398" cy="166.913" r="3.462"/><circle cx="254.398" cy="179.276" r="3.462"/><circle cx="254.398" cy="191.887" r="3.462"/><circle cx="254.398" cy="204.253" r="3.462"/><circle cx="254.398" cy="216.615" r="3.462"/><circle cx="254.398" cy="229.227" r="3.462"/><circle cx="254.398" cy="241.589" r="3.462"/><circle cx="254.398" cy="254.201" r="3.462"/><circle cx="254.398" cy="266.566" r="3.462"/><circle cx="254.398" cy="278.929" r="3.462"/><circle cx="254.398" cy="291.54" r="3.462"/><circle cx="254.398" cy="303.906" r="3.462"/><circle cx="254.398" cy="316.517" r="3.462"/><circle cx="254.398" cy="328.88" r="3.462"/><circle cx="254.398" cy="341.243" r="3.462"/><circle cx="254.398" cy="353.854" r="3.462"/><circle cx="254.398" cy="366.22" r="3.462"/><circle cx="254.398" cy="378.831" r="3.462"/><circle cx="241.79" cy="54.648" r="3.462"/><circle cx="241.79" cy="67.259" r="3.462"/><circle cx="241.79" cy="79.622" r="3.462"/><circle cx="241.79" cy="116.962" r="3.462"/><circle cx="241.79" cy="129.573" r="3.462"/><circle cx="241.79" cy="154.302" r="3.462"/><circle cx="241.79" cy="166.913" r="3.462"/><circle cx="241.79" cy="179.276" r="3.462"/><circle cx="241.79" cy="191.887" r="3.462"/><circle cx="241.79" cy="204.253" r="3.462"/><circle cx="241.79" cy="216.615" r="3.462"/><circle cx="241.79" cy="229.227" r="3.462"/><circle cx="241.79" cy="241.589" r="3.462"/><circle cx="241.79" cy="254.201" r="3.462"/><circle cx="241.79" cy="266.566" r="3.462"/><circle cx="241.79" cy="278.929" r="3.462"/><circle cx="241.79" cy="291.54" r="3.462"/><circle cx="241.79" cy="303.906" r="3.462"/><circle cx="241.79" cy="316.517" r="3.462"/><circle cx="241.79" cy="328.88" r="3.462"/><circle cx="241.79" cy="341.243" r="3.462"/><circle cx="241.79" cy="353.854" r="3.462"/><circle cx="241.79" cy="366.22" r="3.462"/><circle cx="241.79" cy="378.831" r="3.462"/><circle cx="229.427" cy="67.259" r="3.462"/><circle cx="229.427" cy="79.622" r="3.462"/><circle cx="229.427" cy="91.988" r="3.462"/><circle cx="229.427" cy="116.962" r="3.462"/><circle cx="229.427" cy="129.573" r="3.462"/><circle cx="229.427" cy="154.302" r="3.462"/><circle cx="229.427" cy="166.913" r="3.462"/><circle cx="229.427" cy="179.276" r="3.462"/><circle cx="229.427" cy="191.887" r="3.462"/><circle cx="229.427" cy="204.253" r="3.462"/><circle cx="229.427" cy="216.615" r="3.462"/><circle cx="229.427" cy="229.227" r="3.462"/><circle cx="229.427" cy="241.589" r="3.462"/><circle cx="229.427" cy="254.201" r="3.462"/><circle cx="229.427" cy="266.566" r="3.462"/><circle cx="229.427" cy="278.929" r="3.462"/><circle cx="229.427" cy="291.54" r="3.462"/><circle cx="229.427" cy="303.906" r="3.462"/><circle cx="229.427" cy="316.517" r="3.462"/><circle cx="229.427" cy="328.88" r="3.462"/><circle cx="229.427" cy="341.243" r="3.462"/><circle cx="229.427" cy="353.854" r="3.462"/><circle cx="229.427" cy="366.22" r="3.462"/><circle cx="216.819" cy="67.259" r="3.462"/><circle cx="216.819" cy="79.622" r="3.462"/><circle cx="216.819" cy="104.599" r="3.462"/><circle cx="216.819" cy="116.962" r="3.462"/><circle cx="216.819" cy="129.573" r="3.462"/><circle cx="216.819" cy="141.939" r="3.462"/><circle cx="216.819" cy="154.302" r="3.462"/><circle cx="216.819" cy="166.913" r="3.462"/><circle cx="216.819" cy="179.276" r="3.462"/><circle cx="216.819" cy="191.887" r="3.462"/><circle cx="216.819" cy="204.253" r="3.462"/><circle cx="216.819" cy="216.615" r="3.462"/><circle cx="216.819" cy="229.227" r="3.462"/><circle cx="216.819" cy="241.589" r="3.462"/><circle cx="216.819" cy="254.201" r="3.462"/><circle cx="216.819" cy="266.566" r="3.462"/><circle cx="216.819" cy="278.929" r="3.462"/><circle cx="216.819" cy="291.54" r="3.462"/><circle cx="216.819" cy="303.906" r="3.462"/><circle cx="216.819" cy="316.517" r="3.462"/><circle cx="216.819" cy="328.88" r="3.462"/><circle cx="216.819" cy="341.243" r="3.462"/><circle cx="204.459" cy="67.259" r="3.462"/><circle cx="204.459" cy="79.622" r="3.462"/><circle cx="204.459" cy="104.599" r="3.462"/><circle cx="204.459" cy="116.962" r="3.462"/><circle cx="204.459" cy="141.939" r="3.462"/><circle cx="204.459" cy="154.302" r="3.462"/><circle cx="204.459" cy="166.913" r="3.462"/><circle cx="204.459" cy="179.276" r="3.462"/><circle cx="204.459" cy="191.887" r="3.462"/><circle cx="204.459" cy="204.253" r="3.462"/><circle cx="204.459" cy="216.615" r="3.462"/><circle cx="204.459" cy="229.227" r="3.462"/><circle cx="204.459" cy="241.589" r="3.462"/><circle cx="204.459" cy="254.201" r="3.462"/><circle cx="204.459" cy="266.566" r="3.462"/><circle cx="204.459" cy="278.929" r="3.462"/><circle cx="204.459" cy="291.54" r="3.462"/><circle cx="204.459" cy="303.906" r="3.462"/><circle cx="204.459" cy="316.517" r="3.462"/><circle cx="204.459" cy="328.88" r="3.462"/><circle cx="192.096" cy="79.622" r="3.462"/><circle cx="192.096" cy="91.988" r="3.462"/><circle cx="192.096" cy="104.599" r="3.462"/><circle cx="192.096" cy="116.962" r="3.462"/><circle cx="192.096" cy="129.573" r="3.462"/><circle cx="192.096" cy="141.939" r="3.462"/><circle cx="192.096" cy="154.302" r="3.462"/><circle cx="192.096" cy="166.913" r="3.462"/><circle cx="192.096" cy="179.276" r="3.462"/><circle cx="192.096" cy="191.887" r="3.462"/><circle cx="192.096" cy="204.253" r="3.462"/><circle cx="192.096" cy="216.615" r="3.462"/><circle cx="192.096" cy="229.227" r="3.462"/><circle cx="192.096" cy="241.589" r="3.462"/><circle cx="192.096" cy="254.201" r="3.462"/><circle cx="192.096" cy="266.566" r="3.462"/><circle cx="192.096" cy="278.929" r="3.462"/><circle cx="192.096" cy="291.54" r="3.462"/><circle cx="192.096" cy="303.906" r="3.462"/><circle cx="192.096" cy="316.517" r="3.462"/><circle cx="179.488" cy="104.599" r="3.462"/><circle cx="179.488" cy="116.962" r="3.462"/><circle cx="179.488" cy="129.573" r="3.462"/><circle cx="179.488" cy="141.939" r="3.462"/><circle cx="179.488" cy="154.302" r="3.462"/><circle cx="179.488" cy="166.913" r="3.462"/><circle cx="179.488" cy="179.276" r="3.462"/><circle cx="179.488" cy="191.887" r="3.462"/><circle cx="179.488" cy="204.253" r="3.462"/><circle cx="179.488" cy="216.615" r="3.462"/><circle cx="179.488" cy="229.227" r="3.462"/><circle cx="179.488" cy="241.589" r="3.462"/><circle cx="179.488" cy="254.201" r="3.462"/><circle cx="167.125" cy="129.573" r="3.462"/><circle cx="167.125" cy="141.939" r="3.462"/><circle cx="167.125" cy="154.302" r="3.462"/><circle cx="167.125" cy="166.913" r="3.462"/><circle cx="167.125" cy="179.276" r="3.462"/><circle cx="167.125" cy="191.887" r="3.462"/><circle cx="167.125" cy="204.253" r="3.462"/><circle cx="167.125" cy="216.615" r="3.462"/><circle cx="167.125" cy="229.227" r="3.462"/><circle cx="167.125" cy="241.589" r="3.462"/><circle cx="167.125" cy="254.201" r="3.462"/><circle cx="154.517" cy="129.573" r="3.462"/><circle cx="154.517" cy="141.939" r="3.462"/><circle cx="154.517" cy="154.302" r="3.462"/><circle cx="154.517" cy="166.913" r="3.462"/><circle cx="154.517" cy="179.276" r="3.462"/><circle cx="154.517" cy="191.887" r="3.462"/><circle cx="154.517" cy="204.253" r="3.462"/><circle cx="154.517" cy="216.615" r="3.462"/><circle cx="154.517" cy="229.227" r="3.462"/><circle cx="142.157" cy="141.939" r="3.462"/><circle cx="142.157" cy="154.302" r="3.462"/><circle cx="142.157" cy="166.913" r="3.462"/><circle cx="142.157" cy="179.276" r="3.462"/><circle cx="142.157" cy="191.887" r="3.462"/><circle cx="142.157" cy="204.253" r="3.462"/><circle cx="142.157" cy="216.615" r="3.462"/><circle cx="142.157" cy="229.227" r="3.462"/><circle cx="129.795" cy="141.939" r="3.462"/><circle cx="129.795" cy="154.302" r="3.462"/><circle cx="129.795" cy="166.913" r="3.462"/><circle cx="129.795" cy="179.276" r="3.462"/><circle cx="129.795" cy="191.887" r="3.462"/><circle cx="129.795" cy="204.253" r="3.462"/><circle cx="117.186" cy="129.573" r="3.462"/><circle cx="117.186" cy="141.939" r="3.462"/><circle cx="117.186" cy="154.302" r="3.462"/><circle cx="117.186" cy="166.913" r="3.462"/><circle cx="117.186" cy="179.276" r="3.462"/><circle cx="117.186" cy="191.887" r="3.462"/><circle cx="104.827" cy="129.573" r="3.462"/><circle cx="104.827" cy="141.939" r="3.462"/><circle cx="104.827" cy="154.302" r="3.462"/><circle cx="104.827" cy="166.913" r="3.462"/><circle cx="104.827" cy="179.276" r="3.462"/><circle cx="104.827" cy="191.887" r="3.462"/><circle cx="92.215" cy="129.573" r="3.462"/><circle cx="92.215" cy="141.939" r="3.462"/><circle cx="92.215" cy="154.302" r="3.462"/><circle cx="92.215" cy="166.913" r="3.462"/><circle cx="92.215" cy="179.276" r="3.462"/><circle cx="92.215" cy="191.887" r="3.462"/><circle cx="79.856" cy="129.573" r="3.462"/><circle cx="79.856" cy="141.939" r="3.462"/><circle cx="79.856" cy="154.302" r="3.462"/><circle cx="79.856" cy="166.913" r="3.462"/><circle cx="79.856" cy="179.276" r="3.462"/><circle cx="79.856" cy="191.887" r="3.462"/><circle cx="67.493" cy="129.573" r="3.462"/><circle cx="67.493" cy="141.939" r="3.462"/><circle cx="67.493" cy="154.302" r="3.462"/><circle cx="67.493" cy="166.913" r="3.462"/><circle cx="67.493" cy="179.276" r="3.462"/><circle cx="67.493" cy="191.887" r="3.462"/><circle cx="67.493" cy="204.253" r="3.462"/><circle cx="54.885" cy="116.962" r="3.462"/><circle cx="54.885" cy="129.573" r="3.462"/><circle cx="54.885" cy="141.939" r="3.462"/><circle cx="54.885" cy="154.302" r="3.462"/><circle cx="54.885" cy="166.913" r="3.462"/><circle cx="54.885" cy="179.276" r="3.462"/><circle cx="54.885" cy="191.887" r="3.462"/><circle cx="54.885" cy="204.253" r="3.462"/><circle cx="54.885" cy="216.615" r="3.462"/><circle cx="42.525" cy="116.962" r="3.462"/><circle cx="42.525" cy="129.573" r="3.462"/><circle cx="42.525" cy="141.939" r="3.462"/><circle cx="42.525" cy="154.302" r="3.462"/><circle cx="42.525" cy="166.913" r="3.462"/><circle cx="42.525" cy="179.276" r="3.462"/><circle cx="42.525" cy="191.887" r="3.462"/><circle cx="42.525" cy="204.253" r="3.462"/><circle cx="42.525" cy="216.615" r="3.462"/><circle cx="29.914" cy="129.573" r="3.462"/><circle cx="29.914" cy="141.939" r="3.462"/><circle cx="29.914" cy="154.302" r="3.462"/><circle cx="29.914" cy="166.913" r="3.462"/><circle cx="29.914" cy="179.276" r="3.462"/><circle cx="29.914" cy="191.887" r="3.462"/><circle cx="29.914" cy="204.253" r="3.462"/><circle cx="29.914" cy="216.615" r="3.462"/><circle cx="29.914" cy="229.227" r="3.462"/><circle cx="17.554" cy="141.939" r="3.462"/><circle cx="17.554" cy="154.302" r="3.462"/><circle cx="17.554" cy="166.913" r="3.462"/><circle cx="17.554" cy="179.276" r="3.462"/><circle cx="17.554" cy="191.887" r="3.462"/><circle cx="17.554" cy="229.227" r="3.462"/><circle cx="5.191" cy="141.939" r="3.462"/><circle cx="5.191" cy="154.302" r="3.462"/><circle cx="5.191" cy="166.913" r="3.462"/><circle cx="5.191" cy="229.227" r="3.462"/><circle cx="5.191" cy="241.589" r="3.462"/></g></g></svg>