<svg width="377" height="375" viewBox="0 0 377 375" xmlns="http://www.w3.org/2000/svg"><title>Touch ID</title><path d="M370 188.463C370 99.14 305.28 24.91 220.11 9.973M186.09 7.25c-70.257.91-130.885 41.682-160.24 100.7m-11.863 30.542C9.437 154.367 7 171.13 7 188.464c0 21.023 3.585 41.21 10.18 59.986m319.08-91.007C321.94 89.075 261.225 37.727 188.5 37.727c-20.128 0-39.336 3.934-56.895 11.073m-30.313 16.61C62.716 92.715 26.434 150.652 41.01 220.69m-1.426 69.948a173.635 173.635 0 0 0 4.202-38.068 173.91 173.91 0 0 0-3.068-32.604m265.38-57.504c-7.254-32.86-27.97-60.678-56.082-77.39M220.01 72.38a120.685 120.685 0 0 0-31.51-4.16c-66.507 0-120.422 53.835-120.422 120.243 0 0-.694 5.198 2.777 27.376m188.69-84.13c-16.67-20.56-42.147-33.7-70.698-33.7-50.216 0-90.923 40.647-90.923 90.79 0 0 .694 16.63 3.47 26.333m147.026-36.62c-4.75-28.76-29.77-50.7-59.92-50.7a60.719 60.719 0 0 0-20.398 3.505m-25.882 17.87c-9.013 10.58-14.45 24.29-14.45 39.27 0 0 .693 16.98 4.163 26.68m85.478-32.87c-2.7-13.276-14.46-23.266-28.56-23.266-16.1 0-29.15 13.03-29.15 29.107 0 0 0 5.544 1.39 12.475m185.58 75.273a460.465 460.465 0 0 0 .34-28.946m-1.93-33.787a446.24 446.24 0 0 0-8.8-55.606m-25.09 164.79a418.019 418.019 0 0 0 5.374-66.973c0-31.905-3.6-62.97-10.414-92.815m-32.557 184.59c8.552-30.75 13.12-63.156 13.12-96.626 0-30.284-3.74-59.697-10.786-87.8M236.07 362.96c12.573-35.857 19.41-74.407 19.41-114.55 0-23.853-2.415-47.143-7.01-69.64m-46.32 189.57a309.33 309.33 0 0 0 20.87-82.39m1.92-34.768c0-23.714-2.65-46.81-7.672-69.006m-47.318 186.02s5.596-13.94 8.02-21.09m8.65-30.598c5.09-22.344 7.78-45.6 7.78-69.483 0-19.9-1.867-39.364-5.435-58.23M138.9 361.49c16.465-35.43 25.654-74.915 25.654-116.544 0-15.147-1.216-30.01-3.557-44.497m-50.58 150.53c15.27-29.8 24.292-64.68 24.292-100.49 0-12.13-1.04-24.01-3.04-35.56m-28.38 53.36c.58-6.32.87-12.72.87-19.198 0-11.913-1.006-23.59-2.93-34.957M85.1 336.133a206.015 206.015 0 0 0 12.348-34.445m-35.98 14.36c8.286-20.225 12.853-42.36 12.853-65.56 0-11.96-1.21-23.636-3.52-34.91" opacity=".426" stroke-width="13" stroke="#000" fill="none" stroke-linecap="round"/></svg>