<svg width="131" height="23" viewBox="0 0 131 23" xmlns="http://www.w3.org/2000/svg"><title>Jet_Airways_Logo</title><path d="M128.262 5.09c.054-1.442-.245-2.663-.954-3.55-2.18-2.635-7.386-.86-11.585 3.938-4.225 4.8-5.86 10.818-3.707 13.453 2.18 2.635 7.387.887 11.612-3.91.654-.778 1.281-1.582 1.799-2.387l-6.95-.72 10.058-1.332-11.095-1.61 13.44-1.412-10.957-1.138 8.34-1.33m-26.196-.002c.791 0 1.527.25 2.018.25.136-.028.245 0 .245.194 0 .055-.027.083-.027.139 0 .25.136.804.136 1.497 0 .278-.082.36-.273.36-.218 0-.272-.137-.3-.304-.054-.417-.109-.61-.327-.833-.354-.388-.872-.554-1.608-.554-1.253 0-1.908.749-1.853 1.664.054 1.054.872 1.609 2.317 2.47 1.99 1.248 2.59 2.052 2.59 3.41 0 1.47-1.146 3.107-3.98 3.107-.71 0-1.418-.11-2.045-.389-.245-.11-.272-.166-.272-.637-.028-.583-.028-1.36 0-1.637.054-.166.081-.277.3-.277.163 0 .245.083.272.305 0 .139.027.416.082.665.3 1.11 1.336 1.249 2.044 1.249 1.418 0 2.236-.888 2.236-1.83 0-1.194-.682-1.832-2.59-2.941-1.909-1.081-2.29-2.219-2.263-3.19.054-1.636 1.281-2.718 3.298-2.718zm-55.196 5.714c0-.666.027-3.356.027-5.353 0-.056-.027-.112-.109-.112H44.5c-.272 0-.354.056-.354.278 0 .167.055.25.219.277.762.056.872.417.899 1.36.027 1.386.027 2.44.027 3.55 0 1.442-.027 3.329-.082 5.326 0 .082.055.139.11.139h1.471c.082 0 .11-.057.11-.14-.028-1.968-.028-3.688-.028-5.325zm43.667-.305c.272.444.544.832.763 1.193 0 1.303-.028 2.828-.054 4.438 0 .082.026.139.109.139H92.8c.081 0 .136-.057.136-.14-.027-1.609-.055-3.079-.055-4.437 1.227-1.998 2.645-4.19 3.953-6.214.055-.083.027-.139-.054-.139h-2.072c-.245 0-.354.056-.354.278 0 .167.081.25.244.277.437.084.546.361.3.777-.762 1.304-1.608 2.662-2.425 3.994-.218-.36-.436-.693-.654-1.054-.9-1.387-1.636-2.579-2.617-4.16-.054-.084-.082-.112-.218-.112h-1.69c-.082 0-.109.056-.055.14a393.591 393.591 0 0 1 3.299 5.02zm-5.261 5.63c.054.083.081.14.163.14h1.608c.083 0 .11-.057.083-.14-.873-1.913-1.8-4.077-2.345-5.408a76.173 76.173 0 0 1-2.044-5.27c-.028-.056-.082-.112-.163-.112h-1.773c-.245 0-.354.056-.354.278 0 .167.082.25.246.277.354.056.626.195.626.666 0 .25-.109.555-.244.888a96.923 96.923 0 0 1-1.336 3.273 168.652 168.652 0 0 1-2.345 5.409c-.026.082 0 .139.082.139h1.008c.083 0 .137-.057.165-.14.381-.998.735-1.858 1.062-2.718h4.471c.354.916.736 1.859 1.09 2.719zm-5.234-3.606c.163-.388.328-.776.463-1.164.41-.999.792-1.942 1.39-3.412.628 1.47 1.01 2.413 1.418 3.412l.49 1.164h-3.761zM74.62 5.34c-.246 0-.355.056-.355.278 0 .167.11.25.246.277.463.084.572.472.437.944-.437 1.22-.791 2.302-1.173 3.411-.326.943-.654 1.858-1.118 3.218-.517-1.415-.844-2.246-1.199-3.218-.572-1.525-1.035-2.746-1.717-4.604-.082-.194-.136-.306-.327-.306-.19 0-.245.112-.327.306a902.626 902.626 0 0 1-1.636 4.604c-.354.943-.681 1.858-1.199 3.218-.49-1.415-.79-2.246-1.145-3.218-.545-1.525-1.035-2.94-1.69-4.798-.027-.056-.054-.112-.135-.112h-1.555c-.081 0-.109.028-.081.112a253.464 253.464 0 0 1 2.044 5.409c.9 2.524 1.335 3.66 1.88 5.214.082.25.137.388.328.388.217 0 .3-.222.354-.388.463-1.304 1.554-4.188 1.936-5.214.272-.722.572-1.47.927-2.33.38.942.544 1.359.899 2.33.953 2.524 1.417 3.66 1.99 5.214.109.25.163.388.354.388.218 0 .273-.222.354-.388a250.798 250.798 0 0 1 1.827-5.214c.435-1.193 1.39-3.717 2.043-5.409.055-.056 0-.112-.08-.112H74.62zm-53.888 0c-1.608 0-2.425-.027-4.361-.055-.055 0-.082.055-.11.11l-.217.944c0 .083.027.139.136.139a151.1 151.1 0 0 1 3.761-.14c.028 1.388.028 3.385.028 4.467 0 1.442-.028 3.329-.082 5.326 0 .082.028.139.109.139h1.472c.055 0 .11-.057.11-.14-.028-1.968-.028-3.688-.028-5.325 0-.555 0-2.663.027-4.466 1.2.028 2.4.083 3.653.139.054 0 .109-.027.109-.111l.218-.943c.027-.084-.028-.14-.083-.14-1.961.03-3.134.056-4.742.056zM40.33 16.13c.026.083.08.14.135.14h1.608c.083 0 .137-.057.083-.14-.873-1.913-1.8-4.077-2.344-5.408a75.824 75.824 0 0 1-2.045-5.27c-.028-.056-.082-.112-.163-.112H35.83c-.244 0-.353.056-.353.278 0 .167.081.25.245.277.354.056.626.195.626.666 0 .25-.109.555-.244.888a96.923 96.923 0 0 1-1.336 3.273 168.652 168.652 0 0 1-2.345 5.409c-.027.082 0 .139.082.139h1.036c.055 0 .11-.057.137-.14.381-.998.735-1.858 1.062-2.718h4.471a61.05 61.05 0 0 0 1.118 2.719zm-5.262-3.606c.164-.388.328-.776.463-1.164.41-.999.791-1.942 1.391-3.412.627 1.47 1.035 2.413 1.445 3.412.136.388.3.776.463 1.164h-3.762zm18.181-6.351a10.79 10.79 0 0 1 1.036-.056c1.581 0 2.59.749 2.59 2.497 0 1.36-.709 2.44-2.344 2.44-.518 0-1.036-.082-1.31-.166 0-.915.028-2.496.028-4.715zm1.826 5.686c1.2 1.831 1.881 2.801 2.726 3.578.709.638 1.554.915 2.535.915.763 0 1.553-.11 1.553-.36 0-.167-.135-.194-.544-.25-.818-.138-1.364-.388-2.317-1.248-.764-.693-1.636-1.83-2.48-3.106 1.063-.583 1.934-1.665 1.934-3.08 0-2.357-2.234-2.968-3.951-2.968h-3.68c-.245 0-.354.056-.354.278 0 .167.08.25.244.277.737.056.846.417.873 1.36.027 1.386.027 2.44.027 3.55 0 1.442 0 3.329-.082 5.326 0 .082.055.139.137.139h1.444c.082 0 .11-.057.11-.14 0-1.58-.028-3.023-.028-4.354.49.055.98.11 1.609.083h.244zm-44.13 3.44c-.027-1.526-.027-2.913-.027-4.216.709.027 1.963.139 2.944.193.082 0 .11-.027.136-.11l.218-.943c0-.084-.027-.139-.109-.139a62.81 62.81 0 0 1-3.189.083c0-.915 0-2.496.028-3.91.899.026 1.908.137 3.189.22.081 0 .109-.026.136-.11l.218-.943c0-.084-.027-.14-.11-.14-1.444.03-2.615.056-3.897.056H8.52c-.246 0-.355.056-.355.278 0 .167.082.25.246.277.762.056.872.417.899 1.36.028 1.386.028 2.44.028 3.55 0 1.442-.028 3.329-.082 5.326 0 .082.027.139.108.139h1.473c1.199 0 2.398.027 3.68.027.081 0 .108-.027.136-.111l.19-.943c.028-.083 0-.14-.081-.14a78.912 78.912 0 0 1-3.816.195zM4.596 5.45c0-.056-.055-.112-.137-.112H2.06c-.245 0-.353.056-.353.278 0 .167.08.25.245.277.79.084.954.333.981 1.36.027 1.386.027 2.44.027 3.55 0 2.053 0 3.523-.027 4.937-.027 2.136-.136 3.468-.654 4.494-.981 1.914-2.181 1.914-2.181 2.274 0 .167.136.278.273.25.518-.111 4.197-1.498 4.197-6.601 0-1.804-.027-3.33-.027-5.354 0-.666.027-3.356.055-5.353z" fill-rule="evenodd"/></svg>