<!-- Generated by IcoMoon.io -->
<svg version="1.1" xmlns="http://www.w3.org/2000/svg" width="134" height="32" viewBox="0 0 134 32">
<title>amd</title>
<path d="M31.511 29.873h-7.441l-2.276-5.491h-12.401l-2.074 5.491h-7.318l11.181-27.731h8.010l12.32 27.731zM15.288 8.769l-4.066 10.775h8.539l-4.473-10.774zM58.541 2.143h6.018v27.731h-6.913v-17.321l-7.481 8.7h-1.057l-7.481-8.7v17.321h-6.913v-27.73h6.018l8.904 10.287 8.906-10.287zM82.074 2.143c10.124 0 15.327 6.301 15.327 13.905 0 7.969-5.041 13.826-16.1 13.826h-11.466v-27.731h12.239zM76.747 24.791h4.512c6.953 0 9.027-4.718 9.027-8.784 0-4.758-2.562-8.782-9.108-8.782h-4.431v17.566h0zM125.453 8.718h-14.299l-8.716-8.718h31.732v31.733l-8.716-8.717zM111.144 23.026v-12.561l-8.974 8.974v12.561h12.56l8.973-8.974z"></path>
</svg>
