<!-- Generated by IcoMoon.io -->
<svg version="1.1" xmlns="http://www.w3.org/2000/svg" width="258" height="32" viewBox="0 0 258 32">
<title>atalssian</title>
<path fill="#202020" d="M9.38 14.596c-0.166-0.216-0.424-0.353-0.715-0.353-0.359 0-0.669 0.21-0.813 0.514l-0.002 0.005-7.753 15.502c-0.062 0.121-0.098 0.263-0.098 0.414 0 0.512 0.415 0.927 0.927 0.927h10.796c0.006 0 0.013 0 0.021 0 0.355 0 0.662-0.207 0.806-0.507l0.002-0.005c2.329-4.812 0.917-12.129-3.17-16.497z"></path>
<path fill="#b3b3b3" d="M15.067 0.496c-2.070 3.144-3.303 6.999-3.303 11.142 0 3.294 0.779 6.406 2.162 9.162l-0.054-0.118 5.205 10.41c0.155 0.306 0.468 0.512 0.829 0.512h10.794c0.512-0 0.927-0.415 0.927-0.927 0-0.151-0.036-0.294-0.1-0.42l0.002 0.005s-14.522-29.046-14.886-29.773c-0.145-0.293-0.443-0.491-0.787-0.491-0.346 0-0.645 0.201-0.787 0.492l-0.002 0.005z"></path>
<path fill="#9e9e9e" d="M141.674 12.926c0 3.839 1.781 6.886 8.746 8.232 4.156 0.872 5.026 1.543 5.026 2.928 0 1.345-0.872 2.216-3.799 2.216-3.717-0.069-7.185-1.073-10.197-2.786l0.106 0.055v6.252c2.098 1.029 4.868 2.177 10.012 2.177 7.282 0 10.171-3.247 10.171-8.073zM161.738 23.927c0-4.551-2.414-6.688-9.221-8.152-3.76-0.831-4.67-1.662-4.67-2.849 0-1.502 1.345-2.137 3.839-2.137 3.008 0 5.976 0.91 8.786 2.177v-5.976c-2.415-1.127-5.244-1.784-8.226-1.784-0.127 0-0.254 0.001-0.381 0.004l0.019-0c-6.728 0-10.21 2.928-10.21 7.717zM235.223 5.604v26h5.54v-19.827l2.335 5.263 7.836 14.564h6.965v-26h-5.54v16.78l-2.098-4.868-6.292-11.912h-8.746zM193.93 5.604h6.055v26h-6.055zM186.944 23.927c0-4.551-2.414-6.688-9.221-8.152-3.76-0.831-4.67-1.662-4.67-2.849 0-1.502 1.345-2.137 3.839-2.137 3.008 0 5.976 0.91 8.786 2.177v-5.976c-2.415-1.127-5.244-1.784-8.226-1.784-0.127 0-0.254 0.001-0.381 0.004l0.019-0c-6.728 0-10.21 2.928-10.21 7.717 0 3.839 1.781 6.886 8.746 8.232 4.156 0.872 5.026 1.543 5.026 2.928 0 1.345-0.872 2.216-3.799 2.216-3.717-0.069-7.185-1.073-10.197-2.786l0.106 0.055v6.252c2.098 1.029 4.868 2.177 10.012 2.177 7.282 0 10.171-3.247 10.171-8.073zM94.638 5.604v26h12.445l1.96-5.62h-8.311v-20.381h-6.094zM70.050 5.604v5.619h6.728v20.381h6.094v-20.381h7.203v-5.619h-20.024zM61.213 5.604h-7.987l-9.067 26h6.924l1.285-4.379c1.452 0.442 3.12 0.697 4.849 0.697s3.397-0.255 4.97-0.729l-0.122 0.032 1.285 4.379h6.925zM57.22 22.537c-1.188-0-2.334-0.175-3.416-0.501l0.084 0.022 3.332-11.347 3.332 11.35c-0.994 0.302-2.136 0.475-3.32 0.475-0.004 0-0.009 0-0.013 0h0.001zM128.538 5.604h-7.986l-9.067 26h6.925l1.285-4.379c1.452 0.442 3.12 0.697 4.849 0.697s3.397-0.255 4.97-0.729l-0.122 0.032 1.285 4.379h6.925zM124.545 22.537c-1.188-0-2.334-0.175-3.416-0.501l0.084 0.022 3.332-11.347 3.332 11.35c-0.994 0.302-2.136 0.475-3.32 0.475-0.004 0-0.009 0-0.013 0h0.001zM221.804 5.604h-7.986l-9.067 26h6.925l1.285-4.379c1.452 0.442 3.12 0.697 4.849 0.697s3.397-0.255 4.97-0.729l-0.122 0.032 1.285 4.379h6.926zM217.808 22.537c-1.188-0-2.334-0.175-3.416-0.501l0.084 0.022 3.332-11.347 3.332 11.35c-0.994 0.302-2.137 0.475-3.32 0.475-0.004 0-0.009 0-0.013 0h0.001z"></path>
</svg>
