<svg width="218" height="23" viewBox="0 0 218 23" xmlns="http://www.w3.org/2000/svg"><title>Harper</title><path d="M8.19.362V.343c.923.213 1.752 1.49 1.752 2.922 0 1.857-1.903 3.367-1.847 4.992h.018c.453-2.225 3.792-3.54 3.095-5.959.942.637 1.395 2.4 1.526 3.753.416-1.393 2.263-2.263 2.566-3.327h.018V9.71H.682L.664 6.13c0-2.15 3.602-2.09 3.32-4.083l.019-.022c1.055 1.782-.603 3.31-.284 4.453h.02c.848-3.405 4.053-2.498 4.772-4.663C8.7 1.213 8.47.556 8.19.362M3.21 10.406c-.85.872-1.736 1.277-2.528.948v6.407h14.636v-6.774c-1.245 1.53-2.753.871-2.603-.387v-.021c-2.281 2.73-3.584 1.201-3.223.1v-.02c-2.076 2.571-3.377 1.064-2.755-.213l-.019-.021c-2.62 3.232-4.281 2.052-3.508 0v-.019zm16.922-4.141c0-.917-.134-1.58-1.806-1.599l-.095-.156v-.332c0-.135.17-.156.323-.156.57 0 1.69.097 2.529.097.76 0 1.52-.097 2.358-.097.397 0 .494 0 .494.215v.313c0 .097-.229.116-.533.116-.781 0-1.56.06-1.56 1.014v4.389H30V6.422c0-1.346 0-1.64-1.54-1.756-.208-.019-.247-.078-.247-.313V4.12l.095-.097c.628.04 1.826.097 3.004.097 1.217 0 1.711-.038 2.263-.097l.076.118v.37c0 .156-.17.156-.457.156-.988 0-1.482.175-1.482 1.308v9.656c0 1.405.74 1.521 1.826 1.521.074 0 .074.294.074.507 0 .078-.074.137-.589.137-.76 0-1.52-.097-2.281-.097-.702 0-1.883.097-2.111.097-.494 0-.589-.04-.589-.116v-.43l.095-.098c1.826 0 1.863-.389 1.863-1.753v-4.566h-8.156v4.935c0 1.111.286 1.384 1.693 1.384.207 0 .265.04.265.216v.291c0 .119-.19.137-.607.137-.78 0-1.561-.097-2.34-.097-.722 0-1.464.097-2.187.097-.133 0-.304 0-.4-.116v-.43l.135-.098c.894 0 1.73-.078 1.73-1.071V6.265zm19.508 5.951c0-1.073-.135-1.893-1.522-1.893-.513 0-1.465.156-1.465.722 0 .138.04.332.095.448l-1.196.704a1.655 1.655 0 0 1-.116-.585c0-.626.61-1.114 1.01-1.346l1.71-1.017c.23-.135.324-.194.4-.194 1.578 0 2.395.782 2.395 2.381v4.135c0 .41 0 1.23.607 1.23.363 0 .44-.156.686-.566l.36.137c-.226.936-.701 1.697-1.519 1.697-1.293 0-1.427-1.23-1.406-1.716-.723.758-1.675 1.716-2.797 1.716-1.101 0-1.672-1.465-1.672-2.341 0-.332.36-.955 1.938-1.58l2.491-.996v-.936zm-.02 1.483l-1.881.877c-.268.119-.952.488-.952.995 0 .529.248 1.521.876 1.521.665 0 1.311-.682 1.787-1.149l.17-.177v-2.067zm6.636 2.028c0 .78 0 1.521 1.445 1.521.114 0 .132.1.132.275 0 .176 0 .273-.152.273-.666 0-1.33-.097-1.996-.097-.723 0-1.482.097-2.205.097-.076 0-.076-.04-.076-.157v-.175c0-.194.037-.216.418-.235.836-.056.988-.35.988-1.405v-4.331c0-.37-.17-.604-.57-.72-.077-.02-.57-.157-.57-.43 0-.118.057-.177.265-.274l1.409-.661c.418-.197.74-.351.799-.351.113 0 .15.116.15.175l-.037 2.007.037.04c.61-.798 1.485-2.222 2.644-2.222.683 0 1.083.33 1.083 1.052 0 .41-.379.76-.778.76-.515 0-.705-.35-1.275-.35-.457 0-1.046.663-1.425 1.152l-.286.37v3.686zm5.704-3.745c0-.858-.04-1.033-.437-1.209l-.686-.313c-.037 0-.037-.04-.037-.137 0-.156.019-.156.153-.232l2.318-1.152c.114.038.114.176.114.273 0 .37-.037.76.02 1.13.626-.33 2.206-1.287 2.852-1.287 2.072 0 3.554 2.126 3.554 4.097 0 3.746-3.706 4.917-5.17 4.917-.418 0-.818-.137-1.236-.175v3.023c0 1.327.324 1.405 1.69 1.483.077 0 .135.057.135.117v.194c0 .118-.037.234-.095.234-.817 0-1.616-.097-2.492-.097-.836 0-1.595.097-2.09.097-.17 0-.191-.078-.191-.272v-.116c0-.06.02-.157.057-.157 1.446-.137 1.54-.156 1.54-1.736v-8.682zm1.445 3.862c0 1.014.97 1.346 1.882 1.346 1.94 0 2.947-1.384 2.947-3.374 0-1.718-.988-3.493-2.815-3.493-.76 0-1.367.156-2.014.626v4.895zm9.773-3.257c-.037.272-.037.545-.037.82 0 1.696 1.272 3.393 3.004 3.393.702 0 1.196-.273 2.148-1.15l.342.252c-.76 1.27-1.901 2.168-3.423 2.168-1.94 0-3.517-1.913-3.517-4.078 0-2.303 1.522-4.936 4.011-4.936 1.693 0 2.892 1.306 2.892 2.926v.605h-5.42zm3.309-.545c.247 0 .531-.372.531-.704 0-.955-.702-1.637-1.635-1.637-1.14 0-1.921 1.345-2.11 2.438l3.214-.097zm6.178 3.685c0 .78 0 1.521 1.446 1.521.113 0 .131.1.131.275 0 .176 0 .273-.15.273-.667 0-1.332-.097-1.997-.097-.723 0-1.483.097-2.206.097-.076 0-.076-.04-.076-.157v-.175c0-.194.04-.216.418-.235.836-.056.988-.35.988-1.405v-4.331c0-.37-.17-.604-.57-.72-.076-.02-.57-.157-.57-.43 0-.118.057-.177.265-.274l1.409-.661c.418-.197.741-.351.799-.351.113 0 .152.116.152.175l-.039 2.007.04.04c.607-.798 1.482-2.222 2.641-2.222.684 0 1.083.33 1.083 1.052 0 .41-.378.76-.778.76-.515 0-.704-.35-1.275-.35-.457 0-1.046.663-1.425 1.152l-.286.37v3.686zm17.379 1.288c-1.275.645-2.815 1.054-4.545 1.054-3.725 0-7.852-2.713-7.852-7.198 0-4.272 3.86-7.123 7.757-7.123 1.275 0 3.462.45 4.564 1.133l.247 2.263c.018.156.057.37.057.466 0 .138-.304.138-.38.138-.077 0-.248-.313-.513-.955-.552-1.346-2.226-2.284-3.898-2.284-3.633 0-5.704 3.064-5.704 6.575 0 3.199 2.51 6.225 5.704 6.225 1.122 0 2.565-.41 3.327-1.036.59-.488.836-1.364 1.065-2.087.018-.038.132-.038.229-.038.152 0 .436.019.378.291l-.436 2.576zm6.882-7.959c2.264 0 4.24 2.028 4.24 4.37 0 2.81-2.263 4.643-4.752 4.643-2.3 0-4.127-1.99-4.127-4.371a4.63 4.63 0 0 1 4.64-4.642m-.437.644c-1.921 0-2.492 1.853-2.492 3.725 0 1.718.894 4 2.852 4 1.864 0 2.605-1.699 2.605-3.374 0-1.953-.646-4.35-2.965-4.35m8.936 6.612c0 .429 0 .936 1.311.936.04 0 .04.119.04.273 0 .177-.019.274-.058.274-.741 0-1.58-.097-1.977-.097-.686 0-1.37.097-2.055.097-.132 0-.171-.059-.171-.137v-.175c0-.235.058-.235.326-.235.836 0 1.138-.116 1.138-1.033V5.681c0-1.23 0-1.308-.741-1.62-.284-.117-.552-.214-.552-.37 0-.157.192-.216.97-.526l1.388-.529c.039-.019.228-.097.286-.097.134 0 .134.194.134.313 0 .936-.04 1.893-.04 2.83v10.631zm5.285 0c0 .429 0 .936 1.312.936.04 0 .04.119.04.273 0 .177-.022.274-.058.274-.742 0-1.578-.097-1.98-.097-.683 0-1.367.097-2.053.097-.131 0-.17-.059-.17-.137v-.175c0-.235.057-.235.323-.235.838 0 1.14-.116 1.14-1.033V5.681c0-1.23 0-1.308-.74-1.62-.285-.117-.553-.214-.553-.37 0-.157.192-.216.97-.526l1.388-.529c.04-.019.229-.097.287-.097.134 0 .134.194.134.313 0 .936-.04 1.893-.04 2.83v10.631zm5.286 0c0 .429 0 .936 1.312.936.039 0 .039.119.039.273 0 .177-.019.274-.058.274-.741 0-1.58-.097-1.977-.097-.686 0-1.37.097-2.055.097-.132 0-.17-.059-.17-.137v-.175c0-.235.057-.235.325-.235.836 0 1.138-.116 1.138-1.033v-4.019c0-1.23 0-1.308-.741-1.62-.284-.117-.552-.214-.552-.37s.192-.216.97-.528l1.388-.527c.04-.018.228-.097.286-.097.134 0 .134.195.134.313 0 .936-.04 1.893-.04 2.83v4.115zm-.78-13.051c.59 0 1.066.488 1.066 1.092 0 .604-.475 1.093-1.067 1.093-.586 0-1.062-.489-1.062-1.093s.476-1.092 1.062-1.092zm4.621 7.998c0-.372-.171-.604-.36-.644l-.628-.157c-.058-.019-.116-.078-.116-.213 0-.06.02-.194.116-.216.951-.253 2.242-.973 2.357-.973.077 0 .077.154.077.232v1.346c.893-.72 1.9-1.578 3.117-1.578 1.654 0 2.358.954 2.358 2.594v4.758c0 .841.628.841 1.256.841.037 0 .074.038.074.135v.353c0 .038-.037.057-.095.057-.76 0-1.254-.097-1.882-.097-.686 0-1.35.097-2.034.097-.134 0-.134-.35-.134-.429 0-.059.076-.116.192-.116.304 0 1.177 0 1.177-.585V12.08c0-1.21-.36-1.893-1.692-1.893-.8 0-1.786.488-2.337 1.052v5.073c0 .431 0 .938 1.311.938.037 0 .037.116.037.273 0 .175-.018.272-.055.272-.742 0-1.58-.097-1.98-.097-.683 0-1.366.097-2.052.097-.134 0-.171-.057-.171-.137v-.176c0-.232.058-.232.323-.232.836 0 1.14-.118 1.14-1.035V11.26zm14.735.215h-.475c-.23-.858-.666-1.775-1.672-1.775-.876 0-1.56.429-1.56 1.346 0 .76 1.008 1.227 1.996 1.794 1.007.585 1.995 1.27 1.995 2.478 0 1.697-1.52 2.751-3.06 2.751-1.235 0-2.434-.566-2.452-.879l-.095-1.775.55-.059c.076.1.095.235.134.372.21.799 1.064 1.697 1.9 1.697.973 0 1.58-.605 1.58-1.619 0-.644-.875-1.327-1.351-1.58-1.102-.585-2.51-1.249-2.51-2.732 0-1.619 1.445-2.438 2.891-2.438.76 0 1.522.215 2.242.604l-.113 1.815zm5.4-4.175c.229-.898.418-1.718.418-1.853 0-.526-.378-.683-.836-.683-.304 0-.61.097-.665.097-.057 0-.078-.059-.078-.234 0-.313.058-.391.362-.41 1.712-.138 2.587-.194 4.109-.194 2.129 0 4.161.917 4.161 3.336 0 2.3-1.767 4.485-4.106 4.485-.817 0-1.596-.175-1.958-.545l.305-.45c.247.197.702.353 1.293.353 1.522 0 2.7-2.303 2.7-3.865 0-1.618-1.065-2.554-2.663-2.554-.57 0-.8.06-.912.47l-2.776 10.65c-.037.138-.171.604-.171.742 0 .488.607.507 1.178.507h.265c.116 0 .173.038.173.175 0 .116-.076.254-.134.391-.039.078-.228.078-.36.078-.344 0-1.37-.1-2.32-.1-.894 0-1.77.12-2.035.1-.076 0-.095-.04-.095-.118 0-.273.058-.526.171-.526 1.18 0 1.464-.156 1.693-1.073l2.281-8.78zm8.727 3.843c.647-.623 1.693-2.088 2.644-2.088.379 0 .665.157.665.605 0 .274-.286.938-.362 1.17l-1.236 3.201c-.323.84-.607 1.503-.607 1.678 0 .194.113.35.342.35.722 0 3.764-4.096 4.41-4.857.476-.547.836-1.348 1.275-1.952.113-.154.284-.195.455-.195.247 0 .476.294.476.526 0 .334-2.187 5.64-2.187 6.498 0 .215.17.331.286.331.647 0 1.578-1.386 1.977-1.971.113 0 .342.197.342.294-.57 1.054-2.395 3.336-3.593 3.336-.324 0-.59-.35-.59-.742 0-.545 1.465-4.232 1.712-4.992h-.04c-.78.955-4.98 5.734-5.874 5.734-.324 0-.628-.35-.628-.682 0-1.387 2.186-5.756 2.186-6.36 0-.197-.17-.313-.265-.313-.247 0-.894.604-1.083.82l-.305-.391zm12.206 2.048l.04.04c1.101-1.464 3.08-4.174 4.98-4.174 1.102 0 1.73.895 1.73 2.007 0 2.947-4.486 7.006-7.225 7.006-.742 0-1.73-.332-1.73-1.27 0-.448 1.406-4.741 1.617-5.578.094-.372 1.766-6.243 1.766-7.044 0-.567-.455-.683-1.178-.742l.04-.448c.796-.097 2.547-.448 2.889-.448.094 0 .21 0 .247.079l-3.176 10.572zm4.337-3.16c-1.37 0-5.117 4.468-5.117 6.38 0 .545.591.78 1.046.78 1.711 0 4.963-4.37 4.963-6.087 0-.742-.324-1.074-.892-1.074zm6.882-4.058c.153-.526.323-1.443.323-1.561 0-.623-.628-.799-1.103-.877l.133-.45c.952-.116 2.624-.545 2.834-.545.076 0 .113.038.113.116 0 .078-.095.429-.305 1.133l-2.926 10.24c-.247.86-.515 1.697-.515 2.128 0 .254.19.448.44.448.588 0 1.387-1.092 1.842-1.502h.076l.284.294v.057c-.644.936-2.26 2.616-3.44 2.616-.437 0-.818-.372-.818-.86 0-.098.115-.545.266-1.15l2.796-10.087zm2.567 4.975c.323-.625 1.806-1.874 2.547-1.893.628 0 .952.294.952.917 0 .645-2.187 5.756-2.187 6.34 0 .217.189.392.475.392.608 0 1.522-1.346 1.959-1.775.076 0 .341.213.341.292-.646 1.033-2.129 2.848-3.422 2.848-.57 0-.97-.254-.97-.88 0-.779 2.187-5.577 2.187-6.416 0-.216-.113-.35-.323-.35-.324 0-.876.485-1.16.817l-.4-.292zm3.67-7.198c.494 0 .893.388.893.898 0 .505-.4.914-.894.914s-.875-.41-.875-.914c0-.51.381-.898.875-.898zm5.095 5.306c.57 0 1.522.194 1.522.955 0 .41-.286.782-.61.782-.607 0-.588-.977-1.521-.977-.608 0-1.178.683-1.178 1.25 0 .876 2.51 2.75 2.51 3.9 0 1.445-1.711 3.103-3.138 3.103-.894 0-1.711-.137-1.711-1.23 0-.39.323-.7.646-.7.61 0 .628.798 1.635.798.647 0 1.236-.548 1.236-1.228 0-.976-2.282-2.694-2.282-3.592 0-1.618 1.293-3.061 2.891-3.061m4.753 4.604l.037.037c.99-1.462 3.044-4.642 5.058-4.642 1.256 0 1.56 1.036 1.56 2.128 0 2.01-2.15 6.886-4.468 6.886-.342 0-.817-.235-.817-.642 0-.47.247-.92.704-.92.15 0 .284.06.418.138.132.078.266.156.418.156 1.217 0 2.224-4.429 2.224-5.443 0-.566-.134-1.132-.8-1.132-1.387 0-3.135 2.75-4.352 4.8-.857 1.443-.989 2.26-1.275 2.848-.076.154-.247.195-.4.195-.17 0-.625-.176-.625-.507 0-.45 2.147-7.14 2.45-8.35.155-.586 1.143-4.292 1.143-4.82 0-.642-.342-.74-1.18-.839l.115-.448c.665-.137 1.349-.196 1.996-.41.247-.078.494-.156.74-.156.096 0 .285.019.285.137 0 .214-1.291 4.683-1.577 5.6l-1.654 5.383zm13.405-4.604c1.083 0 2.168.332 2.168 1.618 0 2.263-3.632 2.908-5.304 2.986-.058.448-.153.879-.153 1.327 0 1.014.532 1.95 1.615 1.95.97 0 1.58-.391 2.263-1.112.097.02.323.157.362.332-.762 1.19-1.903 1.912-3.27 1.912-1.769 0-2.491-1.308-2.491-2.947 0-2.574 1.976-6.066 4.81-6.066m-.076.545c-1.54 0-2.547 2.303-2.929 3.61 1.33-.118 3.84-.722 3.84-2.556 0-.585-.283-1.054-.911-1.054m6.749.996c0 .507-.152 1.327-.38 2.244h.039c.665-1.152 2.11-3.784 3.175-3.784.494 0 1.046.31 1.046.876 0 .586-.381.936-.97.936a.7.7 0 0 1-.457-.194c-.134-.119-.229-.254-.323-.254-.629 0-2.167 3.258-2.587 4.254-.284.663-1.025 3.395-1.559 3.395-.247 0-.778-.118-.778-.39 0-.157.476-1.465.97-3.046.36-1.151.72-2.3.72-2.945 0-.45-.073-1.073-.76-1.073-.38 0-.856.741-1.1 1.151a1.621 1.621 0 0 1-.4-.272c.36-.801 1.311-2.438 2.224-2.438.817 0 1.14.917 1.14 1.54m7.91-1.541c.57 0 1.522.194 1.522.955 0 .41-.286.782-.61.782-.607 0-.589-.977-1.522-.977-.607 0-1.177.683-1.177 1.25 0 .876 2.51 2.75 2.51 3.9 0 1.445-1.711 3.103-3.139 3.103-.893 0-1.71-.137-1.71-1.23 0-.39.323-.7.646-.7.61 0 .628.798 1.635.798.647 0 1.235-.548 1.235-1.228 0-.976-2.281-2.694-2.281-3.592 0-1.618 1.293-3.061 2.891-3.061" fill-rule="evenodd"/></svg>