<!-- Generated by IcoMoon.io -->
<svg version="1.1" xmlns="http://www.w3.org/2000/svg" width="187" height="32" viewBox="0 0 187 32">
<title>mazda</title>
<path fill="#747474" d="M128.105 23.69h11.068s4.836-0.033 4.836-7.628c0-7.744-4.837-7.755-4.837-7.755h-11.067v15.384zM59.067 18.513c-1.177 0-2.132 1.090-2.132 2.436s0.954 2.436 2.132 2.436l12.906-0.002v-4.868l-12.906-0.002zM164.098 18.513c-1.178 0-2.132 1.091-2.132 2.436s0.955 2.436 2.132 2.436l12.905-0.002v-4.868l-12.906-0.002zM159.591 12.223h17.599c0.003-1.715-0.116-4.43-4.135-4.432-4.153-0.002-18.052 0-18.052 0v-7.732s13.419 0.004 22 0.002c5.358-0.001 9.592 2.183 9.593 8.585l-0.004 23.17-26.634 0.020c-3.568 0-6.568-3.141-7.41-7.387-2.399 7.366-8.199 7.363-12.686 7.352l-21.689 0v-24.876l-30.518 24.89-32.728 0.020c-2.963 0-5.535-2.167-6.803-5.334l-0.005 5.314h-9.426v-20.44s-0.022-2.723-2.922-2.729h-6.969v23.169h-9.325v-23.169h-9.778v23.169h-9.666l0.015-31.757 39.348-0.001c4.343 0 8.739 2.852 8.739 8.589l-0.003 8.878c1.27-3.156 3.834-5.314 6.791-5.314l-0.36 0.011h17.599c0.002-1.715-0.116-4.43-4.136-4.432-4.152-0.002-18.051 0-18.051 0v-7.732s13.419 0.004 22 0.002c5.358-0.001 9.592 2.183 9.593 8.585l-0.003 15.936 30.817-24.522h27.557c5.726 0 13.725 0 13.725 15.832l-0.003 0.57c1.378-2.566 3.683-4.249 6.294-4.249l-0.36 0.011zM84.942 0.058h21.996l-9.74 8.588h-12.262l0.006-8.588zM115.316 31.791h-21.996l9.741-8.588h12.262l-0.006 8.588z"></path>
</svg>
