<svg width="607" height="104" viewBox="0 0 607 104" xmlns="http://www.w3.org/2000/svg"><title>mazda</title><path d="M416.342 76.994h35.97s15.718-.107 15.718-24.792c0-25.167-15.719-25.205-15.719-25.205h-35.969v49.997zM191.967 60.168c-3.826 0-6.928 3.544-6.928 7.917 0 4.372 3.102 7.917 6.928 7.917l41.943-.008v-15.82l-41.943-.007zm341.35 0c-3.827 0-6.93 3.545-6.93 7.918 0 4.372 3.103 7.917 6.93 7.917l41.942-.008v-15.82l-41.943-.007zM518.67 39.724h57.197c.01-5.573-.376-14.397-13.44-14.403-13.496-.007-58.668 0-58.668 0V.192s43.613.013 71.5.006c17.412-.004 31.173 7.096 31.176 27.9l-.014 75.304h-87.56l1 .066c-11.596 0-21.346-10.208-24.082-24.008-7.796 23.94-26.648 23.93-41.23 23.894l-70.488.001V22.507L284.878 103.4H177.514l.997.066c-9.63 0-17.988-7.042-22.111-17.336l-.016 17.27h-30.636V36.97s-.072-8.849-9.498-8.87H93.602v75.3H63.295V28.1h-31.78v75.3H.1L.15.19 128.03.187c14.114 0 28.401 9.268 28.401 27.914l-.01 28.855c4.127-10.258 12.46-17.27 22.07-17.27l-1.17.036h57.198c.007-5.573-.378-14.396-13.443-14.403-13.495-.006-58.666 0-58.666 0V.19s43.613.013 71.499.006c17.412-.004 31.175 7.096 31.176 27.9l-.009 51.792L365.231.19h89.561c18.611 0 44.605.001 44.605 51.453l-.011 1.852c4.479-8.341 11.969-13.809 20.455-13.809l-1.171.037zM276.063.19h71.488L315.895 28.1h-39.852l.02-27.91zm98.713 103.13h-71.488l31.657-27.91h39.851l-.02 27.91z" fill="#0080C5"/></svg>