<!-- Generated by IcoMoon.io -->
<svg version="1.1" xmlns="http://www.w3.org/2000/svg" width="54" height="32" viewBox="0 0 54 32">
<title>mns</title>
<path d="M53.778 4.624l-1.626 0.591c-0.646-2.057-2.467-3.381-4.936-3.381-2.691 0-4.457 1.352-4.457 3.635 0 4.904 11.158 2.31 11.158 9.214 0 3.298-2.635 5.608-6.559 5.608-3.645 0-5.83-1.747-7.344-4.536l1.513-0.929c1.008 2.141 2.857 3.804 5.662 3.804 3.251 0 4.934-1.493 4.934-3.974 0-4.932-11.159-2.508-11.159-9.215 0-3.974 3.561-5.271 6.196-5.271 2.97 0 5.664 1.353 6.616 4.454zM26.332 4.681c0 1.098 0.728 2.028 2.328 3.747 1.878-1.1 2.916-2.255 2.916-3.748 0-1.466-0.983-2.621-2.664-2.621-1.57 0-2.58 1.24-2.58 2.621zM28.21 10.513c-2.55 1.409-3.672 2.536-3.672 4.283 0 2.001 1.793 3.664 4.092 3.664 2.076 0 3.14-0.958 4.289-2.817l-4.709-5.129zM37.293 20.375l-3.252-3.494c-1.176 1.861-2.776 3.213-5.41 3.213-3.391 0-5.887-2.366-5.887-5.269 0-2.424 1.486-3.917 4.348-5.552-1.627-1.633-2.525-2.987-2.525-4.592 0-2.338 1.963-4.199 4.346-4.199 2.524 0 4.401 1.86 4.401 4.199 0 2.254-1.766 3.775-3.531 4.931l4.036 4.424 2.384-3.888 1.429 0.901-2.636 4.311 3.617 3.861-1.318 1.154zM18.259 0.425v19.669h-1.794v-16.061l-6.446 12.568h-1.262l-6.449-12.541v16.035h-1.793v-19.669h1.878l7.007 13.582 7.009-13.582h1.851zM13.362 29.608h1.906v-0.514h-1.906v-1.269h2.044v-0.515h-2.577v4.115h2.693v-0.515h-2.16zM18.267 29.082l-0.024-0.008c-0.58-0.167-0.908-0.28-0.908-0.669 0-0.381 0.32-0.625 0.816-0.625 0.413 0 0.717 0.169 0.859 0.479l0.056 0.124 0.437-0.256-0.041-0.099c-0.29-0.703-1.060-0.758-1.291-0.758-0.503 0-1.353 0.241-1.353 1.141 0 0.789 0.701 0.996 1.32 1.18 0.611 0.179 0.954 0.3 0.954 0.704 0 0.423-0.362 0.698-0.924 0.698-0.516 0-0.893-0.225-1.097-0.653l-0.058-0.124-0.448 0.267 0.052 0.104c0.287 0.589 0.832 0.914 1.535 0.914 0.855 0 1.452-0.505 1.452-1.229 0-0.806-0.74-1.019-1.336-1.19zM20.537 27.824h1.246v3.6h0.535v-3.6h1.246v-0.515h-3.027zM28.017 27.989h0.613v3.435h0.527l0.007-3.949h-1.136zM39.44 29.982l1.28-1.782v1.782h-1.28zM40.937 27.475h-0.299l-1.912 2.663v0.358h1.993v0.929h0.518v-0.929h0.506v-0.447l-0.506-0.050v-2.523h-0.301zM32.13 31.028c-0.493 0-0.877-0.243-0.877-0.748 0-0.478 0.419-0.715 0.877-0.715 0.457 0 0.873 0.237 0.873 0.715 0 0.505-0.383 0.748-0.873 0.748zM31.357 28.503c0-0.42 0.276-0.664 0.774-0.664 0.494 0 0.773 0.244 0.773 0.664s-0.385 0.631-0.773 0.631c-0.42 0-0.774-0.24-0.774-0.631zM32.852 29.343c0.344-0.187 0.542-0.471 0.542-0.87 0-0.709-0.57-1.067-1.264-1.067-0.696 0-1.267 0.358-1.267 1.067 0 0.399 0.198 0.683 0.538 0.87-0.361 0.169-0.661 0.466-0.661 0.93 0 0.705 0.503 1.186 1.39 1.186 0.886 0 1.389-0.498 1.389-1.186 0-0.464-0.301-0.761-0.667-0.93zM36.039 31.028c-0.493 0-0.877-0.243-0.877-0.748 0-0.478 0.418-0.715 0.877-0.715s0.877 0.237 0.877 0.715c0 0.505-0.385 0.748-0.877 0.748zM35.265 28.503c0-0.42 0.277-0.664 0.774-0.664s0.774 0.244 0.774 0.664c0 0.42-0.385 0.631-0.774 0.631-0.419 0-0.774-0.24-0.774-0.631zM36.761 29.343c0.344-0.187 0.543-0.471 0.543-0.87 0-0.709-0.571-1.067-1.265-1.067-0.696 0-1.266 0.358-1.266 1.067 0 0.399 0.198 0.683 0.537 0.87-0.361 0.169-0.661 0.466-0.661 0.93 0 0.705 0.502 1.186 1.39 1.186 0.886 0 1.39-0.498 1.39-1.186 0-0.464-0.301-0.761-0.668-0.93z"></path>
</svg>
