<!-- Generated by IcoMoon.io -->
<svg version="1.1" xmlns="http://www.w3.org/2000/svg" width="166" height="32" viewBox="0 0 166 32">
<title>nvidia</title>
<path fill="#202020" d="M162.588 24.237v-0.456h0.291c0.164 0 0.383 0.013 0.383 0.207 0 0.21-0.128 0.248-0.309 0.248h-0.365zM162.588 24.557h0.201l0.437 0.797h0.492l-0.492-0.829c0.255-0.019 0.474-0.143 0.474-0.492 0-0.434-0.292-0.574-0.802-0.574h-0.728v1.895h0.418v-0.797zM164.701 24.409c0-1.112-0.856-1.758-1.821-1.758-0.967 0-1.823 0.646-1.823 1.758s0.856 1.76 1.822 1.76 1.822-0.648 1.822-1.76zM164.191 24.409c0 0.811-0.601 1.354-1.312 1.354v-0.006c-0.711 0.006-1.293-0.537-1.293-1.348 0-0.81 0.583-1.352 1.293-1.352s1.312 0.541 1.312 1.352zM97.923 5.583l0.002 19.964h5.615v-19.964h-5.617zM53.758 5.556v19.991h5.664v-15.179l4.388 0.001c1.453 0 2.488 0.364 3.189 1.114 0.888 0.949 1.25 2.483 1.25 5.286v8.778h5.487v-11.046c0-7.883-5.002-8.946-9.898-8.946h-10.081zM106.964 5.585v19.962h9.106c4.851 0 6.434-0.81 8.149-2.626 1.209-1.276 1.991-4.075 1.991-7.136 0-2.805-0.661-5.31-1.816-6.868-2.080-2.788-5.077-3.332-9.549-3.332h-7.88zM112.533 9.931h2.414c3.501 0 5.766 1.581 5.766 5.677 0 4.1-2.264 5.679-5.766 5.679h-2.414v-11.358zM89.83 5.585l-4.687 15.822-4.49-15.823h-6.058l6.411 19.962h8.092l6.462-19.96h-5.729zM128.822 25.547h5.614v-19.961h-5.614v19.961zM144.561 5.59l-7.839 19.95h5.536l1.241-3.526h9.269l1.184 3.526h6.013l-7.907-19.95h-7.497zM148.206 9.231l3.395 9.346h-6.904l3.509-9.346z"></path>
<path fill="#898989" d="M17.801 9.506v-2.849c0.275-0.019 0.552-0.034 0.836-0.044 7.757-0.243 12.844 6.695 12.844 6.695s-5.495 7.667-11.388 7.667c-0.009 0-0.020 0-0.031 0-0.809 0-1.587-0.135-2.312-0.384l0.050 0.015v-8.637c3.019 0.366 3.626 1.706 5.441 4.745l4.039-3.42s-2.947-3.882-7.915-3.882c-0.541 0-1.059 0.039-1.565 0.094zM17.801 0.097v4.255c0.278-0.022 0.557-0.041 0.836-0.050 10.787-0.365 17.814 8.883 17.814 8.883s-8.072 9.857-16.481 9.857c-0.77 0-1.492-0.072-2.169-0.192v2.631c0.578 0.074 1.181 0.117 1.806 0.117 7.826 0 13.484-4.013 18.965-8.764 0.908 0.732 4.628 2.508 5.394 3.287-5.212 4.381-17.354 7.912-24.238 7.912-0.663 0-1.302-0.041-1.927-0.102v3.697h29.742v-31.531h-29.742zM17.801 20.606v2.244c-7.239-1.295-9.248-8.852-9.248-8.852s3.476-3.866 9.247-4.492v2.463h-0.011c-3.028-0.366-5.396 2.475-5.396 2.475s1.327 4.785 5.407 6.162zM4.946 13.672s4.289-6.357 12.855-7.015v-2.306c-9.489 0.766-17.704 8.835-17.704 8.835s4.653 13.511 17.704 14.746v-2.451c-9.578-1.212-12.855-11.81-12.855-11.81z"></path>
</svg>
