<!-- Generated by IcoMoon.io -->
<svg version="1.1" xmlns="http://www.w3.org/2000/svg" width="57" height="32" viewBox="0 0 57 32">
<title>pbs</title>
<path fill="#202020" d="M31.807 15.886c0 8.639-7.003 15.643-15.643 15.643s-15.643-7.003-15.643-15.643c0-8.639 7.003-15.643 15.643-15.643s15.643 7.003 15.643 15.643z"></path>
<path fill="#c8c8c8" d="M17.767 7.169h-4.725c-3.884 0-7.061 2.715-7.061 6.734 0 3.368 2.037 5.784 5.078 6.246v4.699h6.3v-4.508h0.869c1.032-0.109 1.71-0.787 1.738-1.738v-2.607h1.711l-3.911-8.826zM16.517 14.746c-0.841 0-1.547-0.706-1.547-1.548s0.706-1.548 1.548-1.548 1.548 0.706 1.548 1.548c0 0.005 0 0.012 0 0.018 0 0.845-0.685 1.53-1.53 1.53-0.006 0-0.013-0-0.019-0h0.001zM23.063 7.169h-2.553l3.856 8.827h-1.765v2.335c0 1.412-0.598 2.037-2.526 2.009v4.508h2.526v-4.508h0.842c0.733 0.027 1.738-0.57 1.738-1.738v-2.607h1.711l-3.829-8.826z"></path>
<path fill="#202020" d="M36.805 13.008h-1.087v-1.358h3.612c1.955 0 3.068 1.005 3.068 2.58 0 1.602-1.168 2.607-3.014 2.607h-0.978v2.037h1.276v1.358h-3.965v-1.358h1.114v-5.866h-0.027zM38.407 15.479h1.060c0.896 0 1.385-0.571 1.385-1.249 0-0.706-0.516-1.249-1.385-1.249h-1.060v2.498zM43.947 13.008h-0.977v-1.358h3.449c2.146 0 2.824 1.276 2.824 2.227 0 0.788-0.435 1.439-1.032 1.738 0.869 0.353 1.358 1.249 1.358 2.037 0 1.874-1.467 2.634-2.879 2.634h-3.829v-1.358h1.113v-5.92h-0.027zM45.522 18.901h1.005c0.815 0 1.385-0.461 1.385-1.222 0-0.652-0.435-1.222-1.385-1.222h-1.005v2.444zM45.522 15.099h0.95c0.706 0 1.195-0.407 1.195-1.059 0-0.624-0.462-1.032-1.195-1.032h-0.95v2.091zM54.62 12.981c-0.272-0.109-0.652-0.217-1.032-0.217-1.059 0-1.385 0.598-1.385 1.087 0 0.624 0.408 0.815 0.896 0.95l0.924 0.244c1.113 0.326 2.363 0.734 2.363 2.498 0 1.63-0.978 2.797-3.151 2.797-0.842 0-1.711-0.109-2.716-0.461v-2.255h1.576v1.113c0.407 0.19 0.841 0.217 1.276 0.217 0.924 0 1.358-0.489 1.358-1.141 0-0.435-0.217-0.761-1.25-1.059l-0.842-0.245c-1.576-0.461-2.091-1.141-2.091-2.444 0-1.358 0.842-2.553 2.987-2.553 0.924 0 1.847 0.163 2.498 0.462v2.037h-1.439v-1.032h0.027z"></path>
</svg>
