<svg width="133" height="21" viewBox="0 0 133 21" xmlns="http://www.w3.org/2000/svg"><title>logo-polaris-industries</title><g fill="none" fill-rule="evenodd"><path d="M15.708.704c8.5 0 15.384 3.92 15.384 8.805 0 4.832-6.885 8.805-15.384 8.805-8.444 0-15.33-3.973-15.33-8.805 0-4.885 6.886-8.805 15.33-8.805z" fill="#000"/><path d="M13.019 8.275l-9.09 1.288 8.23-.966c.538-.054 1.076-.054 1.505.107l.915.375-1.56-.804zm.161 2.845l-1.882 2.578 1.721-2.202c.162-.215.376-.377.538-.484l.969-.59-1.345.697zm1.614 1.557c-.054-.323-.054-.645.053-.806l.485-1.073-.915 1.396 1.56 4.939-1.183-4.456zm3.98-1.557l-1.345-.698.753.483c.269.162.485.269.807.698l1.667 2.095-1.882-2.579zm.215-2.845l-1.56.805 1.076-.43c.323-.16.7-.107 1.237-.053l8.175.967-8.928-1.29zm-.968-1.289l-.914 1.234.86-1.02c.108-.107.162-.161.324-.269l2.366-1.556-2.636 1.61zm-3.227-.483l1.183-4.456-1.56 4.885.915 1.289-.485-.913c-.053-.268-.107-.59-.053-.805z" fill="#FFF"/><path d="M17.537 6.932l-1.56-4.94v7.196l1.56-2.256zm1.237 1.074l1.883-2.63-4.034 3.703 2.151-1.073zm9.198 1.557H16.408l2.473 1.235 9.091-1.235zm-12.372 0l-2.528 1.235-9.09-1.235h11.619zm-4.302-4.188l1.883 2.631 2.205 1.073-4.088-3.704zm0 8.323l2.689-1.557 1.399-2.095-4.088 3.652zm9.359 0l-4.142-3.652 1.453 2.095 2.69 1.557zm-4.68-3.76l1.56 2.255-1.56 4.94V9.938z" fill="#FFF"/><path d="M13.987 6.932l-2.69-1.557 2.206 1.396c.376.215.592.483.592.483l.753.967-.861-1.289z" fill="#FFF"/><path d="M90.854 12.851V9.863h-6.803v2.988h-3.49V4.93a3.392 3.392 0 0 1 3.4-3.395h7.074c1.86 0 3.401 1.54 3.401 3.395v7.921h-3.582zm-6.803-5.794h6.803V5.698c0-.769-.635-1.403-1.36-1.403h-4.082c-.726 0-1.361.634-1.361 1.404v1.358zM106 12.851v-2.128c0-.498-.363-.859-.817-.859h-5.985v2.988h-3.491V1.536h11.018a2.794 2.794 0 0 1 2.812 2.807v2.444c0 .95-.726 1.72-1.677 1.72.952 0 1.677.769 1.677 1.674v2.672H106v-.002zm-6.802-5.794h5.351c.816 0 1.406-.589 1.406-1.359 0-.769-.59-1.403-1.406-1.403H99.2v2.762zm15.147 5.794V1.534h-3.538v11.317h3.538zm10.339-4.391h.454c.408 0 .77.362.77.77 0 .452-.362.814-.77.814h-9.523v2.807h11.065c1.542 0 2.81-1.268 2.81-2.852V8.686a2.823 2.823 0 0 0-2.81-2.806h-6.756c-.408 0-.771-.361-.771-.814 0-.408.363-.77.77-.77h8.934v-2.76h-10.384c-1.587 0-2.857 1.267-2.857 2.806v1.312c0 1.54 1.27 2.807 2.857 2.807h6.53-.319V8.46zm-39.317 9.143v-.769h1.27v2.851c0 .635-.545 1.178-1.225 1.178h-2.54a1.2 1.2 0 0 1-1.178-1.178v-2.85h1.269v2.578c0 .271.227.454.454.454h1.451c.272 0 .5-.182.5-.453v-1.811zm15.69 3.259v-.725a.31.31 0 0 0-.317-.317h-2.131v1.042h-1.27v-4.028h3.945c.59 0 1.043.453 1.043.994v.905c0 .319-.272.59-.635.59a.62.62 0 0 1 .635.634v.905h-1.27zm-2.448-2.037h1.904a.503.503 0 0 0 .499-.498.504.504 0 0 0-.5-.498H98.61v.996zm31.018-16.159c0-.77.635-1.403 1.405-1.403.771 0 1.406.634 1.406 1.403 0 .77-.635 1.358-1.406 1.358-.77 0-1.405-.588-1.405-1.358zm2.584 0c0-.678-.499-1.176-1.179-1.176a1.17 1.17 0 0 0-1.178 1.176c0 .634.544 1.132 1.178 1.132.68 0 1.179-.498 1.179-1.132zm-.499.77h-.272l-.454-.724h-.271v.724h-.227V1.852h.68c.136 0 .271 0 .362.09a.41.41 0 0 1 .181.363c0 .316-.227.407-.454.407l.455.724zm-.726-.905c.182 0 .5.045.5-.272 0-.181-.182-.226-.363-.226h-.408v.498h.271zm-25.258 17.335v-.544h3.491v-.996h-3.49v-.498h3.49v-.994h-4.76v3.44a.6.6 0 0 0 .59.588h4.171v-.996h-3.492zm20.316-2.038h-.454a.504.504 0 0 0-.499.498v1.133c0 .27.227.407.5.407h2.538v.996h-2.81a1.22 1.22 0 0 1-1.225-1.223v-1.584c0-.679.544-1.221 1.224-1.221h2.811v.994h-2.085zm-22.039 3.034v-4.028h-1.27v4.028h1.27zm-29.475 0v-2.536a.504.504 0 0 0-.5-.498h-1.95v3.034h-1.224v-4.028h3.719c.679 0 1.224.542 1.224 1.221v2.807h-1.27zm5.486 0c.635 0 1.179-.544 1.179-1.223v-1.584c0-.679-.544-1.221-1.18-1.221h-3.671v4.028h3.672zm-2.448-3.034h2.04c.272 0 .5.137.5.409v1.131c0 .27-.228.498-.5.498h-2.04v-2.038zm12.697 1.495h.136c.181 0 .272.136.272.272 0 .135-.091.271-.272.271H87v.996h3.946c.589 0 1.043-.453 1.043-.996v-.453c0-.589-.454-1.042-1.043-1.042H88.54c-.136 0-.271-.09-.271-.27 0-.137.136-.273.271-.273h3.175v-.994h-3.673c-.59 0-1.044.453-1.044.994v.498c0 .544.454.996 1.044.996h2.312-.09v.001zm22.765 0h.136c.136 0 .272.136.272.272 0 .135-.137.271-.272.271h-3.401v.996h3.945c.545 0 .998-.453.998-.996v-.453c0-.589-.454-1.042-.998-1.042h-2.403c-.136 0-.272-.09-.272-.27 0-.137.136-.273.272-.273h3.174v-.994h-3.718c-.544 0-.997.453-.997.994v.498c0 .544.453.996.997.996h2.358-.091v.001zm15.509 1.539v-.996h.997v.996h-.997zm.951-5.975v-.634H37.254v.634h92.236zm-11.11 5.93v-4.028h-1.27v4.028h1.27zm4.127-2.083v-.496c0-.273-.227-.453-.499-.453h-1.95v3.032h-1.224v-4.028h3.718c.68 0 1.224.543 1.224 1.176v2.852h-1.27v-2.083zm-25.621-1.9h-4.763v.994h1.77v3.034h1.27v-3.034h1.723v-.994zM79.29 9.999h-5.85c-.59 0-1.133-.498-1.133-1.132V1.535h-3.492v9.595c0 .951.771 1.721 1.678 1.721h8.798V10zm-9.25 10.863v-4.028h-1.27v4.028h1.27z" fill="#000"/><path d="M85.367 17.603v-.769h1.27v2.851c0 .635-.545 1.178-1.225 1.178h-2.54a1.2 1.2 0 0 1-1.178-1.178v-2.85h1.269v2.578c0 .271.227.454.454.454h1.451c.272 0 .5-.182.5-.453v-1.811zm15.69 3.259v-.725a.31.31 0 0 0-.317-.317h-2.131v1.042h-1.27v-4.028h3.945c.59 0 1.043.453 1.043.994v.905c0 .319-.272.59-.635.59a.62.62 0 0 1 .635.634v.905h-1.27zm-2.448-2.037h1.904a.503.503 0 0 0 .499-.498.504.504 0 0 0-.5-.498H98.61v.996zm7.119 1.041v-.544h3.491v-.996h-3.49v-.498h3.49v-.994h-4.76v3.44a.6.6 0 0 0 .59.588h4.171v-.996h-3.492zm20.316-2.038h-.454a.504.504 0 0 0-.499.498v1.133c0 .27.227.407.5.407h2.538v.996h-2.81a1.22 1.22 0 0 1-1.225-1.223v-1.584c0-.679.544-1.221 1.224-1.221h2.811v.994h-2.085zm-22.039 3.034v-4.028h-1.27v4.028h1.27zm-23.989 0c.635 0 1.179-.544 1.179-1.223v-1.584c0-.679-.544-1.221-1.18-1.221h-3.671v4.028h3.672zm-2.448-3.034h2.04c.272 0 .5.137.5.409v1.131c0 .27-.228.498-.5.498h-2.04v-2.038zm12.697 1.495h.136c.181 0 .272.136.272.272 0 .135-.091.271-.272.271H87v.996h3.946c.589 0 1.043-.453 1.043-.996v-.453c0-.589-.454-1.042-1.043-1.042H88.54c-.136 0-.271-.09-.271-.27 0-.137.136-.273.271-.273h3.175v-.994h-3.673c-.59 0-1.044.453-1.044.994v.498c0 .544.454.996 1.044.996h2.312-.09v.001zm38.274 1.539v-.996h.997v.996h-.997zm-10.159-.045v-4.028h-1.27v4.028h1.27zm4.127-2.083v-.496c0-.273-.227-.453-.499-.453h-1.95v3.032h-1.224v-4.028h3.718c.68 0 1.224.543 1.224 1.176v2.852h-1.27v-2.083zm-25.621-1.9h-4.763v.994h1.77v3.034h1.27v-3.034h1.723v-.994zM40.79 4.296h5.941a.86.86 0 0 1 .861.86v1.041a.86.86 0 0 1-.86.86H40.79V4.296zm7.528-2.762H37.254v11.317h3.536V9.817h7.528a2.794 2.794 0 0 0 2.812-2.806v-2.67a2.823 2.823 0 0 0-2.812-2.807zM55.8 12.851c-1.904 0-3.4-1.54-3.4-3.395V4.93a3.393 3.393 0 0 1 3.4-3.395h8.208c1.86 0 3.402 1.54 3.402 3.395v4.526c0 1.856-1.542 3.395-3.402 3.395h-8.207zm4.082-10.728l-.862 3.53-1.813-1.176.997 1.855-4.942.86 4.942.815-.997 1.856c0-.045 1.813-1.131 1.813-1.131l.862 3.53.86-3.53s1.815 1.086 1.86 1.131l-.997-1.856 4.942-.814-4.942-.86.997-1.856-1.86 1.176-.86-3.53z" fill="#000"/></g></svg>