<!-- Generated by IcoMoon.io -->
<svg version="1.1" xmlns="http://www.w3.org/2000/svg" width="177" height="32" viewBox="0 0 177 32">
<title>aeromexico</title>
<path fill="#353535" d="M28.158 9.679c0.637 0.006 1.074 0.199 1.428 0.367 0.738 0.349 1.601 0.751 2.683 1.27 0 0.005 1.749-1.239 1.841-1.301 0.593-0.407 1.165-0.099 1.35 0.25 0.652 1.229 1.854 3.779 2.488 6.112 0.075 0.281-0.014 0.718-0.453 0.848-0.252 0.074-0.686 0.136-1.142 0.194-0.632 0.080-0.62 0.589-0.62 0.899 0 0.381 0.005 2.96 0.005 3.84 0.015 0.541-0.399 2.307-2.441 2.305l-4.657-0.002c-1.76 0.009-3.177-1.48-3.186-3.064-0.002-1.042-0.001-8.293 0.002-9.106 0.007-1.571 1.416-2.627 2.7-2.612z"></path>
<path fill="#353535" d="M20.792 24.463h-15.142v1.683h17.767s0.641-1.489 0.641-3.132l0.006-11.419c0-0.9 0.367-2.419 2.215-2.822l0.156-0.034c5.246-1.239 10.651-0.111 13.696 1.205 0.551 0.265 0.677-0.174 0.659-0.359 0.066-2.567-1.885-5.491-5.473-5.667-2.914-0.068-4.53 0.98-5.125 1.271-0.045 0.022-0.12 0.011-0.186-0.063-0.537-0.532-1.685-1.325-2.975-1.694-0.192-0.043-0.211-0.326 0.013-0.35 2.757-0.297 5.172 0.015 6.179 0.18 0.232 0.037 0.404-0.098 0.313-0.313-0.069-0.161-0.128-0.238-0.245-0.489-0.245-0.526-0.895-1.087-1.721-1.317-2.166-0.603-5.859-1.123-9.149-1.143-3.703-0.023-7.605 0.718-8.591 0.937-0.236 0.053-0.569 0.136-0.627 0.149-0.27 0.053-0.333 0.308-0.217 0.436 0.074 0.082 0.277 0.252 0.374 0.371 0.123 0.154 0.179 0.37-0.054 0.596l-6.845 6.152h4.684l0.054-0.005c0.304-0.006 0.592 0.27 0.593 0.621 0.002 0.316-0.251 0.613-0.571 0.613l-0.041 0.003h-6.085l-1.861 1.692 8.011-0.003c0.313 0.002 0.556 0.328 0.553 0.622-0.004 0.273-0.234 0.607-0.553 0.607l-0.048 0.002h-9.328l-1.866 1.685 16.145 0.003c0.317 0 0.562 0.326 0.566 0.609 0.005 0.331-0.228 0.63-0.553 0.627h-16.161v1.679l16.129 0.005c0.369 0 0.582 0.334 0.581 0.641-0.001 0.279-0.27 0.579-0.589 0.579h-16.121v1.696h21.044c0.349 0.009 0.573 0.309 0.562 0.635-0.008 0.285-0.245 0.59-0.562 0.59l-0.043-0.002h-15.348v1.691h15.455c0.285 0 0.53 0.353 0.53 0.638s-0.25 0.593-0.535 0.593h-0.313zM11.303 30.278l-0.003 1.719s2.276 0.008 3.572 0c3.198-0.018 5.296-1.719 5.296-1.719h-8.865zM11.303 27.378l-0.003 1.685h10.277c0.475-0.478 1.086-1.359 1.245-1.683l-11.519-0.002zM177.050 16.97c-0.002-0.034-0.007-0.062-0.009-0.091-0.056-1.269-0.461-2.434-1.12-3.412l0.015 0.024c-1.273-1.998-3.507-3.074-6.195-3.042-2.688-0.033-4.923 1.044-6.197 3.042-0.644 0.955-1.049 2.119-1.104 3.375l-0 0.014c-0.003 0.030-0.007 0.058-0.009 0.091-0.366 4.385 2.188 7.418 6.544 7.767 0.261 0.021 0.516 0.030 0.767 0.026 0.031 0 0.068 0.001 0.105 0.001 0.232 0 0.461-0.010 0.688-0.030l-0.029 0.002c4.358-0.349 6.913-3.382 6.546-7.766zM170.076 22.678c-0.115 0.009-0.228 0.013-0.336 0.015-0.122-0.002-0.239-0.007-0.356-0.017l0.019 0.001c-0.613-0.054-1.164-0.287-1.609-0.644l0.006 0.005c-0.139-0.117-0.265-0.24-0.382-0.371l-0.003-0.004c-0.669-0.757-1.033-2.043-1.118-3.061-0.198-2.37 0.279-5.833 3.19-6.066 0.062-0.005 0.139-0.009 0.215-0.011l0.004-0h0.069c0.072 0.001 0.145 0.005 0.219 0.011 2.911 0.233 3.386 3.697 3.189 6.066-0.086 1.019-0.411 2.28-1.119 3.062-0.126 0.14-0.254 0.265-0.383 0.373-0.462 0.353-1.007 0.592-1.604 0.64zM148.086 13.706c0-1.085 0.107-2.992 0.107-2.992h-3.577s0.108 1.906 0.108 2.992l-0.008 7.814c0 1.084-0.098 2.934-0.098 2.934h3.575s-0.1-1.85-0.1-2.934l-0.007-7.814zM127.224 22.328c-0.747 0-1.728 0-2.484 0.002-0.029-1.133-0.049-2.508-0.054-3.887l-0-0.038-0.003-0.188h0.002v-0.033h4.125v-1.943h-4.121c0.012-2.093 0.051-3.466 0.051-3.466l5.122-0.005v-2.059c-3.579 0.013-8.748 0-8.748 0s0.077 1.896 0.077 2.981v7.799c0 0.992-0.063 2.676-0.073 2.957h9.078l0.008-2.18s-1.788 0.059-2.981 0.059zM67.686 22.328c-0.746 0-1.728 0-2.483 0.002-0.029-1.133-0.049-2.508-0.054-3.887l-0-0.038-0.003-0.186h0.003v-0.034h4.124v-1.943h-4.121c0.012-2.091 0.051-3.466 0.051-3.466l5.12-0.004v-2.059c-3.578 0.012-8.747 0-8.747 0s0.077 1.895 0.077 2.98v7.799c0 0.992-0.062 2.678-0.072 2.957h9.080l0.005-2.18s-1.787 0.059-2.98 0.059zM138.912 17.062l3.941-6.345h-2.73l-0.022 0.058c-0.827 1.43-1.856 3.157-2.265 3.788l-0.159 0.256-2.284-4.102h-4.107l3.959 7.103-4.126 6.632h2.715c1.76-3.006 2.664-4.39 2.664-4.39l2.45 4.391h4.089l-4.126-7.391zM159.225 22.583c-3.177 0-4.89-2.336-4.803-5.211 0.074-2.504 1.221-4.634 3.948-4.817 1.045-0.070 1.897 0.111 3.363 0.506l-0.149-2.147s-1.241-0.396-3.022-0.464c-2.263-0.086-4.312 0.351-5.948 1.856-1.453 1.338-2.324 3.316-2.324 5.235 0 2.126 0.873 4.086 2.516 5.441 1.705 1.438 3.536 1.762 5.71 1.762 1.429 0 2.269-0.095 3.654-0.468l-0.207-2.108c-0.295 0.101-1.297 0.418-2.74 0.418zM113.35 8.656l3.981-0.002 0.111 0.917c0.889 9.178 1.435 14.886 1.435 14.886h-4.143l-0.41-5.687-0.381-5.079-3.509 10.759c-0.928 0.004-2.217 0-2.217 0s-1.113-3.823-1.314-4.358l-2.011-6.452s-0.31 3.592-0.429 5.13c-0.242 3.081-0.457 5.687-0.457 5.687h-3.091s1.265-12.848 1.359-13.631c0.095-0.806 0.248-2.171 0.248-2.171h4.063l3.37 9.253 3.395-9.252zM99.246 16.986l-0.010-0.091c-0.055-1.263-0.458-2.423-1.115-3.396l0.015 0.023c-1.268-1.988-3.492-3.061-6.168-3.028-2.676-0.034-4.902 1.040-6.17 3.028-0.642 0.951-1.045 2.11-1.099 3.359l-0.001 0.014c-0.002 0.032-0.006 0.060-0.009 0.091-0.364 4.365 2.18 7.386 6.518 7.733 0.257 0.021 0.512 0.028 0.761 0.027 0.249 0.001 0.502-0.006 0.761-0.027 4.336-0.347 6.88-3.368 6.516-7.733zM92.304 22.671c-0.097 0.008-0.214 0.013-0.332 0.014l-0.004 0c-0.119-0-0.236-0.006-0.352-0.016l0.016 0.001c-0.61-0.055-1.158-0.286-1.602-0.641l0.006 0.005c-0.139-0.117-0.264-0.239-0.38-0.37l-0.003-0.004c-0.666-0.752-1.028-2.034-1.113-3.049-0.198-2.358 0.276-5.808 3.175-6.039 0.075-0.005 0.147-0.009 0.219-0.011h0.068c0.071 0.002 0.144 0.005 0.217 0.011 2.899 0.232 3.372 3.68 3.176 6.039-0.084 1.015-0.409 2.27-1.113 3.049-0.127 0.14-0.254 0.263-0.383 0.373-0.459 0.351-1.002 0.588-1.596 0.636zM60.715 24.449c-0.12-0.283-0.858-2.024-1.399-3.431l-4.642-12.364h-3.613s-1.031 2.897-1.179 3.377l-3.389 9.586c-0.443 1.226-1.057 2.836-1.057 2.836h2.948s0.835-2.667 1.008-3.147l0.453-1.334h5.115l0.697 2.029c0.146 0.381 0.752 2.417 0.761 2.447h4.298zM50.593 17.723l1.721-5.115 0.1-0.299 1.799 5.413h-3.62zM84.872 24.454c-0.854-1.228-1.169-1.734-1.824-2.636l-2.464-3.828c1.185-0.581 2.298-1.564 2.467-3.614 0.105-1.283-0.582-2.348-0.99-2.712-0.592-0.525-1.171-0.738-1.991-0.837-0.654-0.087-1.13-0.092-1.525-0.118h-5.801s0.070 1.9 0.070 2.984v7.77c0 1.084-0.070 2.985-0.070 2.985h3.57s-0.107-1.901-0.107-2.985l0.025-2.493 1.323 0.005 2.259 4.137c0.305 0.527 0.74 1.186 0.844 1.341h4.215zM78.563 16.782c-0.535 0.278-1.736 0.199-2.332 0.164l0.046-3.926 0.335-0.023c1.093-0.088 1.892 0.063 2.22 0.208 0.489 0.216 0.779 0.68 0.805 1.452 0.040 1.158-0.4 1.775-1.074 2.124z"></path>
</svg>
