<svg width="150" height="36" viewBox="0 0 150 36" xmlns="http://www.w3.org/2000/svg"><title>Group</title><g fill="none" fill-rule="evenodd"><path d="M36.947 19.85h1.412c2.616 0 3.605 1.313 3.605 3.937 0 2.59-.848 3.939-3.18 3.939h-1.837V19.85zm0-10.501h1.661c1.943 0 2.86 1.241 2.86 3.618 0 2.128-1.272 3.264-2.932 3.264h-1.589V9.349zm-4.382 21.995h6.926c4.982 0 6.855-3.193 6.855-7.416 0-3.298-1.307-5.072-3.533-6.065 2.12-.851 3.039-3.158 3.039-5.357 0-4.362-2.085-6.775-6.785-6.775h-6.502v25.613zm19.471 0V5.731h-3.958v25.613zm10.596-19.086v14.97c-.919.674-1.696 1.206-2.544 1.206-.848 0-1.413-.425-1.413-1.382V12.258h-3.957v15.433c0 2.482 1.236 4.008 3.321 4.008 2.297 0 3.144-.85 4.806-2.27v1.916h3.745V12.258h-3.958zm10.346 7.024v-.994c0-2.2.777-3.122 2.19-3.122 1.414 0 2.191.922 2.191 3.122v.994h-4.381zm8.338-.284c0-4.186-1.625-7.095-6.148-7.095-4.522 0-6.148 2.91-6.148 7.095v5.605c0 4.187 1.626 7.095 6.148 7.095 4.417 0 6.078-2.767 6.148-6.812H77.36v.426c0 2.2-.777 3.122-2.19 3.122-1.413 0-2.19-.922-2.19-3.122v-2.767h8.338v-3.547zm3.491-3.477v11.885c0 2.91 1.66 4.292 4.628 4.292.989 0 1.45-.07 1.979-.213v-3.406h-1.308c-.919 0-1.342-.567-1.342-1.56V15.52h2.65v-3.264h-2.65V7.115h-3.958v5.143h-2.19v3.264h2.19zm16.598 9.792c0 2.2-.777 3.122-2.19 3.122-1.414 0-2.192-.922-2.192-3.122v-7.025c0-2.2.778-3.122 2.192-3.122 1.413 0 2.19.922 2.19 3.122v7.025zm-8.34-.71c0 4.187 1.625 7.095 6.149 7.095 4.521 0 6.147-2.909 6.147-7.095v-5.605c0-4.186-1.625-7.095-6.147-7.095-4.523 0-6.149 2.91-6.149 7.095v5.605zm22.713.71c0 2.2-.778 3.122-2.192 3.122-1.412 0-2.19-.922-2.19-3.122v-7.025c0-2.2.778-3.122 2.19-3.122 1.414 0 2.192.922 2.192 3.122v7.025zm-8.34-.71c0 4.187 1.627 7.095 6.148 7.095 4.523 0 6.149-2.909 6.149-7.095v-5.605c0-4.186-1.625-7.095-6.149-7.095-4.52 0-6.147 2.91-6.147 7.095v5.605zm15.682-9.082v11.885c0 2.91 1.66 4.292 4.627 4.292.99 0 1.45-.07 1.98-.213v-3.406h-1.308c-.918 0-1.34-.567-1.34-1.56V15.52h2.648v-3.264h-2.649V7.115h-3.958v5.143h-2.191v3.264h2.191zm13.03 15.823V16.373c.918-.674 1.696-1.206 2.543-1.206.847 0 1.414.425 1.414 1.383v14.794h3.957V15.912c0-2.483-1.237-4.009-3.322-4.009-2.296 0-3.145.851-4.593 2.129V5.73h-3.957v25.613h3.957z" fill="#000"/><path d="M14.764 8.813l2.922 2.934-2.92 2.931-.002-5.865zm0 17.96l2.922-2.933-2.92-2.932-.002 5.865zm-3.12-8.98l-6.318-6.359 1.832-1.838 5.032 5.055V2.537l9.152 9.189-6.043 6.067 6.045 6.069-9.153 9.188V20.936L7.157 25.99l-1.831-1.839 6.318-6.359zm1.692 17.744c7.718 0 13.035-3.68 13.035-17.743C26.371 3.73 21.054.05 13.336.05 5.62.051.3 3.732.3 17.794s5.32 17.743 13.037 17.743z" fill="#0060A9"/><path d="M149.701 8.474c0 1.516-1.285 2.795-2.796 2.795-1.578 0-2.783-1.224-2.783-2.795a2.789 2.789 0 0 1 2.783-2.794c1.576 0 2.796 1.21 2.796 2.794zm-4.957-.027c0 1.197.968 2.235 2.161 2.235 1.205 0 2.16-.984 2.16-2.182 0-1.21-.955-2.235-2.16-2.235-1.193 0-2.161.984-2.161 2.182zm2.679 1.543l-.85-1.357h-.04V9.99h-.53V6.917h.928c.73 0 1.02.306 1.02.771 0 .519-.318.839-.808.891.066.08.186.254.305.44l.636.97h-.661v.001zm-.546-2.647h-.343v.944h.211c.491 0 .65-.28.65-.533 0-.291-.131-.411-.518-.411z" fill="#000"/></g></svg>