<!-- Generated by IcoMoon.io -->
<svg version="1.1" xmlns="http://www.w3.org/2000/svg" width="133" height="32" viewBox="0 0 133 32">
<title>bluetooth</title>
<path fill="#202020" d="M32.842 17.644h1.255c2.325 0 3.204 1.167 3.204 3.5 0 2.302-0.754 3.501-2.827 3.501h-1.633v-7.001zM32.842 8.31h1.476c1.727 0 2.542 1.103 2.542 3.216 0 1.892-1.131 2.901-2.606 2.901h-1.412v-6.117zM28.947 27.861h6.156c4.428 0 6.093-2.838 6.093-6.592 0-2.932-1.162-4.508-3.14-5.391 1.884-0.756 2.701-2.807 2.701-4.762 0-3.877-1.853-6.022-6.031-6.022h-5.78v22.767zM46.254 27.861v-22.767h-3.518v22.767zM55.673 10.896v13.307c-0.817 0.599-1.508 1.072-2.261 1.072s-1.256-0.378-1.256-1.228v-13.15h-3.517v13.718c0 2.206 1.099 3.563 2.952 3.563 2.042 0 2.795-0.756 4.272-2.018v1.703h3.329v-16.966h-3.518zM64.869 17.14v-0.884c0-1.956 0.691-2.775 1.947-2.775s1.948 0.82 1.948 2.775v0.884h-3.894zM72.281 16.887c0-3.721-1.444-6.307-5.465-6.307s-5.465 2.587-5.465 6.307v4.982c0 3.722 1.445 6.307 5.465 6.307 3.926 0 5.403-2.46 5.465-6.055h-3.516v0.379c0 1.956-0.691 2.775-1.947 2.775s-1.947-0.82-1.947-2.775v-2.46h7.412v-3.153zM75.384 13.796v10.564c0 2.587 1.476 3.815 4.114 3.815 0.879 0 1.289-0.062 1.759-0.189v-3.028h-1.163c-0.817 0-1.193-0.504-1.193-1.387v-9.777h2.356v-2.901h-2.356v-4.57h-3.518v4.572h-1.947v2.901h1.947zM90.138 22.5c0 1.956-0.691 2.775-1.947 2.775s-1.948-0.82-1.948-2.775v-6.244c0-1.956 0.692-2.775 1.948-2.775s1.947 0.82 1.947 2.775v6.244zM82.724 21.869c0 3.722 1.444 6.307 5.466 6.307 4.019 0 5.464-2.586 5.464-6.307v-4.982c0-3.721-1.444-6.307-5.464-6.307s-5.466 2.587-5.466 6.307v4.982zM102.914 22.5c0 1.956-0.692 2.775-1.948 2.775-1.255 0-1.947-0.82-1.947-2.775v-6.244c0-1.956 0.692-2.775 1.947-2.775 1.257 0 1.948 0.82 1.948 2.775v6.244zM95.5 21.869c0 3.722 1.446 6.307 5.465 6.307 4.020 0 5.466-2.586 5.466-6.307v-4.982c0-3.721-1.444-6.307-5.466-6.307-4.018 0-5.464 2.587-5.464 6.307v4.982zM109.44 13.796v10.564c0 2.587 1.476 3.815 4.113 3.815 0.88 0 1.289-0.062 1.76-0.189v-3.028h-1.163c-0.816 0-1.191-0.504-1.191-1.387v-9.777h2.354v-2.901h-2.355v-4.57h-3.518v4.572h-1.948v2.901h1.948zM121.022 27.861v-13.308c0.816-0.599 1.508-1.072 2.26-1.072s1.257 0.378 1.257 1.229v13.15h3.517v-13.717c0-2.207-1.1-3.564-2.953-3.564-2.041 0-2.796 0.756-4.083 1.892v-7.38h-3.517v22.767h3.517z"></path>
<path fill="#5f5f5f" d="M13.124 7.834l2.597 2.608-2.596 2.605-0.002-5.213zM13.124 23.798l2.597-2.607-2.596-2.606-0.002 5.213zM10.35 15.816l-5.616-5.652 1.628-1.634 4.473 4.493v-10.768l8.135 8.168-5.372 5.393 5.373 5.395-8.136 8.167v-10.768l-4.475 4.492-1.628-1.635 5.616-5.652zM11.854 31.588c6.86 0 11.587-3.271 11.587-15.772s-4.726-15.772-11.587-15.772c-6.859 0.001-11.588 3.273-11.588 15.772s4.729 15.772 11.588 15.772z"></path>
<path fill="#202020" d="M133.068 7.532c0 1.348-1.142 2.484-2.485 2.484-1.403 0-2.474-1.088-2.474-2.484 0-0.001 0-0.003 0-0.004 0-1.367 1.107-2.476 2.474-2.479h0c1.401 0 2.485 1.076 2.485 2.484zM128.661 7.508c0 1.064 0.86 1.987 1.921 1.987 1.071 0 1.92-0.875 1.92-1.94 0-1.076-0.849-1.987-1.92-1.987-1.060 0-1.921 0.875-1.921 1.94zM131.043 8.88l-0.756-1.206h-0.036v1.206h-0.471v-2.732h0.825c0.649 0 0.907 0.272 0.907 0.685 0 0.461-0.283 0.746-0.718 0.792 0.059 0.071 0.165 0.226 0.271 0.391l0.565 0.862h-0.588v0.001zM130.557 6.527h-0.305v0.839h0.188c0.436 0 0.578-0.249 0.578-0.474 0-0.259-0.116-0.365-0.46-0.365z"></path>
</svg>
