<!-- Generated by IcoMoon.io -->
<svg version="1.1" xmlns="http://www.w3.org/2000/svg" width="303" height="32" viewBox="0 0 303 32">
<title>harpercollins</title>
<path d="M11.395 0.504v-0.026c1.284 0.296 2.438 2.073 2.438 4.065 0 2.584-2.648 4.685-2.57 6.945h0.025c0.63-3.096 5.276-4.925 4.306-8.291 1.311 0.886 1.941 3.339 2.123 5.222 0.579-1.938 3.149-3.149 3.57-4.629h0.025v9.72h-20.363l-0.025-4.981c0-2.991 5.011-2.908 4.619-5.681l0.026-0.031c1.468 2.479-0.839 4.605-0.395 6.195h0.028c1.18-4.737 5.639-3.475 6.639-6.488 0.263-0.838-0.057-1.752-0.447-2.022zM4.466 14.478c-1.183 1.213-2.415 1.777-3.517 1.319v8.914h20.363v-9.425c-1.732 2.129-3.83 1.212-3.622-0.538v-0.029c-3.174 3.798-4.986 1.671-4.484 0.139v-0.028c-2.888 3.577-4.698 1.48-3.833-0.296l-0.026-0.029c-3.645 4.497-5.956 2.855-4.881 0v-0.026zM28.010 8.717c0-1.276-0.186-2.198-2.513-2.225l-0.132-0.217v-0.462c0-0.188 0.237-0.217 0.449-0.217 0.793 0 2.351 0.135 3.519 0.135 1.057 0 2.115-0.135 3.281-0.135 0.552 0 0.687 0 0.687 0.299v0.435c0 0.135-0.319 0.161-0.742 0.161-1.087 0-2.17 0.083-2.17 1.411v6.106h11.35v-5.074c0-1.873 0-2.282-2.143-2.443-0.289-0.026-0.344-0.109-0.344-0.435v-0.324l0.132-0.135c0.874 0.056 2.541 0.135 4.179 0.135 1.693 0 2.381-0.053 3.149-0.135l0.106 0.164v0.515c0 0.217-0.237 0.217-0.636 0.217-1.375 0-2.062 0.243-2.062 1.82v13.434c0 1.955 1.030 2.116 2.541 2.116 0.103 0 0.103 0.409 0.103 0.705 0 0.109-0.103 0.191-0.819 0.191-1.057 0-2.115-0.135-3.174-0.135-0.977 0-2.62 0.135-2.937 0.135-0.687 0-0.819-0.056-0.819-0.161v-0.598l0.132-0.136c2.541 0 2.592-0.541 2.592-2.439v-6.353h-11.347v6.866c0 1.546 0.398 1.926 2.355 1.926 0.288 0 0.369 0.056 0.369 0.301v0.405c0 0.166-0.264 0.191-0.845 0.191-1.085 0-2.172-0.135-3.256-0.135-1.005 0-2.037 0.135-3.043 0.135-0.185 0-0.423 0-0.557-0.161v-0.598l0.188-0.136c1.244 0 2.407-0.109 2.407-1.49v-13.657zM55.151 16.996c0-1.493-0.188-2.634-2.118-2.634-0.714 0-2.038 0.217-2.038 1.005 0 0.192 0.056 0.462 0.132 0.623l-1.664 0.979c-0.098-0.241-0.157-0.52-0.161-0.812l-0-0.002c0-0.871 0.849-1.55 1.405-1.873l2.379-1.415c0.32-0.188 0.451-0.27 0.557-0.27 2.195 0 3.332 1.088 3.332 3.313v5.753c0 0.57 0 1.711 0.845 1.711 0.505 0 0.612-0.217 0.954-0.787l0.501 0.191c-0.314 1.302-0.975 2.361-2.113 2.361-1.799 0-1.985-1.711-1.956-2.387-1.006 1.055-2.33 2.387-3.891 2.387-1.532 0-2.326-2.038-2.326-3.257 0-0.462 0.501-1.329 2.696-2.198l3.466-1.386v-1.302zM55.123 19.059l-2.617 1.22c-0.373 0.166-1.325 0.679-1.325 1.384 0 0.736 0.345 2.116 1.219 2.116 0.925 0 1.824-0.949 2.486-1.599l0.237-0.246v-2.876zM64.356 21.881c0 1.085 0 2.116 2.010 2.116 0.159 0 0.184 0.139 0.184 0.383 0 0.245 0 0.38-0.211 0.38-0.927 0-1.85-0.135-2.777-0.135-1.006 0-2.062 0.135-3.068 0.135-0.106 0-0.106-0.056-0.106-0.218v-0.243c0-0.27 0.051-0.301 0.582-0.327 1.163-0.078 1.375-0.487 1.375-1.955v-6.026c0-0.515-0.237-0.84-0.793-1.002-0.107-0.028-0.793-0.218-0.793-0.598 0-0.164 0.079-0.246 0.369-0.381l1.96-0.92c0.582-0.274 1.030-0.488 1.112-0.488 0.157 0 0.209 0.161 0.209 0.243l-0.051 2.792 0.051 0.056c0.849-1.11 2.066-3.091 3.679-3.091 0.95 0 1.507 0.459 1.507 1.464 0 0.57-0.527 1.057-1.082 1.057-0.717 0-0.981-0.487-1.774-0.487-0.636 0-1.455 0.922-1.983 1.603l-0.398 0.515v5.128zM72.292 16.671c0-1.194-0.056-1.437-0.608-1.682l-0.954-0.435c-0.051 0-0.051-0.056-0.051-0.191 0-0.217 0.026-0.217 0.213-0.323l3.225-1.603c0.159 0.053 0.159 0.245 0.159 0.38 0 0.515-0.051 1.057 0.028 1.572 0.871-0.459 3.069-1.791 3.968-1.791 2.883 0 4.945 2.958 4.945 5.7 0 5.212-5.156 6.841-7.193 6.841-0.582 0-1.138-0.191-1.72-0.243v4.206c0 1.846 0.451 1.955 2.351 2.063 0.107 0 0.188 0.079 0.188 0.163v0.27c0 0.164-0.051 0.326-0.132 0.326-1.137 0-2.248-0.135-3.467-0.135-1.163 0-2.219 0.135-2.908 0.135-0.237 0-0.266-0.109-0.266-0.378v-0.161c0-0.083 0.028-0.218 0.079-0.218 2.012-0.191 2.143-0.217 2.143-2.415v-12.079zM74.303 22.044c0 1.411 1.35 1.873 2.618 1.873 2.699 0 4.1-1.926 4.1-4.694 0-2.39-1.375-4.86-3.917-4.86-1.057 0-1.902 0.217-2.802 0.871v6.81zM87.9 17.512c-0.051 0.378-0.051 0.758-0.051 1.141 0 2.36 1.77 4.721 4.179 4.721 0.977 0 1.664-0.38 2.989-1.6l0.476 0.351c-1.057 1.767-2.645 3.016-4.762 3.016-2.699 0-4.893-2.662-4.893-5.674 0-3.204 2.118-6.867 5.581-6.867 2.355 0 4.024 1.817 4.024 4.071v0.842h-7.541zM92.504 16.754c0.344 0 0.739-0.518 0.739-0.979 0-1.329-0.977-2.278-2.275-2.278-1.586 0-2.673 1.871-2.936 3.392l4.472-0.135zM101.099 21.881c0 1.085 0 2.116 2.012 2.116 0.157 0 0.182 0.139 0.182 0.383 0 0.245 0 0.38-0.209 0.38-0.928 0-1.853-0.135-2.778-0.135-1.006 0-2.063 0.135-3.069 0.135-0.106 0-0.106-0.056-0.106-0.218v-0.243c0-0.27 0.056-0.301 0.582-0.327 1.163-0.078 1.375-0.487 1.375-1.955v-6.026c0-0.515-0.237-0.84-0.793-1.002-0.106-0.028-0.793-0.218-0.793-0.598 0-0.164 0.079-0.246 0.369-0.381l1.96-0.92c0.582-0.274 1.031-0.488 1.112-0.488 0.157 0 0.211 0.161 0.211 0.243l-0.054 2.792 0.056 0.056c0.845-1.11 2.062-3.091 3.674-3.091 0.952 0 1.507 0.459 1.507 1.464 0 0.57-0.526 1.057-1.082 1.057-0.717 0-0.979-0.487-1.774-0.487-0.636 0-1.455 0.922-1.983 1.603l-0.398 0.515v5.128zM125.279 23.673c-1.774 0.897-3.917 1.466-6.323 1.466-5.183 0-10.925-3.775-10.925-10.015 0-5.944 5.37-9.91 10.792-9.91 1.774 0 4.817 0.626 6.35 1.576l0.344 3.149c0.025 0.217 0.079 0.515 0.079 0.648 0 0.192-0.423 0.192-0.529 0.192-0.107 0-0.345-0.435-0.714-1.329-0.768-1.873-3.097-3.178-5.423-3.178-5.055 0-7.936 4.263-7.936 9.148 0 4.451 3.492 8.661 7.936 8.661 1.561 0 3.569-0.57 4.629-1.441 0.821-0.679 1.163-1.898 1.482-2.904 0.025-0.053 0.184-0.053 0.319-0.053 0.211 0 0.607 0.026 0.526 0.405l-0.607 3.584zM134.854 12.6c3.15 0 5.899 2.822 5.899 6.080 0 3.91-3.149 6.46-6.611 6.46-3.2 0-5.742-2.769-5.742-6.081 0-0.005-0-0.011-0-0.017 0-3.558 2.884-6.442 6.442-6.442 0.005 0 0.010 0 0.015 0h-0.001zM134.247 13.496c-2.673 0-3.467 2.578-3.467 5.183 0 2.39 1.244 5.565 3.968 5.565 2.593 0 3.624-2.364 3.624-4.694 0-2.717-0.899-6.052-4.125-6.052zM146.68 22.696c0 0.597 0 1.302 1.824 1.302 0.056 0 0.056 0.166 0.056 0.38 0 0.246-0.026 0.381-0.081 0.381-1.031 0-2.198-0.135-2.751-0.135-0.954 0-1.906 0.135-2.859 0.135-0.184 0-0.238-0.082-0.238-0.191v-0.243c0-0.327 0.081-0.327 0.454-0.327 1.163 0 1.583-0.161 1.583-1.437v-14.657c0-1.711 0-1.82-1.031-2.254-0.395-0.163-0.768-0.298-0.768-0.515 0-0.218 0.267-0.301 1.35-0.732l1.931-0.736c0.054-0.026 0.317-0.135 0.398-0.135 0.186 0 0.186 0.27 0.186 0.435 0 1.302-0.056 2.634-0.056 3.937v14.791zM154.033 22.696c0 0.597 0 1.302 1.825 1.302 0.056 0 0.056 0.166 0.056 0.38 0 0.246-0.031 0.381-0.081 0.381-1.032 0-2.195-0.135-2.755-0.135-0.95 0-1.902 0.135-2.856 0.135-0.182 0-0.237-0.082-0.237-0.191v-0.243c0-0.327 0.079-0.327 0.449-0.327 1.166 0 1.586-0.161 1.586-1.437v-14.657c0-1.711 0-1.82-1.030-2.254-0.397-0.163-0.769-0.298-0.769-0.515 0-0.218 0.267-0.301 1.35-0.732l1.931-0.736c0.056-0.026 0.319-0.135 0.399-0.135 0.186 0 0.186 0.27 0.186 0.435 0 1.302-0.056 2.634-0.056 3.937v14.791zM161.387 22.696c0 0.597 0 1.302 1.825 1.302 0.054 0 0.054 0.166 0.054 0.38 0 0.246-0.026 0.381-0.081 0.381-1.031 0-2.198-0.135-2.751-0.135-0.954 0-1.906 0.135-2.859 0.135-0.184 0-0.237-0.082-0.237-0.191v-0.243c0-0.327 0.079-0.327 0.452-0.327 1.163 0 1.583-0.161 1.583-1.437v-5.592c0-1.711 0-1.82-1.031-2.254-0.395-0.163-0.768-0.298-0.768-0.515s0.267-0.301 1.35-0.735l1.931-0.733c0.056-0.025 0.317-0.135 0.398-0.135 0.186 0 0.186 0.271 0.186 0.435 0 1.302-0.056 2.634-0.056 3.937v5.725zM160.302 4.538c0.821 0 1.483 0.679 1.483 1.519s-0.661 1.521-1.485 1.521c-0.815 0-1.478-0.68-1.478-1.521s0.662-1.519 1.478-1.519zM166.731 15.666c0-0.518-0.238-0.84-0.501-0.896l-0.874-0.218c-0.081-0.026-0.161-0.109-0.161-0.296 0-0.083 0.028-0.27 0.161-0.301 1.323-0.352 3.119-1.354 3.279-1.354 0.107 0 0.107 0.214 0.107 0.323v1.873c1.242-1.002 2.643-2.195 4.337-2.195 2.301 0 3.281 1.327 3.281 3.609v6.62c0 1.17 0.874 1.17 1.747 1.17 0.051 0 0.103 0.053 0.103 0.188v0.491c0 0.053-0.051 0.079-0.132 0.079-1.057 0-1.745-0.135-2.618-0.135-0.954 0-1.878 0.135-2.83 0.135-0.186 0-0.186-0.487-0.186-0.597 0-0.082 0.106-0.161 0.267-0.161 0.423 0 1.638 0 1.638-0.814v-6.379c0-1.683-0.501-2.634-2.354-2.634-1.113 0-2.485 0.679-3.251 1.464v7.058c0 0.6 0 1.305 1.824 1.305 0.051 0 0.051 0.161 0.051 0.38 0 0.243-0.025 0.378-0.077 0.378-1.032 0-2.198-0.135-2.755-0.135-0.95 0-1.901 0.135-2.855 0.135-0.186 0-0.238-0.079-0.238-0.191v-0.245c0-0.323 0.081-0.323 0.449-0.323 1.163 0 1.586-0.164 1.586-1.44v-6.894zM187.232 15.965h-0.661c-0.32-1.194-0.927-2.47-2.326-2.47-1.219 0-2.17 0.597-2.17 1.873 0 1.057 1.402 1.707 2.777 2.496 1.401 0.814 2.776 1.767 2.776 3.448 0 2.361-2.115 3.827-4.257 3.827-1.718 0-3.386-0.787-3.411-1.223l-0.132-2.47 0.765-0.082c0.106 0.139 0.132 0.327 0.186 0.518 0.292 1.112 1.48 2.361 2.643 2.361 1.354 0 2.198-0.842 2.198-2.253 0-0.896-1.217-1.846-1.88-2.198-1.533-0.814-3.492-1.738-3.492-3.801 0-2.253 2.010-3.392 4.022-3.392 1.057 0 2.118 0.299 3.119 0.84l-0.157 2.525zM194.745 10.157c0.319-1.249 0.582-2.39 0.582-2.578 0-0.732-0.526-0.95-1.163-0.95-0.423 0-0.849 0.135-0.925 0.135-0.079 0-0.109-0.082-0.109-0.326 0-0.435 0.081-0.544 0.504-0.57 2.382-0.192 3.599-0.27 5.717-0.27 2.962 0 5.789 1.276 5.789 4.641 0 3.2-2.458 6.24-5.713 6.24-1.137 0-2.221-0.243-2.724-0.758l0.424-0.626c0.344 0.274 0.977 0.491 1.799 0.491 2.118 0 3.757-3.204 3.757-5.377 0-2.251-1.482-3.553-3.705-3.553-0.793 0-1.113 0.083-1.269 0.654l-3.862 14.817c-0.051 0.192-0.238 0.84-0.238 1.032 0 0.679 0.845 0.705 1.639 0.705h0.369c0.161 0 0.241 0.053 0.241 0.243 0 0.161-0.106 0.353-0.186 0.544-0.054 0.109-0.317 0.109-0.501 0.109-0.479 0-1.906-0.139-3.228-0.139-1.244 0-2.463 0.167-2.831 0.139-0.106 0-0.132-0.056-0.132-0.164 0-0.38 0.081-0.732 0.238-0.732 1.642 0 2.037-0.217 2.355-1.493l3.174-12.216zM206.887 15.503c0.9-0.867 2.355-2.905 3.679-2.905 0.527 0 0.925 0.218 0.925 0.842 0 0.381-0.398 1.305-0.504 1.628l-1.72 4.454c-0.449 1.169-0.845 2.091-0.845 2.335 0 0.27 0.157 0.487 0.476 0.487 1.005 0 5.237-5.699 6.136-6.758 0.662-0.761 1.163-1.875 1.774-2.716 0.157-0.214 0.395-0.271 0.633-0.271 0.344 0 0.662 0.409 0.662 0.732 0 0.465-3.043 7.847-3.043 9.041 0 0.299 0.237 0.461 0.398 0.461 0.9 0 2.195-1.928 2.751-2.742 0.157 0 0.476 0.274 0.476 0.409-0.793 1.466-3.332 4.641-4.999 4.641-0.451 0-0.821-0.487-0.821-1.032 0-0.758 2.038-5.888 2.382-6.945h-0.056c-1.085 1.329-6.929 7.978-8.173 7.978-0.451 0-0.874-0.487-0.874-0.949 0-1.93 3.041-8.008 3.041-8.849 0-0.274-0.237-0.435-0.369-0.435-0.344 0-1.244 0.84-1.507 1.141l-0.424-0.544zM223.869 18.353l0.056 0.056c1.532-2.037 4.285-5.807 6.929-5.807 1.533 0 2.407 1.245 2.407 2.792 0 4.1-6.241 9.747-10.052 9.747-1.032 0-2.407-0.462-2.407-1.767 0-0.623 1.956-6.596 2.25-7.761 0.131-0.518 2.457-8.686 2.457-9.8 0-0.789-0.633-0.95-1.639-1.032l0.056-0.623c1.107-0.135 3.544-0.623 4.019-0.623 0.131 0 0.292 0 0.344 0.11l-4.419 14.709zM229.903 13.956c-1.906 0-7.119 6.216-7.119 8.877 0 0.758 0.822 1.085 1.455 1.085 2.381 0 6.905-6.080 6.905-8.469 0-1.032-0.451-1.494-1.241-1.494zM239.478 8.31c0.213-0.732 0.449-2.008 0.449-2.172 0-0.867-0.874-1.112-1.535-1.22l0.185-0.626c1.325-0.161 3.651-0.758 3.943-0.758 0.106 0 0.157 0.053 0.157 0.161s-0.132 0.597-0.424 1.576l-4.071 14.247c-0.344 1.197-0.717 2.361-0.717 2.961 0 0.353 0.264 0.623 0.612 0.623 0.818 0 1.93-1.519 2.563-2.090h0.106l0.395 0.409v0.079c-0.896 1.302-3.144 3.64-4.786 3.64-0.608 0-1.138-0.518-1.138-1.197 0-0.136 0.16-0.758 0.37-1.6l3.89-14.034zM243.050 15.232c0.449-0.87 2.513-2.607 3.544-2.634 0.874 0 1.325 0.409 1.325 1.276 0 0.897-3.043 8.008-3.043 8.821 0 0.302 0.263 0.545 0.661 0.545 0.846 0 2.118-1.873 2.726-2.47 0.106 0 0.474 0.296 0.474 0.406-0.899 1.437-2.962 3.962-4.761 3.962-0.793 0-1.35-0.353-1.35-1.224 0-1.084 3.043-7.759 3.043-8.927 0-0.301-0.157-0.487-0.449-0.487-0.451 0-1.219 0.675-1.614 1.137l-0.557-0.406zM248.156 5.217c0.687 0 1.242 0.54 1.242 1.249 0 0.703-0.557 1.272-1.244 1.272s-1.217-0.57-1.217-1.272c0-0.71 0.53-1.249 1.217-1.249zM255.245 12.6c0.793 0 2.118 0.27 2.118 1.329 0 0.57-0.398 1.088-0.849 1.088-0.845 0-0.818-1.359-2.116-1.359-0.846 0-1.639 0.95-1.639 1.739 0 1.219 3.492 3.826 3.492 5.426 0 2.010-2.381 4.317-4.366 4.317-1.244 0-2.381-0.191-2.381-1.711 0-0.543 0.449-0.974 0.899-0.974 0.849 0 0.874 1.11 2.275 1.11 0.9 0 1.72-0.762 1.72-1.709 0-1.358-3.175-3.748-3.175-4.998 0-2.251 1.799-4.259 4.022-4.259zM261.857 19.005l0.051 0.051c1.377-2.034 4.235-6.458 7.037-6.458 1.747 0 2.17 1.441 2.17 2.961 0 2.797-2.991 9.581-6.216 9.581-0.476 0-1.137-0.327-1.137-0.893 0-0.654 0.344-1.28 0.979-1.28 0.209 0 0.395 0.083 0.582 0.192 0.184 0.109 0.37 0.217 0.582 0.217 1.693 0 3.094-6.162 3.094-7.573 0-0.787-0.186-1.575-1.113-1.575-1.93 0-4.362 3.826-6.055 6.678-1.192 2.008-1.376 3.144-1.774 3.962-0.106 0.214-0.344 0.271-0.557 0.271-0.237 0-0.87-0.245-0.87-0.705 0-0.626 2.987-9.934 3.409-11.617 0.216-0.815 1.59-5.971 1.59-6.706 0-0.893-0.476-1.030-1.642-1.167l0.16-0.623c0.925-0.191 1.877-0.273 2.777-0.57 0.344-0.109 0.687-0.217 1.030-0.217 0.134 0 0.397 0.026 0.397 0.191 0 0.298-1.796 6.515-2.194 7.791l-2.301 7.489zM280.508 12.6c1.507 0 3.016 0.462 3.016 2.251 0 3.149-5.053 4.046-7.379 4.154-0.081 0.623-0.213 1.223-0.213 1.846 0 1.411 0.74 2.713 2.247 2.713 1.35 0 2.198-0.544 3.149-1.547 0.135 0.028 0.449 0.218 0.504 0.462-1.060 1.656-2.648 2.66-4.55 2.66-2.461 0-3.466-1.82-3.466-4.1 0-3.581 2.749-8.44 6.692-8.44zM280.402 13.358c-2.143 0-3.544 3.204-4.075 5.023 1.85-0.164 5.343-1.005 5.343-3.556 0-0.814-0.394-1.466-1.267-1.466zM289.792 14.744c0 0.705-0.211 1.846-0.529 3.122h0.054c0.925-1.603 2.936-5.265 4.417-5.265 0.687 0 1.455 0.431 1.455 1.219 0 0.815-0.53 1.302-1.35 1.302-0.248-0.010-0.47-0.111-0.636-0.27l0 0c-0.186-0.166-0.319-0.353-0.449-0.353-0.875 0-3.015 4.533-3.599 5.919-0.395 0.922-1.426 4.723-2.169 4.723-0.344 0-1.082-0.164-1.082-0.543 0-0.218 0.662-2.038 1.35-4.238 0.501-1.601 1.002-3.2 1.002-4.097 0-0.626-0.102-1.493-1.057-1.493-0.529 0-1.191 1.031-1.53 1.601-0.213-0.104-0.397-0.23-0.558-0.38l0.001 0.001c0.501-1.114 1.824-3.392 3.094-3.392 1.137 0 1.586 1.276 1.586 2.143zM300.797 12.6c0.793 0 2.118 0.27 2.118 1.329 0 0.57-0.398 1.088-0.849 1.088-0.845 0-0.819-1.359-2.118-1.359-0.845 0-1.638 0.95-1.638 1.739 0 1.219 3.492 3.826 3.492 5.426 0 2.010-2.381 4.317-4.367 4.317-1.242 0-2.379-0.191-2.379-1.711 0-0.543 0.449-0.974 0.899-0.974 0.849 0 0.874 1.11 2.275 1.11 0.9 0 1.718-0.762 1.718-1.709 0-1.358-3.174-3.748-3.174-4.998 0-2.251 1.799-4.259 4.022-4.259z"></path>
</svg>
