<svg width="86" height="51" viewBox="0 0 86 51" xmlns="http://www.w3.org/2000/svg"><title>download</title><path d="M85.709 7.37l-2.591.942c-1.03-3.279-3.932-5.389-7.866-5.389-4.288 0-7.103 2.155-7.103 5.793 0 7.815 17.783 3.682 17.783 14.685 0 5.256-4.2 8.937-10.454 8.937-5.809 0-9.292-2.784-11.704-7.23l2.412-1.481c1.606 3.412 4.554 6.063 9.024 6.063 5.181 0 7.863-2.38 7.863-6.333 0-7.86-17.784-3.997-17.784-14.686 0-6.333 5.675-8.4 9.875-8.4 4.734 0 9.027 2.157 10.545 7.098zm-43.743.09c0 1.75 1.161 3.232 3.71 5.972 2.993-1.753 4.647-3.594 4.647-5.973 0-2.336-1.566-4.177-4.245-4.177-2.503 0-4.112 1.976-4.112 4.177zm2.994 9.295c-4.064 2.246-5.852 4.042-5.852 6.826 0 3.189 2.858 5.839 6.522 5.839 3.309 0 5.005-1.527 6.835-4.49l-7.505-8.175zm14.476 15.718l-5.183-5.569c-1.875 2.966-4.424 5.12-8.623 5.12-5.405 0-9.383-3.771-9.383-8.397 0-3.863 2.369-6.243 6.929-8.849-2.593-2.603-4.024-4.76-4.024-7.319 0-3.727 3.128-6.692 6.926-6.692 4.022 0 7.014 2.965 7.014 6.692 0 3.592-2.814 6.017-5.628 7.859l6.432 7.051 3.8-6.197 2.278 1.436-4.201 6.871 5.764 6.154-2.1 1.84zM29.1.677v31.347h-2.86V6.426l-10.274 20.03h-2.012L3.676 6.469v25.555H.819V.677h2.993L14.98 22.324 26.15.677h2.95zm-7.804 46.51h3.038v-.82h-3.038v-2.022h3.257v-.82h-4.107v6.558h4.292v-.821h-3.442zm7.817-.838l-.038-.012c-.924-.266-1.447-.446-1.447-1.066 0-.607.51-.996 1.3-.996.658 0 1.143.27 1.369.763l.09.198.697-.408-.066-.158c-.462-1.12-1.69-1.208-2.057-1.208-.802 0-2.157.384-2.157 1.819 0 1.258 1.117 1.588 2.103 1.88.973.286 1.52.478 1.52 1.122 0 .674-.577 1.112-1.472 1.112-.823 0-1.424-.359-1.749-1.04l-.092-.197-.714.426.083.165c.458.938 1.326 1.456 2.446 1.456 1.363 0 2.314-.805 2.314-1.959 0-1.285-1.179-1.624-2.13-1.897m3.618-2.004h1.986v5.738h.853v-5.738h1.986v-.82h-4.825zm11.921.263h.977v5.475h.84l.011-6.294h-1.81zm18.205 3.176l2.04-2.84v2.84h-2.04zm2.387-3.995h-.476l-3.047 4.244v.57h3.177v1.48h.825v-1.48h.806v-.712l-.806-.08V43.79h-.479zm-14.036 5.662c-.785 0-1.398-.387-1.398-1.192 0-.762.668-1.14 1.398-1.14.728 0 1.392.378 1.392 1.14 0 .805-.61 1.192-1.392 1.192m-1.233-4.025c0-.67.44-1.058 1.233-1.058.788 0 1.232.389 1.232 1.058 0 .67-.614 1.005-1.232 1.005-.669 0-1.233-.382-1.233-1.005m2.383 1.339c.548-.298.864-.75.864-1.386 0-1.13-.908-1.7-2.014-1.7-1.11 0-2.02.57-2.02 1.7 0 .636.315 1.088.857 1.386-.576.27-1.053.743-1.053 1.483 0 1.123.802 1.891 2.216 1.891 1.412 0 2.213-.794 2.213-1.891 0-.74-.479-1.213-1.063-1.483m5.079 2.686c-.785 0-1.397-.387-1.397-1.192 0-.762.666-1.14 1.397-1.14.73 0 1.397.378 1.397 1.14 0 .805-.614 1.192-1.397 1.192m-1.233-4.025c0-.67.441-1.058 1.233-1.058.793 0 1.234.389 1.234 1.058 0 .67-.614 1.005-1.234 1.005-.668 0-1.233-.382-1.233-1.005m2.384 1.339c.549-.298.865-.75.865-1.386 0-1.13-.91-1.7-2.016-1.7-1.109 0-2.017.57-2.017 1.7 0 .636.315 1.088.856 1.386-.576.27-1.054.743-1.054 1.483 0 1.123.8 1.891 2.215 1.891 1.412 0 2.215-.794 2.215-1.891 0-.74-.479-1.213-1.064-1.483" fill="#010101" fill-rule="evenodd"/></svg>