<!-- Generated by IcoMoon.io -->
<svg version="1.1" xmlns="http://www.w3.org/2000/svg" width="100" height="32" viewBox="0 0 100 32">
<title>mozilla</title>
<path d="M86.838 20.215c0 0.849 0.409 1.521 1.552 1.521 1.345 0 2.778-0.966 2.865-3.158-0.559-0.095-1.214-0.157-1.881-0.172l-0.016-0c-1.35-0.002-2.52 0.378-2.52 1.809z"></path>
<path d="M0 0v32h99.782v-32zM28.247 24.134h-5.519v-7.427c0-2.28-0.761-3.158-2.251-3.158-1.813 0-2.544 1.287-2.544 3.129v4.595h1.745v2.865h-5.519v-7.43c0-2.28-0.759-3.158-2.251-3.158-1.813 0-2.544 1.287-2.544 3.129v4.595h2.508v2.865h-8.041v-2.865h1.754v-7.459h-1.897v-2.865h5.669v1.987c0.79-1.402 2.165-2.251 4.005-2.251 1.897 0 3.655 0.907 4.298 2.837 0.731-1.754 2.221-2.837 4.298-2.837 2.368 0 4.532 1.433 4.532 4.562v6.026h1.754zM36.638 24.425c-4.063 0-6.871-2.485-6.871-6.695 0-3.86 2.339-7.047 7.071-7.047s7.047 3.187 7.047 6.871c0.003 4.212-3.037 6.873-7.247 6.873zM57.631 24.134h-11.521l-0.379-1.989 7.244-8.334h-4.122l-0.585 2.047-2.72-0.291 0.467-4.62h11.59l0.291 1.989-7.313 8.337h4.262l0.614-2.047 2.982 0.291zM64.764 24.134h-3.948v-4.736h3.948zM64.764 15.683h-3.948v-4.734h3.948zM66.834 24.134l5.707-20.108h3.713l-5.702 20.108zM74.495 24.134l5.704-20.108h3.713l-5.698 20.108zM94.142 24.425c-1.754 0-2.718-1.024-2.894-2.632-0.761 1.345-2.106 2.632-4.239 2.632-1.897 0-4.063-1.024-4.063-3.772 0-3.246 3.129-4.005 6.14-4.005 0.044-0 0.097-0.001 0.149-0.001 0.71 0 1.411 0.043 2.099 0.126l-0.083-0.008v-0.438c0-1.345-0.029-2.953-2.165-2.953-0.79 0-1.404 0.059-2.018 0.379l-0.488 1.871-3.011-0.323 0.585-3.42c2.309-0.937 3.479-1.207 5.643-1.207 2.837 0 5.234 1.463 5.234 4.474v5.731c0 0.761 0.291 1.024 0.907 1.024 0.199-0.003 0.39-0.035 0.569-0.092l-0.014 0.004 0.029 1.989c-0.686 0.381-1.503 0.61-2.371 0.621l-0.003 0z"></path>
<path d="M36.783 13.579c-1.93 0-3.129 1.431-3.129 3.918 0 2.28 1.052 4.034 3.104 4.034 1.959 0 3.246-1.578 3.246-4.093-0.005-2.661-1.437-3.86-3.222-3.86z"></path>
</svg>
