<!-- Generated by IcoMoon.io -->
<svg version="1.1" xmlns="http://www.w3.org/2000/svg" width="129" height="32" viewBox="0 0 129 32">
<title>news-corp</title>
<path d="M84.457 18.518c-0.367 0-0.512-0.423-0.095-0.903 1.336-0.949 1.861-1.243 1.933-1.278 0.861 0-0.788 2.181-1.839 2.181zM128.313 13.748c-0.067-0.057-0.143-0.109-0.222-0.155l-0.007-0.004c-0.018-0.013-0.033-0.027-0.054-0.040-0.67-0.431-1.403-0.239-1.403-0.239s0.138 0.25-0.544 0.807c-0.036 0.029-0.068 0.059-0.098 0.092l-0.001 0.001-0.058 0.048c-2.481 2.020-5.788 3.621-9.237 4.297 1.116-0.655 3.758-3.151 1.922-4.497-1.070-0.785-2.968-0.44-4.758 0.458 0.207-0.335 0.7-1.047 0.502-1.903s-1.839-1.104-2.749-0.781c-0.030 0.885-0.172 1.356-0.326 1.551-4.015 3.53-9.269 5.406-9.699 4.977-0.35-0.349 0.826-1.725 1.216-2.274 0.326-0.458 0.334-1.016 0.103-1.436-0.361-0.656-1.035-0.695-2.281-0.423-1.722 0.293-2.944-0.323-3.972-1.889-0.505-0.768-1.732-0.614-2.364-0.194 0.157 0.496 0.115 0.998-0.034 1.506-1.057 2.447-4.246 2.464-5.453 1.633-0.172-0.512-0.624-1.459-1.535-1.597-2.815-0.43-3.783 1.295-4.245 1.821-1 1.14-7.77 4.1-9.353 2.815-1.165-0.945-0.186-4.384 2.037-7.827 3.296-5.199 4.789-5.138 5.316-4.612 0.326 0.325 0.645 1.046-0.018 2.32-0.072 0.141-0.119 0.226-0.168 0.311l0.026-0.050c-1.139 1.866-1.582 1.771-1.582 1.771-0.372 1.121 0.104 1.732 0.456 2.014 0.381 0.375 0.927 0.247 1.095 0.189 0.558-0.192 0.904-0.68 1.224-1.176 1.593-2.468 2.587-6.391-0.024-7.81-1.868-1.016-5.014 0.356-8.494 5.988-3.091 5.003-3.966 8.943-1.737 10.81 2.714 2.273 8.417-0.726 10.293-1.594-0.052 0.379 0.095 2.28 1.98 2.173 2.412-0.142 3.904-2.218 4.546-3.277 0.94 0.544 5.058 1.323 7.556-2.424 0.269 0.227 1.773 1.32 3.778 1.32-0.709 1.297-1.622 2.852-0.273 3.919 1.891 1.495 8.372-2.105 10.26-3.215-1.073 1.95-2.939 6.358-4.822 10.267-0.775 1.61-1.856 3.773-0.718 4.348 0.884 0.446 2.211-0.014 2.411-1.173 0.261-1.515 1.726-5.74 2.766-8.028 1.975-4.387 3.751-6.659 6.751-6.659-0.186 0.358-0.242 0.639-1.239 1.634-1.087 1.085-2.301 1.022-2.239 2.193 0.036 0.69 0.744 0.884 0.941 0.937 1.564 0.421 5.895-0.863 7.616-1.491 1.979-0.722 4.669-2.043 6.66-3.31 0.94-0.598 1.028-1.47 0.256-2.122zM60.702 9.341c-1.666 0.123-3.681 0.675-4.428 2.346-0.618 1.381-0.131 2.837 1.167 4.472 0.832 1.015 1.594 1.879 1.811 2.114-0.599 0.126-1.903 0.081-3.212-0.159l-0.016-0.003c-0.299-0.055-0.597-0.121-0.888-0.197-0.739-0.233-0.942-0.531-0.942-0.531l-0.108 0.079v-0.005l0.108-0.074c-0.5 0.069-0.916 0.416-1.211 0.799s-0.598 1.125-0.341 1.482c0.219 0.303 0.654 0.47 1.483 0.498 1.281 0.060 4.731 0.516 6.006 0.659 0.984 0.11 1.647-0.603 1.84-1.073 0.261-0.626-0.008-1.315-0.338-1.697-1.637-1.889-3.93-3.952-3.098-5.677 0.381-0.79 2.223-0.631 2.831-0.451 1.297 0.386 1.941-0.084 2.236-0.952 0.19-0.558-0.149-1.834-2.898-1.632zM26.96 11.516c0.233 0.232-0.264 0.756-0.702 1.041-1.2 0.778-2.41 1.23-3.272 1.548 0.936-1.915 3.647-3.044 3.974-2.589zM54.781 15.696c0.654-0.366 0.916-1.123 0.393-1.75s-1.559-0.575-2.021-0.296c-0.387 0.233-0.835 0.635-2.168 0.704-1.255 0.065-1.759-0.474-2.552-0.474-0.886 0-1.244 0.621-2.341 1.987-0.559 0.695-1.816 2.294-2.391 2.294-0.487 0-0.673-1.401-0.673-3.223 0-0.828-0.365-1.499-1.309-1.437-0.785 0.052-0.916 1.071-1.327 1.549-1.23 1.43-2.218 2.829-2.72 2.829-0.619 0-0.857-1.351-0.857-2.393 0 0 0.193-1.646-1.299-1.933-0.648-0.124-1.323 0.235-1.323 0.235 0.062 0.125 0.080 0.253 0.068 0.382-0.189 0.69-1.486 1.675-1.486 1.675h0c-1.387 1.016-4.158 2.801-6.656 2.934-2.918 0.155-3.429-1.377-3.531-2.046 2.515-0.922 4.192-1.974 5.277-2.813 1.151-0.891 1.911-1.878 1.844-2.844-0.091-1.308-1.28-1.781-2.222-1.781-2.029 0-5.396 0.873-7.015 5.315-0.348 0.112-1.175 0.118-1.615 0.003-0.588-0.153-0.578-0.404-0.578-0.404-0.55 0.142-0.787 0.41-0.981 0.886-0.31 0.762 0.1 1.418 0.728 1.766 0.455 0.253 1.175 0.413 2.191 0.293 0.143 1.346 1.038 3.803 5.816 3.617 3.795-0.147 8.237-3.264 8.636-3.508 0.169 0.778 0.704 3.568 2.318 3.568 1.938 0 3.925-2.888 3.925-2.888s0.505 2.907 2.453 2.907c1.624 0 3.663-2.526 4.172-3.127 0.423-0.501 1.245-1.463 1.694-1.463 0.439-0.075 1.31 0.507 3.806 0.010 0.056-0.011 1.184-0.262 1.746-0.575zM23.846 1.676c0.175-0.461 0.023-1.022-0.263-1.236-0.951-0.712-1.814-0.315-2.459 0.391-0.757 0.828-1.74 2.623-2.156 3.294-3.821 6.164-6.733 12.752-6.733 12.752s-1.011-3.068-1.151-5.505c-0.132-2.298-0.237-4.492-0.336-5.566-0.032-0.43-0.214-1.103-0.967-1.349-0.581-0.19-1.427-0.264-2.020-0.045-0.048 0.734-0.079 1.088-0.385 1.956s-2.275 4.693-2.61 5.288c-1.713 3.046-3.973 6.833-4.104 7.077-0.461 0.853-1.101 2.016-0.005 2.427s2.058 0.192 2.531-0.509c0.091-0.135 0.217-0.387 0.217-0.387s-0.319-0.262 0.364-1.851c0.524-1.123 0.762-1.598 1.004-2.072l-0.289 0.623c0.052-0.096 0.107-0.195 0.164-0.296 0.082-0.146 0.139-0.273 0.183-0.391 1.125-2.218 2.623-5.078 3.96-7.585-0.010 1.46 0.113 3.266 0.313 4.578 0.305 2.559 0.933 3.638 1.168 5.679-0.047 1.379 0.090 1.617 1.097 1.894 0.941 0.259 1.49-0 1.843-0.869 1.36-3.427 5.268-11.297 8.588-15.567 0.347-0.447 1.666-1.729 2.047-2.732z"></path>
</svg>
