<svg width="94" height="53" viewBox="0 0 94 53" xmlns="http://www.w3.org/2000/svg"><title>pbs_logo.499bc264d7a0</title><g transform="translate(.865 .404)" fill="none" fill-rule="evenodd"><ellipse fill="#000" cx="25.908" cy="25.908" rx="25.908" ry="25.908"/><path d="M28.562 11.47h-7.826c-6.433 0-11.695 4.497-11.695 11.154 0 5.578 3.373 9.58 8.411 10.345v7.782h10.435v-7.467h1.44c1.709-.18 2.833-1.304 2.878-2.878v-4.318h2.834L28.562 11.47zm-2.07 12.549c-1.393 0-2.563-1.17-2.563-2.564 0-1.395 1.17-2.564 2.564-2.564 1.394 0 2.564 1.17 2.564 2.564a2.534 2.534 0 0 1-2.564 2.564zm10.841-12.55h-4.228l6.387 14.619h-2.924v3.868c0 2.339-.99 3.373-4.183 3.328v7.467h4.183v-7.467h1.395c1.214.045 2.878-.944 2.878-2.878v-4.318h2.834L37.333 11.47z" fill="#FFF"/><path d="M60.093 21.14h-1.8v-2.249h5.983c3.238 0 5.082 1.664 5.082 4.273 0 2.654-1.934 4.318-4.992 4.318h-1.62v3.373h2.114v2.25h-6.567v-2.25h1.845V21.14h-.045zm2.653 4.093h1.755c1.484 0 2.294-.945 2.294-2.069 0-1.17-.855-2.069-2.294-2.069h-1.755v4.138zm9.176-4.093h-1.619v-2.249h5.712c3.554 0 4.678 2.114 4.678 3.688 0 1.305-.72 2.384-1.709 2.879 1.44.585 2.249 2.069 2.249 3.373 0 3.104-2.429 4.363-4.768 4.363h-6.342v-2.249h1.844V21.14h-.045zm2.609 9.76h1.664c1.35 0 2.294-.764 2.294-2.024 0-1.08-.72-2.024-2.294-2.024h-1.664V30.9zm0-6.297h1.574c1.17 0 1.98-.674 1.98-1.754 0-1.034-.765-1.709-1.98-1.709h-1.574v3.463zm15.068-3.508c-.45-.18-1.08-.36-1.709-.36-1.754 0-2.294.99-2.294 1.8 0 1.034.675 1.349 1.484 1.574l1.53.404c1.844.54 3.913 1.215 3.913 4.138 0 2.7-1.62 4.633-5.218 4.633-1.394 0-2.833-.18-4.498-.764v-3.734h2.61v1.844c.674.315 1.393.36 2.113.36 1.53 0 2.25-.81 2.25-1.889 0-.72-.36-1.26-2.07-1.754l-1.394-.405c-2.61-.764-3.464-1.889-3.464-4.048 0-2.249 1.395-4.228 4.948-4.228 1.53 0 3.059.27 4.138.765v3.373h-2.384v-1.709h.045z" fill="#000"/></g></svg>