<!-- Generated by IcoMoon.io -->
<svg version="1.1" xmlns="http://www.w3.org/2000/svg" width="203" height="32" viewBox="0 0 203 32">
<title>polaris</title>
<path fill="#202020" d="M23.936 1.073c12.952 0 23.442 5.973 23.442 13.417 0 7.363-10.491 13.417-23.442 13.417-12.867 0-23.36-6.054-23.36-13.417 0-7.444 10.493-13.417 23.36-13.417z"></path>
<path fill="#c8c8c8" d="M19.838 12.61l-13.851 1.963 12.541-1.472c0.82-0.082 1.64-0.082 2.293 0.163l1.394 0.571-2.377-1.225zM20.084 16.945l-2.868 3.928 2.622-3.355c0.247-0.328 0.573-0.574 0.82-0.738l1.477-0.899-2.050 1.062zM22.543 19.317c-0.082-0.492-0.082-0.983 0.081-1.228l0.739-1.635-1.394 2.127 2.377 7.526-1.803-6.79zM28.608 16.945l-2.050-1.064 1.147 0.736c0.41 0.247 0.739 0.41 1.23 1.064l2.54 3.192-2.868-3.93zM28.936 12.61l-2.377 1.227 1.64-0.655c0.492-0.244 1.067-0.163 1.885-0.081l12.457 1.474-13.605-1.966zM27.461 10.645l-1.393 1.88 1.31-1.554c0.165-0.163 0.247-0.245 0.494-0.41l3.605-2.371-4.017 2.453zM22.543 9.909l1.803-6.79-2.377 7.444 1.394 1.964-0.739-1.391c-0.081-0.408-0.163-0.899-0.081-1.227z"></path>
<path fill="#c8c8c8" d="M26.723 10.563l-2.377-7.528v10.965l2.377-3.438zM28.608 12.2l2.869-4.008-6.147 5.643 3.278-1.635zM42.624 14.572h-17.621l3.768 1.882 13.853-1.882zM23.771 14.572l-3.852 1.882-13.851-1.882h17.705zM17.216 8.19l2.869 4.009 3.36 1.635-6.229-5.644zM17.216 20.873l4.098-2.373 2.132-3.192-6.229 5.565zM31.477 20.873l-6.312-5.565 2.214 3.192 4.099 2.373zM24.346 15.144l2.377 3.436-2.377 7.528v-10.964z"></path>
<path fill="#c8c8c8" d="M21.314 10.563l-4.099-2.373 3.362 2.127c0.573 0.328 0.902 0.736 0.902 0.736l1.147 1.474-1.312-1.964z"></path>
<path fill="#202020" d="M138.444 19.582v-4.553h-10.366v4.553h-5.318v-12.070c0-0.001 0-0.003 0-0.005 0-2.855 2.314-5.169 5.169-5.169 0.004 0 0.009 0 0.013 0h10.779c2.834 0 5.182 2.347 5.182 5.173v12.070h-5.458zM128.078 10.754h10.366v-2.071c0-1.172-0.968-2.138-2.072-2.138h-6.22c-1.106 0-2.074 0.966-2.074 2.139v2.069zM161.524 19.582v-3.243c0-0.759-0.553-1.309-1.245-1.309h-9.12v4.553h-5.32v-17.243h16.789c0.008-0 0.018-0 0.027-0 2.351 0 4.258 1.906 4.258 4.258 0 0.007-0 0.014-0 0.021v-0.001 3.724c0 1.448-1.106 2.621-2.555 2.621 1.451 0 2.555 1.172 2.555 2.551v4.072l-5.39-0.003zM151.159 10.754h8.154c1.243 0 2.142-0.898 2.142-2.071 0-1.172-0.899-2.138-2.142-2.138h-8.151v4.209zM174.24 19.582v-17.245h-5.391v17.245h5.391zM189.995 12.891h0.692c0.622 0 1.173 0.552 1.173 1.173 0 0.689-0.552 1.24-1.173 1.24h-14.511v4.277h16.861c2.35 0 4.282-1.932 4.282-4.346v-2.001c-0.015-2.358-1.924-4.265-4.281-4.276h-10.296c-0.622 0-1.175-0.55-1.175-1.24 0-0.622 0.553-1.173 1.173-1.173h13.614v-4.206h-15.823c-2.418 0-4.354 1.931-4.354 4.276v1.999c0 2.347 1.935 4.277 4.354 4.277l9.464-0.002zM130.083 26.824v-1.172h1.935v4.344c0 0.968-0.83 1.795-1.867 1.795h-3.87c-0.984-0.018-1.777-0.811-1.795-1.793l-0-0.002v-4.343h1.934v3.928c0 0.413 0.346 0.692 0.692 0.692h2.211c0.414 0 0.762-0.277 0.762-0.69v-2.76zM153.992 31.79v-1.105c0-0.003 0-0.007 0-0.011 0-0.261-0.212-0.472-0.472-0.472-0.004 0-0.008 0-0.011 0h-3.247v1.588h-1.935v-6.138h6.011c0.899 0 1.589 0.69 1.589 1.515v1.379c0 0.486-0.414 0.899-0.968 0.899 0.007-0 0.015-0 0.023-0 0.522 0 0.945 0.423 0.945 0.945 0 0.008-0 0.015-0 0.023l0-0.001v1.379h-1.935zM150.261 28.686h2.901c0.418-0.003 0.756-0.341 0.76-0.758v-0c-0.005-0.418-0.344-0.755-0.762-0.759h-2.899v1.518zM197.527 4.062c0-1.173 0.968-2.138 2.141-2.138 1.175 0 2.142 0.966 2.142 2.138 0 1.173-0.968 2.069-2.142 2.069-1.173 0-2.141-0.896-2.141-2.069zM201.464 4.062c0-1.033-0.76-1.792-1.797-1.792-0.004-0-0.008-0-0.012-0-0.985 0-1.783 0.798-1.783 1.783 0 0.003 0 0.006 0 0.010v-0c0 0.966 0.829 1.725 1.795 1.725 1.036 0 1.797-0.759 1.797-1.725zM200.704 5.236h-0.414l-0.692-1.103h-0.413v1.103h-0.346v-2.414h1.036c0.207 0 0.413 0 0.552 0.137 0.168 0.114 0.277 0.304 0.277 0.519 0 0.012-0 0.024-0.001 0.036l0-0.002c0 0.482-0.346 0.62-0.692 0.62l0.693 1.103zM199.598 3.857c0.277 0 0.762 0.069 0.762-0.414 0-0.276-0.277-0.344-0.553-0.344h-0.622v0.759h0.413zM161.109 30.272v-0.829h5.32v-1.518h-5.318v-0.759h5.318v-1.515h-7.253v5.242c0.010 0.492 0.407 0.888 0.898 0.896h6.357v-1.518h-5.321zM192.067 27.166h-0.692c-0.418 0.004-0.755 0.341-0.76 0.758v1.727c0 0.411 0.346 0.62 0.762 0.62h3.867v1.518h-4.282c-0.002 0-0.005 0-0.008 0-1.027 0-1.859-0.832-1.859-1.859 0-0.002 0-0.003 0-0.005v0-2.414c0-1.035 0.829-1.861 1.865-1.861h4.283v1.515h-3.177zM158.484 31.79v-6.138h-1.935v6.138h1.935zM113.57 31.79v-3.864c-0.005-0.418-0.344-0.755-0.762-0.759h-2.972v4.623h-1.865v-6.138h5.667c1.035 0 1.865 0.826 1.865 1.861v4.277h-1.935zM121.929 31.79c0.968 0 1.797-0.829 1.797-1.864v-2.414c0-1.035-0.829-1.861-1.798-1.861h-5.594v6.138h5.595zM118.199 27.166h3.109c0.414 0 0.762 0.209 0.762 0.623v1.723c0 0.411-0.347 0.759-0.762 0.759h-3.109v-3.106zM137.547 29.445h0.207c0.276 0 0.414 0.207 0.414 0.414 0 0.206-0.139 0.413-0.414 0.413h-5.182v1.518h6.013c0.898 0 1.589-0.69 1.589-1.518v-0.69c0-0.898-0.692-1.588-1.589-1.588h-3.666c-0.207 0-0.413-0.137-0.413-0.411 0-0.209 0.207-0.416 0.413-0.416h4.838v-1.515h-5.597c-0.899 0-1.591 0.69-1.591 1.515v0.759c0 0.829 0.692 1.518 1.591 1.518l3.386 0.002zM172.236 29.445h0.207c0.207 0 0.414 0.207 0.414 0.414 0 0.206-0.209 0.413-0.414 0.413h-5.182v1.518h6.011c0.83 0 1.521-0.69 1.521-1.518v-0.69c0-0.898-0.692-1.588-1.521-1.588h-3.662c-0.207 0-0.414-0.137-0.414-0.411 0-0.209 0.207-0.416 0.414-0.416h4.837v-1.515h-5.666c-0.829 0-1.519 0.69-1.519 1.515v0.759c0 0.829 0.69 1.518 1.519 1.518l3.454 0.002zM195.869 31.79v-1.518h1.519v1.518h-1.519zM197.318 22.685v-0.966h-140.55v0.966h140.55zM180.389 31.721v-6.138h-1.935v6.138h1.935zM186.677 28.547v-0.756c0-0.416-0.346-0.69-0.76-0.69h-2.971v4.62h-1.865v-6.138h5.666c1.036 0 1.865 0.827 1.865 1.792v4.346h-1.935v-3.174zM147.636 25.652h-7.258v1.515h2.697v4.623h1.935v-4.623h2.626v-1.515zM120.823 15.237h-8.914c-0.899 0-1.726-0.759-1.726-1.725v-11.173h-5.321v14.621c0 1.449 1.175 2.622 2.557 2.622h13.406v-4.344zM106.728 31.79v-6.138h-1.935v6.138h1.935z"></path>
<path fill="#202020" d="M130.083 26.824v-1.172h1.935v4.344c0 0.968-0.83 1.795-1.867 1.795h-3.87c-0.984-0.018-1.777-0.811-1.795-1.793l-0-0.002v-4.343h1.934v3.928c0 0.413 0.346 0.692 0.692 0.692h2.211c0.414 0 0.762-0.277 0.762-0.69v-2.76zM153.992 31.79v-1.105c0-0.003 0-0.007 0-0.011 0-0.261-0.212-0.472-0.472-0.472-0.004 0-0.008 0-0.011 0h-3.247v1.588h-1.935v-6.138h6.011c0.899 0 1.589 0.69 1.589 1.515v1.379c0 0.486-0.414 0.899-0.968 0.899 0.007-0 0.015-0 0.023-0 0.522 0 0.945 0.423 0.945 0.945 0 0.008-0 0.015-0 0.023l0-0.001v1.379h-1.935zM150.261 28.686h2.901c0.418-0.003 0.756-0.341 0.76-0.758v-0c-0.005-0.418-0.344-0.755-0.762-0.759h-2.899v1.518zM161.109 30.272v-0.829h5.32v-1.518h-5.318v-0.759h5.318v-1.515h-7.253v5.242c0.010 0.492 0.407 0.888 0.898 0.896h6.357v-1.518h-5.321zM192.067 27.166h-0.692c-0.418 0.004-0.755 0.341-0.76 0.758v1.727c0 0.411 0.346 0.62 0.762 0.62h3.867v1.518h-4.282c-0.002 0-0.005 0-0.008 0-1.027 0-1.859-0.832-1.859-1.859 0-0.002 0-0.003 0-0.005v0-2.414c0-1.035 0.829-1.861 1.865-1.861h4.283v1.515h-3.177zM158.484 31.79v-6.138h-1.935v6.138h1.935zM121.929 31.79c0.968 0 1.797-0.829 1.797-1.864v-2.414c0-1.035-0.829-1.861-1.798-1.861h-5.594v6.138h5.595zM118.199 27.166h3.109c0.414 0 0.762 0.209 0.762 0.623v1.723c0 0.411-0.347 0.759-0.762 0.759h-3.109v-3.106zM137.547 29.445h0.207c0.276 0 0.414 0.207 0.414 0.414 0 0.206-0.139 0.413-0.414 0.413h-5.182v1.518h6.013c0.898 0 1.589-0.69 1.589-1.518v-0.69c0-0.898-0.692-1.588-1.589-1.588h-3.666c-0.207 0-0.413-0.137-0.413-0.411 0-0.209 0.207-0.416 0.413-0.416h4.838v-1.515h-5.597c-0.899 0-1.591 0.69-1.591 1.515v0.759c0 0.829 0.692 1.518 1.591 1.518l3.386 0.002zM195.869 31.79v-1.518h1.519v1.518h-1.519zM180.389 31.721v-6.138h-1.935v6.138h1.935zM186.677 28.547v-0.756c0-0.416-0.346-0.69-0.76-0.69h-2.971v4.62h-1.865v-6.138h5.666c1.036 0 1.865 0.827 1.865 1.792v4.346h-1.935v-3.174zM147.636 25.652h-7.258v1.515h2.697v4.623h1.935v-4.623h2.626v-1.515zM62.156 6.546h9.053c0 0 0.001 0 0.002 0 0.724 0 1.31 0.587 1.31 1.31 0 0 0 0 0 0v0 1.586c0 0.724-0.587 1.31-1.31 1.31v0h-9.054v-4.207zM73.627 2.338h-16.859v17.245h5.388v-4.623h11.471c0.008 0 0.018 0 0.027 0 2.351 0 4.258-1.906 4.258-4.258 0-0.006 0-0.013-0-0.019v0.001-4.069c-0.014-2.359-1.925-4.268-4.284-4.277h-0.001zM85.029 19.582c-2.901 0-5.181-2.347-5.181-5.173v-6.897c0-0.001 0-0.002 0-0.003 0-2.855 2.315-5.17 5.17-5.17 0.004 0 0.007 0 0.011 0h12.507c2.834 0 5.184 2.347 5.184 5.173v6.897c0 2.828-2.35 5.173-5.184 5.173h-12.506zM91.249 3.235l-1.314 5.379-2.763-1.792 1.519 2.827-7.531 1.31 7.531 1.242-1.519 2.828c0-0.069 2.763-1.723 2.763-1.723l1.314 5.379 1.31-5.379s2.766 1.655 2.834 1.723l-1.519-2.828 7.531-1.24-7.531-1.31 1.519-2.828-2.834 1.792-1.31-5.379z"></path>
</svg>
