<svg aria-hidden="true" style="position: absolute; width: 0; height: 0; overflow: hidden;" version="1.1" xmlns="http://www.w3.org/2000/svg" xmlns:xlink="http://www.w3.org/1999/xlink">
<defs>
<symbol id="icon-vmware" viewBox="0 0 196 32">
<title>vmware</title>
<path fill="#5f5f5f" style="fill: var(--color1, #5f5f5f)" d="M85.095 28.346l-8.479-23.61c-0.108-0.326-0.27-0.757-0.27-1.135 0-1.023 0.865-1.995 2.103-1.995 1.081 0 1.786 0.702 2.108 1.725l7.026 20.345 7.076-20.401c0.323-0.968 0.972-1.67 2.046-1.67h0.219c1.137 0 1.839 0.702 2.161 1.67l7.018 20.401 7.137-20.452c0.27-0.868 0.859-1.619 1.997-1.619 1.187 0 2.053 0.914 2.053 1.942 0 0.377-0.164 0.806-0.27 1.135l-8.533 23.665c-0.436 1.236-1.297 1.885-2.271 1.885h-0.161c-1.081 0-1.893-0.649-2.274-1.885l-6.964-20.063-7.025 20.063c-0.378 1.236-1.191 1.885-2.268 1.885h-0.114c-1.023 0-1.884-0.649-2.319-1.885z"></path>
<path fill="#5f5f5f" style="fill: var(--color1, #5f5f5f)" d="M146.901 3.663c0-1.139 0.919-2.112 2.053-2.112 1.196 0 2.112 0.92 2.112 2.112v4.791c2.054-4.653 6.61-6.849 9.63-6.849 1.25 0 2.062 0.919 2.062 2.108 0 1.138-0.754 1.946-1.845 2.108-5.413 0.649-9.845 4.71-9.845 12.774v9.488c0 1.137-0.865 2.108-2.054 2.108-1.191 0-2.111-0.924-2.111-2.108l-0.001-24.421z"></path>
<path fill="#5f5f5f" style="fill: var(--color1, #5f5f5f)" d="M176.126 30.455c-7.532 0-13.681-5.841-13.681-14.408v-0.111c0-7.978 5.569-14.405 13.151-14.405 8.107 0 12.724 6.689 12.724 14.030 0 1.128-0.91 1.934-1.911 1.934h-19.822c0.578 5.994 4.764 9.366 9.648 9.366 3.395 0 5.879-1.339 7.897-3.214 0.319-0.265 0.689-0.479 1.169-0.479 1.004 0 1.803 0.804 1.803 1.772 0 0.48-0.212 0.964-0.641 1.334-2.595 2.515-5.674 4.181-10.335 4.181zM184.237 14.441c-0.426-5.039-3.29-9.426-8.752-9.426-4.772 0-8.377 4.014-8.901 9.426h17.653z"></path>
<path fill="#5f5f5f" style="fill: var(--color1, #5f5f5f)" d="M117.366 21.785v-0.108c0-5.879 4.857-9.012 11.921-9.012 3.563 0 6.097 0.485 8.583 1.191v-0.975c0-5.013-3.084-7.606-8.311-7.606-2.806 0-4.44 0.357-6.494 1.272-0.266 0.108-0.538 0.164-0.748 0.164-0.972 0-1.839-0.812-1.839-1.781 0-0.861 0.375-1.394 1.135-1.73 2.747-1.192 4.818-1.588 8.377-1.588 3.935 0 6.957 1.022 9.004 3.074 1.892 1.888 2.863 4.585 2.863 8.147v15.391c0 1.183-0.863 2.049-2.003 2.049-1.182 0-1.983-0.865-1.983-1.942v-2.661c-1.946 2.541-5.186 4.803-10.085 4.803-5.182-0.004-10.421-2.968-10.421-8.686zM137.924 19.626v-2.698c-2.054-0.592-4.809-1.187-8.205-1.187-5.226 0-8.143 2.268-8.143 5.772v0.107c0 3.506 3.234 5.556 7.014 5.556 5.123 0 9.334-3.13 9.334-7.55z"></path>
<path fill="#5f5f5f" style="fill: var(--color1, #5f5f5f)" d="M9.521 3.356c-0.914-2.003-3.172-2.91-5.28-1.973-2.111 0.938-2.888 3.279-1.934 5.283l8.853 19.243c1.392 3.015 2.859 4.596 5.613 4.596 2.942 0 4.225-1.721 5.615-4.596 0 0 7.721-16.813 7.799-16.988 0.079-0.178 0.326-0.721 1.112-0.716 0.665 0.004 1.223 0.534 1.223 1.246v16.441c0 2.534 1.405 4.613 4.11 4.613 2.702 0 4.163-2.079 4.163-4.613v-13.454c0-2.595 1.859-4.279 4.394-4.279s4.221 1.745 4.221 4.279v13.454c0 2.534 1.41 4.613 4.11 4.613 2.702 0 4.17-2.079 4.17-4.613v-13.454c0-2.595 1.852-4.279 4.387-4.279 2.53 0 4.223 1.745 4.223 4.279v13.454c0 2.534 1.409 4.613 4.111 4.613 2.701 0 4.166-2.079 4.166-4.613v-15.312c0-5.627-4.525-9.569-9.97-9.569-5.439 0-8.845 3.763-8.845 3.763-1.81-2.347-4.306-3.757-8.529-3.757-4.457 0-8.357 3.757-8.357 3.757-1.812-2.347-4.895-3.757-7.449-3.757-3.95 0-7.086 1.737-9 6.112l-5.653 13.325-7.252-17.097z"></path>
<path fill="#5f5f5f" style="fill: var(--color1, #5f5f5f)" d="M188.657 5.023v-0.023c0-1.883 1.528-3.468 3.448-3.468 1.947 0 3.454 1.569 3.454 3.454v0.014c0 1.889-1.524 3.475-3.454 3.475-1.947 0-3.448-1.564-3.448-3.452zM194.895 5v-0.009c0-1.548-1.196-2.818-2.791-2.818-1.581 0-2.795 1.292-2.795 2.827v0.018c0 1.545 1.2 2.814 2.795 2.814 1.575 0 2.791-1.289 2.791-2.832z"></path>
<path fill="#5f5f5f" style="fill: var(--color1, #5f5f5f)" d="M190.785 3.635c0-0.205 0.164-0.369 0.372-0.369h1.151c0.434 0 0.768 0.123 0.975 0.342 0.19 0.185 0.293 0.452 0.293 0.761v0.010c0 0.526-0.266 0.848-0.667 1.017l0.508 0.619c0.071 0.093 0.119 0.169 0.119 0.283 0 0.204-0.173 0.338-0.348 0.338-0.164 0-0.275-0.084-0.361-0.19l-0.716-0.906h-0.587v0.728c0 0.205-0.159 0.366-0.365 0.366-0.208 0-0.372-0.163-0.372-0.366v-2.634zM192.266 4.889c0.359 0 0.556-0.187 0.556-0.472v-0.012c0-0.311-0.212-0.479-0.569-0.479h-0.734v0.961h0.747z"></path>
</symbol>
<symbol id="icon-atalssian" viewBox="0 0 258 32">
<title>atalssian</title>
<path fill="#202020" style="fill: var(--color2, #202020)" d="M9.38 14.596c-0.166-0.216-0.424-0.353-0.715-0.353-0.359 0-0.669 0.21-0.813 0.514l-0.002 0.005-7.753 15.502c-0.062 0.121-0.098 0.263-0.098 0.414 0 0.512 0.415 0.927 0.927 0.927h10.796c0.006 0 0.013 0 0.021 0 0.355 0 0.662-0.207 0.806-0.507l0.002-0.005c2.329-4.812 0.917-12.129-3.17-16.497z"></path>
<path fill="#b3b3b3" style="fill: var(--color3, #b3b3b3)" d="M15.067 0.496c-2.070 3.144-3.303 6.999-3.303 11.142 0 3.294 0.779 6.406 2.162 9.162l-0.054-0.118 5.205 10.41c0.155 0.306 0.468 0.512 0.829 0.512h10.794c0.512-0 0.927-0.415 0.927-0.927 0-0.151-0.036-0.294-0.1-0.42l0.002 0.005s-14.522-29.046-14.886-29.773c-0.145-0.293-0.443-0.491-0.787-0.491-0.346 0-0.645 0.201-0.787 0.492l-0.002 0.005z"></path>
<path fill="#9e9e9e" style="fill: var(--color4, #9e9e9e)" d="M141.674 12.926c0 3.839 1.781 6.886 8.746 8.232 4.156 0.872 5.026 1.543 5.026 2.928 0 1.345-0.872 2.216-3.799 2.216-3.717-0.069-7.185-1.073-10.197-2.786l0.106 0.055v6.252c2.098 1.029 4.868 2.177 10.012 2.177 7.282 0 10.171-3.247 10.171-8.073zM161.738 23.927c0-4.551-2.414-6.688-9.221-8.152-3.76-0.831-4.67-1.662-4.67-2.849 0-1.502 1.345-2.137 3.839-2.137 3.008 0 5.976 0.91 8.786 2.177v-5.976c-2.415-1.127-5.244-1.784-8.226-1.784-0.127 0-0.254 0.001-0.381 0.004l0.019-0c-6.728 0-10.21 2.928-10.21 7.717zM235.223 5.604v26h5.54v-19.827l2.335 5.263 7.836 14.564h6.965v-26h-5.54v16.78l-2.098-4.868-6.292-11.912h-8.746zM193.93 5.604h6.055v26h-6.055zM186.944 23.927c0-4.551-2.414-6.688-9.221-8.152-3.76-0.831-4.67-1.662-4.67-2.849 0-1.502 1.345-2.137 3.839-2.137 3.008 0 5.976 0.91 8.786 2.177v-5.976c-2.415-1.127-5.244-1.784-8.226-1.784-0.127 0-0.254 0.001-0.381 0.004l0.019-0c-6.728 0-10.21 2.928-10.21 7.717 0 3.839 1.781 6.886 8.746 8.232 4.156 0.872 5.026 1.543 5.026 2.928 0 1.345-0.872 2.216-3.799 2.216-3.717-0.069-7.185-1.073-10.197-2.786l0.106 0.055v6.252c2.098 1.029 4.868 2.177 10.012 2.177 7.282 0 10.171-3.247 10.171-8.073zM94.638 5.604v26h12.445l1.96-5.62h-8.311v-20.381h-6.094zM70.050 5.604v5.619h6.728v20.381h6.094v-20.381h7.203v-5.619h-20.024zM61.213 5.604h-7.987l-9.067 26h6.924l1.285-4.379c1.452 0.442 3.12 0.697 4.849 0.697s3.397-0.255 4.97-0.729l-0.122 0.032 1.285 4.379h6.925zM57.22 22.537c-1.188-0-2.334-0.175-3.416-0.501l0.084 0.022 3.332-11.347 3.332 11.35c-0.994 0.302-2.136 0.475-3.32 0.475-0.004 0-0.009 0-0.013 0h0.001zM128.538 5.604h-7.986l-9.067 26h6.925l1.285-4.379c1.452 0.442 3.12 0.697 4.849 0.697s3.397-0.255 4.97-0.729l-0.122 0.032 1.285 4.379h6.925zM124.545 22.537c-1.188-0-2.334-0.175-3.416-0.501l0.084 0.022 3.332-11.347 3.332 11.35c-0.994 0.302-2.136 0.475-3.32 0.475-0.004 0-0.009 0-0.013 0h0.001zM221.804 5.604h-7.986l-9.067 26h6.925l1.285-4.379c1.452 0.442 3.12 0.697 4.849 0.697s3.397-0.255 4.97-0.729l-0.122 0.032 1.285 4.379h6.926zM217.808 22.537c-1.188-0-2.334-0.175-3.416-0.501l0.084 0.022 3.332-11.347 3.332 11.35c-0.994 0.302-2.137 0.475-3.32 0.475-0.004 0-0.009 0-0.013 0h0.001z"></path>
</symbol>
<symbol id="icon-polaris" viewBox="0 0 203 32">
<title>polaris</title>
<path fill="#202020" style="fill: var(--color2, #202020)" d="M23.936 1.073c12.952 0 23.442 5.973 23.442 13.417 0 7.363-10.491 13.417-23.442 13.417-12.867 0-23.36-6.054-23.36-13.417 0-7.444 10.493-13.417 23.36-13.417z"></path>
<path fill="#c8c8c8" style="fill: var(--color5, #c8c8c8)" d="M19.838 12.61l-13.851 1.963 12.541-1.472c0.82-0.082 1.64-0.082 2.293 0.163l1.394 0.571-2.377-1.225zM20.084 16.945l-2.868 3.928 2.622-3.355c0.247-0.328 0.573-0.574 0.82-0.738l1.477-0.899-2.050 1.062zM22.543 19.317c-0.082-0.492-0.082-0.983 0.081-1.228l0.739-1.635-1.394 2.127 2.377 7.526-1.803-6.79zM28.608 16.945l-2.050-1.064 1.147 0.736c0.41 0.247 0.739 0.41 1.23 1.064l2.54 3.192-2.868-3.93zM28.936 12.61l-2.377 1.227 1.64-0.655c0.492-0.244 1.067-0.163 1.885-0.081l12.457 1.474-13.605-1.966zM27.461 10.645l-1.393 1.88 1.31-1.554c0.165-0.163 0.247-0.245 0.494-0.41l3.605-2.371-4.017 2.453zM22.543 9.909l1.803-6.79-2.377 7.444 1.394 1.964-0.739-1.391c-0.081-0.408-0.163-0.899-0.081-1.227z"></path>
<path fill="#c8c8c8" style="fill: var(--color5, #c8c8c8)" d="M26.723 10.563l-2.377-7.528v10.965l2.377-3.438zM28.608 12.2l2.869-4.008-6.147 5.643 3.278-1.635zM42.624 14.572h-17.621l3.768 1.882 13.853-1.882zM23.771 14.572l-3.852 1.882-13.851-1.882h17.705zM17.216 8.19l2.869 4.009 3.36 1.635-6.229-5.644zM17.216 20.873l4.098-2.373 2.132-3.192-6.229 5.565zM31.477 20.873l-6.312-5.565 2.214 3.192 4.099 2.373zM24.346 15.144l2.377 3.436-2.377 7.528v-10.964z"></path>
<path fill="#c8c8c8" style="fill: var(--color5, #c8c8c8)" d="M21.314 10.563l-4.099-2.373 3.362 2.127c0.573 0.328 0.902 0.736 0.902 0.736l1.147 1.474-1.312-1.964z"></path>
<path fill="#202020" style="fill: var(--color2, #202020)" d="M138.444 19.582v-4.553h-10.366v4.553h-5.318v-12.070c0-0.001 0-0.003 0-0.005 0-2.855 2.314-5.169 5.169-5.169 0.004 0 0.009 0 0.013 0h10.779c2.834 0 5.182 2.347 5.182 5.173v12.070h-5.458zM128.078 10.754h10.366v-2.071c0-1.172-0.968-2.138-2.072-2.138h-6.22c-1.106 0-2.074 0.966-2.074 2.139v2.069zM161.524 19.582v-3.243c0-0.759-0.553-1.309-1.245-1.309h-9.12v4.553h-5.32v-17.243h16.789c0.008-0 0.018-0 0.027-0 2.351 0 4.258 1.906 4.258 4.258 0 0.007-0 0.014-0 0.021v-0.001 3.724c0 1.448-1.106 2.621-2.555 2.621 1.451 0 2.555 1.172 2.555 2.551v4.072l-5.39-0.003zM151.159 10.754h8.154c1.243 0 2.142-0.898 2.142-2.071 0-1.172-0.899-2.138-2.142-2.138h-8.151v4.209zM174.24 19.582v-17.245h-5.391v17.245h5.391zM189.995 12.891h0.692c0.622 0 1.173 0.552 1.173 1.173 0 0.689-0.552 1.24-1.173 1.24h-14.511v4.277h16.861c2.35 0 4.282-1.932 4.282-4.346v-2.001c-0.015-2.358-1.924-4.265-4.281-4.276h-10.296c-0.622 0-1.175-0.55-1.175-1.24 0-0.622 0.553-1.173 1.173-1.173h13.614v-4.206h-15.823c-2.418 0-4.354 1.931-4.354 4.276v1.999c0 2.347 1.935 4.277 4.354 4.277l9.464-0.002zM130.083 26.824v-1.172h1.935v4.344c0 0.968-0.83 1.795-1.867 1.795h-3.87c-0.984-0.018-1.777-0.811-1.795-1.793l-0-0.002v-4.343h1.934v3.928c0 0.413 0.346 0.692 0.692 0.692h2.211c0.414 0 0.762-0.277 0.762-0.69v-2.76zM153.992 31.79v-1.105c0-0.003 0-0.007 0-0.011 0-0.261-0.212-0.472-0.472-0.472-0.004 0-0.008 0-0.011 0h-3.247v1.588h-1.935v-6.138h6.011c0.899 0 1.589 0.69 1.589 1.515v1.379c0 0.486-0.414 0.899-0.968 0.899 0.007-0 0.015-0 0.023-0 0.522 0 0.945 0.423 0.945 0.945 0 0.008-0 0.015-0 0.023l0-0.001v1.379h-1.935zM150.261 28.686h2.901c0.418-0.003 0.756-0.341 0.76-0.758v-0c-0.005-0.418-0.344-0.755-0.762-0.759h-2.899v1.518zM197.527 4.062c0-1.173 0.968-2.138 2.141-2.138 1.175 0 2.142 0.966 2.142 2.138 0 1.173-0.968 2.069-2.142 2.069-1.173 0-2.141-0.896-2.141-2.069zM201.464 4.062c0-1.033-0.76-1.792-1.797-1.792-0.004-0-0.008-0-0.012-0-0.985 0-1.783 0.798-1.783 1.783 0 0.003 0 0.006 0 0.010v-0c0 0.966 0.829 1.725 1.795 1.725 1.036 0 1.797-0.759 1.797-1.725zM200.704 5.236h-0.414l-0.692-1.103h-0.413v1.103h-0.346v-2.414h1.036c0.207 0 0.413 0 0.552 0.137 0.168 0.114 0.277 0.304 0.277 0.519 0 0.012-0 0.024-0.001 0.036l0-0.002c0 0.482-0.346 0.62-0.692 0.62l0.693 1.103zM199.598 3.857c0.277 0 0.762 0.069 0.762-0.414 0-0.276-0.277-0.344-0.553-0.344h-0.622v0.759h0.413zM161.109 30.272v-0.829h5.32v-1.518h-5.318v-0.759h5.318v-1.515h-7.253v5.242c0.010 0.492 0.407 0.888 0.898 0.896h6.357v-1.518h-5.321zM192.067 27.166h-0.692c-0.418 0.004-0.755 0.341-0.76 0.758v1.727c0 0.411 0.346 0.62 0.762 0.62h3.867v1.518h-4.282c-0.002 0-0.005 0-0.008 0-1.027 0-1.859-0.832-1.859-1.859 0-0.002 0-0.003 0-0.005v0-2.414c0-1.035 0.829-1.861 1.865-1.861h4.283v1.515h-3.177zM158.484 31.79v-6.138h-1.935v6.138h1.935zM113.57 31.79v-3.864c-0.005-0.418-0.344-0.755-0.762-0.759h-2.972v4.623h-1.865v-6.138h5.667c1.035 0 1.865 0.826 1.865 1.861v4.277h-1.935zM121.929 31.79c0.968 0 1.797-0.829 1.797-1.864v-2.414c0-1.035-0.829-1.861-1.798-1.861h-5.594v6.138h5.595zM118.199 27.166h3.109c0.414 0 0.762 0.209 0.762 0.623v1.723c0 0.411-0.347 0.759-0.762 0.759h-3.109v-3.106zM137.547 29.445h0.207c0.276 0 0.414 0.207 0.414 0.414 0 0.206-0.139 0.413-0.414 0.413h-5.182v1.518h6.013c0.898 0 1.589-0.69 1.589-1.518v-0.69c0-0.898-0.692-1.588-1.589-1.588h-3.666c-0.207 0-0.413-0.137-0.413-0.411 0-0.209 0.207-0.416 0.413-0.416h4.838v-1.515h-5.597c-0.899 0-1.591 0.69-1.591 1.515v0.759c0 0.829 0.692 1.518 1.591 1.518l3.386 0.002zM172.236 29.445h0.207c0.207 0 0.414 0.207 0.414 0.414 0 0.206-0.209 0.413-0.414 0.413h-5.182v1.518h6.011c0.83 0 1.521-0.69 1.521-1.518v-0.69c0-0.898-0.692-1.588-1.521-1.588h-3.662c-0.207 0-0.414-0.137-0.414-0.411 0-0.209 0.207-0.416 0.414-0.416h4.837v-1.515h-5.666c-0.829 0-1.519 0.69-1.519 1.515v0.759c0 0.829 0.69 1.518 1.519 1.518l3.454 0.002zM195.869 31.79v-1.518h1.519v1.518h-1.519zM197.318 22.685v-0.966h-140.55v0.966h140.55zM180.389 31.721v-6.138h-1.935v6.138h1.935zM186.677 28.547v-0.756c0-0.416-0.346-0.69-0.76-0.69h-2.971v4.62h-1.865v-6.138h5.666c1.036 0 1.865 0.827 1.865 1.792v4.346h-1.935v-3.174zM147.636 25.652h-7.258v1.515h2.697v4.623h1.935v-4.623h2.626v-1.515zM120.823 15.237h-8.914c-0.899 0-1.726-0.759-1.726-1.725v-11.173h-5.321v14.621c0 1.449 1.175 2.622 2.557 2.622h13.406v-4.344zM106.728 31.79v-6.138h-1.935v6.138h1.935z"></path>
<path fill="#202020" style="fill: var(--color2, #202020)" d="M130.083 26.824v-1.172h1.935v4.344c0 0.968-0.83 1.795-1.867 1.795h-3.87c-0.984-0.018-1.777-0.811-1.795-1.793l-0-0.002v-4.343h1.934v3.928c0 0.413 0.346 0.692 0.692 0.692h2.211c0.414 0 0.762-0.277 0.762-0.69v-2.76zM153.992 31.79v-1.105c0-0.003 0-0.007 0-0.011 0-0.261-0.212-0.472-0.472-0.472-0.004 0-0.008 0-0.011 0h-3.247v1.588h-1.935v-6.138h6.011c0.899 0 1.589 0.69 1.589 1.515v1.379c0 0.486-0.414 0.899-0.968 0.899 0.007-0 0.015-0 0.023-0 0.522 0 0.945 0.423 0.945 0.945 0 0.008-0 0.015-0 0.023l0-0.001v1.379h-1.935zM150.261 28.686h2.901c0.418-0.003 0.756-0.341 0.76-0.758v-0c-0.005-0.418-0.344-0.755-0.762-0.759h-2.899v1.518zM161.109 30.272v-0.829h5.32v-1.518h-5.318v-0.759h5.318v-1.515h-7.253v5.242c0.010 0.492 0.407 0.888 0.898 0.896h6.357v-1.518h-5.321zM192.067 27.166h-0.692c-0.418 0.004-0.755 0.341-0.76 0.758v1.727c0 0.411 0.346 0.62 0.762 0.62h3.867v1.518h-4.282c-0.002 0-0.005 0-0.008 0-1.027 0-1.859-0.832-1.859-1.859 0-0.002 0-0.003 0-0.005v0-2.414c0-1.035 0.829-1.861 1.865-1.861h4.283v1.515h-3.177zM158.484 31.79v-6.138h-1.935v6.138h1.935zM121.929 31.79c0.968 0 1.797-0.829 1.797-1.864v-2.414c0-1.035-0.829-1.861-1.798-1.861h-5.594v6.138h5.595zM118.199 27.166h3.109c0.414 0 0.762 0.209 0.762 0.623v1.723c0 0.411-0.347 0.759-0.762 0.759h-3.109v-3.106zM137.547 29.445h0.207c0.276 0 0.414 0.207 0.414 0.414 0 0.206-0.139 0.413-0.414 0.413h-5.182v1.518h6.013c0.898 0 1.589-0.69 1.589-1.518v-0.69c0-0.898-0.692-1.588-1.589-1.588h-3.666c-0.207 0-0.413-0.137-0.413-0.411 0-0.209 0.207-0.416 0.413-0.416h4.838v-1.515h-5.597c-0.899 0-1.591 0.69-1.591 1.515v0.759c0 0.829 0.692 1.518 1.591 1.518l3.386 0.002zM195.869 31.79v-1.518h1.519v1.518h-1.519zM180.389 31.721v-6.138h-1.935v6.138h1.935zM186.677 28.547v-0.756c0-0.416-0.346-0.69-0.76-0.69h-2.971v4.62h-1.865v-6.138h5.666c1.036 0 1.865 0.827 1.865 1.792v4.346h-1.935v-3.174zM147.636 25.652h-7.258v1.515h2.697v4.623h1.935v-4.623h2.626v-1.515zM62.156 6.546h9.053c0 0 0.001 0 0.002 0 0.724 0 1.31 0.587 1.31 1.31 0 0 0 0 0 0v0 1.586c0 0.724-0.587 1.31-1.31 1.31v0h-9.054v-4.207zM73.627 2.338h-16.859v17.245h5.388v-4.623h11.471c0.008 0 0.018 0 0.027 0 2.351 0 4.258-1.906 4.258-4.258 0-0.006 0-0.013-0-0.019v0.001-4.069c-0.014-2.359-1.925-4.268-4.284-4.277h-0.001zM85.029 19.582c-2.901 0-5.181-2.347-5.181-5.173v-6.897c0-0.001 0-0.002 0-0.003 0-2.855 2.315-5.17 5.17-5.17 0.004 0 0.007 0 0.011 0h12.507c2.834 0 5.184 2.347 5.184 5.173v6.897c0 2.828-2.35 5.173-5.184 5.173h-12.506zM91.249 3.235l-1.314 5.379-2.763-1.792 1.519 2.827-7.531 1.31 7.531 1.242-1.519 2.828c0-0.069 2.763-1.723 2.763-1.723l1.314 5.379 1.31-5.379s2.766 1.655 2.834 1.723l-1.519-2.828 7.531-1.24-7.531-1.31 1.519-2.828-2.834 1.792-1.31-5.379z"></path>
</symbol>
<symbol id="icon-nvidia" viewBox="0 0 166 32">
<title>nvidia</title>
<path fill="#202020" style="fill: var(--color2, #202020)" d="M162.588 24.237v-0.456h0.291c0.164 0 0.383 0.013 0.383 0.207 0 0.21-0.128 0.248-0.309 0.248h-0.365zM162.588 24.557h0.201l0.437 0.797h0.492l-0.492-0.829c0.255-0.019 0.474-0.143 0.474-0.492 0-0.434-0.292-0.574-0.802-0.574h-0.728v1.895h0.418v-0.797zM164.701 24.409c0-1.112-0.856-1.758-1.821-1.758-0.967 0-1.823 0.646-1.823 1.758s0.856 1.76 1.822 1.76 1.822-0.648 1.822-1.76zM164.191 24.409c0 0.811-0.601 1.354-1.312 1.354v-0.006c-0.711 0.006-1.293-0.537-1.293-1.348 0-0.81 0.583-1.352 1.293-1.352s1.312 0.541 1.312 1.352zM97.923 5.583l0.002 19.964h5.615v-19.964h-5.617zM53.758 5.556v19.991h5.664v-15.179l4.388 0.001c1.453 0 2.488 0.364 3.189 1.114 0.888 0.949 1.25 2.483 1.25 5.286v8.778h5.487v-11.046c0-7.883-5.002-8.946-9.898-8.946h-10.081zM106.964 5.585v19.962h9.106c4.851 0 6.434-0.81 8.149-2.626 1.209-1.276 1.991-4.075 1.991-7.136 0-2.805-0.661-5.31-1.816-6.868-2.080-2.788-5.077-3.332-9.549-3.332h-7.88zM112.533 9.931h2.414c3.501 0 5.766 1.581 5.766 5.677 0 4.1-2.264 5.679-5.766 5.679h-2.414v-11.358zM89.83 5.585l-4.687 15.822-4.49-15.823h-6.058l6.411 19.962h8.092l6.462-19.96h-5.729zM128.822 25.547h5.614v-19.961h-5.614v19.961zM144.561 5.59l-7.839 19.95h5.536l1.241-3.526h9.269l1.184 3.526h6.013l-7.907-19.95h-7.497zM148.206 9.231l3.395 9.346h-6.904l3.509-9.346z"></path>
<path fill="#898989" style="fill: var(--color6, #898989)" d="M17.801 9.506v-2.849c0.275-0.019 0.552-0.034 0.836-0.044 7.757-0.243 12.844 6.695 12.844 6.695s-5.495 7.667-11.388 7.667c-0.009 0-0.020 0-0.031 0-0.809 0-1.587-0.135-2.312-0.384l0.050 0.015v-8.637c3.019 0.366 3.626 1.706 5.441 4.745l4.039-3.42s-2.947-3.882-7.915-3.882c-0.541 0-1.059 0.039-1.565 0.094zM17.801 0.097v4.255c0.278-0.022 0.557-0.041 0.836-0.050 10.787-0.365 17.814 8.883 17.814 8.883s-8.072 9.857-16.481 9.857c-0.77 0-1.492-0.072-2.169-0.192v2.631c0.578 0.074 1.181 0.117 1.806 0.117 7.826 0 13.484-4.013 18.965-8.764 0.908 0.732 4.628 2.508 5.394 3.287-5.212 4.381-17.354 7.912-24.238 7.912-0.663 0-1.302-0.041-1.927-0.102v3.697h29.742v-31.531h-29.742zM17.801 20.606v2.244c-7.239-1.295-9.248-8.852-9.248-8.852s3.476-3.866 9.247-4.492v2.463h-0.011c-3.028-0.366-5.396 2.475-5.396 2.475s1.327 4.785 5.407 6.162zM4.946 13.672s4.289-6.357 12.855-7.015v-2.306c-9.489 0.766-17.704 8.835-17.704 8.835s4.653 13.511 17.704 14.746v-2.451c-9.578-1.212-12.855-11.81-12.855-11.81z"></path>
</symbol>
<symbol id="icon-amd" viewBox="0 0 134 32">
<title>amd</title>
<path d="M31.511 29.873h-7.441l-2.276-5.491h-12.401l-2.074 5.491h-7.318l11.181-27.731h8.010l12.32 27.731zM15.288 8.769l-4.066 10.775h8.539l-4.473-10.774zM58.541 2.143h6.018v27.731h-6.913v-17.321l-7.481 8.7h-1.057l-7.481-8.7v17.321h-6.913v-27.73h6.018l8.904 10.287 8.906-10.287zM82.074 2.143c10.124 0 15.327 6.301 15.327 13.905 0 7.969-5.041 13.826-16.1 13.826h-11.466v-27.731h12.239zM76.747 24.791h4.512c6.953 0 9.027-4.718 9.027-8.784 0-4.758-2.562-8.782-9.108-8.782h-4.431v17.566h0zM125.453 8.718h-14.299l-8.716-8.718h31.732v31.733l-8.716-8.717zM111.144 23.026v-12.561l-8.974 8.974v12.561h12.56l8.973-8.974z"></path>
</symbol>
<symbol id="icon-news-corp" viewBox="0 0 129 32">
<title>news-corp</title>
<path d="M84.457 18.518c-0.367 0-0.512-0.423-0.095-0.903 1.336-0.949 1.861-1.243 1.933-1.278 0.861 0-0.788 2.181-1.839 2.181zM128.313 13.748c-0.067-0.057-0.143-0.109-0.222-0.155l-0.007-0.004c-0.018-0.013-0.033-0.027-0.054-0.040-0.67-0.431-1.403-0.239-1.403-0.239s0.138 0.25-0.544 0.807c-0.036 0.029-0.068 0.059-0.098 0.092l-0.001 0.001-0.058 0.048c-2.481 2.020-5.788 3.621-9.237 4.297 1.116-0.655 3.758-3.151 1.922-4.497-1.070-0.785-2.968-0.44-4.758 0.458 0.207-0.335 0.7-1.047 0.502-1.903s-1.839-1.104-2.749-0.781c-0.030 0.885-0.172 1.356-0.326 1.551-4.015 3.53-9.269 5.406-9.699 4.977-0.35-0.349 0.826-1.725 1.216-2.274 0.326-0.458 0.334-1.016 0.103-1.436-0.361-0.656-1.035-0.695-2.281-0.423-1.722 0.293-2.944-0.323-3.972-1.889-0.505-0.768-1.732-0.614-2.364-0.194 0.157 0.496 0.115 0.998-0.034 1.506-1.057 2.447-4.246 2.464-5.453 1.633-0.172-0.512-0.624-1.459-1.535-1.597-2.815-0.43-3.783 1.295-4.245 1.821-1 1.14-7.77 4.1-9.353 2.815-1.165-0.945-0.186-4.384 2.037-7.827 3.296-5.199 4.789-5.138 5.316-4.612 0.326 0.325 0.645 1.046-0.018 2.32-0.072 0.141-0.119 0.226-0.168 0.311l0.026-0.050c-1.139 1.866-1.582 1.771-1.582 1.771-0.372 1.121 0.104 1.732 0.456 2.014 0.381 0.375 0.927 0.247 1.095 0.189 0.558-0.192 0.904-0.68 1.224-1.176 1.593-2.468 2.587-6.391-0.024-7.81-1.868-1.016-5.014 0.356-8.494 5.988-3.091 5.003-3.966 8.943-1.737 10.81 2.714 2.273 8.417-0.726 10.293-1.594-0.052 0.379 0.095 2.28 1.98 2.173 2.412-0.142 3.904-2.218 4.546-3.277 0.94 0.544 5.058 1.323 7.556-2.424 0.269 0.227 1.773 1.32 3.778 1.32-0.709 1.297-1.622 2.852-0.273 3.919 1.891 1.495 8.372-2.105 10.26-3.215-1.073 1.95-2.939 6.358-4.822 10.267-0.775 1.61-1.856 3.773-0.718 4.348 0.884 0.446 2.211-0.014 2.411-1.173 0.261-1.515 1.726-5.74 2.766-8.028 1.975-4.387 3.751-6.659 6.751-6.659-0.186 0.358-0.242 0.639-1.239 1.634-1.087 1.085-2.301 1.022-2.239 2.193 0.036 0.69 0.744 0.884 0.941 0.937 1.564 0.421 5.895-0.863 7.616-1.491 1.979-0.722 4.669-2.043 6.66-3.31 0.94-0.598 1.028-1.47 0.256-2.122zM60.702 9.341c-1.666 0.123-3.681 0.675-4.428 2.346-0.618 1.381-0.131 2.837 1.167 4.472 0.832 1.015 1.594 1.879 1.811 2.114-0.599 0.126-1.903 0.081-3.212-0.159l-0.016-0.003c-0.299-0.055-0.597-0.121-0.888-0.197-0.739-0.233-0.942-0.531-0.942-0.531l-0.108 0.079v-0.005l0.108-0.074c-0.5 0.069-0.916 0.416-1.211 0.799s-0.598 1.125-0.341 1.482c0.219 0.303 0.654 0.47 1.483 0.498 1.281 0.060 4.731 0.516 6.006 0.659 0.984 0.11 1.647-0.603 1.84-1.073 0.261-0.626-0.008-1.315-0.338-1.697-1.637-1.889-3.93-3.952-3.098-5.677 0.381-0.79 2.223-0.631 2.831-0.451 1.297 0.386 1.941-0.084 2.236-0.952 0.19-0.558-0.149-1.834-2.898-1.632zM26.96 11.516c0.233 0.232-0.264 0.756-0.702 1.041-1.2 0.778-2.41 1.23-3.272 1.548 0.936-1.915 3.647-3.044 3.974-2.589zM54.781 15.696c0.654-0.366 0.916-1.123 0.393-1.75s-1.559-0.575-2.021-0.296c-0.387 0.233-0.835 0.635-2.168 0.704-1.255 0.065-1.759-0.474-2.552-0.474-0.886 0-1.244 0.621-2.341 1.987-0.559 0.695-1.816 2.294-2.391 2.294-0.487 0-0.673-1.401-0.673-3.223 0-0.828-0.365-1.499-1.309-1.437-0.785 0.052-0.916 1.071-1.327 1.549-1.23 1.43-2.218 2.829-2.72 2.829-0.619 0-0.857-1.351-0.857-2.393 0 0 0.193-1.646-1.299-1.933-0.648-0.124-1.323 0.235-1.323 0.235 0.062 0.125 0.080 0.253 0.068 0.382-0.189 0.69-1.486 1.675-1.486 1.675h0c-1.387 1.016-4.158 2.801-6.656 2.934-2.918 0.155-3.429-1.377-3.531-2.046 2.515-0.922 4.192-1.974 5.277-2.813 1.151-0.891 1.911-1.878 1.844-2.844-0.091-1.308-1.28-1.781-2.222-1.781-2.029 0-5.396 0.873-7.015 5.315-0.348 0.112-1.175 0.118-1.615 0.003-0.588-0.153-0.578-0.404-0.578-0.404-0.55 0.142-0.787 0.41-0.981 0.886-0.31 0.762 0.1 1.418 0.728 1.766 0.455 0.253 1.175 0.413 2.191 0.293 0.143 1.346 1.038 3.803 5.816 3.617 3.795-0.147 8.237-3.264 8.636-3.508 0.169 0.778 0.704 3.568 2.318 3.568 1.938 0 3.925-2.888 3.925-2.888s0.505 2.907 2.453 2.907c1.624 0 3.663-2.526 4.172-3.127 0.423-0.501 1.245-1.463 1.694-1.463 0.439-0.075 1.31 0.507 3.806 0.010 0.056-0.011 1.184-0.262 1.746-0.575zM23.846 1.676c0.175-0.461 0.023-1.022-0.263-1.236-0.951-0.712-1.814-0.315-2.459 0.391-0.757 0.828-1.74 2.623-2.156 3.294-3.821 6.164-6.733 12.752-6.733 12.752s-1.011-3.068-1.151-5.505c-0.132-2.298-0.237-4.492-0.336-5.566-0.032-0.43-0.214-1.103-0.967-1.349-0.581-0.19-1.427-0.264-2.020-0.045-0.048 0.734-0.079 1.088-0.385 1.956s-2.275 4.693-2.61 5.288c-1.713 3.046-3.973 6.833-4.104 7.077-0.461 0.853-1.101 2.016-0.005 2.427s2.058 0.192 2.531-0.509c0.091-0.135 0.217-0.387 0.217-0.387s-0.319-0.262 0.364-1.851c0.524-1.123 0.762-1.598 1.004-2.072l-0.289 0.623c0.052-0.096 0.107-0.195 0.164-0.296 0.082-0.146 0.139-0.273 0.183-0.391 1.125-2.218 2.623-5.078 3.96-7.585-0.010 1.46 0.113 3.266 0.313 4.578 0.305 2.559 0.933 3.638 1.168 5.679-0.047 1.379 0.090 1.617 1.097 1.894 0.941 0.259 1.49-0 1.843-0.869 1.36-3.427 5.268-11.297 8.588-15.567 0.347-0.447 1.666-1.729 2.047-2.732z"></path>
</symbol>
<symbol id="icon-jet-airways" viewBox="0 0 182 32">
<title>jet-airways</title>
<path d="M178.451 7.082c0.075-2.006-0.341-3.705-1.327-4.939-3.033-3.666-10.276-1.197-16.118 5.479-5.878 6.678-8.153 15.051-5.158 18.717 3.033 3.666 10.278 1.234 16.156-5.44 0.91-1.082 1.782-2.201 2.503-3.321l-9.67-1.002 13.994-1.853-15.437-2.24 18.699-1.965-15.245-1.583 11.603-1.85zM142.006 7.082c1.101 0 2.125 0.348 2.808 0.348 0.189-0.039 0.341 0 0.341 0.27 0 0.077-0.038 0.115-0.038 0.193 0 0.348 0.189 1.119 0.189 2.083 0 0.387-0.114 0.501-0.38 0.501-0.303 0-0.378-0.191-0.417-0.423-0.075-0.58-0.152-0.849-0.455-1.159-0.493-0.54-1.213-0.771-2.237-0.771-1.743 0-2.655 1.042-2.578 2.315 0.075 1.466 1.213 2.239 3.224 3.437 2.769 1.736 3.603 2.855 3.603 4.744 0 2.045-1.594 4.323-5.537 4.323-0.988 0-1.973-0.153-2.845-0.541-0.341-0.153-0.378-0.231-0.378-0.886-0.039-0.811-0.039-1.892 0-2.278 0.075-0.231 0.113-0.385 0.417-0.385 0.227 0 0.341 0.115 0.378 0.424 0 0.193 0.038 0.579 0.114 0.925 0.417 1.544 1.859 1.738 2.844 1.738 1.973 0 3.111-1.235 3.111-2.546 0-1.661-0.949-2.549-3.603-4.092-2.656-1.504-3.186-3.087-3.149-4.438 0.075-2.276 1.782-3.782 4.589-3.782zM65.212 15.032c0-0.927 0.038-4.669 0.038-7.448 0-0.078-0.038-0.156-0.152-0.156h-3.185c-0.378 0-0.493 0.078-0.493 0.387 0 0.232 0.077 0.348 0.305 0.385 1.060 0.078 1.213 0.58 1.251 1.892 0.038 1.928 0.038 3.395 0.038 4.939 0 2.006-0.038 4.632-0.114 7.41 0 0.114 0.077 0.193 0.153 0.193h2.047c0.114 0 0.153-0.079 0.153-0.195-0.039-2.738-0.039-5.131-0.039-7.409zM125.966 14.607c0.378 0.618 0.757 1.158 1.062 1.66 0 1.813-0.039 3.935-0.075 6.175 0 0.114 0.036 0.193 0.152 0.193h2.009c0.113 0 0.189-0.079 0.189-0.195-0.038-2.239-0.077-4.284-0.077-6.173 1.707-2.78 3.68-5.83 5.5-8.646 0.077-0.115 0.038-0.193-0.075-0.193h-2.883c-0.341 0-0.493 0.078-0.493 0.387 0 0.232 0.113 0.348 0.339 0.385 0.608 0.117 0.76 0.502 0.417 1.081-1.060 1.814-2.237 3.704-3.374 5.557-0.303-0.501-0.607-0.964-0.91-1.466-1.252-1.93-2.276-3.588-3.641-5.788-0.075-0.117-0.114-0.156-0.303-0.156h-2.351c-0.114 0-0.152 0.078-0.077 0.195 0.296 0.326 1.809 2.603 3.306 4.892l1.284 2.093zM118.646 22.44c0.075 0.115 0.113 0.195 0.227 0.195h2.237c0.115 0 0.153-0.079 0.115-0.195-1.215-2.662-2.504-5.672-3.263-7.524-0.78-1.699-1.742-4.124-2.615-6.591l-0.229-0.741c-0.039-0.078-0.114-0.156-0.227-0.156h-2.467c-0.341 0-0.493 0.078-0.493 0.387 0 0.232 0.114 0.348 0.342 0.385 0.493 0.078 0.871 0.271 0.871 0.927 0 0.348-0.152 0.772-0.339 1.235-0.918 2.429-1.545 3.932-2.197 5.42l0.339-0.866c-1.632 4.042-2.728 6.521-3.866 8.976l0.603-1.45c-0.036 0.114 0 0.193 0.114 0.193h1.402c0.115 0 0.191-0.079 0.23-0.195 0.53-1.389 1.023-2.585 1.478-3.782h6.221c0.493 1.274 1.024 2.586 1.517 3.783zM111.364 17.423c0.227-0.54 0.456-1.080 0.644-1.619 0.57-1.39 1.102-2.702 1.934-4.747 0.874 2.045 1.405 3.357 1.973 4.747l0.682 1.619h-5.233zM103.819 7.43c-0.342 0-0.494 0.078-0.494 0.387 0 0.232 0.153 0.348 0.342 0.385 0.644 0.117 0.796 0.657 0.608 1.313-0.608 1.697-1.101 3.203-1.632 4.746-0.454 1.312-0.91 2.585-1.555 4.477-0.719-1.969-1.174-3.125-1.668-4.477-0.796-2.122-1.44-3.821-2.389-6.406-0.114-0.27-0.189-0.426-0.455-0.426-0.264 0-0.341 0.156-0.455 0.426-3.522 10.877-4.294 13-5.072 15.12l2.796-8.714c-0.493 1.312-0.947 2.585-1.668 4.477-0.682-1.969-1.099-3.125-1.593-4.477-0.758-2.122-1.44-4.090-2.351-6.675-0.038-0.078-0.075-0.156-0.188-0.156h-2.163c-0.113 0-0.152 0.039-0.113 0.156 0.15 0.097 1.112 2.587 2.047 5.089l0.797 2.436c1.252 3.512 1.857 5.092 2.616 7.254 0.114 0.348 0.191 0.54 0.456 0.54 0.302 0 0.417-0.309 0.493-0.54 0.644-1.814 2.162-5.827 2.694-7.254 0.378-1.005 0.796-2.045 1.29-3.242 0.529 1.311 0.757 1.891 1.251 3.242 1.326 3.512 1.971 5.092 2.769 7.254 0.152 0.348 0.227 0.54 0.493 0.54 0.303 0 0.38-0.309 0.493-0.54 1.575-4.869 2.438-7.275 3.327-9.668l-0.785 2.414c0.605-1.66 1.934-5.171 2.842-7.526 0.077-0.078 0-0.156-0.111-0.156h-2.618zM28.845 7.43c-2.237 0-3.374-0.038-6.067-0.077-0.077 0-0.114 0.077-0.153 0.153l-0.302 1.313c0 0.115 0.038 0.193 0.189 0.193 1.31-0.072 3.134-0.143 4.964-0.189l0.269-0.005c0.039 1.931 0.039 4.71 0.039 6.215 0 2.006-0.039 4.632-0.114 7.41 0 0.114 0.039 0.193 0.152 0.193h2.048c0.077 0 0.153-0.079 0.153-0.195-0.039-2.738-0.039-5.131-0.039-7.409 0-0.772 0-3.705 0.038-6.214 1.67 0.039 3.339 0.115 5.082 0.193 0.075 0 0.152-0.038 0.152-0.154l0.303-1.312c0.038-0.117-0.039-0.195-0.115-0.195-2.728 0.042-4.36 0.078-6.598 0.078zM56.111 22.442c0.036 0.115 0.111 0.195 0.188 0.195h2.237c0.115 0 0.191-0.079 0.115-0.195-1.215-2.662-2.504-5.672-3.261-7.524-0.782-1.703-1.744-4.127-2.617-6.594l-0.228-0.738c-0.039-0.078-0.114-0.156-0.227-0.156h-2.468c-0.339 0-0.491 0.078-0.491 0.387 0 0.232 0.113 0.348 0.341 0.385 0.493 0.078 0.871 0.271 0.871 0.927 0 0.348-0.152 0.772-0.339 1.235-0.918 2.429-1.545 3.932-2.197 5.42l0.339-0.866c-1.632 4.042-2.728 6.521-3.866 8.976l0.603-1.45c-0.038 0.114 0 0.193 0.114 0.193h1.441c0.077 0 0.153-0.079 0.191-0.195 0.53-1.389 1.023-2.585 1.478-3.782h6.221c0.694 1.84 1.218 3.088 1.771 4.321l-0.216-0.538zM48.79 17.425c0.228-0.54 0.456-1.080 0.644-1.619 0.57-1.39 1.101-2.702 1.935-4.747 0.872 2.045 1.44 3.357 2.010 4.747 0.189 0.54 0.417 1.080 0.644 1.619h-5.234zM74.086 8.589c0.429-0.047 0.93-0.075 1.437-0.078l0.005-0c2.2 0 3.603 1.042 3.603 3.474 0 1.892-0.986 3.395-3.261 3.395-0.721 0-1.441-0.114-1.823-0.231 0-1.273 0.039-3.473 0.039-6.56zM76.626 16.499c1.67 2.547 2.617 3.897 3.793 4.978 0.986 0.888 2.162 1.273 3.527 1.273 1.062 0 2.161-0.153 2.161-0.501 0-0.232-0.188-0.27-0.757-0.348-1.138-0.192-1.898-0.54-3.224-1.736-1.063-0.964-2.276-2.546-3.45-4.321 1.479-0.811 2.691-2.317 2.691-4.285 0-3.279-3.108-4.129-5.497-4.129h-5.12c-0.341 0-0.493 0.078-0.493 0.387 0 0.232 0.111 0.348 0.339 0.385 1.025 0.078 1.177 0.58 1.215 1.892 0.038 1.928 0.038 3.395 0.038 4.939 0 2.006 0 4.632-0.114 7.41 0 0.114 0.077 0.193 0.191 0.193h2.009c0.114 0 0.153-0.079 0.153-0.195 0-2.198-0.039-4.206-0.039-6.058 0.682 0.077 1.363 0.153 2.239 0.115h0.339zM15.228 21.286c-0.038-2.123-0.038-4.053-0.038-5.866 0.986 0.038 2.731 0.193 4.096 0.269 0.114 0 0.153-0.038 0.189-0.153l0.303-1.312c0-0.117-0.038-0.193-0.152-0.193-1.323 0.073-2.873 0.114-4.434 0.115h-0.003c0-1.273 0-3.473 0.039-5.44 1.251 0.036 2.655 0.191 4.437 0.306 0.113 0 0.152-0.036 0.189-0.153l0.303-1.312c0-0.117-0.038-0.195-0.153-0.195-2.009 0.042-3.638 0.078-5.422 0.078h-2.73c-0.342 0-0.494 0.078-0.494 0.387 0 0.232 0.114 0.348 0.342 0.385 1.060 0.078 1.213 0.58 1.251 1.892 0.039 1.928 0.039 3.395 0.039 4.939 0 2.006-0.039 4.632-0.114 7.41 0 0.114 0.038 0.193 0.15 0.193h2.049c1.668 0 3.336 0.038 5.12 0.038 0.113 0 0.15-0.038 0.189-0.154l0.264-1.312c0.039-0.115 0-0.195-0.113-0.195-1.455 0.119-3.301 0.217-5.158 0.268l-0.152 0.003zM6.394 7.583c0-0.078-0.077-0.156-0.191-0.156h-3.338c-0.341 0-0.491 0.078-0.491 0.387 0 0.232 0.111 0.348 0.341 0.385 1.099 0.117 1.327 0.463 1.365 1.892 0.038 1.928 0.038 3.395 0.038 4.939 0 2.856 0 4.902-0.038 6.869-0.038 2.972-0.189 4.825-0.91 6.253-1.365 2.663-3.034 2.663-3.034 3.164 0 0.232 0.189 0.387 0.38 0.348 0.721-0.154 5.839-2.084 5.839-9.184 0-2.51-0.038-4.633-0.038-7.449 0-0.927 0.038-4.669 0.077-7.448z"></path>
</symbol>
<symbol id="icon-mozilla" viewBox="0 0 100 32">
<title>mozilla</title>
<path d="M86.838 20.215c0 0.849 0.409 1.521 1.552 1.521 1.345 0 2.778-0.966 2.865-3.158-0.559-0.095-1.214-0.157-1.881-0.172l-0.016-0c-1.35-0.002-2.52 0.378-2.52 1.809z"></path>
<path d="M0 0v32h99.782v-32zM28.247 24.134h-5.519v-7.427c0-2.28-0.761-3.158-2.251-3.158-1.813 0-2.544 1.287-2.544 3.129v4.595h1.745v2.865h-5.519v-7.43c0-2.28-0.759-3.158-2.251-3.158-1.813 0-2.544 1.287-2.544 3.129v4.595h2.508v2.865h-8.041v-2.865h1.754v-7.459h-1.897v-2.865h5.669v1.987c0.79-1.402 2.165-2.251 4.005-2.251 1.897 0 3.655 0.907 4.298 2.837 0.731-1.754 2.221-2.837 4.298-2.837 2.368 0 4.532 1.433 4.532 4.562v6.026h1.754zM36.638 24.425c-4.063 0-6.871-2.485-6.871-6.695 0-3.86 2.339-7.047 7.071-7.047s7.047 3.187 7.047 6.871c0.003 4.212-3.037 6.873-7.247 6.873zM57.631 24.134h-11.521l-0.379-1.989 7.244-8.334h-4.122l-0.585 2.047-2.72-0.291 0.467-4.62h11.59l0.291 1.989-7.313 8.337h4.262l0.614-2.047 2.982 0.291zM64.764 24.134h-3.948v-4.736h3.948zM64.764 15.683h-3.948v-4.734h3.948zM66.834 24.134l5.707-20.108h3.713l-5.702 20.108zM74.495 24.134l5.704-20.108h3.713l-5.698 20.108zM94.142 24.425c-1.754 0-2.718-1.024-2.894-2.632-0.761 1.345-2.106 2.632-4.239 2.632-1.897 0-4.063-1.024-4.063-3.772 0-3.246 3.129-4.005 6.14-4.005 0.044-0 0.097-0.001 0.149-0.001 0.71 0 1.411 0.043 2.099 0.126l-0.083-0.008v-0.438c0-1.345-0.029-2.953-2.165-2.953-0.79 0-1.404 0.059-2.018 0.379l-0.488 1.871-3.011-0.323 0.585-3.42c2.309-0.937 3.479-1.207 5.643-1.207 2.837 0 5.234 1.463 5.234 4.474v5.731c0 0.761 0.291 1.024 0.907 1.024 0.199-0.003 0.39-0.035 0.569-0.092l-0.014 0.004 0.029 1.989c-0.686 0.381-1.503 0.61-2.371 0.621l-0.003 0z"></path>
<path d="M36.783 13.579c-1.93 0-3.129 1.431-3.129 3.918 0 2.28 1.052 4.034 3.104 4.034 1.959 0 3.246-1.578 3.246-4.093-0.005-2.661-1.437-3.86-3.222-3.86z"></path>
</symbol>
<symbol id="icon-harpercollins" viewBox="0 0 303 32">
<title>harpercollins</title>
<path d="M11.395 0.504v-0.026c1.284 0.296 2.438 2.073 2.438 4.065 0 2.584-2.648 4.685-2.57 6.945h0.025c0.63-3.096 5.276-4.925 4.306-8.291 1.311 0.886 1.941 3.339 2.123 5.222 0.579-1.938 3.149-3.149 3.57-4.629h0.025v9.72h-20.363l-0.025-4.981c0-2.991 5.011-2.908 4.619-5.681l0.026-0.031c1.468 2.479-0.839 4.605-0.395 6.195h0.028c1.18-4.737 5.639-3.475 6.639-6.488 0.263-0.838-0.057-1.752-0.447-2.022zM4.466 14.478c-1.183 1.213-2.415 1.777-3.517 1.319v8.914h20.363v-9.425c-1.732 2.129-3.83 1.212-3.622-0.538v-0.029c-3.174 3.798-4.986 1.671-4.484 0.139v-0.028c-2.888 3.577-4.698 1.48-3.833-0.296l-0.026-0.029c-3.645 4.497-5.956 2.855-4.881 0v-0.026zM28.010 8.717c0-1.276-0.186-2.198-2.513-2.225l-0.132-0.217v-0.462c0-0.188 0.237-0.217 0.449-0.217 0.793 0 2.351 0.135 3.519 0.135 1.057 0 2.115-0.135 3.281-0.135 0.552 0 0.687 0 0.687 0.299v0.435c0 0.135-0.319 0.161-0.742 0.161-1.087 0-2.17 0.083-2.17 1.411v6.106h11.35v-5.074c0-1.873 0-2.282-2.143-2.443-0.289-0.026-0.344-0.109-0.344-0.435v-0.324l0.132-0.135c0.874 0.056 2.541 0.135 4.179 0.135 1.693 0 2.381-0.053 3.149-0.135l0.106 0.164v0.515c0 0.217-0.237 0.217-0.636 0.217-1.375 0-2.062 0.243-2.062 1.82v13.434c0 1.955 1.030 2.116 2.541 2.116 0.103 0 0.103 0.409 0.103 0.705 0 0.109-0.103 0.191-0.819 0.191-1.057 0-2.115-0.135-3.174-0.135-0.977 0-2.62 0.135-2.937 0.135-0.687 0-0.819-0.056-0.819-0.161v-0.598l0.132-0.136c2.541 0 2.592-0.541 2.592-2.439v-6.353h-11.347v6.866c0 1.546 0.398 1.926 2.355 1.926 0.288 0 0.369 0.056 0.369 0.301v0.405c0 0.166-0.264 0.191-0.845 0.191-1.085 0-2.172-0.135-3.256-0.135-1.005 0-2.037 0.135-3.043 0.135-0.185 0-0.423 0-0.557-0.161v-0.598l0.188-0.136c1.244 0 2.407-0.109 2.407-1.49v-13.657zM55.151 16.996c0-1.493-0.188-2.634-2.118-2.634-0.714 0-2.038 0.217-2.038 1.005 0 0.192 0.056 0.462 0.132 0.623l-1.664 0.979c-0.098-0.241-0.157-0.52-0.161-0.812l-0-0.002c0-0.871 0.849-1.55 1.405-1.873l2.379-1.415c0.32-0.188 0.451-0.27 0.557-0.27 2.195 0 3.332 1.088 3.332 3.313v5.753c0 0.57 0 1.711 0.845 1.711 0.505 0 0.612-0.217 0.954-0.787l0.501 0.191c-0.314 1.302-0.975 2.361-2.113 2.361-1.799 0-1.985-1.711-1.956-2.387-1.006 1.055-2.33 2.387-3.891 2.387-1.532 0-2.326-2.038-2.326-3.257 0-0.462 0.501-1.329 2.696-2.198l3.466-1.386v-1.302zM55.123 19.059l-2.617 1.22c-0.373 0.166-1.325 0.679-1.325 1.384 0 0.736 0.345 2.116 1.219 2.116 0.925 0 1.824-0.949 2.486-1.599l0.237-0.246v-2.876zM64.356 21.881c0 1.085 0 2.116 2.010 2.116 0.159 0 0.184 0.139 0.184 0.383 0 0.245 0 0.38-0.211 0.38-0.927 0-1.85-0.135-2.777-0.135-1.006 0-2.062 0.135-3.068 0.135-0.106 0-0.106-0.056-0.106-0.218v-0.243c0-0.27 0.051-0.301 0.582-0.327 1.163-0.078 1.375-0.487 1.375-1.955v-6.026c0-0.515-0.237-0.84-0.793-1.002-0.107-0.028-0.793-0.218-0.793-0.598 0-0.164 0.079-0.246 0.369-0.381l1.96-0.92c0.582-0.274 1.030-0.488 1.112-0.488 0.157 0 0.209 0.161 0.209 0.243l-0.051 2.792 0.051 0.056c0.849-1.11 2.066-3.091 3.679-3.091 0.95 0 1.507 0.459 1.507 1.464 0 0.57-0.527 1.057-1.082 1.057-0.717 0-0.981-0.487-1.774-0.487-0.636 0-1.455 0.922-1.983 1.603l-0.398 0.515v5.128zM72.292 16.671c0-1.194-0.056-1.437-0.608-1.682l-0.954-0.435c-0.051 0-0.051-0.056-0.051-0.191 0-0.217 0.026-0.217 0.213-0.323l3.225-1.603c0.159 0.053 0.159 0.245 0.159 0.38 0 0.515-0.051 1.057 0.028 1.572 0.871-0.459 3.069-1.791 3.968-1.791 2.883 0 4.945 2.958 4.945 5.7 0 5.212-5.156 6.841-7.193 6.841-0.582 0-1.138-0.191-1.72-0.243v4.206c0 1.846 0.451 1.955 2.351 2.063 0.107 0 0.188 0.079 0.188 0.163v0.27c0 0.164-0.051 0.326-0.132 0.326-1.137 0-2.248-0.135-3.467-0.135-1.163 0-2.219 0.135-2.908 0.135-0.237 0-0.266-0.109-0.266-0.378v-0.161c0-0.083 0.028-0.218 0.079-0.218 2.012-0.191 2.143-0.217 2.143-2.415v-12.079zM74.303 22.044c0 1.411 1.35 1.873 2.618 1.873 2.699 0 4.1-1.926 4.1-4.694 0-2.39-1.375-4.86-3.917-4.86-1.057 0-1.902 0.217-2.802 0.871v6.81zM87.9 17.512c-0.051 0.378-0.051 0.758-0.051 1.141 0 2.36 1.77 4.721 4.179 4.721 0.977 0 1.664-0.38 2.989-1.6l0.476 0.351c-1.057 1.767-2.645 3.016-4.762 3.016-2.699 0-4.893-2.662-4.893-5.674 0-3.204 2.118-6.867 5.581-6.867 2.355 0 4.024 1.817 4.024 4.071v0.842h-7.541zM92.504 16.754c0.344 0 0.739-0.518 0.739-0.979 0-1.329-0.977-2.278-2.275-2.278-1.586 0-2.673 1.871-2.936 3.392l4.472-0.135zM101.099 21.881c0 1.085 0 2.116 2.012 2.116 0.157 0 0.182 0.139 0.182 0.383 0 0.245 0 0.38-0.209 0.38-0.928 0-1.853-0.135-2.778-0.135-1.006 0-2.063 0.135-3.069 0.135-0.106 0-0.106-0.056-0.106-0.218v-0.243c0-0.27 0.056-0.301 0.582-0.327 1.163-0.078 1.375-0.487 1.375-1.955v-6.026c0-0.515-0.237-0.84-0.793-1.002-0.106-0.028-0.793-0.218-0.793-0.598 0-0.164 0.079-0.246 0.369-0.381l1.96-0.92c0.582-0.274 1.031-0.488 1.112-0.488 0.157 0 0.211 0.161 0.211 0.243l-0.054 2.792 0.056 0.056c0.845-1.11 2.062-3.091 3.674-3.091 0.952 0 1.507 0.459 1.507 1.464 0 0.57-0.526 1.057-1.082 1.057-0.717 0-0.979-0.487-1.774-0.487-0.636 0-1.455 0.922-1.983 1.603l-0.398 0.515v5.128zM125.279 23.673c-1.774 0.897-3.917 1.466-6.323 1.466-5.183 0-10.925-3.775-10.925-10.015 0-5.944 5.37-9.91 10.792-9.91 1.774 0 4.817 0.626 6.35 1.576l0.344 3.149c0.025 0.217 0.079 0.515 0.079 0.648 0 0.192-0.423 0.192-0.529 0.192-0.107 0-0.345-0.435-0.714-1.329-0.768-1.873-3.097-3.178-5.423-3.178-5.055 0-7.936 4.263-7.936 9.148 0 4.451 3.492 8.661 7.936 8.661 1.561 0 3.569-0.57 4.629-1.441 0.821-0.679 1.163-1.898 1.482-2.904 0.025-0.053 0.184-0.053 0.319-0.053 0.211 0 0.607 0.026 0.526 0.405l-0.607 3.584zM134.854 12.6c3.15 0 5.899 2.822 5.899 6.080 0 3.91-3.149 6.46-6.611 6.46-3.2 0-5.742-2.769-5.742-6.081 0-0.005-0-0.011-0-0.017 0-3.558 2.884-6.442 6.442-6.442 0.005 0 0.010 0 0.015 0h-0.001zM134.247 13.496c-2.673 0-3.467 2.578-3.467 5.183 0 2.39 1.244 5.565 3.968 5.565 2.593 0 3.624-2.364 3.624-4.694 0-2.717-0.899-6.052-4.125-6.052zM146.68 22.696c0 0.597 0 1.302 1.824 1.302 0.056 0 0.056 0.166 0.056 0.38 0 0.246-0.026 0.381-0.081 0.381-1.031 0-2.198-0.135-2.751-0.135-0.954 0-1.906 0.135-2.859 0.135-0.184 0-0.238-0.082-0.238-0.191v-0.243c0-0.327 0.081-0.327 0.454-0.327 1.163 0 1.583-0.161 1.583-1.437v-14.657c0-1.711 0-1.82-1.031-2.254-0.395-0.163-0.768-0.298-0.768-0.515 0-0.218 0.267-0.301 1.35-0.732l1.931-0.736c0.054-0.026 0.317-0.135 0.398-0.135 0.186 0 0.186 0.27 0.186 0.435 0 1.302-0.056 2.634-0.056 3.937v14.791zM154.033 22.696c0 0.597 0 1.302 1.825 1.302 0.056 0 0.056 0.166 0.056 0.38 0 0.246-0.031 0.381-0.081 0.381-1.032 0-2.195-0.135-2.755-0.135-0.95 0-1.902 0.135-2.856 0.135-0.182 0-0.237-0.082-0.237-0.191v-0.243c0-0.327 0.079-0.327 0.449-0.327 1.166 0 1.586-0.161 1.586-1.437v-14.657c0-1.711 0-1.82-1.030-2.254-0.397-0.163-0.769-0.298-0.769-0.515 0-0.218 0.267-0.301 1.35-0.732l1.931-0.736c0.056-0.026 0.319-0.135 0.399-0.135 0.186 0 0.186 0.27 0.186 0.435 0 1.302-0.056 2.634-0.056 3.937v14.791zM161.387 22.696c0 0.597 0 1.302 1.825 1.302 0.054 0 0.054 0.166 0.054 0.38 0 0.246-0.026 0.381-0.081 0.381-1.031 0-2.198-0.135-2.751-0.135-0.954 0-1.906 0.135-2.859 0.135-0.184 0-0.237-0.082-0.237-0.191v-0.243c0-0.327 0.079-0.327 0.452-0.327 1.163 0 1.583-0.161 1.583-1.437v-5.592c0-1.711 0-1.82-1.031-2.254-0.395-0.163-0.768-0.298-0.768-0.515s0.267-0.301 1.35-0.735l1.931-0.733c0.056-0.025 0.317-0.135 0.398-0.135 0.186 0 0.186 0.271 0.186 0.435 0 1.302-0.056 2.634-0.056 3.937v5.725zM160.302 4.538c0.821 0 1.483 0.679 1.483 1.519s-0.661 1.521-1.485 1.521c-0.815 0-1.478-0.68-1.478-1.521s0.662-1.519 1.478-1.519zM166.731 15.666c0-0.518-0.238-0.84-0.501-0.896l-0.874-0.218c-0.081-0.026-0.161-0.109-0.161-0.296 0-0.083 0.028-0.27 0.161-0.301 1.323-0.352 3.119-1.354 3.279-1.354 0.107 0 0.107 0.214 0.107 0.323v1.873c1.242-1.002 2.643-2.195 4.337-2.195 2.301 0 3.281 1.327 3.281 3.609v6.62c0 1.17 0.874 1.17 1.747 1.17 0.051 0 0.103 0.053 0.103 0.188v0.491c0 0.053-0.051 0.079-0.132 0.079-1.057 0-1.745-0.135-2.618-0.135-0.954 0-1.878 0.135-2.83 0.135-0.186 0-0.186-0.487-0.186-0.597 0-0.082 0.106-0.161 0.267-0.161 0.423 0 1.638 0 1.638-0.814v-6.379c0-1.683-0.501-2.634-2.354-2.634-1.113 0-2.485 0.679-3.251 1.464v7.058c0 0.6 0 1.305 1.824 1.305 0.051 0 0.051 0.161 0.051 0.38 0 0.243-0.025 0.378-0.077 0.378-1.032 0-2.198-0.135-2.755-0.135-0.95 0-1.901 0.135-2.855 0.135-0.186 0-0.238-0.079-0.238-0.191v-0.245c0-0.323 0.081-0.323 0.449-0.323 1.163 0 1.586-0.164 1.586-1.44v-6.894zM187.232 15.965h-0.661c-0.32-1.194-0.927-2.47-2.326-2.47-1.219 0-2.17 0.597-2.17 1.873 0 1.057 1.402 1.707 2.777 2.496 1.401 0.814 2.776 1.767 2.776 3.448 0 2.361-2.115 3.827-4.257 3.827-1.718 0-3.386-0.787-3.411-1.223l-0.132-2.47 0.765-0.082c0.106 0.139 0.132 0.327 0.186 0.518 0.292 1.112 1.48 2.361 2.643 2.361 1.354 0 2.198-0.842 2.198-2.253 0-0.896-1.217-1.846-1.88-2.198-1.533-0.814-3.492-1.738-3.492-3.801 0-2.253 2.010-3.392 4.022-3.392 1.057 0 2.118 0.299 3.119 0.84l-0.157 2.525zM194.745 10.157c0.319-1.249 0.582-2.39 0.582-2.578 0-0.732-0.526-0.95-1.163-0.95-0.423 0-0.849 0.135-0.925 0.135-0.079 0-0.109-0.082-0.109-0.326 0-0.435 0.081-0.544 0.504-0.57 2.382-0.192 3.599-0.27 5.717-0.27 2.962 0 5.789 1.276 5.789 4.641 0 3.2-2.458 6.24-5.713 6.24-1.137 0-2.221-0.243-2.724-0.758l0.424-0.626c0.344 0.274 0.977 0.491 1.799 0.491 2.118 0 3.757-3.204 3.757-5.377 0-2.251-1.482-3.553-3.705-3.553-0.793 0-1.113 0.083-1.269 0.654l-3.862 14.817c-0.051 0.192-0.238 0.84-0.238 1.032 0 0.679 0.845 0.705 1.639 0.705h0.369c0.161 0 0.241 0.053 0.241 0.243 0 0.161-0.106 0.353-0.186 0.544-0.054 0.109-0.317 0.109-0.501 0.109-0.479 0-1.906-0.139-3.228-0.139-1.244 0-2.463 0.167-2.831 0.139-0.106 0-0.132-0.056-0.132-0.164 0-0.38 0.081-0.732 0.238-0.732 1.642 0 2.037-0.217 2.355-1.493l3.174-12.216zM206.887 15.503c0.9-0.867 2.355-2.905 3.679-2.905 0.527 0 0.925 0.218 0.925 0.842 0 0.381-0.398 1.305-0.504 1.628l-1.72 4.454c-0.449 1.169-0.845 2.091-0.845 2.335 0 0.27 0.157 0.487 0.476 0.487 1.005 0 5.237-5.699 6.136-6.758 0.662-0.761 1.163-1.875 1.774-2.716 0.157-0.214 0.395-0.271 0.633-0.271 0.344 0 0.662 0.409 0.662 0.732 0 0.465-3.043 7.847-3.043 9.041 0 0.299 0.237 0.461 0.398 0.461 0.9 0 2.195-1.928 2.751-2.742 0.157 0 0.476 0.274 0.476 0.409-0.793 1.466-3.332 4.641-4.999 4.641-0.451 0-0.821-0.487-0.821-1.032 0-0.758 2.038-5.888 2.382-6.945h-0.056c-1.085 1.329-6.929 7.978-8.173 7.978-0.451 0-0.874-0.487-0.874-0.949 0-1.93 3.041-8.008 3.041-8.849 0-0.274-0.237-0.435-0.369-0.435-0.344 0-1.244 0.84-1.507 1.141l-0.424-0.544zM223.869 18.353l0.056 0.056c1.532-2.037 4.285-5.807 6.929-5.807 1.533 0 2.407 1.245 2.407 2.792 0 4.1-6.241 9.747-10.052 9.747-1.032 0-2.407-0.462-2.407-1.767 0-0.623 1.956-6.596 2.25-7.761 0.131-0.518 2.457-8.686 2.457-9.8 0-0.789-0.633-0.95-1.639-1.032l0.056-0.623c1.107-0.135 3.544-0.623 4.019-0.623 0.131 0 0.292 0 0.344 0.11l-4.419 14.709zM229.903 13.956c-1.906 0-7.119 6.216-7.119 8.877 0 0.758 0.822 1.085 1.455 1.085 2.381 0 6.905-6.080 6.905-8.469 0-1.032-0.451-1.494-1.241-1.494zM239.478 8.31c0.213-0.732 0.449-2.008 0.449-2.172 0-0.867-0.874-1.112-1.535-1.22l0.185-0.626c1.325-0.161 3.651-0.758 3.943-0.758 0.106 0 0.157 0.053 0.157 0.161s-0.132 0.597-0.424 1.576l-4.071 14.247c-0.344 1.197-0.717 2.361-0.717 2.961 0 0.353 0.264 0.623 0.612 0.623 0.818 0 1.93-1.519 2.563-2.090h0.106l0.395 0.409v0.079c-0.896 1.302-3.144 3.64-4.786 3.64-0.608 0-1.138-0.518-1.138-1.197 0-0.136 0.16-0.758 0.37-1.6l3.89-14.034zM243.050 15.232c0.449-0.87 2.513-2.607 3.544-2.634 0.874 0 1.325 0.409 1.325 1.276 0 0.897-3.043 8.008-3.043 8.821 0 0.302 0.263 0.545 0.661 0.545 0.846 0 2.118-1.873 2.726-2.47 0.106 0 0.474 0.296 0.474 0.406-0.899 1.437-2.962 3.962-4.761 3.962-0.793 0-1.35-0.353-1.35-1.224 0-1.084 3.043-7.759 3.043-8.927 0-0.301-0.157-0.487-0.449-0.487-0.451 0-1.219 0.675-1.614 1.137l-0.557-0.406zM248.156 5.217c0.687 0 1.242 0.54 1.242 1.249 0 0.703-0.557 1.272-1.244 1.272s-1.217-0.57-1.217-1.272c0-0.71 0.53-1.249 1.217-1.249zM255.245 12.6c0.793 0 2.118 0.27 2.118 1.329 0 0.57-0.398 1.088-0.849 1.088-0.845 0-0.818-1.359-2.116-1.359-0.846 0-1.639 0.95-1.639 1.739 0 1.219 3.492 3.826 3.492 5.426 0 2.010-2.381 4.317-4.366 4.317-1.244 0-2.381-0.191-2.381-1.711 0-0.543 0.449-0.974 0.899-0.974 0.849 0 0.874 1.11 2.275 1.11 0.9 0 1.72-0.762 1.72-1.709 0-1.358-3.175-3.748-3.175-4.998 0-2.251 1.799-4.259 4.022-4.259zM261.857 19.005l0.051 0.051c1.377-2.034 4.235-6.458 7.037-6.458 1.747 0 2.17 1.441 2.17 2.961 0 2.797-2.991 9.581-6.216 9.581-0.476 0-1.137-0.327-1.137-0.893 0-0.654 0.344-1.28 0.979-1.28 0.209 0 0.395 0.083 0.582 0.192 0.184 0.109 0.37 0.217 0.582 0.217 1.693 0 3.094-6.162 3.094-7.573 0-0.787-0.186-1.575-1.113-1.575-1.93 0-4.362 3.826-6.055 6.678-1.192 2.008-1.376 3.144-1.774 3.962-0.106 0.214-0.344 0.271-0.557 0.271-0.237 0-0.87-0.245-0.87-0.705 0-0.626 2.987-9.934 3.409-11.617 0.216-0.815 1.59-5.971 1.59-6.706 0-0.893-0.476-1.030-1.642-1.167l0.16-0.623c0.925-0.191 1.877-0.273 2.777-0.57 0.344-0.109 0.687-0.217 1.030-0.217 0.134 0 0.397 0.026 0.397 0.191 0 0.298-1.796 6.515-2.194 7.791l-2.301 7.489zM280.508 12.6c1.507 0 3.016 0.462 3.016 2.251 0 3.149-5.053 4.046-7.379 4.154-0.081 0.623-0.213 1.223-0.213 1.846 0 1.411 0.74 2.713 2.247 2.713 1.35 0 2.198-0.544 3.149-1.547 0.135 0.028 0.449 0.218 0.504 0.462-1.060 1.656-2.648 2.66-4.55 2.66-2.461 0-3.466-1.82-3.466-4.1 0-3.581 2.749-8.44 6.692-8.44zM280.402 13.358c-2.143 0-3.544 3.204-4.075 5.023 1.85-0.164 5.343-1.005 5.343-3.556 0-0.814-0.394-1.466-1.267-1.466zM289.792 14.744c0 0.705-0.211 1.846-0.529 3.122h0.054c0.925-1.603 2.936-5.265 4.417-5.265 0.687 0 1.455 0.431 1.455 1.219 0 0.815-0.53 1.302-1.35 1.302-0.248-0.010-0.47-0.111-0.636-0.27l0 0c-0.186-0.166-0.319-0.353-0.449-0.353-0.875 0-3.015 4.533-3.599 5.919-0.395 0.922-1.426 4.723-2.169 4.723-0.344 0-1.082-0.164-1.082-0.543 0-0.218 0.662-2.038 1.35-4.238 0.501-1.601 1.002-3.2 1.002-4.097 0-0.626-0.102-1.493-1.057-1.493-0.529 0-1.191 1.031-1.53 1.601-0.213-0.104-0.397-0.23-0.558-0.38l0.001 0.001c0.501-1.114 1.824-3.392 3.094-3.392 1.137 0 1.586 1.276 1.586 2.143zM300.797 12.6c0.793 0 2.118 0.27 2.118 1.329 0 0.57-0.398 1.088-0.849 1.088-0.845 0-0.819-1.359-2.118-1.359-0.845 0-1.638 0.95-1.638 1.739 0 1.219 3.492 3.826 3.492 5.426 0 2.010-2.381 4.317-4.367 4.317-1.242 0-2.379-0.191-2.379-1.711 0-0.543 0.449-0.974 0.899-0.974 0.849 0 0.874 1.11 2.275 1.11 0.9 0 1.718-0.762 1.718-1.709 0-1.358-3.174-3.748-3.174-4.998 0-2.251 1.799-4.259 4.022-4.259z"></path>
</symbol>
<symbol id="icon-bluetooth" viewBox="0 0 133 32">
<title>bluetooth</title>
<path fill="#202020" style="fill: var(--color2, #202020)" d="M32.842 17.644h1.255c2.325 0 3.204 1.167 3.204 3.5 0 2.302-0.754 3.501-2.827 3.501h-1.633v-7.001zM32.842 8.31h1.476c1.727 0 2.542 1.103 2.542 3.216 0 1.892-1.131 2.901-2.606 2.901h-1.412v-6.117zM28.947 27.861h6.156c4.428 0 6.093-2.838 6.093-6.592 0-2.932-1.162-4.508-3.14-5.391 1.884-0.756 2.701-2.807 2.701-4.762 0-3.877-1.853-6.022-6.031-6.022h-5.78v22.767zM46.254 27.861v-22.767h-3.518v22.767zM55.673 10.896v13.307c-0.817 0.599-1.508 1.072-2.261 1.072s-1.256-0.378-1.256-1.228v-13.15h-3.517v13.718c0 2.206 1.099 3.563 2.952 3.563 2.042 0 2.795-0.756 4.272-2.018v1.703h3.329v-16.966h-3.518zM64.869 17.14v-0.884c0-1.956 0.691-2.775 1.947-2.775s1.948 0.82 1.948 2.775v0.884h-3.894zM72.281 16.887c0-3.721-1.444-6.307-5.465-6.307s-5.465 2.587-5.465 6.307v4.982c0 3.722 1.445 6.307 5.465 6.307 3.926 0 5.403-2.46 5.465-6.055h-3.516v0.379c0 1.956-0.691 2.775-1.947 2.775s-1.947-0.82-1.947-2.775v-2.46h7.412v-3.153zM75.384 13.796v10.564c0 2.587 1.476 3.815 4.114 3.815 0.879 0 1.289-0.062 1.759-0.189v-3.028h-1.163c-0.817 0-1.193-0.504-1.193-1.387v-9.777h2.356v-2.901h-2.356v-4.57h-3.518v4.572h-1.947v2.901h1.947zM90.138 22.5c0 1.956-0.691 2.775-1.947 2.775s-1.948-0.82-1.948-2.775v-6.244c0-1.956 0.692-2.775 1.948-2.775s1.947 0.82 1.947 2.775v6.244zM82.724 21.869c0 3.722 1.444 6.307 5.466 6.307 4.019 0 5.464-2.586 5.464-6.307v-4.982c0-3.721-1.444-6.307-5.464-6.307s-5.466 2.587-5.466 6.307v4.982zM102.914 22.5c0 1.956-0.692 2.775-1.948 2.775-1.255 0-1.947-0.82-1.947-2.775v-6.244c0-1.956 0.692-2.775 1.947-2.775 1.257 0 1.948 0.82 1.948 2.775v6.244zM95.5 21.869c0 3.722 1.446 6.307 5.465 6.307 4.020 0 5.466-2.586 5.466-6.307v-4.982c0-3.721-1.444-6.307-5.466-6.307-4.018 0-5.464 2.587-5.464 6.307v4.982zM109.44 13.796v10.564c0 2.587 1.476 3.815 4.113 3.815 0.88 0 1.289-0.062 1.76-0.189v-3.028h-1.163c-0.816 0-1.191-0.504-1.191-1.387v-9.777h2.354v-2.901h-2.355v-4.57h-3.518v4.572h-1.948v2.901h1.948zM121.022 27.861v-13.308c0.816-0.599 1.508-1.072 2.26-1.072s1.257 0.378 1.257 1.229v13.15h3.517v-13.717c0-2.207-1.1-3.564-2.953-3.564-2.041 0-2.796 0.756-4.083 1.892v-7.38h-3.517v22.767h3.517z"></path>
<path fill="#5f5f5f" style="fill: var(--color1, #5f5f5f)" d="M13.124 7.834l2.597 2.608-2.596 2.605-0.002-5.213zM13.124 23.798l2.597-2.607-2.596-2.606-0.002 5.213zM10.35 15.816l-5.616-5.652 1.628-1.634 4.473 4.493v-10.768l8.135 8.168-5.372 5.393 5.373 5.395-8.136 8.167v-10.768l-4.475 4.492-1.628-1.635 5.616-5.652zM11.854 31.588c6.86 0 11.587-3.271 11.587-15.772s-4.726-15.772-11.587-15.772c-6.859 0.001-11.588 3.273-11.588 15.772s4.729 15.772 11.588 15.772z"></path>
<path fill="#202020" style="fill: var(--color2, #202020)" d="M133.068 7.532c0 1.348-1.142 2.484-2.485 2.484-1.403 0-2.474-1.088-2.474-2.484 0-0.001 0-0.003 0-0.004 0-1.367 1.107-2.476 2.474-2.479h0c1.401 0 2.485 1.076 2.485 2.484zM128.661 7.508c0 1.064 0.86 1.987 1.921 1.987 1.071 0 1.92-0.875 1.92-1.94 0-1.076-0.849-1.987-1.92-1.987-1.060 0-1.921 0.875-1.921 1.94zM131.043 8.88l-0.756-1.206h-0.036v1.206h-0.471v-2.732h0.825c0.649 0 0.907 0.272 0.907 0.685 0 0.461-0.283 0.746-0.718 0.792 0.059 0.071 0.165 0.226 0.271 0.391l0.565 0.862h-0.588v0.001zM130.557 6.527h-0.305v0.839h0.188c0.436 0 0.578-0.249 0.578-0.474 0-0.259-0.116-0.365-0.46-0.365z"></path>
</symbol>
<symbol id="icon-pbs" viewBox="0 0 57 32">
<title>pbs</title>
<path fill="#202020" style="fill: var(--color2, #202020)" d="M31.807 15.886c0 8.639-7.003 15.643-15.643 15.643s-15.643-7.003-15.643-15.643c0-8.639 7.003-15.643 15.643-15.643s15.643 7.003 15.643 15.643z"></path>
<path fill="#c8c8c8" style="fill: var(--color5, #c8c8c8)" d="M17.767 7.169h-4.725c-3.884 0-7.061 2.715-7.061 6.734 0 3.368 2.037 5.784 5.078 6.246v4.699h6.3v-4.508h0.869c1.032-0.109 1.71-0.787 1.738-1.738v-2.607h1.711l-3.911-8.826zM16.517 14.746c-0.841 0-1.547-0.706-1.547-1.548s0.706-1.548 1.548-1.548 1.548 0.706 1.548 1.548c0 0.005 0 0.012 0 0.018 0 0.845-0.685 1.53-1.53 1.53-0.006 0-0.013-0-0.019-0h0.001zM23.063 7.169h-2.553l3.856 8.827h-1.765v2.335c0 1.412-0.598 2.037-2.526 2.009v4.508h2.526v-4.508h0.842c0.733 0.027 1.738-0.57 1.738-1.738v-2.607h1.711l-3.829-8.826z"></path>
<path fill="#202020" style="fill: var(--color2, #202020)" d="M36.805 13.008h-1.087v-1.358h3.612c1.955 0 3.068 1.005 3.068 2.58 0 1.602-1.168 2.607-3.014 2.607h-0.978v2.037h1.276v1.358h-3.965v-1.358h1.114v-5.866h-0.027zM38.407 15.479h1.060c0.896 0 1.385-0.571 1.385-1.249 0-0.706-0.516-1.249-1.385-1.249h-1.060v2.498zM43.947 13.008h-0.977v-1.358h3.449c2.146 0 2.824 1.276 2.824 2.227 0 0.788-0.435 1.439-1.032 1.738 0.869 0.353 1.358 1.249 1.358 2.037 0 1.874-1.467 2.634-2.879 2.634h-3.829v-1.358h1.113v-5.92h-0.027zM45.522 18.901h1.005c0.815 0 1.385-0.461 1.385-1.222 0-0.652-0.435-1.222-1.385-1.222h-1.005v2.444zM45.522 15.099h0.95c0.706 0 1.195-0.407 1.195-1.059 0-0.624-0.462-1.032-1.195-1.032h-0.95v2.091zM54.62 12.981c-0.272-0.109-0.652-0.217-1.032-0.217-1.059 0-1.385 0.598-1.385 1.087 0 0.624 0.408 0.815 0.896 0.95l0.924 0.244c1.113 0.326 2.363 0.734 2.363 2.498 0 1.63-0.978 2.797-3.151 2.797-0.842 0-1.711-0.109-2.716-0.461v-2.255h1.576v1.113c0.407 0.19 0.841 0.217 1.276 0.217 0.924 0 1.358-0.489 1.358-1.141 0-0.435-0.217-0.761-1.25-1.059l-0.842-0.245c-1.576-0.461-2.091-1.141-2.091-2.444 0-1.358 0.842-2.553 2.987-2.553 0.924 0 1.847 0.163 2.498 0.462v2.037h-1.439v-1.032h0.027z"></path>
</symbol>
<symbol id="icon-mns" viewBox="0 0 54 32">
<title>mns</title>
<path d="M53.778 4.624l-1.626 0.591c-0.646-2.057-2.467-3.381-4.936-3.381-2.691 0-4.457 1.352-4.457 3.635 0 4.904 11.158 2.31 11.158 9.214 0 3.298-2.635 5.608-6.559 5.608-3.645 0-5.83-1.747-7.344-4.536l1.513-0.929c1.008 2.141 2.857 3.804 5.662 3.804 3.251 0 4.934-1.493 4.934-3.974 0-4.932-11.159-2.508-11.159-9.215 0-3.974 3.561-5.271 6.196-5.271 2.97 0 5.664 1.353 6.616 4.454zM26.332 4.681c0 1.098 0.728 2.028 2.328 3.747 1.878-1.1 2.916-2.255 2.916-3.748 0-1.466-0.983-2.621-2.664-2.621-1.57 0-2.58 1.24-2.58 2.621zM28.21 10.513c-2.55 1.409-3.672 2.536-3.672 4.283 0 2.001 1.793 3.664 4.092 3.664 2.076 0 3.14-0.958 4.289-2.817l-4.709-5.129zM37.293 20.375l-3.252-3.494c-1.176 1.861-2.776 3.213-5.41 3.213-3.391 0-5.887-2.366-5.887-5.269 0-2.424 1.486-3.917 4.348-5.552-1.627-1.633-2.525-2.987-2.525-4.592 0-2.338 1.963-4.199 4.346-4.199 2.524 0 4.401 1.86 4.401 4.199 0 2.254-1.766 3.775-3.531 4.931l4.036 4.424 2.384-3.888 1.429 0.901-2.636 4.311 3.617 3.861-1.318 1.154zM18.259 0.425v19.669h-1.794v-16.061l-6.446 12.568h-1.262l-6.449-12.541v16.035h-1.793v-19.669h1.878l7.007 13.582 7.009-13.582h1.851zM13.362 29.608h1.906v-0.514h-1.906v-1.269h2.044v-0.515h-2.577v4.115h2.693v-0.515h-2.16zM18.267 29.082l-0.024-0.008c-0.58-0.167-0.908-0.28-0.908-0.669 0-0.381 0.32-0.625 0.816-0.625 0.413 0 0.717 0.169 0.859 0.479l0.056 0.124 0.437-0.256-0.041-0.099c-0.29-0.703-1.060-0.758-1.291-0.758-0.503 0-1.353 0.241-1.353 1.141 0 0.789 0.701 0.996 1.32 1.18 0.611 0.179 0.954 0.3 0.954 0.704 0 0.423-0.362 0.698-0.924 0.698-0.516 0-0.893-0.225-1.097-0.653l-0.058-0.124-0.448 0.267 0.052 0.104c0.287 0.589 0.832 0.914 1.535 0.914 0.855 0 1.452-0.505 1.452-1.229 0-0.806-0.74-1.019-1.336-1.19zM20.537 27.824h1.246v3.6h0.535v-3.6h1.246v-0.515h-3.027zM28.017 27.989h0.613v3.435h0.527l0.007-3.949h-1.136zM39.44 29.982l1.28-1.782v1.782h-1.28zM40.937 27.475h-0.299l-1.912 2.663v0.358h1.993v0.929h0.518v-0.929h0.506v-0.447l-0.506-0.050v-2.523h-0.301zM32.13 31.028c-0.493 0-0.877-0.243-0.877-0.748 0-0.478 0.419-0.715 0.877-0.715 0.457 0 0.873 0.237 0.873 0.715 0 0.505-0.383 0.748-0.873 0.748zM31.357 28.503c0-0.42 0.276-0.664 0.774-0.664 0.494 0 0.773 0.244 0.773 0.664s-0.385 0.631-0.773 0.631c-0.42 0-0.774-0.24-0.774-0.631zM32.852 29.343c0.344-0.187 0.542-0.471 0.542-0.87 0-0.709-0.57-1.067-1.264-1.067-0.696 0-1.267 0.358-1.267 1.067 0 0.399 0.198 0.683 0.538 0.87-0.361 0.169-0.661 0.466-0.661 0.93 0 0.705 0.503 1.186 1.39 1.186 0.886 0 1.389-0.498 1.389-1.186 0-0.464-0.301-0.761-0.667-0.93zM36.039 31.028c-0.493 0-0.877-0.243-0.877-0.748 0-0.478 0.418-0.715 0.877-0.715s0.877 0.237 0.877 0.715c0 0.505-0.385 0.748-0.877 0.748zM35.265 28.503c0-0.42 0.277-0.664 0.774-0.664s0.774 0.244 0.774 0.664c0 0.42-0.385 0.631-0.774 0.631-0.419 0-0.774-0.24-0.774-0.631zM36.761 29.343c0.344-0.187 0.543-0.471 0.543-0.87 0-0.709-0.571-1.067-1.265-1.067-0.696 0-1.266 0.358-1.266 1.067 0 0.399 0.198 0.683 0.537 0.87-0.361 0.169-0.661 0.466-0.661 0.93 0 0.705 0.502 1.186 1.39 1.186 0.886 0 1.39-0.498 1.39-1.186 0-0.464-0.301-0.761-0.668-0.93z"></path>
</symbol>
<symbol id="icon-aeromexico" viewBox="0 0 177 32">
<title>aeromexico</title>
<path fill="#353535" style="fill: var(--color7, #353535)" d="M28.158 9.679c0.637 0.006 1.074 0.199 1.428 0.367 0.738 0.349 1.601 0.751 2.683 1.27 0 0.005 1.749-1.239 1.841-1.301 0.593-0.407 1.165-0.099 1.35 0.25 0.652 1.229 1.854 3.779 2.488 6.112 0.075 0.281-0.014 0.718-0.453 0.848-0.252 0.074-0.686 0.136-1.142 0.194-0.632 0.080-0.62 0.589-0.62 0.899 0 0.381 0.005 2.96 0.005 3.84 0.015 0.541-0.399 2.307-2.441 2.305l-4.657-0.002c-1.76 0.009-3.177-1.48-3.186-3.064-0.002-1.042-0.001-8.293 0.002-9.106 0.007-1.571 1.416-2.627 2.7-2.612z"></path>
<path fill="#353535" style="fill: var(--color7, #353535)" d="M20.792 24.463h-15.142v1.683h17.767s0.641-1.489 0.641-3.132l0.006-11.419c0-0.9 0.367-2.419 2.215-2.822l0.156-0.034c5.246-1.239 10.651-0.111 13.696 1.205 0.551 0.265 0.677-0.174 0.659-0.359 0.066-2.567-1.885-5.491-5.473-5.667-2.914-0.068-4.53 0.98-5.125 1.271-0.045 0.022-0.12 0.011-0.186-0.063-0.537-0.532-1.685-1.325-2.975-1.694-0.192-0.043-0.211-0.326 0.013-0.35 2.757-0.297 5.172 0.015 6.179 0.18 0.232 0.037 0.404-0.098 0.313-0.313-0.069-0.161-0.128-0.238-0.245-0.489-0.245-0.526-0.895-1.087-1.721-1.317-2.166-0.603-5.859-1.123-9.149-1.143-3.703-0.023-7.605 0.718-8.591 0.937-0.236 0.053-0.569 0.136-0.627 0.149-0.27 0.053-0.333 0.308-0.217 0.436 0.074 0.082 0.277 0.252 0.374 0.371 0.123 0.154 0.179 0.37-0.054 0.596l-6.845 6.152h4.684l0.054-0.005c0.304-0.006 0.592 0.27 0.593 0.621 0.002 0.316-0.251 0.613-0.571 0.613l-0.041 0.003h-6.085l-1.861 1.692 8.011-0.003c0.313 0.002 0.556 0.328 0.553 0.622-0.004 0.273-0.234 0.607-0.553 0.607l-0.048 0.002h-9.328l-1.866 1.685 16.145 0.003c0.317 0 0.562 0.326 0.566 0.609 0.005 0.331-0.228 0.63-0.553 0.627h-16.161v1.679l16.129 0.005c0.369 0 0.582 0.334 0.581 0.641-0.001 0.279-0.27 0.579-0.589 0.579h-16.121v1.696h21.044c0.349 0.009 0.573 0.309 0.562 0.635-0.008 0.285-0.245 0.59-0.562 0.59l-0.043-0.002h-15.348v1.691h15.455c0.285 0 0.53 0.353 0.53 0.638s-0.25 0.593-0.535 0.593h-0.313zM11.303 30.278l-0.003 1.719s2.276 0.008 3.572 0c3.198-0.018 5.296-1.719 5.296-1.719h-8.865zM11.303 27.378l-0.003 1.685h10.277c0.475-0.478 1.086-1.359 1.245-1.683l-11.519-0.002zM177.050 16.97c-0.002-0.034-0.007-0.062-0.009-0.091-0.056-1.269-0.461-2.434-1.12-3.412l0.015 0.024c-1.273-1.998-3.507-3.074-6.195-3.042-2.688-0.033-4.923 1.044-6.197 3.042-0.644 0.955-1.049 2.119-1.104 3.375l-0 0.014c-0.003 0.030-0.007 0.058-0.009 0.091-0.366 4.385 2.188 7.418 6.544 7.767 0.261 0.021 0.516 0.030 0.767 0.026 0.031 0 0.068 0.001 0.105 0.001 0.232 0 0.461-0.010 0.688-0.030l-0.029 0.002c4.358-0.349 6.913-3.382 6.546-7.766zM170.076 22.678c-0.115 0.009-0.228 0.013-0.336 0.015-0.122-0.002-0.239-0.007-0.356-0.017l0.019 0.001c-0.613-0.054-1.164-0.287-1.609-0.644l0.006 0.005c-0.139-0.117-0.265-0.24-0.382-0.371l-0.003-0.004c-0.669-0.757-1.033-2.043-1.118-3.061-0.198-2.37 0.279-5.833 3.19-6.066 0.062-0.005 0.139-0.009 0.215-0.011l0.004-0h0.069c0.072 0.001 0.145 0.005 0.219 0.011 2.911 0.233 3.386 3.697 3.189 6.066-0.086 1.019-0.411 2.28-1.119 3.062-0.126 0.14-0.254 0.265-0.383 0.373-0.462 0.353-1.007 0.592-1.604 0.64zM148.086 13.706c0-1.085 0.107-2.992 0.107-2.992h-3.577s0.108 1.906 0.108 2.992l-0.008 7.814c0 1.084-0.098 2.934-0.098 2.934h3.575s-0.1-1.85-0.1-2.934l-0.007-7.814zM127.224 22.328c-0.747 0-1.728 0-2.484 0.002-0.029-1.133-0.049-2.508-0.054-3.887l-0-0.038-0.003-0.188h0.002v-0.033h4.125v-1.943h-4.121c0.012-2.093 0.051-3.466 0.051-3.466l5.122-0.005v-2.059c-3.579 0.013-8.748 0-8.748 0s0.077 1.896 0.077 2.981v7.799c0 0.992-0.063 2.676-0.073 2.957h9.078l0.008-2.18s-1.788 0.059-2.981 0.059zM67.686 22.328c-0.746 0-1.728 0-2.483 0.002-0.029-1.133-0.049-2.508-0.054-3.887l-0-0.038-0.003-0.186h0.003v-0.034h4.124v-1.943h-4.121c0.012-2.091 0.051-3.466 0.051-3.466l5.12-0.004v-2.059c-3.578 0.012-8.747 0-8.747 0s0.077 1.895 0.077 2.98v7.799c0 0.992-0.062 2.678-0.072 2.957h9.080l0.005-2.18s-1.787 0.059-2.98 0.059zM138.912 17.062l3.941-6.345h-2.73l-0.022 0.058c-0.827 1.43-1.856 3.157-2.265 3.788l-0.159 0.256-2.284-4.102h-4.107l3.959 7.103-4.126 6.632h2.715c1.76-3.006 2.664-4.39 2.664-4.39l2.45 4.391h4.089l-4.126-7.391zM159.225 22.583c-3.177 0-4.89-2.336-4.803-5.211 0.074-2.504 1.221-4.634 3.948-4.817 1.045-0.070 1.897 0.111 3.363 0.506l-0.149-2.147s-1.241-0.396-3.022-0.464c-2.263-0.086-4.312 0.351-5.948 1.856-1.453 1.338-2.324 3.316-2.324 5.235 0 2.126 0.873 4.086 2.516 5.441 1.705 1.438 3.536 1.762 5.71 1.762 1.429 0 2.269-0.095 3.654-0.468l-0.207-2.108c-0.295 0.101-1.297 0.418-2.74 0.418zM113.35 8.656l3.981-0.002 0.111 0.917c0.889 9.178 1.435 14.886 1.435 14.886h-4.143l-0.41-5.687-0.381-5.079-3.509 10.759c-0.928 0.004-2.217 0-2.217 0s-1.113-3.823-1.314-4.358l-2.011-6.452s-0.31 3.592-0.429 5.13c-0.242 3.081-0.457 5.687-0.457 5.687h-3.091s1.265-12.848 1.359-13.631c0.095-0.806 0.248-2.171 0.248-2.171h4.063l3.37 9.253 3.395-9.252zM99.246 16.986l-0.010-0.091c-0.055-1.263-0.458-2.423-1.115-3.396l0.015 0.023c-1.268-1.988-3.492-3.061-6.168-3.028-2.676-0.034-4.902 1.040-6.17 3.028-0.642 0.951-1.045 2.11-1.099 3.359l-0.001 0.014c-0.002 0.032-0.006 0.060-0.009 0.091-0.364 4.365 2.18 7.386 6.518 7.733 0.257 0.021 0.512 0.028 0.761 0.027 0.249 0.001 0.502-0.006 0.761-0.027 4.336-0.347 6.88-3.368 6.516-7.733zM92.304 22.671c-0.097 0.008-0.214 0.013-0.332 0.014l-0.004 0c-0.119-0-0.236-0.006-0.352-0.016l0.016 0.001c-0.61-0.055-1.158-0.286-1.602-0.641l0.006 0.005c-0.139-0.117-0.264-0.239-0.38-0.37l-0.003-0.004c-0.666-0.752-1.028-2.034-1.113-3.049-0.198-2.358 0.276-5.808 3.175-6.039 0.075-0.005 0.147-0.009 0.219-0.011h0.068c0.071 0.002 0.144 0.005 0.217 0.011 2.899 0.232 3.372 3.68 3.176 6.039-0.084 1.015-0.409 2.27-1.113 3.049-0.127 0.14-0.254 0.263-0.383 0.373-0.459 0.351-1.002 0.588-1.596 0.636zM60.715 24.449c-0.12-0.283-0.858-2.024-1.399-3.431l-4.642-12.364h-3.613s-1.031 2.897-1.179 3.377l-3.389 9.586c-0.443 1.226-1.057 2.836-1.057 2.836h2.948s0.835-2.667 1.008-3.147l0.453-1.334h5.115l0.697 2.029c0.146 0.381 0.752 2.417 0.761 2.447h4.298zM50.593 17.723l1.721-5.115 0.1-0.299 1.799 5.413h-3.62zM84.872 24.454c-0.854-1.228-1.169-1.734-1.824-2.636l-2.464-3.828c1.185-0.581 2.298-1.564 2.467-3.614 0.105-1.283-0.582-2.348-0.99-2.712-0.592-0.525-1.171-0.738-1.991-0.837-0.654-0.087-1.13-0.092-1.525-0.118h-5.801s0.070 1.9 0.070 2.984v7.77c0 1.084-0.070 2.985-0.070 2.985h3.57s-0.107-1.901-0.107-2.985l0.025-2.493 1.323 0.005 2.259 4.137c0.305 0.527 0.74 1.186 0.844 1.341h4.215zM78.563 16.782c-0.535 0.278-1.736 0.199-2.332 0.164l0.046-3.926 0.335-0.023c1.093-0.088 1.892 0.063 2.22 0.208 0.489 0.216 0.779 0.68 0.805 1.452 0.040 1.158-0.4 1.775-1.074 2.124z"></path>
</symbol>
<symbol id="icon-mazda" viewBox="0 0 187 32">
<title>mazda</title>
<path fill="#747474" style="fill: var(--color8, #747474)" d="M128.105 23.69h11.068s4.836-0.033 4.836-7.628c0-7.744-4.837-7.755-4.837-7.755h-11.067v15.384zM59.067 18.513c-1.177 0-2.132 1.090-2.132 2.436s0.954 2.436 2.132 2.436l12.906-0.002v-4.868l-12.906-0.002zM164.098 18.513c-1.178 0-2.132 1.091-2.132 2.436s0.955 2.436 2.132 2.436l12.905-0.002v-4.868l-12.906-0.002zM159.591 12.223h17.599c0.003-1.715-0.116-4.43-4.135-4.432-4.153-0.002-18.052 0-18.052 0v-7.732s13.419 0.004 22 0.002c5.358-0.001 9.592 2.183 9.593 8.585l-0.004 23.17-26.634 0.020c-3.568 0-6.568-3.141-7.41-7.387-2.399 7.366-8.199 7.363-12.686 7.352l-21.689 0v-24.876l-30.518 24.89-32.728 0.020c-2.963 0-5.535-2.167-6.803-5.334l-0.005 5.314h-9.426v-20.44s-0.022-2.723-2.922-2.729h-6.969v23.169h-9.325v-23.169h-9.778v23.169h-9.666l0.015-31.757 39.348-0.001c4.343 0 8.739 2.852 8.739 8.589l-0.003 8.878c1.27-3.156 3.834-5.314 6.791-5.314l-0.36 0.011h17.599c0.002-1.715-0.116-4.43-4.136-4.432-4.152-0.002-18.051 0-18.051 0v-7.732s13.419 0.004 22 0.002c5.358-0.001 9.592 2.183 9.593 8.585l-0.003 15.936 30.817-24.522h27.557c5.726 0 13.725 0 13.725 15.832l-0.003 0.57c1.378-2.566 3.683-4.249 6.294-4.249l-0.36 0.011zM84.942 0.058h21.996l-9.74 8.588h-12.262l0.006-8.588zM115.316 31.791h-21.996l9.741-8.588h12.262l-0.006 8.588z"></path>
</symbol>
</defs>
</svg>
