<!-- Generated by IcoMoon.io -->
<svg version="1.1" xmlns="http://www.w3.org/2000/svg" width="196" height="32" viewBox="0 0 196 32">
<title>vmware</title>
<path fill="#5f5f5f" d="M85.095 28.346l-8.479-23.61c-0.108-0.326-0.27-0.757-0.27-1.135 0-1.023 0.865-1.995 2.103-1.995 1.081 0 1.786 0.702 2.108 1.725l7.026 20.345 7.076-20.401c0.323-0.968 0.972-1.67 2.046-1.67h0.219c1.137 0 1.839 0.702 2.161 1.67l7.018 20.401 7.137-20.452c0.27-0.868 0.859-1.619 1.997-1.619 1.187 0 2.053 0.914 2.053 1.942 0 0.377-0.164 0.806-0.27 1.135l-8.533 23.665c-0.436 1.236-1.297 1.885-2.271 1.885h-0.161c-1.081 0-1.893-0.649-2.274-1.885l-6.964-20.063-7.025 20.063c-0.378 1.236-1.191 1.885-2.268 1.885h-0.114c-1.023 0-1.884-0.649-2.319-1.885z"></path>
<path fill="#5f5f5f" d="M146.901 3.663c0-1.139 0.919-2.112 2.053-2.112 1.196 0 2.112 0.92 2.112 2.112v4.791c2.054-4.653 6.61-6.849 9.63-6.849 1.25 0 2.062 0.919 2.062 2.108 0 1.138-0.754 1.946-1.845 2.108-5.413 0.649-9.845 4.71-9.845 12.774v9.488c0 1.137-0.865 2.108-2.054 2.108-1.191 0-2.111-0.924-2.111-2.108l-0.001-24.421z"></path>
<path fill="#5f5f5f" d="M176.126 30.455c-7.532 0-13.681-5.841-13.681-14.408v-0.111c0-7.978 5.569-14.405 13.151-14.405 8.107 0 12.724 6.689 12.724 14.030 0 1.128-0.91 1.934-1.911 1.934h-19.822c0.578 5.994 4.764 9.366 9.648 9.366 3.395 0 5.879-1.339 7.897-3.214 0.319-0.265 0.689-0.479 1.169-0.479 1.004 0 1.803 0.804 1.803 1.772 0 0.48-0.212 0.964-0.641 1.334-2.595 2.515-5.674 4.181-10.335 4.181zM184.237 14.441c-0.426-5.039-3.29-9.426-8.752-9.426-4.772 0-8.377 4.014-8.901 9.426h17.653z"></path>
<path fill="#5f5f5f" d="M117.366 21.785v-0.108c0-5.879 4.857-9.012 11.921-9.012 3.563 0 6.097 0.485 8.583 1.191v-0.975c0-5.013-3.084-7.606-8.311-7.606-2.806 0-4.44 0.357-6.494 1.272-0.266 0.108-0.538 0.164-0.748 0.164-0.972 0-1.839-0.812-1.839-1.781 0-0.861 0.375-1.394 1.135-1.73 2.747-1.192 4.818-1.588 8.377-1.588 3.935 0 6.957 1.022 9.004 3.074 1.892 1.888 2.863 4.585 2.863 8.147v15.391c0 1.183-0.863 2.049-2.003 2.049-1.182 0-1.983-0.865-1.983-1.942v-2.661c-1.946 2.541-5.186 4.803-10.085 4.803-5.182-0.004-10.421-2.968-10.421-8.686zM137.924 19.626v-2.698c-2.054-0.592-4.809-1.187-8.205-1.187-5.226 0-8.143 2.268-8.143 5.772v0.107c0 3.506 3.234 5.556 7.014 5.556 5.123 0 9.334-3.13 9.334-7.55z"></path>
<path fill="#5f5f5f" d="M9.521 3.356c-0.914-2.003-3.172-2.91-5.28-1.973-2.111 0.938-2.888 3.279-1.934 5.283l8.853 19.243c1.392 3.015 2.859 4.596 5.613 4.596 2.942 0 4.225-1.721 5.615-4.596 0 0 7.721-16.813 7.799-16.988 0.079-0.178 0.326-0.721 1.112-0.716 0.665 0.004 1.223 0.534 1.223 1.246v16.441c0 2.534 1.405 4.613 4.11 4.613 2.702 0 4.163-2.079 4.163-4.613v-13.454c0-2.595 1.859-4.279 4.394-4.279s4.221 1.745 4.221 4.279v13.454c0 2.534 1.41 4.613 4.11 4.613 2.702 0 4.17-2.079 4.17-4.613v-13.454c0-2.595 1.852-4.279 4.387-4.279 2.53 0 4.223 1.745 4.223 4.279v13.454c0 2.534 1.409 4.613 4.111 4.613 2.701 0 4.166-2.079 4.166-4.613v-15.312c0-5.627-4.525-9.569-9.97-9.569-5.439 0-8.845 3.763-8.845 3.763-1.81-2.347-4.306-3.757-8.529-3.757-4.457 0-8.357 3.757-8.357 3.757-1.812-2.347-4.895-3.757-7.449-3.757-3.95 0-7.086 1.737-9 6.112l-5.653 13.325-7.252-17.097z"></path>
<path fill="#5f5f5f" d="M188.657 5.023v-0.023c0-1.883 1.528-3.468 3.448-3.468 1.947 0 3.454 1.569 3.454 3.454v0.014c0 1.889-1.524 3.475-3.454 3.475-1.947 0-3.448-1.564-3.448-3.452zM194.895 5v-0.009c0-1.548-1.196-2.818-2.791-2.818-1.581 0-2.795 1.292-2.795 2.827v0.018c0 1.545 1.2 2.814 2.795 2.814 1.575 0 2.791-1.289 2.791-2.832z"></path>
<path fill="#5f5f5f" d="M190.785 3.635c0-0.205 0.164-0.369 0.372-0.369h1.151c0.434 0 0.768 0.123 0.975 0.342 0.19 0.185 0.293 0.452 0.293 0.761v0.010c0 0.526-0.266 0.848-0.667 1.017l0.508 0.619c0.071 0.093 0.119 0.169 0.119 0.283 0 0.204-0.173 0.338-0.348 0.338-0.164 0-0.275-0.084-0.361-0.19l-0.716-0.906h-0.587v0.728c0 0.205-0.159 0.366-0.365 0.366-0.208 0-0.372-0.163-0.372-0.366v-2.634zM192.266 4.889c0.359 0 0.556-0.187 0.556-0.472v-0.012c0-0.311-0.212-0.479-0.569-0.479h-0.734v0.961h0.747z"></path>
</svg>
